<?xml version="1.0" encoding="utf-8"?>
<!-- Generator: Adobe Illustrator 19.1.0, SVG Export Plug-In . SVG Version: 6.00 Build 0)  -->
<svg version="1.1" id="Layer_1" xmlns="http://www.w3.org/2000/svg" xmlns:xlink="http://www.w3.org/1999/xlink" x="0px" y="0px"
	 viewBox="0 0 233 233" style="enable-background:new 0 0 233 233;" xml:space="preserve">
<style type="text/css">
	.st0{fill:#4C443D;}
	.st1{display:none;opacity:0.55;fill:#E8DFD9;}
</style>
<symbol  id="BoilerCamp" viewBox="-150 -150 300 300">
	<path class="st0" d="M56,35h-4.9l0.4,8.5c0.3,6.8-5.2,12.5-12,12.5h-0.3c0.5,1.2,0.8,2.6,0.8,4v16c0,5.5-4.5,10-10,10h-60
		c-5.5,0-10-4.5-10-10V60c0-1.4,0.3-2.8,0.8-4h-0.3c-6.8,0-12.3-5.7-12-12.5l0.4-8.5H-56c-5.5,0-10-4.5-10-10v-41
		c0-5.5,4.5-10,10-10h10v-14c0-5.5,4.5-10,10-10h6v-6h-6c-5.5,0-10-4.5-10-10v-10c0-5.5,4.5-10,10-10h72c5.5,0,10,4.5,10,10v10
		c0,5.5-4.5,10-10,10h-6v6h6c5.5,0,10,4.5,10,10v14h10c5.5,0,10,4.5,10,10v41C66,30.5,61.5,35,56,35z M-30-80h-6c-2.2,0-4,1.8-4,4
		v10c0,2.2,1.8,4,4,4h6V-80z M20,80h10c2.2,0,4-1.8,4-4V60c0-2.2-1.8-4-4-4H20V80z M-14,80h28V56h-28V80z M-14,50h28V16h-28V50z
		 M-34,76c0,2.2,1.8,4,4,4h10V56h-10c-2.2,0-4,1.8-4,4V76z M-46-20h-10c-2.2,0-4,1.8-4,4v41c0,2.2,1.8,4,4,4h5.5
		c0.8-3.6,2.3-6.9,4.5-9.7V-20z M-44.3,29c-0.4,1.4-0.6,2.8-0.7,4.2l-0.1,1.8l-0.4,8.7c-0.1,1.7,0.5,3.2,1.7,4.4s2.7,1.8,4.3,1.8
		H-20V16h-7c-1,0-2,0.1-3,0.2c-2.1,0.4-4.2,1.1-6,2.2c-1.5,0.8-2.8,1.9-4,3.1C-42,23.6-43.5,26.1-44.3,29z M-7.4-71L-24-78.4v14.8
		L-7.4-71z M-12.9-62h25.7L0-67.7L-12.9-62z M-12.9-80L0-74.3L12.9-80H-12.9z M24-78.4L7.4-71L24-63.6V-78.4z M24-56h-48v6h48V-56z
		 M36-62c2.2,0,4-1.8,4-4v-10c0-2.2-1.8-4-4-4h-6v18H36z M40-40c0-2.2-1.8-4-4-4h-72c-2.2,0-4,1.8-4,4v53.8c1.3-0.8,2.6-1.5,4-2.1
		c1.9-0.8,3.9-1.3,6-1.5c1-0.1,2-0.2,3-0.2h7V4c0-1.7,1.3-3,3-3c1.7,0,3,1.3,3,3v6h28V4c0-1.7,1.3-3,3-3c1.7,0,3,1.3,3,3v6h7
		c1,0,2,0.1,3,0.2c2.1,0.2,4.1,0.8,6,1.5c1.4,0.6,2.7,1.3,4,2.1V-40z M45,35L45,33.2c-0.1-1.5-0.3-2.9-0.7-4.2
		c-0.8-2.8-2.3-5.4-4.3-7.5c-1.2-1.2-2.5-2.3-4-3.1c-1.8-1-3.8-1.8-6-2.1c-1-0.2-2-0.2-3-0.2h-7v34h19.2c1.7,0,3.3-0.7,4.4-1.8
		c1.2-1.2,1.8-2.8,1.7-4.4L45,35z M60-16c0-2.2-1.8-4-4-4H46v39.3c2.2,2.8,3.7,6.1,4.5,9.7H56c2.2,0,4-1.8,4-4V-16z"/>
	<path class="st0" d="M6,28c0-3.3-2.7-6-6-6s-6,2.7-6,6s2.7,6,6,6S6,31.3,6,28z"/>
	<g>
		<path class="st0" d="M15.1-32.8l-1.8-1.8c-0.7-0.7-1.9-0.7-2.6,0l-7.2,7.2c-0.7,0.7-0.7,1.9,0,2.6l1.8,1.7c0.7,0.7,1.9,0.7,2.6,0
			l7.2-7.2C15.8-30.9,15.8-32,15.1-32.8z"/>
		<path class="st0" d="M-4.2-8.3c-0.7-0.7-0.7-1.9,0-2.6l0.7-0.7c0.7-0.7,0.7-1.9,0-2.6l-1.8-1.7c-0.7-0.7-1.9-0.7-2.6,0l-0.7,0.7
			c-0.7,0.7-1.9,0.7-2.6,0l-1.8-1.8c-0.7-0.7-1.9-0.7-2.6,0l-3.9,3.9c-0.7,0.7-0.7,1.9,0,2.6l6.9,6.9c0.3,0.3,0.8,0.6,1.3,0.6h7.2
			c0.5,0,1-0.2,1.3-0.6l0.3-0.3c0.7-0.7,0.7-1.9,0-2.6L-4.2-8.3z"/>
		<path class="st0" d="M19.5-13.1L15.5-17c-0.7-0.7-1.9-0.7-2.6,0l-1.8,1.8c-0.7,0.7-1.9,0.7-2.6,0l-19.2-19.2
			c-0.7-0.7-1.9-0.7-2.6,0l-1.8,1.8c-0.7,0.7-0.7,1.9,0,2.6L4.2-10.9c0.7,0.7,0.7,1.9,0,2.6L2.4-6.5c-0.7,0.7-0.7,1.9,0,2.6l0.3,0.4
			C3.1-3.2,3.6-3,4.1-3h7.2c0.5,0,1-0.2,1.3-0.6l6.9-6.9C20.2-11.2,20.2-12.4,19.5-13.1z"/>
	</g>
	<path class="st0" d="M0,139c37.1,0,72-14.5,98.3-40.7C124.5,72,139,37.1,139,0s-14.5-72-40.7-98.3C72-124.5,37.1-139,0-139
		s-72,14.5-98.3,40.7C-124.5-72-139-37.1-139,0s14.5,72,40.7,98.3C-72,124.5-37.1,139,0,139 M0,150c-82.8,0-150-67.2-150-150
		S-82.8-150,0-150S150-82.8,150,0S82.8,150,0,150L0,150z"/>
	<g>
		<path class="st0" d="M-100,22l-22.9,7.1l2.7,8.5c1.3,4.1,3.7,6.3,8.1,5c2.1-0.6,3.5-1.8,3.9-4l0.1,0c1.5,3.2,4.1,3.9,7.3,2.9
			c4.8-1.5,5.1-6.1,3.8-10.3L-100,22z M-112,32.3l0.2,0.7c0.5,1.6,0.7,3.3-1.2,3.9c-2.1,0.7-2.8-1.2-3.3-2.8l-0.1-0.4L-112,32.3z
			 M-102.7,29.4l0.2,0.8c0.6,1.8,1.6,4.7-1,5.5c-2.8,0.9-3.4-2.2-4-4.1l-0.2-0.6L-102.7,29.4z"/>
		<path class="st0" d="M-85.1,77.6c6.3-4.5,7.5-12.3,3-18.5c-4.5-6.2-12.2-7.6-18.5-3c-5.9,4.3-6.3,12.4-2.2,18
			C-98.8,79.7-91,81.9-85.1,77.6z M-96.8,61.3c3.4-2.4,7.6-1.7,9.8,1.3c2.2,3,1.5,7.3-1.8,9.7c-2.7,1.9-6.9,1.2-9.1-1.8
			C-100.1,67.5-99.5,63.3-96.8,61.3z"/>
		<path class="st0" d="M-61.5,81.4l-4.9-3.9l-15.1,18.7l4.9,3.9L-61.5,81.4z"/>
		<path class="st0" d="M-47.9,95.9l6.7,3.4l2.4-4.7l-12.3-6.2l-10.8,21.4l5.6,2.8L-47.9,95.9z"/>
		<path class="st0" d="M-27,117.6l0.9-3.9l6.9,1.5l1.2-5.2l-6.9-1.5l0.9-4l7.2,1.6l1.2-5.2l-13.3-3l-5.3,23.4l13.3,3l1.2-5.2
			L-27,117.6z"/>
		<path class="st0" d="M16.2,101.2l-7.8,0.4l-5.4,9.5l-0.1,0l-0.5-9.2l-6.2,0.3l1.3,24l9.3-0.5c4.7-0.3,8.2-2.7,7.9-7.8
			c-0.2-3.3-2.2-6.1-5.6-6.5L16.2,101.2z M3.2,115.1l0.6,0c2-0.1,4.3,0.2,4.5,2.8c0.1,2.6-2.1,3.1-4.2,3.2l-0.6,0L3.2,115.1z"/>
		<path class="st0" d="M47.3,108.3c-0.6,2-2.3,3.6-4.3,4.3c-3.6,1.3-7-0.6-8.2-4.2c-1.3-3.6,0.3-7,4-8.3c1.9-0.7,4.2-0.4,5.9,0.6
			l-2.5-7.1c-2.2,0.1-3.7,0.1-5.6,0.8c-3.2,1.1-5.7,3.4-7.3,6.3c-1.7,3.1-1.8,6.5-0.6,9.8c1.1,3.1,3.3,5.7,6.3,7.1
			c3,1.5,6.7,1.8,9.9,0.6c1.9-0.7,3.5-1.7,5-3L47.3,108.3z"/>
		<path class="st0" d="M60,87.5l-3.8-2.3l-5.3,4l21.8,13.7l5.5-4.1L71,74.1l-5.3,4l1.3,4.3L60,87.5z M71,94.8L71,94.8l-6.7-4.5
			l4.2-3.1L71,94.8z"/>
		<path class="st0" d="M99.5,77.9l3.4-5.1l-8.1-11.1l13.6,2.7l3.4-5.2L93.6,43l-3.4,5.2l10.6,9l0,0.1L86,54.6l-1.4,2.1l8.6,12.2
			l0,0.1L80.5,63l-3.4,5.2L99.5,77.9z"/>
		<path class="st0" d="M120.1,38.6l2.3-9.3c1.2-5-0.2-9-5.6-10.4c-5.5-1.4-8.6,1-10,6.3l-0.9,3.4l-7.7-1.9l-1.5,6.1L120.1,38.6z
			 M110.9,29.9l0.3-1c0.5-2.2,1.1-4.4,3.9-3.7c2.9,0.7,2.5,2.7,1.9,5.1l-0.3,1L110.9,29.9z"/>
	</g>
	<path class="st0" d="M-110,0c0-3.3-2.7-6-6-6c-3.3,0-6,2.7-6,6s2.7,6,6,6C-112.7,6-110,3.3-110,0z"/>
	<path class="st0" d="M122,0c0-3.3-2.7-6-6-6c-3.3,0-6,2.7-6,6s2.7,6,6,6C119.3,6,122,3.3,122,0z"/>
	<g>
		<path class="st0" d="M113.9-25.5c-0.8,0-1.6,0.3-2.1,0.9c-0.6,0.6-0.9,1.3-0.9,2.1s0.3,1.6,0.9,2.1c1.1,1.1,3.1,1.1,4.2,0
			c0.6-0.6,0.9-1.3,0.9-2.1s-0.3-1.6-0.9-2.1C115.5-25.2,114.7-25.5,113.9-25.5z"/>
		<path class="st0" d="M-6-119c-1.7,0-2.9,1.3-2.9,3l0,0c0.1,1.7,1.5,2.8,3.2,2.8l0,0c1.7-0.1,2.9-1.4,2.8-3l0,0
			c-0.1-1.6-1.4-2.7-3-2.7l0,0C-5.9-119-6-119-6-119z M3-116.5c-0.1,1.7,1.2,3.1,2.8,3.2l0,0c1.6,0.1,3.1-1.2,3.1-2.8l0,0
			c0.1-1.7-1.2-3.1-2.8-3.2l0,0c-0.1,0-0.1,0-0.2,0l0,0C4.4-119.3,3-118.1,3-116.5z M-18.1-118.1c-1.6,0.2-2.8,1.8-2.5,3.4l0,0
			c0.2,1.6,1.8,2.8,3.4,2.5l0,0c1.6-0.3,2.8-1.8,2.5-3.4l0,0c-0.2-1.5-1.5-2.5-3-2.5l0,0C-17.8-118.1-18-118.1-18.1-118.1z
			 M14.8-115.6c-0.3,1.6,0.9,3.2,2.5,3.4l0,0c1.6,0.3,3.2-0.9,3.4-2.5l0,0c0.2-1.6-0.9-3.2-2.5-3.4l0,0l0,0l0,0c-0.2,0-0.3,0-0.5,0
			l0,0C16.3-118.1,15-117.1,14.8-115.6z M-30-115.6L-30-115.6L-30-115.6c-1.6,0.4-2.6,2.1-2.1,3.7l0,0c0.4,1.6,2.1,2.6,3.7,2.1l0,0
			c1.6-0.4,2.6-2.1,2.1-3.7l0,0c-0.4-1.3-1.6-2.2-2.9-2.2l0,0C-29.5-115.7-29.8-115.7-30-115.6z M26.6-113.5
			c-0.4,1.6,0.4,3.2,2.4,3.7v0c1,0.4,3-0.5,3.4-2.1l0,0c0.4-1.6-0.6-3.2-2.2-3.7l0,0c-0.3-0.1-0.5-0.1-0.7-0.1l0,0
			C28.2-115.7,27-114.8,26.6-113.5z M-41.6-112c-1.5,0.6-2.3,2.3-1.8,3.9l0,0c0.6,1.5,2.3,2.3,3.9,1.8l0,0c1.6-0.6,2.3-2.3,1.8-3.9
			l0,0c-0.5-1.2-1.6-2-2.8-2l0,0C-40.9-112.1-41.3-112.1-41.6-112z M37.8-110.2c-0.6,1.5,0.2,3.3,1.8,3.9l0,0
			c1.5,0.6,3.3-0.2,3.9-1.7l0,0c0.6-1.6-0.2-3.3-1.8-3.9l0,0c-0.4-0.1-0.7-0.2-1.1-0.2l0,0C39.4-112.1,38.3-111.4,37.8-110.2z
			 M-52.8-107.1L-52.8-107.1L-52.8-107.1c-1.5,0.7-2.1,2.5-1.3,4l0,0c0.7,1.5,2.5,2.1,4,1.3l0,0c1.5-0.7,2.1-2.5,1.4-4l0,0
			c-0.5-1-1.6-1.7-2.7-1.7l0,0C-51.9-107.4-52.3-107.3-52.8-107.1z M48.8-105.7c-0.8,1.5-0.1,3.3,1.3,4l0,0c1.5,0.7,3.3,0.1,4-1.3
			l0,0c0.7-1.5,0.1-3.3-1.3-4l0,0l0,0l0,0c-0.4-0.2-0.9-0.3-1.3-0.3l0,0C50.4-107.4,49.3-106.8,48.8-105.7z M-63.3-101.1
			L-63.3-101.1L-63.3-101.1c-1.4,0.9-1.8,2.7-0.9,4.1l0,0c0.9,1.4,2.7,1.8,4.1,0.9l0,0c1.4-0.9,1.8-2.7,0.9-4.1l0,0
			c-0.6-0.9-1.6-1.4-2.5-1.4l0,0C-62.3-101.6-62.8-101.4-63.3-101.1z M59.2-100.2c-0.9,1.4-0.5,3.3,0.9,4.1l0,0
			c1.4,0.9,3.2,0.5,4.1-0.9l0,0c0.9-1.4,0.5-3.3-0.9-4.1l0,0c-0.5-0.3-1-0.5-1.6-0.5l0,0C60.8-101.5,59.8-101.1,59.2-100.2z
			 M-73.3-94.1c-1.3,1-1.5,2.9-0.5,4.2l0,0c1,1.3,2.9,1.5,4.2,0.5l0,0c1.3-1,1.5-2.9,0.5-4.2l0,0c-0.6-0.8-1.5-1.2-2.4-1.2l0,0
			C-72.1-94.7-72.7-94.5-73.3-94.1z M69.1-93.6c-1,1.3-0.8,3.2,0.5,4.2l0,0c1.3,1,3.2,0.8,4.2-0.5l0,0c1-1.3,0.8-3.2-0.5-4.2l0,0
			c-0.6-0.4-1.2-0.6-1.9-0.6l0,0C70.5-94.7,69.7-94.3,69.1-93.6z M-82.4-86.1c-1.2,1.2-1.2,3.1-0.1,4.2l0,0c1.1,1.2,3.1,1.2,4.2,0.1
			l0,0c1.2-1.2,1.2-3,0.1-4.2l0,0c-0.6-0.6-1.4-0.9-2.2-0.9l0,0C-81.1-87-81.8-86.7-82.4-86.1z M78.2-86c-1.1,1.2-1.1,3.1,0.1,4.2
			l0,0c1.2,1.1,3.1,1.1,4.2-0.1l0,0c1.1-1.2,1.1-3.1-0.1-4.2l0,0c-0.6-0.6-1.3-0.8-2.1-0.8l0,0C79.6-86.9,78.8-86.6,78.2-86z
			 M-90.7-77.3c-1.1,1.3-0.9,3.2,0.3,4.2l0,0c1.3,1.1,3.2,0.9,4.2-0.3l0,0c1.1-1.3,0.9-3.2-0.3-4.2l0,0c-0.6-0.5-1.2-0.7-1.9-0.7
			l0,0C-89.3-78.3-90.1-78-90.7-77.3z M86.5-77.6c-1.3,1.1-1.4,3-0.4,4.2l0,0c1.1,1.3,3,1.4,4.2,0.3l0,0c1.3-1.1,1.4-3,0.3-4.2l0,0
			l0,0l0,0c-0.6-0.7-1.4-1.1-2.3-1.1l0,0C87.8-78.3,87.1-78.1,86.5-77.6z M-98.1-67.6c-0.9,1.4-0.6,3.2,0.8,4.2l0,0
			c1.4,0.9,3.2,0.6,4.2-0.8l0,0c0.9-1.4,0.6-3.2-0.8-4.2l0,0c-0.5-0.4-1.1-0.5-1.7-0.5l0,0C-96.6-68.9-97.5-68.5-98.1-67.6z
			 M94-68.4c-1.4,0.9-1.7,2.8-0.8,4.2l0,0c0.9,1.4,2.8,1.7,4.2,0.8l0,0c1.4-0.9,1.7-2.8,0.8-4.2l0,0c-0.6-0.8-1.5-1.3-2.5-1.3l0,0
			C95.1-68.9,94.5-68.7,94-68.4z M-104.5-57.3c-0.8,1.5-0.3,3.3,1.2,4.1l0,0c1.4,0.8,3.3,0.3,4.1-1.2l0,0c0.8-1.5,0.3-3.3-1.2-4.1
			l0,0c-0.5-0.2-1-0.4-1.4-0.4l0,0C-102.9-58.8-103.9-58.3-104.5-57.3z M100.4-58.4c-1.4,0.8-2,2.6-1.2,4.1l0,0
			c0.8,1.4,2.6,2,4.1,1.2l0,0c1.5-0.8,2-2.6,1.2-4.1l0,0c-0.5-1-1.6-1.6-2.6-1.6l0,0C101.4-58.8,100.9-58.7,100.4-58.4z
			 M-109.8-46.3c-0.6,1.5,0.1,3.3,1.6,3.9l0,0c1.5,0.6,3.3-0.1,3.9-1.6l0,0c0.6-1.5-0.1-3.3-1.6-3.9l0,0c-0.4-0.2-0.8-0.2-1.2-0.2
			l0,0C-108.2-48.2-109.3-47.5-109.8-46.3z M105.9-47.9c-1.5,0.6-2.2,2.4-1.6,3.9l0,0c0.6,1.5,2.4,2.2,3.9,1.6l0,0
			c1.5-0.6,2.2-2.4,1.6-3.9l0,0l0,0l0,0c-0.5-1.2-1.6-1.8-2.8-1.8l0,0C106.6-48.1,106.2-48.1,105.9-47.9z M-113.9-34.9
			c-0.5,1.6,0.4,3.3,2,3.8l0,0c1.6,0.5,3.3-0.4,3.7-2l0,0c0.5-1.6-0.4-3.3-2-3.8l0,0c-0.3-0.1-0.6-0.1-0.9-0.1l0,0
			C-112.3-37.1-113.5-36.2-113.9-34.9z M110.2-36.9c-1.6,0.5-2.5,2.2-2,3.8l0,0c0.5,1.6,2.2,2.5,3.8,2l0,0c1.6-0.5,2.5-2.2,2-3.7
			l0,0l0,0l0,0c-0.4-1.3-1.6-2.1-2.9-2.1l0,0C110.8-37,110.5-37,110.2-36.9z"/>
		<path class="st0" d="M-113.9-25.5c-0.8,0-1.6,0.3-2.1,0.9c-0.6,0.6-0.9,1.3-0.9,2.1s0.3,1.6,0.9,2.1c1.1,1.1,3.1,1.1,4.2,0
			c0.6-0.6,0.9-1.3,0.9-2.1s-0.3-1.6-0.9-2.1C-112.4-25.2-113.1-25.5-113.9-25.5z"/>
	</g>
</symbol>
<g>
	<circle class="st1" cx="116.1" cy="115.8" r="111.5"/>
	
		<use xlink:href="#BoilerCamp"  width="300" height="300" id="XMLID_1_" x="-150" y="-150" transform="matrix(0.7767 0 0 -0.7767 116.5003 116.5)" style="overflow:visible;"/>
</g>
</svg>
