<?xml version="1.0" encoding="utf-8"?>
<!-- Generator: Adobe Illustrator 19.1.0, SVG Export Plug-In . SVG Version: 6.00 Build 0)  -->
<svg version="1.1" id="Layer_1" xmlns="http://www.w3.org/2000/svg" xmlns:xlink="http://www.w3.org/1999/xlink" x="0px" y="0px"
	 viewBox="280 -80 960 560" style="enable-background:new 280 -80 960 560;" xml:space="preserve">
<style type="text/css">
	.st0{fill:#4C443D;}
	.st1{display:none;}
	.st2{display:inline;fill:#9DE3FC;}
	.st3{fill:#D2F7F4;}
	.st4{display:inline;}
	.st5{fill:#BFBFBF;}
	.st6{fill:#B79A95;}
	.st7{fill:#DDDCDB;}
	.st8{fill:#C68981;}
	.st9{fill:#F2F2F2;}
	.st10{fill:#B5AAA0;}
	.st11{display:inline;fill:#8DC187;}
	.st12{fill:#666666;}
	.st13{display:inline;fill:#58934C;}
	.st14{display:inline;fill:#59AF52;}
	.st15{fill:#3CB713;}
	.st16{fill:#4FA34F;}
	.st17{fill:#198228;}
	.st18{fill:#188C0C;}
	.st19{fill:#F7BC46;}
	.st20{fill:#D8A955;}
	.st21{fill:#938367;}
	.st22{fill:#DEE0DA;}
	.st23{fill:#F75E2F;}
	.st24{fill:#EAB02F;}
	.st25{fill:#995628;}
	.st26{fill:#C69675;}
	.st27{fill:#774829;}
	.st28{display:inline;fill:#D6DDB8;}
	.st29{display:inline;fill:#428999;}
	.st30{fill:#6D614A;}
	.st31{fill:#937452;}
	.st32{fill:#82795B;}
	.st33{fill:#BCAF8B;}
	.st34{fill:#A3977B;}
	.st35{fill:#61A4AF;}
	.st36{opacity:0.55;fill:#E5BD9E;enable-background:new    ;}
	.st37{fill:#422D12;}
	.st38{fill:#7F6337;}
	.st39{fill:none;}
	.st40{fill:#EFD6B4;}
	.st41{font-family:'MyriadPro-Bold';}
	.st42{font-size:21.3223px;}
</style>
<symbol  id="BoilerCamp" viewBox="-150 -150 300 300">
	<path class="st0" d="M56,35h-4.9l0.4,8.5c0.3,6.8-5.2,12.5-12,12.5h-0.3c0.5,1.2,0.8,2.6,0.8,4v16c0,5.5-4.5,10-10,10h-60
		c-5.5,0-10-4.5-10-10V60c0-1.4,0.3-2.8,0.8-4h-0.3c-6.8,0-12.3-5.7-12-12.5l0.4-8.5H-56c-5.5,0-10-4.5-10-10v-41
		c0-5.5,4.5-10,10-10h10v-14c0-5.5,4.5-10,10-10h6v-6h-6c-5.5,0-10-4.5-10-10v-10c0-5.5,4.5-10,10-10h72c5.5,0,10,4.5,10,10v10
		c0,5.5-4.5,10-10,10h-6v6h6c5.5,0,10,4.5,10,10v14h10c5.5,0,10,4.5,10,10v41C66,30.5,61.5,35,56,35z M-30-80h-6c-2.2,0-4,1.8-4,4
		v10c0,2.2,1.8,4,4,4h6V-80z M20,80h10c2.2,0,4-1.8,4-4V60c0-2.2-1.8-4-4-4H20V80z M-14,80h28V56h-28V80z M-14,50h28V16h-28V50z
		 M-34,76c0,2.2,1.8,4,4,4h10V56h-10c-2.2,0-4,1.8-4,4V76z M-46-20h-10c-2.2,0-4,1.8-4,4v41c0,2.2,1.8,4,4,4h5.5
		c0.8-3.6,2.3-6.9,4.5-9.7V-20z M-44.3,29c-0.4,1.4-0.6,2.8-0.7,4.2l-0.1,1.8l-0.4,8.7c-0.1,1.7,0.5,3.2,1.7,4.4s2.7,1.8,4.3,1.8
		H-20V16h-7c-1,0-2,0.1-3,0.2c-2.1,0.4-4.2,1.1-6,2.2c-1.5,0.8-2.8,1.9-4,3.1C-42,23.6-43.5,26.1-44.3,29z M-7.4-71L-24-78.4v14.8
		L-7.4-71z M-12.9-62h25.7L0-67.7L-12.9-62z M-12.9-80L0-74.3L12.9-80H-12.9z M24-78.4L7.4-71L24-63.6V-78.4z M24-56h-48v6h48V-56z
		 M36-62c2.2,0,4-1.8,4-4v-10c0-2.2-1.8-4-4-4h-6v18H36z M40-40c0-2.2-1.8-4-4-4h-72c-2.2,0-4,1.8-4,4v53.8c1.3-0.8,2.6-1.5,4-2.1
		c1.9-0.8,3.9-1.3,6-1.5c1-0.1,2-0.2,3-0.2h7V4c0-1.7,1.3-3,3-3s3,1.3,3,3v6h28V4c0-1.7,1.3-3,3-3s3,1.3,3,3v6h7c1,0,2,0.1,3,0.2
		c2.1,0.2,4.1,0.8,6,1.5c1.4,0.6,2.7,1.3,4,2.1V-40z M45,35v-1.8c-0.1-1.5-0.3-2.9-0.7-4.2c-0.8-2.8-2.3-5.4-4.3-7.5
		c-1.2-1.2-2.5-2.3-4-3.1c-1.8-1-3.8-1.8-6-2.1c-1-0.2-2-0.2-3-0.2h-7v34h19.2c1.7,0,3.3-0.7,4.4-1.8c1.2-1.2,1.8-2.8,1.7-4.4L45,35
		z M60-16c0-2.2-1.8-4-4-4H46v39.3c2.2,2.8,3.7,6.1,4.5,9.7H56c2.2,0,4-1.8,4-4V-16z"/>
	<path class="st0" d="M6,28c0-3.3-2.7-6-6-6s-6,2.7-6,6s2.7,6,6,6S6,31.3,6,28z"/>
	<g>
		<path class="st0" d="M15.1-32.8l-1.8-1.8c-0.7-0.7-1.9-0.7-2.6,0l-7.2,7.2c-0.7,0.7-0.7,1.9,0,2.6l1.8,1.7c0.7,0.7,1.9,0.7,2.6,0
			l7.2-7.2C15.8-30.9,15.8-32,15.1-32.8z"/>
		<path class="st0" d="M-4.2-8.3c-0.7-0.7-0.7-1.9,0-2.6l0.7-0.7c0.7-0.7,0.7-1.9,0-2.6l-1.8-1.7c-0.7-0.7-1.9-0.7-2.6,0l-0.7,0.7
			c-0.7,0.7-1.9,0.7-2.6,0L-13-17c-0.7-0.7-1.9-0.7-2.6,0l-3.9,3.9c-0.7,0.7-0.7,1.9,0,2.6l6.9,6.9c0.3,0.3,0.8,0.6,1.3,0.6h7.2
			c0.5,0,1-0.2,1.3-0.6l0.3-0.3c0.7-0.7,0.7-1.9,0-2.6L-4.2-8.3z"/>
		<path class="st0" d="M19.5-13.1l-4-3.9c-0.7-0.7-1.9-0.7-2.6,0l-1.8,1.8c-0.7,0.7-1.9,0.7-2.6,0l-19.2-19.2
			c-0.7-0.7-1.9-0.7-2.6,0l-1.8,1.8c-0.7,0.7-0.7,1.9,0,2.6L4.2-10.9c0.7,0.7,0.7,1.9,0,2.6L2.4-6.5c-0.7,0.7-0.7,1.9,0,2.6l0.3,0.4
			C3.1-3.2,3.6-3,4.1-3h7.2c0.5,0,1-0.2,1.3-0.6l6.9-6.9C20.2-11.2,20.2-12.4,19.5-13.1z"/>
	</g>
	<path class="st0" d="M0,139c37.1,0,72-14.5,98.3-40.7C124.5,72,139,37.1,139,0s-14.5-72-40.7-98.3C72-124.5,37.1-139,0-139
		s-72,14.5-98.3,40.7C-124.5-72-139-37.1-139,0s14.5,72,40.7,98.3C-72,124.5-37.1,139,0,139 M0,150c-82.8,0-150-67.2-150-150
		S-82.8-150,0-150S150-82.8,150,0S82.8,150,0,150L0,150z"/>
	<g>
		<path class="st0" d="M-100,22l-22.9,7.1l2.7,8.5c1.3,4.1,3.7,6.3,8.1,5c2.1-0.6,3.5-1.8,3.9-4h0.1c1.5,3.2,4.1,3.9,7.3,2.9
			c4.8-1.5,5.1-6.1,3.8-10.3L-100,22z M-112,32.3l0.2,0.7c0.5,1.6,0.7,3.3-1.2,3.9c-2.1,0.7-2.8-1.2-3.3-2.8l-0.1-0.4L-112,32.3z
			 M-102.7,29.4l0.2,0.8c0.6,1.8,1.6,4.7-1,5.5c-2.8,0.9-3.4-2.2-4-4.1l-0.2-0.6L-102.7,29.4z"/>
		<path class="st0" d="M-85.1,77.6c6.3-4.5,7.5-12.3,3-18.5s-12.2-7.6-18.5-3c-5.9,4.3-6.3,12.4-2.2,18
			C-98.8,79.7-91,81.9-85.1,77.6z M-96.8,61.3c3.4-2.4,7.6-1.7,9.8,1.3c2.2,3,1.5,7.3-1.8,9.7c-2.7,1.9-6.9,1.2-9.1-1.8
			C-100.1,67.5-99.5,63.3-96.8,61.3z"/>
		<path class="st0" d="M-61.5,81.4l-4.9-3.9l-15.1,18.7l4.9,3.9L-61.5,81.4z"/>
		<path class="st0" d="M-47.9,95.9l6.7,3.4l2.4-4.7l-12.3-6.2l-10.8,21.4l5.6,2.8L-47.9,95.9z"/>
		<path class="st0" d="M-27,117.6l0.9-3.9l6.9,1.5l1.2-5.2l-6.9-1.5l0.9-4l7.2,1.6l1.2-5.2l-13.3-3l-5.3,23.4l13.3,3l1.2-5.2
			L-27,117.6z"/>
		<path class="st0" d="M16.2,101.2l-7.8,0.4L3,111.1H2.9l-0.5-9.2l-6.2,0.3l1.3,24l9.3-0.5c4.7-0.3,8.2-2.7,7.9-7.8
			c-0.2-3.3-2.2-6.1-5.6-6.5L16.2,101.2z M3.2,115.1h0.6c2-0.1,4.3,0.2,4.5,2.8c0.1,2.6-2.1,3.1-4.2,3.2H3.5L3.2,115.1z"/>
		<path class="st0" d="M47.3,108.3c-0.6,2-2.3,3.6-4.3,4.3c-3.6,1.3-7-0.6-8.2-4.2c-1.3-3.6,0.3-7,4-8.3c1.9-0.7,4.2-0.4,5.9,0.6
			l-2.5-7.1c-2.2,0.1-3.7,0.1-5.6,0.8c-3.2,1.1-5.7,3.4-7.3,6.3c-1.7,3.1-1.8,6.5-0.6,9.8c1.1,3.1,3.3,5.7,6.3,7.1
			c3,1.5,6.7,1.8,9.9,0.6c1.9-0.7,3.5-1.7,5-3L47.3,108.3z"/>
		<path class="st0" d="M60,87.5l-3.8-2.3l-5.3,4l21.8,13.7l5.5-4.1L71,74.1l-5.3,4l1.3,4.3L60,87.5z M71,94.8L71,94.8l-6.7-4.5
			l4.2-3.1L71,94.8z"/>
		<path class="st0" d="M99.5,77.9l3.4-5.1l-8.1-11.1l13.6,2.7l3.4-5.2L93.6,43l-3.4,5.2l10.6,9v0.1L86,54.6l-1.4,2.1l8.6,12.2V69
			l-12.7-6l-3.4,5.2L99.5,77.9z"/>
		<path class="st0" d="M120.1,38.6l2.3-9.3c1.2-5-0.2-9-5.6-10.4c-5.5-1.4-8.6,1-10,6.3l-0.9,3.4l-7.7-1.9l-1.5,6.1L120.1,38.6z
			 M110.9,29.9l0.3-1c0.5-2.2,1.1-4.4,3.9-3.7c2.9,0.7,2.5,2.7,1.9,5.1l-0.3,1L110.9,29.9z"/>
	</g>
	<path class="st0" d="M-110,0c0-3.3-2.7-6-6-6s-6,2.7-6,6s2.7,6,6,6S-110,3.3-110,0z"/>
	<path class="st0" d="M122,0c0-3.3-2.7-6-6-6s-6,2.7-6,6s2.7,6,6,6S122,3.3,122,0z"/>
	<g>
		<path class="st0" d="M113.9-25.5c-0.8,0-1.6,0.3-2.1,0.9c-0.6,0.6-0.9,1.3-0.9,2.1s0.3,1.6,0.9,2.1c1.1,1.1,3.1,1.1,4.2,0
			c0.6-0.6,0.9-1.3,0.9-2.1s-0.3-1.6-0.9-2.1C115.5-25.2,114.7-25.5,113.9-25.5z"/>
		<path class="st0" d="M-6-119c-1.7,0-2.9,1.3-2.9,3l0,0c0.1,1.7,1.5,2.8,3.2,2.8l0,0c1.7-0.1,2.9-1.4,2.8-3l0,0
			c-0.1-1.6-1.4-2.7-3-2.7l0,0C-5.9-119-6-119-6-119z M3-116.5c-0.1,1.7,1.2,3.1,2.8,3.2l0,0c1.6,0.1,3.1-1.2,3.1-2.8l0,0
			c0.1-1.7-1.2-3.1-2.8-3.2l0,0c-0.1,0-0.1,0-0.2,0l0,0C4.4-119.3,3-118.1,3-116.5z M-18.1-118.1c-1.6,0.2-2.8,1.8-2.5,3.4l0,0
			c0.2,1.6,1.8,2.8,3.4,2.5l0,0c1.6-0.3,2.8-1.8,2.5-3.4l0,0c-0.2-1.5-1.5-2.5-3-2.5l0,0C-17.8-118.1-18-118.1-18.1-118.1z
			 M14.8-115.6c-0.3,1.6,0.9,3.2,2.5,3.4l0,0c1.6,0.3,3.2-0.9,3.4-2.5l0,0c0.2-1.6-0.9-3.2-2.5-3.4l0,0l0,0l0,0c-0.2,0-0.3,0-0.5,0
			l0,0C16.3-118.1,15-117.1,14.8-115.6z M-30-115.6L-30-115.6L-30-115.6c-1.6,0.4-2.6,2.1-2.1,3.7l0,0c0.4,1.6,2.1,2.6,3.7,2.1l0,0
			c1.6-0.4,2.6-2.1,2.1-3.7l0,0c-0.4-1.3-1.6-2.2-2.9-2.2l0,0C-29.5-115.7-29.8-115.7-30-115.6z M26.6-113.5
			c-0.4,1.6,0.4,3.2,2.4,3.7l0,0c1,0.4,3-0.5,3.4-2.1l0,0c0.4-1.6-0.6-3.2-2.2-3.7l0,0c-0.3-0.1-0.5-0.1-0.7-0.1l0,0
			C28.2-115.7,27-114.8,26.6-113.5z M-41.6-112c-1.5,0.6-2.3,2.3-1.8,3.9l0,0c0.6,1.5,2.3,2.3,3.9,1.8l0,0c1.6-0.6,2.3-2.3,1.8-3.9
			l0,0c-0.5-1.2-1.6-2-2.8-2l0,0C-40.9-112.1-41.3-112.1-41.6-112z M37.8-110.2c-0.6,1.5,0.2,3.3,1.8,3.9l0,0
			c1.5,0.6,3.3-0.2,3.9-1.7l0,0c0.6-1.6-0.2-3.3-1.8-3.9l0,0c-0.4-0.1-0.7-0.2-1.1-0.2l0,0C39.4-112.1,38.3-111.4,37.8-110.2z
			 M-52.8-107.1L-52.8-107.1L-52.8-107.1c-1.5,0.7-2.1,2.5-1.3,4l0,0c0.7,1.5,2.5,2.1,4,1.3l0,0c1.5-0.7,2.1-2.5,1.4-4l0,0
			c-0.5-1-1.6-1.7-2.7-1.7l0,0C-51.9-107.4-52.3-107.3-52.8-107.1z M48.8-105.7c-0.8,1.5-0.1,3.3,1.3,4l0,0c1.5,0.7,3.3,0.1,4-1.3
			l0,0c0.7-1.5,0.1-3.3-1.3-4l0,0l0,0l0,0c-0.4-0.2-0.9-0.3-1.3-0.3l0,0C50.4-107.4,49.3-106.8,48.8-105.7z M-63.3-101.1
			L-63.3-101.1L-63.3-101.1c-1.4,0.9-1.8,2.7-0.9,4.1l0,0c0.9,1.4,2.7,1.8,4.1,0.9l0,0c1.4-0.9,1.8-2.7,0.9-4.1l0,0
			c-0.6-0.9-1.6-1.4-2.5-1.4l0,0C-62.3-101.6-62.8-101.4-63.3-101.1z M59.2-100.2c-0.9,1.4-0.5,3.3,0.9,4.1l0,0
			c1.4,0.9,3.2,0.5,4.1-0.9l0,0c0.9-1.4,0.5-3.3-0.9-4.1l0,0c-0.5-0.3-1-0.5-1.6-0.5l0,0C60.8-101.5,59.8-101.1,59.2-100.2z
			 M-73.3-94.1c-1.3,1-1.5,2.9-0.5,4.2l0,0c1,1.3,2.9,1.5,4.2,0.5l0,0c1.3-1,1.5-2.9,0.5-4.2l0,0c-0.6-0.8-1.5-1.2-2.4-1.2l0,0
			C-72.1-94.7-72.7-94.5-73.3-94.1z M69.1-93.6c-1,1.3-0.8,3.2,0.5,4.2l0,0c1.3,1,3.2,0.8,4.2-0.5l0,0c1-1.3,0.8-3.2-0.5-4.2l0,0
			c-0.6-0.4-1.2-0.6-1.9-0.6l0,0C70.5-94.7,69.7-94.3,69.1-93.6z M-82.4-86.1c-1.2,1.2-1.2,3.1-0.1,4.2l0,0c1.1,1.2,3.1,1.2,4.2,0.1
			l0,0c1.2-1.2,1.2-3,0.1-4.2l0,0c-0.6-0.6-1.4-0.9-2.2-0.9l0,0C-81.1-87-81.8-86.7-82.4-86.1z M78.2-86c-1.1,1.2-1.1,3.1,0.1,4.2
			l0,0c1.2,1.1,3.1,1.1,4.2-0.1l0,0c1.1-1.2,1.1-3.1-0.1-4.2l0,0c-0.6-0.6-1.3-0.8-2.1-0.8l0,0C79.6-86.9,78.8-86.6,78.2-86z
			 M-90.7-77.3c-1.1,1.3-0.9,3.2,0.3,4.2l0,0c1.3,1.1,3.2,0.9,4.2-0.3l0,0c1.1-1.3,0.9-3.2-0.3-4.2l0,0c-0.6-0.5-1.2-0.7-1.9-0.7
			l0,0C-89.3-78.3-90.1-78-90.7-77.3z M86.5-77.6c-1.3,1.1-1.4,3-0.4,4.2l0,0c1.1,1.3,3,1.4,4.2,0.3l0,0c1.3-1.1,1.4-3,0.3-4.2l0,0
			l0,0l0,0c-0.6-0.7-1.4-1.1-2.3-1.1l0,0C87.8-78.3,87.1-78.1,86.5-77.6z M-98.1-67.6c-0.9,1.4-0.6,3.2,0.8,4.2l0,0
			c1.4,0.9,3.2,0.6,4.2-0.8l0,0c0.9-1.4,0.6-3.2-0.8-4.2l0,0c-0.5-0.4-1.1-0.5-1.7-0.5l0,0C-96.6-68.9-97.5-68.5-98.1-67.6z
			 M94-68.4c-1.4,0.9-1.7,2.8-0.8,4.2l0,0c0.9,1.4,2.8,1.7,4.2,0.8l0,0c1.4-0.9,1.7-2.8,0.8-4.2l0,0c-0.6-0.8-1.5-1.3-2.5-1.3l0,0
			C95.1-68.9,94.5-68.7,94-68.4z M-104.5-57.3c-0.8,1.5-0.3,3.3,1.2,4.1l0,0c1.4,0.8,3.3,0.3,4.1-1.2l0,0c0.8-1.5,0.3-3.3-1.2-4.1
			l0,0c-0.5-0.2-1-0.4-1.4-0.4l0,0C-102.9-58.8-103.9-58.3-104.5-57.3z M100.4-58.4c-1.4,0.8-2,2.6-1.2,4.1l0,0
			c0.8,1.4,2.6,2,4.1,1.2l0,0c1.5-0.8,2-2.6,1.2-4.1l0,0c-0.5-1-1.6-1.6-2.6-1.6l0,0C101.4-58.8,100.9-58.7,100.4-58.4z
			 M-109.8-46.3c-0.6,1.5,0.1,3.3,1.6,3.9l0,0c1.5,0.6,3.3-0.1,3.9-1.6l0,0c0.6-1.5-0.1-3.3-1.6-3.9l0,0c-0.4-0.2-0.8-0.2-1.2-0.2
			l0,0C-108.2-48.2-109.3-47.5-109.8-46.3z M105.9-47.9c-1.5,0.6-2.2,2.4-1.6,3.9l0,0c0.6,1.5,2.4,2.2,3.9,1.6l0,0
			c1.5-0.6,2.2-2.4,1.6-3.9l0,0l0,0l0,0c-0.5-1.2-1.6-1.8-2.8-1.8l0,0C106.6-48.1,106.2-48.1,105.9-47.9z M-113.9-34.9
			c-0.5,1.6,0.4,3.3,2,3.8l0,0c1.6,0.5,3.3-0.4,3.7-2l0,0c0.5-1.6-0.4-3.3-2-3.8l0,0c-0.3-0.1-0.6-0.1-0.9-0.1l0,0
			C-112.3-37.1-113.5-36.2-113.9-34.9z M110.2-36.9c-1.6,0.5-2.5,2.2-2,3.8l0,0c0.5,1.6,2.2,2.5,3.8,2l0,0c1.6-0.5,2.5-2.2,2-3.7
			l0,0l0,0l0,0c-0.4-1.3-1.6-2.1-2.9-2.1l0,0C110.8-37,110.5-37,110.2-36.9z"/>
		<path class="st0" d="M-113.9-25.5c-0.8,0-1.6,0.3-2.1,0.9c-0.6,0.6-0.9,1.3-0.9,2.1s0.3,1.6,0.9,2.1c1.1,1.1,3.1,1.1,4.2,0
			c0.6-0.6,0.9-1.3,0.9-2.1s-0.3-1.6-0.9-2.1C-112.4-25.2-113.1-25.5-113.9-25.5z"/>
	</g>
</symbol>
<g id="BG" class="st1">
	<rect id="Sky" x="280" y="-80" class="st2" width="960" height="560"/>
</g>
<g id="SKY">
	<g id="Clouds">
		<polygon class="st3" points="339,77.5 361,62.3 389,67 409,48.5 446.5,34.5 479,41.2 516.5,69 546,72 549.5,82 540.1,89.6 492,96 
			379,88.7 		"/>
		<g>
			<polygon class="st3" points="903,96 919,82 973,75 992,48 1042,38 1067,54 1091,96 1122,88 1146,110 1061,117 			"/>
		</g>
	</g>
</g>
<g id="FAR_LAND" class="st1">
	<g id="Fountain" class="st4">
		<path class="st5" d="M948,211v-17c0,0,20-12,20-48h8v65H948z"/>
		<path class="st5" d="M1019,211v-17c0,0-20-12-20-48h-8v65H1019z"/>
		<rect x="980" y="146" class="st5" width="7" height="65"/>
	</g>
	<g id="Bell_Tower" class="st4">
		<rect x="532" y="123" class="st6" width="21" height="66"/>
		<path class="st7" d="M553,189v42l-7-6.3v-25.5c0-1.8-1.8-3.1-3.6-3.1l0,0c-1.8,0-3.4,1.3-3.4,3.1v20l-7-6.1v-24h21V189z"/>
		<rect x="532" y="123" class="st8" width="6.5" height="66"/>
		<rect x="546.5" y="123" class="st8" width="6.5" height="66"/>
		<rect x="532" y="165.7" class="st7" width="21" height="1.7"/>
		<rect x="532" y="143.2" class="st7" width="21" height="1.7"/>
		<rect x="532" y="103.9" class="st7" width="21" height="19.1"/>
		<polygon class="st7" points="552.8,120.3 556,121.4 556,123 553,123 		"/>
		<polygon class="st7" points="532.1,120.3 529,121.4 529,123 532,123 		"/>
		<circle class="st9" cx="542.3" cy="112.5" r="5.9"/>
		<path class="st7" d="M532,85v19h21V85H532z M547,104h-9v-9.2c0-2.4,2.1-4.4,4.5-4.4s4.5,2,4.5,4.4V104z"/>
		<rect x="536.6" y="94.5" class="st7" width="12.6" height="1.8"/>
		<path class="st10" d="M545,101.9h-4.6v-3.3c0-1.3,1-2.3,2.3-2.3l0,0c1.3,0,2.3,1,2.3,2.3V101.9L545,101.9z"/>
		<polygon class="st10" points="553.1,85 554.3,84 531,84 532,85 		"/>
		<polygon class="st10" points="554.3,84 542.9,59.9 531,84 		"/>
	</g>
	<polyline id="Hills" class="st11" points="1240,215.5 1161.9,203.6 1051,206.3 930.8,199.7 787,175 684,173.5 560,210 418.2,195.7 
		300.2,223 281,230.7 281,480 1240,480 1240,216 	"/>
	<g id="Birds" class="st4">
		<polygon class="st12" points="604.7,111.4 599.2,116.6 590.7,114 599.3,114 		"/>
		<polygon class="st12" points="575,125.2 582,122.8 575,127.5 566,126.5 		"/>
	</g>
</g>
<g id="LAND" class="st1">
	<polygon id="Grass" class="st13" points="281,275 295.2,273.3 498.4,249.2 644.3,227.6 764.3,232.9 979,236.1 1240,256.3 1240,480 
		454,480 280,480 	"/>
	<polygon id="BG_Trees" class="st14" points="280.9,229.3 287.3,246.3 300,223 300,246 309,226.5 319.7,246 324.5,217.4 
		336.2,238.4 342.3,214.7 352,242.5 360.9,212.4 366,242.5 366,207 379.7,235 389,203 392.7,231.7 397,203 405.5,221.7 418.2,195.7 
		424.7,231.7 448,199 446.5,233.8 458,199.7 466,226.5 484,199.6 484,230 505,203 514.3,230.4 522,203 524.5,228.7 540,203.4 
		553,238.4 560,210 566,230.4 566,190 582.3,230.4 587.7,198.3 603,221.7 603,184 611,215.5 614.3,187.7 621.2,212.4 634,187.7 
		634,207 639.7,183.5 649,203 658,178.5 665.7,195.7 680.3,182.5 684,195.7 688.3,170.5 701.5,190.3 707,168 716.5,195.7 719,170.5 
		726,187.7 736,160.7 736,184 739,163.7 748.2,183.5 754.3,163.5 755.7,187.7 764.3,163.5 771,187.7 771,164 781,190.3 787,163.5 
		795.5,183.5 799.2,168 809,195.7 811.5,163.7 817.8,187.7 828,168 828,190 835,163.7 835,193 841,173.5 848,202.5 853,168 
		865.2,202.5 868.3,160.7 877.5,195.7 883.7,175 897.7,210 905.7,178.5 913,203.4 913,184 923,210 931,179.7 936,213 948,187.7 
		952.5,212.4 966,190.3 967.1,222.7 974,199 983,222.4 983,190 998.3,207.4 1004,190.3 1011,217.4 1016.3,195.5 1027.4,215.5 
		1036.9,187.7 1042,230.4 1042,196 1051,214.9 1058,187.5 1063,217.4 1074.3,190.3 1082.5,227 1097.7,187.7 1108.2,203 1118,239.9 
		1118,206 1126,223.7 1134,190.3 1134,213 1146,190.3 1146,215 1153,187.5 1165,230.4 1170.3,187.5 1177,223.7 1189.5,190.3 
		1198.3,223.7 1207.9,193 1218,223.7 1218,197 1227,222.4 1235.7,190.3 1240,206.6 1240,234.4 1227,242.7 1196.3,257.5 1165,242.5 
		1146,262.5 1129,260 1065,239.9 1058,246 1026.5,256.5 1012.9,252.5 996.3,249.5 944.3,239.9 910,252.5 854.4,230.4 839.7,231.7 
		822,240.7 799.2,246 781,236 758,246 736,227 713.7,236 671,227 654.1,236 603.7,253 550.3,255 513.7,246 483,252.5 452.2,261.5 
		417.5,252.5 379.4,276.5 324,278 293.2,294.5 280,272 	"/>
	<g id="Small_Trees_Far" class="st4">
		<polygon class="st15" points="530.5,178.5 546.5,250 528.5,257.5 522,250 		"/>
		<polygon class="st15" points="430.5,182.5 446.5,254 428.5,261.5 422,254 		"/>
		<polygon class="st15" points="936.5,173.5 952.5,245 934.5,252.5 928,245 		"/>
		<polygon class="st15" points="744.5,163.5 760.5,235 742.5,242.5 736,235 		"/>
		<polygon class="st15" points="332.5,206.5 348.5,278 330.5,285.5 324,278 		"/>
		<polygon class="st15" points="1066.5,187.5 1082.5,259 1064.5,266.5 1058,259 		"/>
		<polygon class="st15" points="1214.5,196.5 1230.5,268 1212.5,275.5 1206,268 		"/>
		<polygon class="st15" points="401.5,195.5 417.5,267 399.5,274.5 393,267 		"/>
		<polygon class="st15" points="1173.5,177.5 1189.5,249 1171.5,256.5 1165,249 		"/>
		<polygon class="st15" points="369.5,216.5 385.5,288 367.5,295.5 361,288 		"/>
	</g>
	<g id="Small_Dark_Trees" class="st4">
		<polygon class="st16" points="339,294 349.7,214.7 365,289.3 352,300 		"/>
		<polygon class="st16" points="373,298 395.7,221.7 405,299.3 392,310 		"/>
		<polygon class="st16" points="405.5,285 410.3,212.4 431,287.3 418,298 		"/>
		<polygon class="st16" points="428,275 438.7,195.7 454,270.3 441,281 		"/>
		<polygon class="st16" points="445,304 454,221.7 471,299.3 458,310 		"/>
		<polygon class="st16" points="505,267 509.7,190.3 531,262.3 518,273 		"/>
		<polygon class="st16" points="540,267 545,187.7 566,262.3 553,273 		"/>
		<polygon class="st16" points="461,261 471,190.3 487,256.3 474,267 		"/>
		<polygon class="st16" points="611,254 621.7,174.7 637,249.3 624,260 		"/>
		<polygon class="st16" points="628.3,249 640.6,190.3 658,249.3 643.2,255 		"/>
		<polygon class="st16" points="658,236 671,168 684,231.3 671,238.4 		"/>
		<polygon class="st16" points="719,240 729.7,160.7 745,235.3 732,246 		"/>
		<polygon class="st16" points="745,267 755.7,187.7 771,262.3 758,273 		"/>
		<polygon class="st16" points="768,243 778.7,163.7 794,238.3 781,249 		"/>
		<polygon class="st16" points="809,254 819.7,174.7 835,249.3 822,260 		"/>
		<polygon class="st16" points="835,243 845.7,163.7 861,238.3 848,249 		"/>
		<polygon class="st16" points="910,261 920.7,181.7 936,260 926.3,273 		"/>
		<polygon class="st16" points="948,249 951.7,174.7 974,244.3 966.3,255 		"/>
		<polygon class="st16" points="978,259 995,179.7 1004,254.3 991,265 		"/>
		<polygon class="st16" points="1037,260.7 1049.7,187.7 1065,262.3 1052,273 		"/>
		<polygon class="st16" points="1011,267 1021.7,187.7 1037,262.3 1031,273 		"/>
		<polygon class="st16" points="1113,279 1123.7,199.7 1139,268.3 1129.8,280.1 		"/>
		<polygon class="st16" points="1149,267 1159.7,187.7 1170.3,265 1156.3,273 		"/>
		<polygon class="st16" points="1177,273 1182,196.3 1208,274.3 1195,285 		"/>
		<polygon class="st16" points="1214,267 1224.7,187.7 1240,262.3 1227,273 		"/>
	</g>
	<g id="Small_Lite_Trees" class="st4">
		<polygon class="st15" points="289.5,226.5 305.5,298 287.5,305.5 281,298 		"/>
		<polygon class="st15" points="861.5,170.5 877.5,242 859.5,249.5 853,242 		"/>
		<polygon class="st15" points="654.5,183.5 670.5,255 652.5,262.5 646,255 		"/>
		<polygon class="st15" points="795.5,183.5 811.5,255 793.5,262.5 787,255 		"/>
		<polygon class="st15" points="974.5,206.5 990.5,278 972.5,285.5 966,278 		"/>
		<polygon class="st15" points="1010.5,202.5 1026.5,274 1008.5,281.5 1002,274 		"/>
		<polygon class="st15" points="1142.5,213.5 1158.5,285 1140.5,292.5 1134,285 		"/>
	</g>
	<g id="Big_Tree" class="st4">
		<g>
			<polygon class="st17" points="294,351 311,175 355,346 324.5,359.4 			"/>
			<polygon class="st17" points="458,319.4 493,156 517.9,312.9 479.9,329.4 			"/>
			<polygon class="st17" points="561,271 585.1,133 622,268 582,278 			"/>
			<polygon class="st17" points="671,282 705,135 732,277 701.5,290.4 			"/>
			<polygon class="st17" points="1058,298.4 1095.5,128 1126,306 1095.5,319.4 			"/>
			<polygon class="st17" points="1172,325 1202.5,188 1233,320 1202.5,333.4 			"/>
			<polygon class="st17" points="862,290 879,114 923,285 892.5,298.4 			"/>
		</g>
		<g>
			<polygon class="st18" points="311,176 324.5,360.4 355,347 			"/>
			<polygon class="st18" points="493,157 479.9,330.4 517.9,313.9 			"/>
			<polygon class="st18" points="585.1,134 582,279 622,269 			"/>
			<polygon class="st18" points="705,136 701.5,291.4 732,278 			"/>
			<polygon class="st18" points="879,115 892.5,299.4 923,286 			"/>
			<polygon class="st18" points="1095,129 1095,320 1126,307 			"/>
			<polygon class="st18" points="1202,189 1202,334 1233,321 			"/>
		</g>
	</g>
	<g id="Tent" class="st4">
		<polygon class="st19" points="365,335 380.5,292.8 393.5,338.8 378,335 		"/>
		<polygon class="st20" points="380.5,292.5 427,286 445.5,325 393.5,338.4 		"/>
		<polygon class="st21" points="380,293 380,335 378,335 		"/>
	</g>
	<g id="Flags" class="st4">
		<polygon class="st22" points="908.2,227.6 974,244.3 1073,230.4 974,246 		"/>
		<g>
			<polygon class="st23" points="908.7,227.8 912,235.8 914.3,229.3 			"/>
			<polygon class="st24" points="921.2,231.2 918.8,238 916.3,229.8 			"/>
			<polygon class="st23" points="928.4,233.2 926,240.2 923,231.8 			"/>
			<polygon class="st24" points="935.4,235.2 932.9,242 930.4,233.8 			"/>
			<polygon class="st23" points="942.5,237.2 939.8,244 937.7,235.8 			"/>
			<polygon class="st24" points="951,239.6 948,246 945,237.9 			"/>
			<polygon class="st23" points="954.2,240.5 955.7,248.3 958.9,241.8 			"/>
			<polygon class="st24" points="962,242.6 963.1,250.6 966.7,244 			"/>
			<polygon class="st23" points="974,246 971.5,252.5 969.3,244.7 			"/>
			<polygon class="st24" points="977.2,245.5 980,252.8 981.8,244.8 			"/>
			<polygon class="st23" points="984.6,244.3 987.3,252.5 989,243.6 			"/>
			<polygon class="st24" points="992.6,243.1 994.6,249.8 996.5,242.4 			"/>
			<polygon class="st23" points="1000.3,241.9 1002.5,248.6 1004.7,241.2 			"/>
			<polygon class="st24" points="1007.8,240.7 1008.9,247.4 1011,240.1 			"/>
			<polygon class="st23" points="1014.2,239.6 1015.3,246.6 1017.7,239.1 			"/>
			<polygon class="st24" points="1020.4,238.7 1021.9,244.9 1023.7,238.1 			"/>
			<polygon class="st23" points="1027,237.6 1028.5,243.6 1030.2,237.1 			"/>
			<polygon class="st24" points="1033.3,236.8 1035.3,242.4 1036.5,236.1 			"/>
			<polygon class="st23" points="1039.3,235.7 1040.9,242.2 1042.3,235.2 			"/>
			<polygon class="st24" points="1046.6,234.5 1047.2,240.4 1048.8,234.2 			"/>
			<polygon class="st23" points="1052.7,233.6 1053.6,238.7 1054.7,233.2 			"/>
			<polygon class="st24" points="1057.5,232.8 1058.7,237.3 1059.6,232.5 			"/>
			<polygon class="st23" points="1062.8,232 1063.4,236 1064.3,231.7 			"/>
			<polygon class="st24" points="1067.4,231.2 1068.4,234.9 1069.4,230.9 			"/>
		</g>
	</g>
	<g id="Stumps" class="st4">
		<polygon class="st25" points="603.8,275.8 612.5,292.4 604.4,290.1 601,292.2 601,296 593.6,280.4 598,275.5 		"/>
		<polygon class="st26" points="601.2,295.8 606,297.5 612,295.4 612,292 604.4,290.1 601.2,292.2 		"/>
		<polygon class="st26" points="550.7,284 568,279.5 583,285.5 573.5,289.4 555,287.5 		"/>
		<polygon class="st25" points="583,285.5 584.3,291.5 588.8,293 579.5,294.3 570,296.7 554.5,295.2 548.3,291.1 545.7,290.2 
			549.5,288.5 550.7,284 555,287.5 573.5,289.4 		"/>
		<polygon class="st27" points="603.7,279.5 606.8,287.3 603.1,283.4 		"/>
		<polygon class="st27" points="598,280.4 601.2,285.8 601.5,289.4 600,285.8 		"/>
		<polygon class="st25" points="526.5,279.8 532,277.4 536.5,281.5 531.5,296.8 529,294 524,294 521.7,295.3 		"/>
		<polygon class="st26" points="531.5,296.8 529,294 524,294 521.7,295.3 522.5,298.2 526.6,300.3 530.2,299 		"/>
		<polygon class="st27" points="533.8,283 532,292.9 532,286 		"/>
		<polygon class="st27" points="529.1,281.5 528,289.4 526.5,290.5 		"/>
	</g>
</g>
<g id="SHORE" class="st1">
	<polygon id="Shore" class="st28" points="280,394.3 372,359.4 477,340 566.8,307 658,286 779,313 899,307 1051,329.4 1214,379 
		1240,382 1240,480 281,480 	"/>
</g>
<g id="WATER" class="st1">
	<polygon id="Lake" class="st29" points="280,406.9 619,307 764.5,320 852.2,337 960.6,327 1240,398 1240,480 280,480 	"/>
	<g id="Pier" class="st4">
		<polygon class="st30" points="1013.5,322.4 987,366.3 927,362 982.5,317.4 		"/>
		<polygon class="st31" points="979,356 991.1,356 988.2,380.8 986.3,382.1 982.8,380 		"/>
		<polygon class="st31" points="924,351 934,351 932,372 928,373.3 925.7,372 		"/>
		<polygon class="st31" points="1011,317 1015,317 1014.1,324.2 1012.2,324.6 		"/>
		<polygon class="st31" points="981,312 984,312 983.4,317.5 981.8,317.9 		"/>
	</g>
	<g id="Canoe" class="st4">
		<polygon class="st32" points="1009,354 1019,346.3 1024.3,355.7 1014.3,407.2 1001.7,413.3 993,403 		"/>
		<polygon class="st33" points="1010,355.4 1017,351.2 1022.2,356 1011.5,402.8 1005,398 996.8,401.2 		"/>
		<polygon class="st34" points="1021.4,359.6 1015.8,357.7 1009,359 1010,355.4 1017,351.2 1022.2,356 		"/>
		<polygon class="st32" points="1007.5,364 1013,362.8 1020.1,365.1 1019.7,367 1013,367 1006.9,366 		"/>
		<polygon class="st32" points="1002.1,383 1007,381.2 1013,382 1016.1,383 1015.2,387 1007,387 1001.4,385.1 		"/>
		<polygon class="st34" points="1018.4,373.3 1011.6,370.8 1005.2,372 1007,366 1013,367 1020,367 		"/>
		<polygon class="st34" points="1015.2,387 1014,392 1007,392 1000.1,389.5 1001.4,385.1 1007,387 		"/>
		<g>
			<polygon class="st34" points="981,350.2 984,351.1 995,331.8 998.8,330.5 1000.2,325 995,325 993.2,329 993.5,330.8 			"/>
			<polygon class="st34" points="989,349.6 992,348.7 990.5,332.1 992,330.8 992.6,326.4 986.6,326 987.1,332.1 988.2,332.8 			"/>
		</g>
	</g>
	<g id="Waves" class="st4">
		<polygon class="st35" points="479,413.3 510,422 540,413.3 553,422 574,417.7 553,427 540,420.2 509,427 		"/>
		<polygon class="st35" points="546.5,437.7 566,445.7 583,437.7 601.7,445.7 621,441.7 601.7,450.3 583.8,444 566,450.3 		"/>
		<polygon class="st35" points="948.2,447.8 981.9,453.8 1005.3,447.9 1027,454 1008,454 982.5,461 		"/>
		<polygon class="st35" points="1039.3,437.7 1057.5,444 1082.5,437.7 1097,444 1120.3,437.7 1099,450.3 1082.5,444 1057.5,450.3 		
			"/>
	</g>
</g>
<g id="LOGO" class="st1">
	<g id="Logo" class="st4">
		<g>
			<circle class="st36" cx="767.6" cy="113.3" r="111.5"/>
			
				<use xlink:href="#BoilerCamp"  width="300" height="300" id="XMLID_1_" x="-150" y="-150" transform="matrix(0.7767 0 0 -0.7767 767.9471 114)" style="overflow:visible;"/>
		</g>
		<g>
			<polygon class="st37" points="663.4,288.5 878,280.1 878,305.8 857.6,311 878,311 878,328.9 663,333.4 663,312.9 667.4,306.7 
				663,301.4 			"/>
			<polygon class="st38" points="663.4,284.9 878,276.5 878,302.3 857.6,308 878,308 878,325.4 663,329.8 663,309.4 667.4,303.2 
				663,297.8 			"/>
			<rect x="685.5" y="296.9" class="st39" width="165.8" height="24.9"/>
			<text transform="matrix(1 0 0 1 729.3862 312.0728)" class="st40 st41 st42">SIGN UP</text>
		</g>
	</g>
</g>
</svg>
