<?xml version="1.0" encoding="utf-8"?>
<!-- Generator: Adobe Illustrator 18.1.0, SVG Export Plug-In . SVG Version: 6.00 Build 0)  -->
<!DOCTYPE svg PUBLIC "-//W3C//DTD SVG 1.1//EN" "http://www.w3.org/Graphics/SVG/1.1/DTD/svg11.dtd">
<svg version="1.1" id="Layer_1" xmlns="http://www.w3.org/2000/svg" xmlns:xlink="http://www.w3.org/1999/xlink" x="0px" y="0px"
	 viewBox="0 0 100 100" enable-background="new 0 0 100 100" xml:space="preserve">
<g>
	<defs>
		<circle id="SVGID_1_" cx="50" cy="50" r="50"/>
	</defs>
	<clipPath id="SVGID_2_">
		<use xlink:href="#SVGID_1_"  overflow="visible"/>
	</clipPath>
	<path opacity="0.6" clip-path="url(#SVGID_2_)" fill="#E67E22" d="M30.2,86.3c20.8,12,46.3,7.9,61.3-8.5
		C77.1,99.5,48,106.6,25,93.3C1.1,79.5-7.1,48.9,6.7,25c1.9-3.2,4-6.1,6.4-8.8c-0.7,1.1-1.5,2.2-2.1,3.3
		C-2.3,42.6,6.3,72.5,30.2,86.3z"/>
</g>
<g>
	<defs>
		<circle id="SVGID_3_" cx="50" cy="50" r="50"/>
	</defs>
	<clipPath id="SVGID_4_">
		<use xlink:href="#SVGID_3_"  overflow="visible"/>
	</clipPath>
	<path opacity="0.6" clip-path="url(#SVGID_4_)" fill="#F1C40F" d="M8.7,51c0,24,16.3,44.1,38,48.9C20.6,98.2,0,76.5,0,50
		C0,22.4,22.4,0,50,0c3.7,0,7.3,0.4,10.8,1.2c-1.3-0.1-2.6-0.2-4-0.2C30.2,1,8.7,23.4,8.7,51z"/>
</g>
<g>
	<defs>
		<circle id="SVGID_5_" cx="50" cy="50" r="50"/>
	</defs>
	<clipPath id="SVGID_6_">
		<use xlink:href="#SVGID_5_"  overflow="visible"/>
	</clipPath>
	<path opacity="0.6" clip-path="url(#SVGID_6_)" fill="#2ECC71" d="M28.5,14.7c-20.8,12-30,36.1-23.3,57.4C-6.4,48.7,2.1,20,25,6.7
		C48.9-7.1,79.5,1.1,93.3,25c1.9,3.2,3.3,6.5,4.4,9.9c-0.6-1.2-1.2-2.4-1.8-3.5C82.6,8.4,52.4,0.9,28.5,14.7z"/>
</g>
<g>
	<defs>
		<circle id="SVGID_7_" cx="50" cy="50" r="50"/>
	</defs>
	<clipPath id="SVGID_8_">
		<use xlink:href="#SVGID_7_"  overflow="visible"/>
	</clipPath>
	<path opacity="0.6" clip-path="url(#SVGID_8_)" fill="#3498DB" d="M69.8,13.7C49,1.7,23.5,5.8,8.5,22.2C23,0.5,52.1-6.5,75,6.7
		C98.9,20.5,107.1,51.1,93.3,75c-1.9,3.2-4,6.1-6.4,8.8c0.7-1.1,1.5-2.2,2.1-3.3C102.3,57.4,93.7,27.5,69.8,13.7z"/>
</g>
<g>
	<defs>
		<circle id="SVGID_9_" cx="50" cy="50" r="50"/>
	</defs>
	<clipPath id="SVGID_10_">
		<use xlink:href="#SVGID_9_"  overflow="visible"/>
	</clipPath>
	<path opacity="0.6" clip-path="url(#SVGID_10_)" fill="#9B59B6" d="M91.3,49c0-24-16.3-44.1-38-48.9C79.4,1.8,100,23.5,100,50
		c0,27.6-22.4,50-50,50c-3.7,0-7.3-0.4-10.8-1.2c1.3,0.1,2.6,0.2,4,0.2C69.8,99,91.3,76.6,91.3,49z"/>
</g>
<g>
	<defs>
		<circle id="SVGID_11_" cx="50" cy="50" r="50"/>
	</defs>
	<clipPath id="SVGID_12_">
		<use xlink:href="#SVGID_11_"  overflow="visible"/>
	</clipPath>
	<path opacity="0.6" clip-path="url(#SVGID_12_)" fill="#E74C3C" d="M71.5,85.3c20.8-12,30-36.1,23.3-57.4
		C106.4,51.4,98,80.1,75,93.3C51.1,107.1,20.5,98.9,6.7,75c-1.9-3.2-3.3-6.5-4.4-9.9c0.6,1.2,1.2,2.4,1.8,3.5
		C17.5,91.6,47.6,99.1,71.5,85.3z"/>
</g>
</svg>
