<?xml version="1.0" encoding="utf-8"?>
<!-- Generator: Adobe Illustrator 19.1.0, SVG Export Plug-In . SVG Version: 6.00 Build 0)  -->
<svg version="1.1" xmlns="http://www.w3.org/2000/svg" xmlns:xlink="http://www.w3.org/1999/xlink" x="0px" y="0px"
	 viewBox="0 0 596.3 587.8" style="enable-background:new 0 0 596.3 587.8;" xml:space="preserve">
<style type="text/css">
	.st0{fill:#FF765E;}
	.st1{fill:#42210B;}
	.st2{fill:#754C24;}
	.st3{opacity:0.5;fill:url(#SVGID_3_);}
	.st4{fill:url(#SVGID_4_);}
	.st5{opacity:0.2;fill:#231F20;}
	.st6{fill:#231F20;}
	.st7{fill:url(#SVGID_5_);}
	.st8{opacity:0.7;fill:url(#SVGID_6_);}
	.st9{fill:url(#SVGID_7_);}
	.st10{opacity:0.7;fill:url(#SVGID_8_);}
	.st11{opacity:0.7;fill:url(#SVGID_9_);}
	.st12{opacity:0.4;fill:#B58B3C;}
	.st13{fill:url(#SVGID_10_);}
	.st14{fill:#F29D35;}
	.st15{fill:#FFFFFF;}
	.st16{fill:#803B2F;}
	.st17{fill:#BDA159;}
	.st18{fill:#FCD776;}
	.st19{fill:#74A588;}
	.st20{fill:#FDFAD2;}
	.st21{fill:#FDFAD0;}
	.st22{fill:#1B0F11;}
	.st23{display:none;}
	.st24{display:inline;}
	.st25{fill:#FFE5C6;}
	.st26{clip-path:url(#SVGID_12_);fill:#BF5947;}
	.st27{clip-path:url(#SVGID_12_);fill:#FFE5C6;}
	.st28{clip-path:url(#SVGID_14_);fill:#BF5947;}
	.st29{clip-path:url(#SVGID_14_);fill:#BDA159;}
	.st30{clip-path:url(#SVGID_16_);fill:#BF5947;}
	.st31{clip-path:url(#SVGID_16_);fill:#FCD776;}
	.st32{clip-path:url(#SVGID_18_);fill:#BF5947;}
	.st33{clip-path:url(#SVGID_18_);fill:#74A588;}
	.st34{fill:#42282F;}
	.st35{fill:#D6655A;}
	.st36{fill:#DC9C76;}
	.st37{fill:#757BA2;}
	.st38{fill:#5C4B51;}
	.st39{fill:none;stroke:#5C4B51;stroke-width:6;stroke-linecap:round;stroke-miterlimit:10;}
	.st40{fill:none;stroke:#5C4B51;stroke-width:6;stroke-linecap:round;stroke-linejoin:round;}
	.st41{fill:none;stroke:#5C4B51;stroke-width:6;stroke-linecap:round;stroke-linejoin:round;stroke-dasharray:0,12.3056;}
	.st42{fill:none;stroke:#5C4B51;stroke-width:30;stroke-linejoin:round;stroke-miterlimit:10;}
	.st43{fill:none;stroke:#FFFFFF;stroke-width:30;stroke-linejoin:round;stroke-miterlimit:10;}
	.st44{fill:none;stroke:#ABD25D;stroke-width:6;stroke-linejoin:round;}
	.st45{fill:#ABD25D;}
	.st46{fill:none;stroke:#5C4B51;stroke-width:6;stroke-linecap:round;stroke-linejoin:round;stroke-dasharray:0,11.8498;}
	.st47{fill:#5A2C18;}
	.st48{fill-rule:evenodd;clip-rule:evenodd;fill:#35591C;}
	.st49{opacity:0.3;fill:url(#SVGID_19_);}
	.st50{opacity:0.3;fill:url(#SVGID_20_);}
	.st51{fill:url(#SVGID_21_);}
	.st52{fill:url(#SVGID_22_);}
	.st53{opacity:0.3;}
	.st54{opacity:0.9;}
	.st55{fill:#D3D3D3;}
	.st56{opacity:0.9;fill:#989898;}
	.st57{fill:#AAAAAA;}
	.st58{fill:#BFBFBF;}
	.st59{fill:#E4E4E4;}
	.st60{fill:none;stroke:#BABABA;stroke-width:0;}
	.st61{fill:#F4F4F4;}
	.st62{fill:url(#SVGID_23_);}
	.st63{fill:url(#SVGID_24_);}
	.st64{fill:#5A6D81;}
	.st65{fill:#AEBFC2;}
	.st66{fill:#424242;}
	.st67{fill:#BEBDB8;}
	.st68{fill:#816F64;}
	.st69{fill:#716764;}
	.st70{fill:#322E32;}
	.st71{fill:#73655D;}
	.st72{fill:#D9D9D7;}
	.st73{fill:#716463;}
	.st74{fill:#655752;}
	.st75{fill:#806F6B;}
	.st76{fill:#595554;}
	.st77{fill:#746D68;}
	.st78{fill:#494A4C;}
	.st79{fill:#363D42;}
	.st80{fill:#262733;}
	.st81{fill:#E6EEF4;}
	.st82{fill:#7C8C9A;}
	.st83{fill:#8A9693;}
	.st84{fill:#E4ECEF;}
	.st85{fill:#EDF3F9;}
	.st86{fill:#EDF1F4;}
	.st87{fill:#ECF3F8;}
	.st88{fill:#F8FBFD;}
	.st89{fill:#96A9AB;}
	.st90{fill:#717D79;}
	.st91{fill:#6983A4;}
	.st92{fill:#637891;}
	.st93{fill:#5D7690;}
	.st94{fill:#6886B1;}
	.st95{fill:#5E8CC7;}
	.st96{fill:#6D5E56;}
	.st97{fill:#61504B;}
	.st98{fill:#76675B;}
	.st99{fill:#2B282A;}
	.st100{fill:#1D1A1A;}
	.st101{fill:#201D20;}
	.st102{fill:#4C4E54;}
	.st103{fill:#393B36;}
	.st104{fill:#202325;}
	.st105{fill:#2D2726;}
	.st106{fill:#30302E;}
	.st107{fill:#353739;}
	.st108{fill:#645954;}
	.st109{fill:#745F51;}
	.st110{fill:#3F434B;}
	.st111{fill:#594740;}
	.st112{fill:#605654;}
	.st113{fill:#6A5955;}
	.st114{fill:#CCC9C4;}
	.st115{fill:#B0AFAD;}
	.st116{fill:#76756A;}
	.st117{fill:#634F43;}
	.st118{fill:#665852;}
	.st119{fill:#6F5C54;}
	.st120{fill:#6C5A57;}
	.st121{fill:#74665B;}
	.st122{fill:#C1C1BA;}
	.st123{fill:#4F504E;}
	.st124{fill:#3E3F3C;}
	.st125{fill:#2F1D19;}
	.st126{fill:#65544E;}
	.st127{fill:#7E6F64;}
	.st128{fill:#D1CEC8;}
	.st129{fill:#DFDED9;}
	.st130{fill:#65544F;}
	.st131{fill:#60504D;}
	.st132{fill:#705D50;}
	.st133{fill:#79685C;}
	.st134{fill:#7C695D;}
	.st135{fill:#605250;}
	.st136{fill:#71615A;}
	.st137{fill:#64534A;}
	.st138{fill:#776862;}
	.st139{fill:#655247;}
	.st140{fill:#675546;}
	.st141{fill:#695A5A;}
	.st142{fill:#D8E1EC;}
	.st143{fill:#F2F5F7;}
	.st144{fill:#DAE3EC;}
	.st145{fill:#E4EBF4;}
	.st146{fill:#EEF1F7;}
	.st147{fill:#FAFBFC;}
	.st148{fill:#5986C4;}
	.st149{fill:#252226;}
	.st150{fill:#484C4D;}
	.st151{fill:#5F514F;}
	.st152{fill:#736154;}
	.st153{fill:#846F5E;}
	.st154{fill:#544853;}
	.st155{fill:#5F5047;}
	.st156{fill:#252220;}
	.st157{fill:#665951;}
	.st158{fill:#826C59;}
	.st159{fill:#726357;}
	.st160{fill:#695D57;}
	.st161{fill:#7C776E;}
	.st162{fill:#584F4D;}
	.st163{fill:#766962;}
	.st164{fill:#5B5656;}
	.st165{fill:#7D6F65;}
	.st166{fill:#706B70;}
	.st167{fill:#70625B;}
	.st168{fill:#536174;}
	.st169{fill:#8192A9;}
	.st170{fill:#6E797E;}
	.st171{fill:#F8F9F9;}
	.st172{fill:#A0B4C6;}
	.st173{fill:#E8F1F5;}
	.st174{fill:#EEF6FA;}
	.st175{fill:#E5EEF3;}
	.st176{fill:#EBEEEB;}
	.st177{fill:#9AA39E;}
	.st178{fill:#EDF5F9;}
	.st179{fill:#9EB0BA;}
	.st180{fill:#19222D;}
	.st181{fill:#739DD2;}
	.st182{fill:#272429;}
	.st183{fill:#232125;}
	.st184{fill:#35393A;}
	.st185{fill:#3F4143;}
	.st186{fill:#515152;}
	.st187{fill:#586B80;}
	.st188{fill:#8C9594;}
	.st189{fill:#637684;}
	.st190{fill:#18171E;}
	.st191{fill:#8C9AAC;}
	.st192{fill:#EEF5FA;}
	.st193{fill:#688D9B;}
	.st194{fill:#687D8A;}
	.st195{fill:#67798A;}
	.st196{fill:#586C7F;}
	.st197{fill:#677479;}
	.st198{fill:#727877;}
	.st199{fill:#758A9C;}
	.st200{fill:#7C8582;}
	.st201{fill:#92A3AE;}
	.st202{fill:#A1B2BB;}
	.st203{fill:#EBF3F9;}
	.st204{fill:#6C7F97;}
	.st205{fill:#6B7D90;}
	.st206{fill:#6B7880;}
	.st207{fill:#869AA4;}
	.st208{fill:#8FA1A8;}
	.st209{fill:#657678;}
	.st210{fill:#D0DBDC;}
	.st211{fill:#8C939A;}
	.st212{fill:#6F9AD1;}
	.st213{fill:#5B7593;}
	.st214{fill:#5F788F;}
	.st215{fill:#4B6A8D;}
	.st216{fill:#6A97CF;}
	.st217{fill:#5E7187;}
	.st218{fill:#445C70;}
	.st219{fill:#5483C2;}
	.st220{fill:#5F6A73;}
	.st221{fill:#475563;}
	.st222{fill:#566169;}
	.st223{fill:#65544C;}
	.st224{fill:#715E54;}
	.st225{fill:#665652;}
	.st226{fill:#625145;}
	.st227{fill:#544544;}
	.st228{fill:#564945;}
	.st229{fill:#7C706B;}
	.st230{fill:#746057;}
	.st231{fill:#7F6A5A;}
	.st232{fill:#665A57;}
	.st233{fill:#786B66;}
	.st234{fill:#685F5E;}
	.st235{fill:#6C5B52;}
	.st236{fill:#655852;}
	.st237{fill:#7C7271;}
	.st238{fill:#86766D;}
	.st239{fill:#6E625F;}
	.st240{fill:#847B79;}
	.st241{fill:#28262B;}
	.st242{fill:#282A35;}
	.st243{fill:#281714;}
	.st244{fill:#6B584D;}
	.st245{fill:#574A48;}
	.st246{fill:#212026;}
	.st247{fill:#736052;}
	.st248{fill:#7B7275;}
	.st249{fill:#8D8482;}
	.st250{fill:#DCE3EB;}
	.st251{fill:#819FAE;}
	.st252{fill:#D8E0E6;}
	.st253{fill:#354C5C;}
	.st254{fill:#4A4E53;}
	.st255{fill:#786759;}
	.st256{fill:#383731;}
	.st257{fill:#393D41;}
	.st258{fill:#43433E;}
	.st259{fill:#68675C;}
	.st260{fill:#383838;}
	.st261{fill:#252726;}
	.st262{fill:#6D584C;}
	.st263{fill:#745F52;}
	.st264{fill:#685A50;}
	.st265{fill:#68564F;}
	.st266{fill:#7C6657;}
	.st267{fill:#69564D;}
	.st268{fill:#7B604E;}
	.st269{fill:#786352;}
	.st270{fill:#6A5E57;}
	.st271{fill:#635C61;}
	.st272{fill:#7F7363;}
	.st273{fill:#D2D0C9;}
	.st274{fill:#7E6E60;}
	.st275{fill:#3F303A;}
	.st276{fill:#3F3949;}
	.st277{fill:#3B3C4C;}
	.st278{fill:#D0DBE8;}
	.st279{fill:#4E536B;}
	.st280{fill:#BFC7CF;}
	.st281{fill:#49343C;}
	.st282{fill:#51616F;}
	.st283{fill:#CDCED1;}
	.st284{fill:#3F2C37;}
	.st285{fill:#3C3746;}
	.st286{fill:#E9E7EA;}
	.st287{fill:#7C889A;}
	.st288{fill:#CCD9E6;}
	.st289{fill:#726561;}
	.st290{fill:#6A5A55;}
	.st291{fill:#60554F;}
	.st292{fill:#292223;}
	.st293{fill:#454547;}
	.st294{fill:#303032;}
	.st295{fill:#1B0C0D;}
	.st296{fill:#3A4141;}
	.st297{fill:#75645A;}
	.st298{fill:#7C716D;}
	.st299{fill:#645142;}
	.st300{fill:#675C58;}
	.st301{fill:#837464;}
	.st302{fill:#71645C;}
	.st303{fill:#5B4E4C;}
	.st304{fill:#6D6564;}
	.st305{fill:#847560;}
	.st306{fill:#2B1A18;}
	.st307{fill:#6B5548;}
	.st308{fill:#6A5D53;}
	.st309{fill:#655858;}
	.st310{fill:#66595C;}
	.st311{fill:#6A686C;}
	.st312{fill:#5E514A;}
	.st313{fill:#90A2AE;}
	.st314{fill:#5C676A;}
	.st315{fill:#3F2D35;}
	.st316{fill:#5B4140;}
	.st317{fill:#413743;}
	.st318{fill:#422C38;}
	.st319{fill:#EBEEEE;}
	.st320{fill:#7F9BA5;}
	.st321{fill:#DDDEE1;}
	.st322{fill:#8A9FA2;}
	.st323{fill:#708994;}
	.st324{fill:#F2F4F6;}
	.st325{fill:#CECED2;}
	.st326{fill:#B4BDC6;}
	.st327{fill:#D1D1D4;}
	.st328{fill:#87A4AC;}
	.st329{fill:#F5F8F9;}
	.st330{fill:#8D9CAA;}
	.st331{fill:#7698A3;}
	.st332{fill:#F9FBFC;}
	.st333{fill:#D3DAD6;}
	.st334{fill:#638291;}
	.st335{fill:#EFF6FB;}
	.st336{fill:#EDF5F8;}
	.st337{fill:#7B827F;}
	.st338{fill:#697371;}
	.st339{fill:#7E94A1;}
	.st340{fill:#7F8B93;}
	.st341{fill:#4B5053;}
	.st342{fill:#766358;}
	.st343{fill:#775E4D;}
	.st344{fill:#64544D;}
	.st345{fill:#6A5041;}
	.st346{fill:#766155;}
	.st347{fill:#66564F;}
	.st348{fill:#5F585B;}
	.st349{fill:#6D564A;}
	.st350{fill:#6F89A8;}
	.st351{fill:#2B4661;}
	.st352{fill:#6B7C8A;}
	.st353{fill:#E9F0F5;}
	.st354{fill:#E6EDF2;}
	.st355{fill:#8796AD;}
	.st356{fill:#616B72;}
	.st357{fill:#3F362D;}
	.st358{fill:#50585D;}
	.st359{fill:#5C6565;}
	.st360{fill:#554F4B;}
	.st361{fill:#7D8697;}
	.st362{fill:#E1E5E8;}
	.st363{fill:#F1F5F7;}
	.st364{fill:#4B433B;}
	.st365{fill:#453930;}
	.st366{fill:#535955;}
	.st367{fill:#847F7E;}
	.st368{fill:#6E707E;}
	.st369{fill:#7D91A0;}
	.st370{fill:#95A3AD;}
	.st371{fill:#161E2C;}
	.st372{fill:#1B252D;}
	.st373{fill:#2F3840;}
	.st374{fill:#6F7C96;}
	.st375{fill:#6E809A;}
	.st376{fill:#4A5860;}
	.st377{fill:#4B5E6E;}
	.st378{fill:#6F8DBD;}
	.st379{fill:#D8DEDD;}
	.st380{fill:#BFCACC;}
	.st381{fill:#141B23;}
	.st382{fill:#DFE6EA;}
	.st383{fill:#E4EDF1;}
	.st384{fill:#4B678C;}
	.st385{fill:#7289AB;}
	.st386{fill:#4A6387;}
	.st387{fill:#374C70;}
	.st388{fill:#456386;}
	.st389{fill:#426188;}
	.st390{fill:#556477;}
	.st391{fill:#3C4D56;}
	.st392{fill:#7185A0;}
	.st393{fill:#414039;}
	.st394{fill:#4B4E4E;}
	.st395{fill:#697280;}
	.st396{fill:#766456;}
	.st397{fill:#7C6D5F;}
	.st398{fill:#6F5D55;}
	.st399{fill:#6A584C;}
	.st400{fill:#786353;}
	.st401{fill:#615455;}
	.st402{fill:#82746E;}
	.st403{fill:#716050;}
	.st404{fill:#847268;}
	.st405{fill:#544540;}
	.st406{fill:#766255;}
	.st407{fill:#18181E;}
	.st408{fill:#745C4A;}
	.st409{fill:#776456;}
	.st410{fill:#755F4D;}
	.st411{fill:#5E514E;}
	.st412{fill:#867262;}
	.st413{fill:#605151;}
	.st414{fill:#6F5F58;}
	.st415{fill:#49494C;}
	.st416{fill:#66544C;}
	.st417{fill:#66584E;}
	.st418{fill:#63534C;}
	.st419{fill:#594A46;}
	.st420{fill:#5D4B40;}
	.st421{fill:#766053;}
	.st422{fill:#5A4740;}
	.st423{fill:#38232F;}
	.st424{fill:#3B2733;}
	.st425{fill:#464753;}
	.st426{fill:#EFF1F2;}
	.st427{fill:#EEEFF0;}
	.st428{fill:#6E5D4D;}
	.st429{fill:#46494E;}
	.st430{fill:#302823;}
	.st431{fill:#6D6969;}
	.st432{fill:#292727;}
	.st433{fill:#6C5E54;}
	.st434{fill:#29292B;}
	.st435{fill:#1D1A14;}
	.st436{fill:#7A6659;}
	.st437{fill:#705C4C;}
	.st438{fill:#75655B;}
	.st439{fill:#675244;}
	.st440{fill:#8B7258;}
	.st441{fill:#614E44;}
	.st442{fill:#5A4741;}
	.st443{fill:#654E39;}
	.st444{fill:#786E73;}
	.st445{fill:#867363;}
	.st446{fill:#827467;}
	.st447{fill:#5E4B45;}
	.st448{fill:#C0BCC1;}
	.st449{fill:#EAEAEB;}
	.st450{fill:#EBEFF0;}
	.st451{fill:#5D4845;}
	.st452{fill:#CDCDD0;}
	.st453{fill:#C4C4C8;}
	.st454{fill:#B5BABF;}
	.st455{fill:#EDF0F2;}
	.st456{fill:#F1F6F7;}
	.st457{fill:#746459;}
	.st458{fill:#786F6B;}
	.st459{fill:#847466;}
	.st460{fill:#7E6C61;}
	.st461{fill:#362824;}
	.st462{fill:#7A6D65;}
	.st463{fill:#6D5B50;}
	.st464{fill:#6B5A52;}
	.st465{fill:#7A6D62;}
	.st466{fill:#6A5A50;}
	.st467{fill:#695A50;}
	.st468{fill:#87725D;}
	.st469{fill:#796B5F;}
	.st470{fill:#594E4F;}
	.st471{fill:#6E6566;}
	.st472{fill:#574947;}
	.st473{fill:#837161;}
	.st474{fill:#7B6D5B;}
	.st475{fill:#6A5C4C;}
	.st476{fill:#7B6758;}
	.st477{fill:#5F504B;}
	.st478{fill:#5F5051;}
	.st479{fill:#564A44;}
	.st480{fill:#745F4F;}
	.st481{fill:#D8DEE3;}
	.st482{fill:#C6C8CD;}
	.st483{fill:#C6C8CC;}
	.st484{fill:#D0D1D3;}
	.st485{fill:#F1F2F4;}
	.st486{fill:#F0F1F2;}
	.st487{fill:#F4F6F8;}
	.st488{fill:#EFF2F2;}
	.st489{fill:#BEC1C3;}
	.st490{fill:#AFAEB6;}
	.st491{fill:#1B2021;}
	.st492{fill:#A5B8BE;}
	.st493{fill:#5B7686;}
	.st494{fill:#768E95;}
	.st495{fill:#75939D;}
	.st496{fill:#5E7E8B;}
	.st497{fill:#708A97;}
	.st498{fill:#728E9D;}
	.st499{fill:#5A7680;}
	.st500{fill:#D6DFE5;}
	.st501{fill:#426A78;}
	.st502{fill:#4D727F;}
	.st503{fill:#D0D9DF;}
	.st504{fill:#ECF1F5;}
	.st505{fill:#725C51;}
	.st506{fill:#7E6E65;}
	.st507{fill:#83736B;}
	.st508{fill:#654D42;}
	.st509{fill:#60504C;}
	.st510{fill:#69564A;}
	.st511{fill:#5D4D48;}
	.st512{fill:#6D5545;}
	.st513{fill:#5D4F47;}
	.st514{fill:#685C5A;}
	.st515{fill:#5F453D;}
	.st516{fill:#5A4D47;}
	.st517{fill:#554843;}
	.st518{fill:#57453E;}
	.st519{fill:#6F5846;}
	.st520{fill:#6D5A4B;}
	.st521{fill:#534946;}
	.st522{fill:#534B4F;}
	.st523{fill:#564744;}
	.st524{fill:#5E7BA0;}
	.st525{fill:#1B1613;}
	.st526{fill:#717873;}
	.st527{fill:#68808D;}
	.st528{fill:#8792A4;}
	.st529{fill:#111E26;}
	.st530{fill:#5E6873;}
	.st531{fill:#BEC4CD;}
	.st532{fill:#748699;}
	.st533{fill:#0A131C;}
	.st534{fill:#E0E8ED;}
	.st535{fill:#394448;}
	.st536{fill:#7F6A5E;}
	.st537{fill:#7B6657;}
	.st538{fill:#604B41;}
	.st539{fill:#6B594D;}
	.st540{fill:#5A4941;}
	.st541{fill:#826F60;}
	.st542{fill:#776763;}
	.st543{fill:#5F4C45;}
	.st544{fill:#63534D;}
	.st545{fill:#7C6863;}
	.st546{fill:#736460;}
	.st547{fill:#523E36;}
	.st548{fill:#5E4C46;}
	.st549{fill:#5D4B45;}
	.st550{fill:#75695C;}
	.st551{fill:#7A6F68;}
	.st552{fill:#615B5A;}
	.st553{fill:#888483;}
	.st554{fill:#726864;}
	.st555{fill:#807061;}
	.st556{fill:#262225;}
	.st557{fill:#121115;}
	.st558{fill:#454649;}
	.st559{fill:#F2F5F5;}
	.st560{fill:#827165;}
	.st561{fill:#715F51;}
	.st562{fill:#726361;}
	.st563{fill:#837267;}
	.st564{fill:#796457;}
	.st565{fill:#625049;}
	.st566{fill:#624E40;}
	.st567{fill:#7F6E60;}
	.st568{fill:#716563;}
	.st569{fill:#7B7069;}
	.st570{fill:#D1D0C9;}
	.st571{fill:#73645A;}
	.st572{fill:#7A6859;}
	.st573{fill:#574943;}
	.st574{fill:#E6E4DF;}
	.st575{fill:#6E5F5A;}
	.st576{fill:#A5817A;}
	.st577{fill:#D9E2E7;}
	.st578{fill:#537781;}
	.st579{fill:#EAF1F6;}
	.st580{fill:#BBC5CF;}
	.st581{fill:#637C88;}
	.st582{fill:#547482;}
	.st583{fill:#E7EFF4;}
	.st584{fill:#8BA0AF;}
	.st585{fill:#A9B8C6;}
	.st586{fill:#F6F9FB;}
	.st587{fill:#ECF2F6;}
	.st588{fill:#A9B8C1;}
	.st589{fill:#F3F7FA;}
	.st590{fill:#F0F3F6;}
	.st591{fill:#B1C2CC;}
	.st592{fill:#AFC1CF;}
	.st593{fill:#90A1AF;}
	.st594{fill:#849BAB;}
	.st595{fill:#819DB0;}
	.st596{fill:#F2F5F9;}
	.st597{fill:#A4B7C4;}
	.st598{fill:#8298A8;}
	.st599{fill:#ABBCC8;}
	.st600{fill:#746256;}
	.st601{fill:#5D463A;}
	.st602{fill:#604537;}
	.st603{fill:#655757;}
	.st604{fill:#7F6B5D;}
	.st605{fill:#5C4735;}
	.st606{fill:#857B7C;}
	.st607{fill:#948C9A;}
	.st608{fill:#7B6654;}
	.st609{fill:#645A59;}
	.st610{fill:#716051;}
	.st611{fill:#695447;}
	.st612{fill:#655750;}
	.st613{fill:#6E645E;}
	.st614{fill:#75675E;}
	.st615{fill:#94928B;}
	.st616{fill:#7D6D5B;}
	.st617{fill:#2B2E35;}
	.st618{fill:#8A7461;}
	.st619{fill:#776354;}
	.st620{fill:#725E52;}
	.st621{fill:#675448;}
	.st622{fill:#675344;}
	.st623{fill:#776049;}
	.st624{fill:#8A7C72;}
	.st625{fill:#8F816F;}
	.st626{fill:#77655B;}
	.st627{fill:#6B5957;}
	.st628{fill:#605356;}
	.st629{fill:#675340;}
	.st630{fill:#3A3934;}
	.st631{fill:#7A6556;}
	.st632{fill:#807064;}
	.st633{fill:#6E6C5B;}
	.st634{fill:#6A584E;}
	.st635{fill:#5D5048;}
	.st636{fill:#61534E;}
	.st637{fill:#69554E;}
	.st638{fill:#27231E;}
	.st639{fill:#BDCAD4;}
	.st640{fill:#556F7C;}
	.st641{fill:#98A9B7;}
	.st642{fill:#94A9B7;}
	.st643{fill:#C2D0DA;}
	.st644{fill:#8BA4B5;}
	.st645{fill:#7F9BA8;}
	.st646{fill:#81736A;}
	.st647{fill:#908484;}
	.st648{fill:#5B473D;}
	.st649{fill:#5B4A3E;}
	.st650{fill:#675540;}
	.st651{fill:#584844;}
	.st652{fill:#59463C;}
	.st653{fill:#77614F;}
	.st654{fill:#5C4942;}
	.st655{fill:#563F35;}
	.st656{fill:#6E5C51;}
	.st657{fill:#5B4B40;}
	.st658{fill:#897864;}
	.st659{fill:#604B3F;}
	.st660{fill:#78614D;}
	.st661{fill:#67513E;}
	.st662{fill:#7E695C;}
	.st663{fill:#746355;}
	.st664{fill:#302F2D;}
	.st665{fill:#69524A;}
	.st666{fill:#8F796F;}
	.st667{fill:#7A6353;}
	.st668{fill:#685855;}
	.st669{fill:#41403E;}
	.st670{fill:#241412;}
	.st671{fill:#918580;}
	.st672{fill:#776355;}
	.st673{fill:#756763;}
	.st674{fill:#312A27;}
	.st675{fill:#665A53;}
	.st676{fill:#624C39;}
	.st677{fill:#816B61;}
	.st678{fill:#6B594F;}
	.st679{fill:#6A5647;}
	.st680{fill:#26130F;}
	.st681{fill:#6E5E55;}
	.st682{fill:#69584E;}
	.st683{fill:#766658;}
	.st684{fill:#5D4F48;}
	.st685{fill:#827468;}
	.st686{fill:#5C4C46;}
	.st687{fill:#7F7166;}
	.st688{fill:#7C6B62;}
	.st689{fill:#7B6B5E;}
	.st690{fill:#75675C;}
	.st691{fill:#7D6755;}
	.st692{fill:#918177;}
	.st693{fill:#877668;}
	.st694{fill:#68584D;}
	.st695{fill:#5E5047;}
	.st696{fill:#705E50;}
	.st697{fill:#594F4F;}
	.st698{fill:#69574C;}
	.st699{fill:#7B6B5D;}
	.st700{fill-rule:evenodd;clip-rule:evenodd;fill:#243C13;}
	.st701{fill-rule:evenodd;clip-rule:evenodd;fill:#052B03;}
</style>
<g id="Layer_3">
</g>
<g id="Layer_4">
</g>
<g id="Layer_1">
	<g id="Logo_Dark">
	</g>
</g>
<g id="Layer_5">
	<g id="Layer_6">
	</g>
</g>
<g id="Layer_7" class="st23">
</g>
<g id="Layer_8">
</g>
<g id="Layer_9">
	<g id="Logo_Dark_1_">
	</g>
	<g id="BoilerCamp_1_">
	</g>
	<g id="BoilerCamp">
	</g>
	<g id="BoilerCamp_2_">
		<path class="st48" d="M225.3,10.2V5.1c8.7,3.8,5,19.8,13.6,23.7c1.4-0.3,1.7-1.7,3.4-1.7c-0.7-3.3-6.6-1.3-5.1-6.8
			c7.8,1.5,7.9,1.8,11.9,5.1c6.4-3.6-2-12.9,6.8-15.3c-1.3-1.7-5.9,0.6-8.5-3.4c2.9-2.2,9.1,0.6,10.2-6.8c3.3,4.6,1.1,14.8,5.1,18.6
			c3.4,0,2.2-4.6,6.8-3.4c-1.8,7.6-5,4.9,1.7,6.8c-2.1,2.5-6.8,2.3-6.8,6.8c4-0.5,7-3.3,10.2,0c3.6-2.5-1.2-4.1,1.7-8.5
			c6.9,2.1-1.8,9.6,0,16.9c4.8-0.2,3.1-7.1,3.4-11.9c8.1-0.4,7.7-9.9,22-3.4c-3.7,3.5,0.2,5.5,1.7,8.5c4.2,0.3,8.2,0.3,8.5-3.4
			c-0.5,8.1-4.8,4.9-1.7,13.6c0.5,1.4-2.5,1.5-3.4,1.7c2.6,3.1,7.3,4,10.2,6.8c2.3-0.5,1.4-4.2,1.7-6.8c3.6-0.8,3.2,2.4,3.4,5.1
			c6.1-0.7,9-4.5,16.9-3.4c-4.7-5.2-0.4-6.9,5.1-10.2V39C349,34,352.6,20,359.1,22c0.9,3.8-3.2,2.4-3.4,5.1
			c8.8,0.7,11.8-11.6,16.9-22c0.3,6,13.8,3.7,6.8,6.8c1.3,6,8-5.1,8.5,0c-8.3,5.8-17.6,10.6-22,20.3c5.2,0.1,4.1-6.1,10.2-5.1
			c0.6,6,4.7,4.2,1.7,10.2c5.7,1.7,2.6-5.3,3.4-8.5c4.4,5.2,0.1,19.3-3.4,20.3c-0.4,5,3.8,5.2,3.4,10.2c7.9-0.4,0.3-10.9,6.8-6.8
			c-0.3-2.2-4.9-8.3-1.7-8.5c8-1.8-3.4,6.3,5.1,5.1c0.7-2.7,4.6-3.9,1.7-10.2h8.5c-5,7.7,4.4,4,5.1,10.2c-7.7-1.5-9.6,2.8-15.3,3.4
			v6.8c-6.4-7.1-13.9,9.8-15.2,18.6c0.9,3.5,8,0.4,3.4,5.1c6-4.2,6.7-13.6,16.9-13.6c-1.3-1.5-1.8-3.8-1.7-6.8
			c3.6-0.8,3.2,2.4,3.4,5.1c6.1-3.5,11.4-7.8,16.9-11.9c3.8,7.3-14.8,6.6-11.9,18.6c-8.6,2.7-4.7-2.5-11.9,0
			c4.9,1.6,1.1,5.6,3.4,6.8c-1.5,4.6-4.1-3.6-5.1-5.1c-2.9,2.2-2.1,8.1-6.8,8.5c12,5.2,20.1-8.1,35.6-5.1c5.5-1.3,0.4-13.2,8.5-11.9
			c-0.2,4.3-1,8.1-3.4,10.2c2.8,2.9,9.2,2.1,11.9,5.1c1.8-0.4,1.1-3.4,3.4-3.4c-7.1-0.6,1-5.2,6.8-6.8c1.2,4.6-3.4,3.4-3.4,6.8
			c6.1,1.1,13.9,0.7,16.9-10.2c3.5-1.5,0.5,11.5,3.4,5.1c6,7-14.9,5.4-8.5,13.6c-11.4-1.1-11.5,4.3-20.3,8.5c0-1.6,2.1-1.3,3.4-1.7
			c-1.6-1.7-3.3-3.4-5.1-5.1c-2.9-0.1-4.4,1.3-5.1,3.4c7.9-2.1,4.7,10.2,16.9,5.1c-0.1,5-6.4,3.7-5.1,10.2c-3.1-0.3-1-5.7-3.4-6.8
			c-5.5,1.9,0.4,5.7-6.8,6.8c0.3,2,3.1,1.4,5.1,1.7c0.9,8.7-11,4.3-6.8,11.9c-2.8,5.5-9.2-3.1-11.9,1.7c5.1,2.2,3.8,0.5,10.2,5.1
			c2.7-0.7,1.5-5.3,6.8-3.4c-0.7-1.5-1.5-3-3.4-3.4c3.3-7.8,12.6,0.4,13.6-10.2c5,2.8,4.2,11.2-1.7,13.6c7.9,0.7,9,9.9,10.2-1.7
			c2.2,0.6,2.7,3,5.1,3.4c-2.1-8.1,14.1-4.4,8.5-16.9c3.5,0.9,3.3,5.1,6.8,1.7c0-1.6-2.1-1.3-3.4-1.7c0.5-6.7,5.2,1.2,6.8-3.4
			c4.6,6.4-7.7,10.3-10.2,15.2c0.5,4,4.6-1.9,5.1-3.4c1.7,5.3-2.5,5,3.4,10.2c-8.3-5.3-15,3.6-18.6,8.5c3,3.8,7.1-4.2,6.8-5.1
			c8.8,8.1-17.7,9.1-13.6,23.7c3.2-0.2,5.7-1.1,6.8-3.4c-0.3-1.9-1.7-0.9-1.7,0c-2.1-0.4-1.7-3.4,0-3.4v-3.4
			c1.6,1.2,2.6,3.1,3.4,5.1c3-5.6,5.9-5.3,11.9-10.2c-0.2-6-3.3-7.4,1.7-10.2c4.5,6-3.9,14.1-8.5,20.3c4.8-0.3,7.1-3.1,11.9-3.4
			c-4-9.1,2.3,2.3,3.4-6.8c5.2,1.7-2,4.5-1.7,6.8c1.9,4,5.7-4.3,6.8-6.8c-2.8-2.1-9.2-4.4-5.1-8.5c1.1-0.1,0.9,8.7,5.1,3.4
			c3.3,0.7-2.8,4.8,5.1,3.4c-5.2,3.3-4.9,12-11.9,13.6c7.3,6,13.1,5.2,23.7,3.4c-3.5,4.1-2.4,3.6-1.7,10.2c1.9-4.6,6.6-2.5,3.4,1.7
			c5.9,2,5.9-15.6,6.8-3.4c19.5-11.1,18.7-3.3,0,1.7c7.5,2.9,18.1-5.6,22-11.9c4.6,10.8-16.2,10.8-18.6,20.3c-2-0.3-1.4-3.1-1.7-5.1
			c-7.6,0.3-3.8,4.3-11.9,1.7c1.7,5.6,12.3,2.4,15.2,6.8c0.9,3.7-3.2,2.4-3.4,5.1c1.4-0.3,1.6,0.7,1.7,1.7
			c3.2-6.6,11.2,4.7,16.9-3.4c-0.6,6.7-1.2,5.2-3.4,11.9c1.7-1.7,3.4-3.3,5.1-5.1c2.7,5.8-4.6,7.5-8.5,10.2
			c5.8,0.7,10.1-2.1,13.5-10.2c-0.4,9.2,2.4,2.1,8.5,3.4c-3.3,8.2-5.7,7-5.1,18.6c4.7-1,7.1-4.2,11.9-5.1c-0.6,3.4,0.3,5.3,3.4,5.1
			c-0.2,3.7-7.2,0.7-10.2,1.7v5.1c8.7,3.1,7.1,4,13.6,3.4c-2.8,3.4,0.2,2.1,0,6.8c-5.8-1-10.4-3.2-13.6-6.8c-7.6,6,8.5,9.2,0,11.8
			c2.3,5,7.3,0.4,11.9,0c2.4,4.8,0.4,14.2,0,18.6c4.4,2,7.3-5.2,6.8,1.7c2.8-2.2,5.7-4.5,11.9-3.4c-1.2,5-9.7,2.7-10.2,8.5
			c1.6,11.8,11.2,8.4,1.7,18.6c7,0.4,6.8-2,5.1-6.8c5.4-0.5,6.1,7.4,3.4,10.2c5,2.3,7.4-1,15.2,0c-2,5.9-11.5,4.3-18.6,5.1
			c-2.1,5.5,5.5,1.3,3.4,6.8c3.4,0,2.1-4.6,6.8-3.4c-8.6,10.5,7.1,1.3,8.5,11.9c-8.3,0.4-11.2-4.6-18.6-5.1c1.2,1.6,3.1,2.6,5.1,3.4
			c-3.4,5.7-22.4-8.6-16.9,3.4c-4.4-9.6-17.6-10.7-22-18.6c-1.6,1.2-2.6,3.1-3.4,5.1c-0.5,4.5,6.6,1.3,5.1,6.8
			c3.9,0.5,6.4-0.4,6.8-3.4c4.2,5.5,1.4,7.9,8.5,8.5c-0.8,5.7-6.6,2.4-10.2,1.7c-0.2-3,2.1-3.6,1.7-6.8c-4.2,6.6-10.3-3.8-17,3.4
			c-10.6-3.8-14-17-25.4-15.3c-0.7,6.4,8.2,8.2,3.4,13.6c3,0.2,3.6-2.1,6.8-1.7c-3.9,2.5,3.3,5.4-3.4,5.1c9.5,11.7,24.7,8,32.2,20.3
			c0.3,3.7-6,0.8-8.5,1.7c-0.7-5-4.4-6.9-6.8-10.2c-1.6,2.9-5.6,3.4-6.8,6.8c2.9,0.1,4.4-1.3,5.1-3.4c4.3,9.3,17.7,12.8,23.7,3.4
			c2.9,1.1,1,3.9-1.7,3.4c5.3,4.2-6.5,7.5-10.2,10.2c4.8-7.6-6.1-3.7-8.5-8.5c2,5.9,6.7,9.1,6.8,16.9c-3.8-11.5-13.4-17.1-23.7-22
			c-3.8,0.9,2.1,2.6-1.7,5.1c-10.4,0.8-11-8.2-16.9-11.9c-2.8,2.4,5.6,7.8,8.5,10.2c-7.1,2-13.3-11.6-22-13.6
			c-4.9-0.1-4.9,12,0,11.9c-3.4,3.8-8.4-6.2-5.1-10.2c-3.9,2.3-5.4,7-8.5,10.2c-3.7-2.8,3.6-8.7,5.1-11.9
			c-5.8-2.6-13.5,9.5-18.6,8.5c-1.8,8,4.3,8.1,6.8,11.9c2.3-0.4,3.1-7,3.4,0c2-0.3,1.4-3.1,1.7-5.1c5.6,9.1,26.8,9.3,39,11.9
			c-4.6,5.1-9.5-0.6-11.9,6.8c-5.3-6-9.4,0.6-13.5-1.7c-4.8,0,4,4.6-3.4,3.4c3.2,5.3,7.4-2.6,11.9-1.7c0.1,5.3-6.4,0.7-8.5,6.8
			c-6.9,0.2-6.8-6.8-15.2-5.1c5.2,5.2,11.5,7.6,3.4,13.6c7.1,4.7,11.1-9.1,16.9-6.8c4.9,3.9-16.1,5.2-6.8,13.6
			c4.4-0.4-2.3-2.9,0-6.8c10.1,7.8,22.5-8.3,27.1-16.9c4.7,4.8-6.5,8.1-5.1,15.2c2.7,2.9,7.6,3.7,13.5,3.4c-7.5,6.5,3.4,0.3,1.7,8.5
			c8.7-0.3,15.5-2.6,18.6-8.5c4.2,4.3-5.8,8.8-10.2,10.2c0.4,4.2,13.9-2.1,5.1,1.7c6.7,5.5,14-2.8,20.3-3.4
			c-0.9-1.4-1.8-2.7-1.7-5.1c4.9,4.7,6.2-3.7,10.2-5.1c4.5,1.9-2.3,6.6-3.4,8.5c1.3,6.1,12.4,2.3,13.6,8.5
			c-7.5-1.2-8.9-0.9-15.2-5.1c3,5.5,11.1,5.8,11.9,13.6c-5.7-3.1-5.9-8.9-11.9-3.4c4.7-7.4-4-5.8-8.5-8.5
			c8.9,13.1,22.9,21.2,35.6,30.5c-13.3-0.4-27.2-23.4-40.7-23.7c0.4,3.5,7.4,0.5,8.5,3.4c-0.7,14,38.3,28.3,52.5,39
			c-2.3,4.8-7.5-1.3-10.2-1.7c0.8,8.6,5.7,2.5,6.8,10.2c-1.5-1.3-3.8-1.8-6.8-1.7c-5.1-9.7-13-23.4-25.4-20.3
			c-0.7-6.7-6.9-7.8-10.2-11.9c-7.3,0.6-10.6,12.2-17,8.5c0.3-2,3.1-1.4,5.1-1.7c-4.4-8.8-17.3-22.1-25.4-18.6
			c1.7,2.3,2.8,5.1,5.1,6.8c1.8,5.5-4.7-5.3-10.2-3.4c7.1,8-8.5-4.4-15.3-3.4c3.8,4.7,14.2,11.7,20.3,8.5
			c2.8,7.3,11.9,8.5,18.6,11.9c-3,15.7,25.9,22.3,25.4,35.6c-3.8-3-4.5-9.1-10.2-10.2c-8.6,11.7-22.4-5.9-33.9-13.5
			c-1.9-0.2-0.3,10.3,3.4,10.2c4.2,3.5-7.3,0-5.1-5.1c-6.8,2.2,0.5,3.5,0,8.5c-7.1-1.3-13.3,4-20.3,3.4c1.7-2.3,4.6-3.3,5.1-6.8
			c-11.6-15.6-18.2-25.9-39-32.2c-1.4,7.6,6.9,20.2,15.2,23.7c0.3,7.1-2.6,0-5.1,0c-2.7,11.7,5.7,12.4,6.8,20.3
			c-4.8-4.9-7.7-5.9-11.9,0c-4.5,0.5-4.4-3.5-5.1-6.8c-2.3,1.1-3.2,3.6-3.4,6.8c-5.8-7,5.6-11.2,3.4-20.3c-2.2-3.2-5.8-19.9-18.6-22
			c-2.1,2-3.4,13.3-6.8,8.5c-0.1-4.3,1.3-2.1,3.4-1.7c-0.5-3.9,0.3-6.5,1.7-8.5c-17.9-16.5-61.2-7.7-86.4-16.9
			c-1.7,1.1-1.7,3.9-5.1,3.4c0.7,3.2,3.7,4.3,3.4,8.5c-3.3-1.2-4.5-4.5-5.1-8.5c-1.4,1.2-4.7,2.6-5.1,0c-0.4,2.5-3.1,3.8-3.4,10.2
			c-3.2-6.2-2-3.6-8.5-1.7c1.9,23,15.3,35.6,39,42.4c-2.9,6.3,1,2.7,1.7,8.5c-9-3.8-1.1,2.5-5.1,5.1c-7.1-1.6,1.1-8.7-6.8-10.2
			c-4,0,0.6,4.6,3.4,3.4c-2.8,6.8-9.7,0.1-10.2,5.1c-4.8,0.3-3.3-5.7-10.2-3.4c-0.3-4.8,4.1-4.9,8.5-5.1c-2.1-6.9-9.4-8.7-15.2-11.9
			c3-6.8-1.9-14.6-10.2-15.2c6.8,7.1,5,5.6,10.2,10.2c-3.5,5.6-7.1-2.9-10.2-3.4c3.3,9.1-5.2,20.7,6.8,22c-1.5,3-5.9,3.1-8.5,5.1
			c0.9,41.9-18.8,95.7,5.1,125.4c28.4,7.2,66.4,4.8,96.6,10.2c1.6,4.1,6.8,4.5,5.1,11.9h-271V581c28.9-20.3,119.5-0.7,130.4-37.3
			c0.9-3.1,1.4-13.6,1.7-16.9c2.1-22.7,6.7-54.6,3.4-71.1c-7.7-1.5-9.6,2.8-15.2,3.4c0-3.4,4.6-2.1,3.4-6.8
			c2.9,8.5,12.2-8.1,13.5,3.4c4.2-11.1,3.7-18.1-6.8-18.6c-5.9,0.3,0.2,12.6-6.8,11.9c0-4,2.9-5,1.7-10.2
			c-13.7,5.5-15.7,22.7-16.9,40.7c-4.7-4.4,1.2-19.2-3.4-23.7c-5.9,3.7-8.1,11.1-13.5,15.2c-0.4-11.7,19.7-17.6,25.4-28.8
			c-5.6-3-0.3-6.3-3.4-11.9c-2,0.3-1.4,3.1-1.7,5.1c-4.3-0.2-4-6.3-1.7-8.5c-4.7-0.7-1.6,6.3-5.1,6.8c-5.7-8-8.8,1.1-13.5-6.8
			c-2.3,3.4,1.6,22.7-1.7,28.8c-5.3-6,2-17-1.7-22c-2.7,5.8-3.5,9-3.4-1.7c-4.5-0.5-1.3,6.6-6.8,5.1c1.6-3.5,3.5-6.7,5.1-10.2
			c-1.8-4.4-6.1-6.3-6.8-11.9c-5.7,5.1-1.2,20.3-5.1,27.1c2.7,0.5,2.9-1.6,5.1-1.7c3.1-4.7-0.5,5.3-5.1,3.4v25.4
			c-6.9-16.2,0-35.1,0-59.3c-22.3,3.6-27.3,27-25.4,55.9c-1.7,5.9-3.5-16.1-5.1-5.1c-0.6-7.4,2.4-25.8,6.8-33.9
			c-0.6-2.4-3-0.2-3.4,1.7c-1.6-5.6-14,13.6-11.9,23.7c-4.9-5.5,0.2-15.6,3.4-18.6c-8.3-3.8-12.3,11.3-16.9,16.9
			c-1.4-0.9-2.8-1.8-5.1-1.7c1-4.1,2.4-7.7,1.7-13.5c-4.8,0.3-2.1,8-8.5,6.8c8.7-20,19.8-17.3,23.7-40.7
			c-13.8,8.8-15.9,29.3-28.8,39c5.2-11.7,13.7-27.9,25.4-40.7c-0.7-2.5-2.2,0.7-5.1,0c2-5.9,14.3-1.6,11.9-11.9
			c-2.8-4.8-9.2,0.8-11.9,1.7c1.7,5.5,4.3,3.6,0,8.5c-2-0.3-1.4-3.1-1.7-5.1c-1.5,4.7-8.4,4-8.5,10.2c-32.1,0.8-39.6,40.5-62.7,55.9
			c5.7-11.1,24.8-25.5,20.3-35.6c0.6-2.4,3-0.1,3.4,1.7c10.3-15.2,36.1-23.6,37.3-42.3c-3.5,6.5-1.8,3.3-6.8,0
			c-7,6.2-19,6.6-18.6,23.7c-6.2-1.2,0.4-6.7-1.7-13.6c-7,5.7-24,7.6-16.9,22c-5.6-3.9-14.9,14.8-27.1,15.2
			c-3.1-7.3,6.7-4.3,10.2-6.8c10-7.1,12.1-20.2,18.6-30.5c-1-1.6-4.7-2.6-1.7-3.4c-19.9-4-31.5,16.9-49.1,27.1
			c1.8-7.3,17.4-15.3,23.7-23.7c-0.5-0.4-17.6,6.8-13.5,0c-10.5,1.3-5.7,18-15.2,20.3c-0.2-8.1,6.5-9.3,6.8-16.9
			c-17.1-4.7-24.8,14.7-40.7,16.9c11.4-6.7,20.3-15.8,33.9-20.3c-2.1-11.1-12.5,2.8-22,0c-6.4-3.4,8.7,1.1,5.1-5.1
			c-2.9-1.5-10,1.9-8.5-5.1c-4,1-2.8,7.4-10.2,5.1c0.3-2,3.1-1.4,5.1-1.7c-2.4-2.1-0.1-8.9-6.8-6.8c7.2-12.4,12.5-7.8,13.6-23.7
			c-6,5-12.3-0.2-20.3,3.4c2.4-3,1.6-3.9-3.4-3.4c3.8-5.8,11.2-0.3,15.3-3.4c-8.3-10.5,9.8-9.3,13.5-18.6
			C36.2,332.7,31,354,13.6,354.1c1.5-3,6.9-2.2,5.1-8.5c-2.5-0.4-8.2-8.7-18.6-10.2c7.4-7.4,15.4,8,28.8,5.1
			c-1.2-1.6-3.1-2.6-5.1-3.4c4.8-1.5,12.3,0.4,16.9-6.8c-1-3.5-6.4,2.4-10.2,1.7c-0.7-4.7,6.3-1.6,6.8-5.1c-4.9-2-12.6,7.6-23.7,5.1
			c0.1-2.9-1.3-4.4-3.4-5.1c3-5,7.2,2.8,10.2,3.4c3.1-0.3,1-5.7,3.4-6.8c3.5,0.9,3.6,2.6,1.7,5.1c1.4-0.9,2.8-1.8,5.1-1.7
			c-1.9-5.3,0.5-4.5-1.7-8.5c-3.2,0.7-7.3,0.6-6.8,5.1c-7.2-7.8-11.3,1-20.3-5.1c6.6-2.5,10.2-5.8,15.3-1.7c4.4-2.9-1.7-9.4-6.8-8.5
			c2.8-7.7,6.6,3.4,11.8,3.4c6.6-4.6,5.8,1.4,13.6-3.4c-3.7-2.8-12.7-5.3-15.3,0c-3.2-3.2,5.1-6.1-5.1-6.8
			c7.4-1.5,13.9-2.6,18.6,3.4c1.6-1.2,2.6-3.1,3.4-5.1c0.5-4.5-9.5,1.6-6.8-5.1c-3-0.2-3.6,2.1-6.8,1.7c-0.7-3.4,10.8-4.7,15.3-5.1
			c-0.3-2-3.1-1.4-5.1-1.7c2.6-7.1,9.2-4.2,15.2-3.4c-0.7-5.3,10.2-8.8,13.5-15.2c-5.6-3.9-17.7,1.6-27.1,3.4
			c0.1-5.5,7.7-3.6,11.9-5.1c-3.6-3.2-12.5-1.1-15.3-5.1c0.5-2.3,4.3-1.4,6.8-1.7c-0.5-4-5.9-3.2-5.1-8.5c8.6-0.4,13.5-10.2,22-8.5
			c-1.9-12-8.4-5.5-13.6-8.5c2.4,1.4,0.1-10.7-5.1-3.4c4.2-4.7-3.5-7.8-8.5-8.5c1.1-1.7,3.9-1.8,3.4-5.1c3.5,1.6,6.7,3.4,10.2,5.1
			c2.1-3.4-1-6.6,8.5-5.1c-0.5-2.3-4.2-1.4-6.8-1.7c3.2-3.2,0.2-4.3,0-8.5c1.6,2.9,5.3,3.7,8.5,5.1c4-0.5,1-8,6.8-6.8
			c-0.7,3.2-3.7,4.3-3.4,8.5c1.1,1.7,3.9,1.8,3.4,5.1c1.4-0.9,2.8-1.8,5.1-1.7c1.8-9.2-4.6-10.1-3.4-18.6c4.5-0.5,4.4,3.5,5.1,6.8
			c4.5-3.9,11.3-2.1,13.6,3.4c5-1.4-1-5.5,0-8.5c5.4-0.3,2.8,7.4,8.5,6.8c2.3-0.5,1.4-4.2,1.7-6.8c6-0.3,5.6,5.7,10.2,6.8
			c3.8-1.6-10-8.6,1.7-5.1c-1.8-3.8-5.1-6.2-10.2-6.8c12-2.9,19-3.2,20.3-15.2c-3.4-0.6-5.3,0.3-5.1,3.4c-0.9-4.2-1.3-7.2-8.5-8.5
			c3.3-2.8-3.6-9-6.8-13.6c4.2-4.6,8.3,5.2,15.2,3.4c-5.7-8.5-22-5.2-25.4-11.8c5.1,1.9,9.8-0.8,15.2,3.4
			c-2.4-4.7-13.8-16.6-22-15.2c0.5-5.7,12.9-11.8,8.5-3.4h6.8c-7.4-6.5,5.6,1.1,8.5,0c2.6-2.5-2.4-10.9,5.1-11.9
			c0.7-3.3-7.7-2.5-5.1,1.7c-6.2-18.3,14.5,8.9,18.6,0c-5,11.4,12.8,18,3.4-3.4c2.7,0.7,1.5,5.3,6.8,3.4c-2.8,3.4,0.2,2.2,0,6.8
			c1.7-1.6,3.4-3.3,5.1-5.1c4.9,0.2-1.5,11.6,3.4,11.9c3.3-0.2-2.6-6.3,1.7-8.5c5,0.1,6.3,3.9,8.5,6.8c2-0.3,1.4-3.1,1.7-5.1
			c-0.4-2.4-8.4,1.6-6.8-6.8c-5.2,0.2-8.1-2.1-11.9-3.4c-0.1-2.7,0.8-6.5-1.7-6.8c3.2-4.3,5.9,1.6,10.2-1.7c-4.7,2.5-2.8,5.1,0,8.5
			c1.6-0.1-0.7-11.7,5.1-6.8c-2.1-6.9-9.4-8.7-11.9-15.2c1.7-5.2,4.5,1.9,6.8,1.7c-2.1-4.6-6.5-4.2-3.4-10.2
			c0.9,3.2,8.6,6.3,6.8-1.7c3.5,2.7,0.6,11.9,3.4,15.2c1.4-0.3,1.7-1.7,3.4-1.7c-0.7-4.4-5.4-4.7-3.4-11.9c5.2,0.7,3.7,8.6,8.5,1.7
			c2,0.3,1.4,3.1,1.7,5.1c3.9-0.5,6.5,0.3,8.5,1.7c-2.7-4.8-13-8.6-8.5-15.3c1.5,1,3,2.1,3.4,0c0.4,2.3,1.4,7,5.1,10.2
			c1.4,0.1-5.1-13.8,3.4-8.5c-3.7-4-4.7-12.6-11.9-8.5c-0.9-2.4,6.6-4.1,1.7-5.1c6.6-2.1,10.8,10.5,18.6,1.7
			c4.1,4.4,2.8,14.1,8.5,16.9c2-0.3,1.4-3.1,1.7-5.1c-0.3-2-3.1-1.4-5.1-1.7c-2.2-4.2,3.8-8.2,0-8.5c0.4-4.4,2.9,2.3,6.8,0
			c1.4-5.9-2.5-6.5-1.7-11.9c2.1,0.7,3.5,2.2,3.4,5.1c4.9-1.5,1.9-2.5,1.7-6.8c7,1,7.9-9.2,11.9-1.7c3.1-0.3,1-5.7,3.4-6.8
			c-0.4-1.8-3.4-1.2-3.4-3.4c0.9-4.2,3.2-7,5.1-10.2c5.1-1.7,3,3.8,3.4,6.8c4-2.8,9.2-4.3,10.2-10.2c5.4,3,11.6,5.4,20.3,5.1
			c-1.5-3-6.9-2.2-5.1-8.5c3.7-0.3,5.4,1.4,5.1,5.1c4.6-1.5-1.7-5.9-1.7-8.5c-2.5,2.7-8.8,5.9-8.5-1.7c1.4,0.9,2.8,1.8,5.1,1.7
			C230.5,29.8,231.7,13.2,225.3,10.2 M362.5,42.4c11.1,1.4,9.6-5.2,16.9,0c1.5-5.4-4.4-3.5-5.1-6.8c0.9,0,1.9-1.4,0-1.7
			C374.1,40.6,360.1,30.1,362.5,42.4 M530.2,279.5c-3.5,1-11.1-2.1-11.9,1.7c3.7,2.5,7.3,5.2,13.5,5.1
			C532.3,283.1,530,282.6,530.2,279.5 M531.9,294.8c-0.5-10-13.8-5.5-15.2-8.5C522.2,292.4,522,293.6,531.9,294.8 M457.4,347.3
			c1,5.3,7.5,8.7,10.2,3.4C463.6,350.1,460.5,348.6,457.4,347.3 M450.6,347.3c0,6.7,8.7,4.9,6.8,13.6
			C468.5,359,456,348.3,450.6,347.3 M547.2,393c-7.6-4.8-15-18.8-27.1-13.6C530.6,380.9,537.8,401.4,547.2,393 M52.5,282.9
			c4.5,0.4,15.1-1.6,10.2-5.1C61,278.8,54.8,278.4,52.5,282.9 M69.5,271c3.5,3.7,6.4,3.5,8.5-1.7c-1.9-0.4-2.6-1.9-3.4-3.4
			c-6.7,1.2-8.4,7.5-13.6,10.2c2.3,0.1,3.7-0.8,5.1-1.7c0.2,2.1,0.5,4,3.4,3.4C71.1,274.7,64.4,272.2,69.5,271 M286.3,35.6
			C283,32.4,268,46.6,271,44c4.5-2.7,5.3-1.9,3.4,3.4h8.5c-0.3-6.8-0.2-6.9,5.1-5.1c-2.4-2.8,2.4-13.1-3.4-8.5
			C285.6,34,286.6,34.1,286.3,35.6 M350.7,54.2c-0.8-5.3,5.2-3.8,3.4-10.2C348.3,41.9,347,52.6,350.7,54.2 M357.4,49.1
			c4.9,2.1,7.7,0.9,8.5-5.1h-6.8C359.2,46.4,358.3,47.8,357.4,49.1 M374.4,59.3c-5.2,0.1-8.3-3.7-13.6,0c2.1,0.2,4,0.5,3.4,3.4
			c-5.5-2.4-4.3-3.8-3.4-10.2c-7.1,3.6-13.1,8.4-16.9,15.2c5.2,1.2,5-2.9,10.2-1.7c-0.3,2.5,0.6,6.3-1.7,6.8
			c-0.4-1.3-0.1-3.3-1.7-3.4c0.2,3.2,1.1,5.7,3.4,6.8c1.2-3.3,4.5-4.5,8.5-5.1c-7.4,4.1,3.1,7.5,0,10.2c-1,0.1-2,0.2-1.7,1.7
			c10.7-4,14.2-15.2,15.2-28.8c-2-0.3-4.8,0.3-5.1-1.7c5.1-3.2,0-6.1,5.1-8.5c-2.5,0.9-8.8-2-8.5,1.7
			C376.5,48.1,365.5,54.8,374.4,59.3 M243.9,66.1c1.2-10-8.9-9.8-1.7-16.9c-3,0.9-7,0.9-8.5,3.4c5.7,1.3-0.4,6.4,1.7,8.5
			c-1.9-1.1-6.6-7.8-8.5-3.4c1.9,0.4,2.6,1.9,3.4,3.4c-1.3,0.4-3.3,0.1-3.4,1.7c7.4,1.2,11.5-0.9,13.6-5.1
			C244.7,61,237.7,64.8,243.9,66.1 M318.5,77.9c5.9-1,13-10.7,6.8-13.6c2.5-2.6,9.7-0.5,8.5-6.8c-8.9-1.8-6.6,6.5-15.2,8.5
			c-0.4-8.9,9.8-7.2,8.5-16.9c-17.4,2.6-16.6,5.2-28.8,15.2c-0.6,7.3,2.3,11.2,6.8,13.6c6.2-3.7,9.4-10.5,10.2-15.3
			C316.5,69.1,324.6,73.5,318.5,77.9 M264.3,71.2c-2.3-3.6-1.7-11.1-3.4-15.2C255.5,59.2,258,76,264.3,71.2 M286.3,81.3
			c6.4-5-2.5-6.4,1.7-13.6c-3.8-1.3-6.6-3.6-11.9-3.4c2.2,5.2,2.4,12.3,5.1,16.9c1.7-2.3,1.6-6.3,5.1-6.8
			C291.4,77.5,281.7,79.8,286.3,81.3 M281.2,88.1c-1.4,5.9,2.5,6.5,1.7,11.9c8.3-4,8.8-14.5,5.1-20.3
			C282.4,85.3,291.9,86.1,281.2,88.1 M203.3,76.2c0,0.9,1.4,1.9,1.7,0c-2.2,0-1.5-3-3.4-3.4c-0.4,1.9-1.9,2.6-3.4,3.4
			c0.3-3.7-1.4-5.4-5.1-5.1C193.6,77.5,198.8,78,203.3,76.2 M276.1,83c-3.6-5.3-0.6-7.3-3.4-11.9C268.1,74.5,275.5,85.3,276.1,83
			 M208.4,79.6c7.5-1.3,6.9,5.5,11.9,6.8c0-6.8-14.8-14.9-13.6-11.9C208.6,74.8,208.5,77.2,208.4,79.6 M304.9,81.3
			c1.3,0.4,2,1.4,1.7,3.4c9.3-1.6,5.9-7.4,10.2-11.9C309.6,76.2,311.4,79.1,304.9,81.3 M260.9,79.6c-1.3,0.4-3.3,0-3.4,1.7
			c1,0.1,2,0.2,1.7,1.7h3.4c2.4-6-4.7-10.8-6.8-6.8C257.8,77.1,259.6,78,260.9,79.6 M266,98.3c5.3,0.3,5.8-4.3,6.8-8.5
			c-1-4.1-1.5-8.7-6.8-8.5c1,5.5-1.2,7.9-1.7,11.9c3.3,0.5,3.4-2.3,5.1-3.4C270.6,95,264.7,93,266,98.3 M396.4,88.1
			c8.3-0.4,8.1,7.7,15.3,8.5c-0.5-4.1,7.4-8.1,5.1-15.2C411.7,85.3,398.7,81.4,396.4,88.1 M374.4,98.3c8.1-2.6,4.1,1.3,0,3.4
			c7.8,3.4,22.6-0.9,32.2-5.1c-8.8,0-3.1-4.8-8.5-6.8c-1.7,2.3-5.7,2.2-6.8,5.1c-5.1-3.7-5.1-1.4,0-5.1h-8.5
			c-1.8,1.6-0.5,6.3-5.1,5.1c-0.9-2.4,6.6-4.1,1.7-5.1C379.3,94.2,372.2,91.6,374.4,98.3 M296.4,91.5c4.2,0.2,5.2,3.2,8.5,0
			c-0.2-3.2-1.1-5.7-3.4-6.8C301,88.2,296.9,88,296.4,91.5 M249,98.3c6.4-3.3,3.7,1.6,8.5,3.4c5.6-4.3-2.4-14.6-5.1-10.2
			C258.4,94.4,248.1,94.9,249,98.3 M421.8,103.3c4.8,0.3,9.2,0.2,8.5-5.1c-3,1-9.9-2-10.2,1.7C421.4,100.3,422.1,101.4,421.8,103.3
			 M408.3,113.5c1.5-6.2,1.7-7.6,0-11.9h-8.5c-2.9,2.9,2.5,6.7-5.1,6.8c4.2-7.3-8.6-0.8-13.5-1.7c-1.5,5.4,4.4,3.5,5.1,6.8
			c-1,3.2-9.1-2-5.1,1.7c7.2-2,18.2-3.3,27.1-8.5C409.9,109.9,403.2,112.4,408.3,113.5 M250.7,113.5c1.5-3,4.1-4.9,5.1-8.5
			c-2.2-0.1-2.3-2.2-5.1-1.7C249.5,105.6,249.8,112.3,250.7,113.5 M259.2,115.2c1.5-3,4.1-4.9,5.1-8.5c-2.3,0.1-3.7-0.8-5.1-1.7
			C259.1,110.3,256.2,111.6,259.2,115.2 M313.4,111.8c-0.3-2.5,0.6-6.3-1.7-6.8c-1.8,10.8-0.9-1.3-5.1,0
			C303.4,108.2,307.7,112.5,313.4,111.8 M264.3,113.5c-0.8,10.7,17.2-0.9,8.5-1.7C273,119.3,268.6,111.7,264.3,113.5 M357.4,118.6
			c4.1-0.7,3.7,3.1,8.5,1.7c0.9-2.5,2.5-4.3,3.4-6.8C364.9,114.8,359.7,115.2,357.4,118.6 M376.1,123.7c-0.5-3.9,4.9-1.9,5.1-5.1
			c-3.5-1-5.5-3.6-8.5-5.1C372.7,118,371.7,123.5,376.1,123.7 M389.6,118.6c6.8,0.6,11.6-7.3,15.3,0
			C410.7,111,389.6,112.2,389.6,118.6 M284.6,118.6c-0.2-4.1-5.6-0.4-5.1,1.7c4.9,0.6,4,1.6,8.5,5.1c-2.9-6.3,1-2.7,1.7-8.5
			c-1.7,0-2-1.4-3.4-1.7C285.9,116.5,286.2,118.5,284.6,118.6 M260.9,125.4c-0.2-3.2-1.1-5.7-3.4-6.8c0.3,5.9,1.4,11,8.5,10.2
			c-4-5,3.3-6.3,0-8.5C265,122.7,263.3,124.4,260.9,125.4 M276.1,125.4c-0.1-2.3,0.8-3.7,1.7-5.1c-5.3,0.3-8.1,3.1-8.5,8.5
			c2.9-0.6,12.9-2.7,8.5-5.1C277.7,124.7,277.6,125.7,276.1,125.4 M338.8,125.4c1.3,0.4,2,1.4,1.7,3.4c5.2-1.8,9.8-1.3,6.8,5.1
			c11.5,1,3.1-8.6,6.8-13.6C347.3,120.3,342.1,121.9,338.8,125.4 M377.8,125.4c4.1-0.7,3.7,3.1,8.5,1.7c0.8-2,1.8-3.8,3.4-5.1
			c2.4,1.9,4.1,1.8,5.1-1.7C387.1,120,379.6,119.9,377.8,125.4 M250.7,133.8v-3.4c-0.1-1-0.2-2-1.7-1.7c-1.7,7.1-3.6-0.4-1.7-5.1
			c-2.3-0.5-3.2-2.4-6.8-1.7c-0.2,5.9,3.3,8,5.1,11.9C246.3,130.9,247.8,134.2,250.7,133.8 M360.8,128.7c2.3-10.1-0.6,6.5,5.1,3.4
			c0.1-2.3-0.8-3.7-1.7-5.1c2.1-0.2,4-0.5,3.4-3.4c-5.2,1.2-6.2-1.7-10.2-1.7C357,125.8,357.8,128.3,360.8,128.7 M394.7,137.2
			c4.2-0.9,5.7-4.5,10.2-5.1c-1,1.5-4.8,9.7-1.7,5.1c0.9-5,14.3-8.8,6.8-11.9C409.2,133.5,397.5,128,394.7,137.2 M410,135.5
			c0.7-2.9,2.2,0.4,5.1,0c0.5-1,4.2-6.5,0-6.8C415.8,132.5,404.9,133,410,135.5 M272.7,137.2c-1.2-4.6,8,1.2,6.8-3.4
			c-1.3-0.4-2-1.4-1.7-3.4C273.5,129.2,269.9,136.9,272.7,137.2 M308.3,138.9c-3.4-1.1-1.1-7.9-5.1-8.5c0.1,3-0.4,5.3-1.7,6.8
			C303.8,137,307.8,142.9,308.3,138.9 M199.9,138.9c6.6-3.8,4.3,2.5,8.5,5.1v-10.2c-5.2,1.2-3.3,1.2-8.5,0V138.9z M211.8,149.1
			c9.8-2,3.8-5.2,13.5-5.1c-0.5-5.8-12-9.4-15.2-6.8C212,140.5,209.6,143.7,211.8,149.1 M320.2,154.2c2.2-4.6,6.8-6.7,10.2-10.2
			c-4.7,0.8,1.3-9.2-3.4-8.5C324.2,140.2,315.1,147.4,320.2,154.2 M418.4,142.3c-0.5-4.5,6.6-1.3,5.1-6.8h-6.8
			C418.9,139.8,415.9,140.8,418.4,142.3 M428.6,150.8c-5.7-4.8,7.7-4.6,10.2-6.8c0.3,2-0.3,4.8,1.7,5.1c0.4-1.3,1.4-2,3.4-1.7
			c0.4-3.2-1.9-3.7-1.7-6.8c1.3-0.4,3.3,0,3.4-1.7c-3-0.4-8.5,1.7-6.8-3.4c-9.5,2.9-18.6,6.3-23.7,13.5c4.5,0,9.7-0.6,11.9,1.7
			C426.9,151.7,428.3,152.7,428.6,150.8 M274.4,144c1.7,0,2,1.4,3.4,1.7c0.4-1.3,1.4-2,3.4-1.7v-3.4c-1-0.1-2-0.2-1.7-1.7h-3.4
			C276.2,141.2,275.3,142.6,274.4,144 M291.4,138.9C277.4,137,290,152.9,291.4,138.9 M264.3,145.7c2.3-0.2,5.1,6.9,6.8,1.7
			c-5.9-0.5,4.2-6.3-1.7-6.8C269.2,143.8,263.7,141.8,264.3,145.7 M122,149.1c-4.6-1.1-4.2-7.1-10.2-6.8
			C109.9,148.8,119.1,153,122,149.1 M94.9,152.5c4-0.6,7.3-1.7,8.5-5.1c-10.7,0-11.8-5.2-15.2-1.7C91.1,147.2,93.3,149.5,94.9,152.5
			 M225.3,154.2c1.1-3.5,8.6-0.5,6.8-6.8C227.1,145.9,221.1,152,225.3,154.2 M410,154.2c5.9-1.5,5.8,2.6,3.4,5.1
			c4.5,0.5,5.6-2.3,5.1-6.8C415.7,150.5,406.9,152.1,410,154.2 M345.6,159.2c0.5-4.4-0.6-7.3-5.1-6.8c0,3-4.6,9.9,0,11.9
			c0.4-1.3,1.4-2,3.4-1.7C343.7,157.9,340.6,156.8,345.6,159.2 M179.6,162.6c2.3-1,0.2-6.5,3.4-6.8c1.3-0.4,3.3,0,3.4-1.7
			c-6.9-2.3-5.4,3.7-10.2,3.4c-2.1,12.5,15.3,14.8,22,8.5C189,164.9,187.2,165.6,179.6,162.6 M198.2,157.5c-6.5-1.3-2.6,6.9,1.7,5.1
			v-8.5c-2.5,0.3-6.2-0.6-6.8,1.7C195.1,156.1,197.9,155.6,198.2,157.5 M304.9,167.7c-2-0.3-1-1.9,0-3.4c-7-0.2-0.4-1.1,0-3.4
			c-3-1.5-2.8-6.2-6.8-6.8C297.2,160.8,301.4,171.1,304.9,167.7 M160.9,162.6c5.2-1.3,3.3,4.7,8.5,3.4c-0.1-2.3,0.8-3.7,1.7-5.1
			C168.5,158.1,163.2,160.2,160.9,162.6 M418.4,162.6c3.8,4.5,8.5-2.4,11.9,1.7v-5.1C424.7,162.2,421.8,157.4,418.4,162.6
			 M477.7,164.3c4.6-1.2,3.4,3.4,6.8,3.4c1.4-2.5,4.3-3.6,8.5-3.4C487.9,153.7,485.3,166.7,477.7,164.3 M237.2,167.7
			c-0.8-4.7,9.2,1.3,8.5-3.4c-1.3-0.4-3.3,0-3.4-1.7c0.9,0,1.9-1.4,0-1.7C239.8,161.7,232.4,170.5,237.2,167.7 M276.1,167.7
			c3.2-0.4,3.7,1.9,6.8,1.7c1.7-2.2,1.7-6.2,3.4-8.5C282.3,162.6,275.5,161.5,276.1,167.7 M288,176.2c0.4-2,1.9-1,3.4,0
			c-0.1-5.1,6.3-12.3,0-13.6C291.9,167.8,285,174.2,288,176.2 M326.9,176.2c2.1,1.9,3.1,4.8,8.5,3.4c-0.9-2.5,2-8.8-1.7-8.5
			C333.2,174.6,327.4,172.7,326.9,176.2 M333.7,162.6c-4.8,1.8-7.1,1.8-11.9,0c0,4,2.9,5,1.7,10.2
			C331.2,173.7,334.6,170.3,333.7,162.6 M301.5,183c0.1-7.5-0.8-13.8-6.8-15.3C294.7,176.5,290.4,183.1,301.5,183 M445.5,179.6
			c1.6,0.8,15.4-6.4,6.8-10.2C451.8,173.5,441.9,176.9,445.5,179.6 M186.3,176.2c3.5,3,8.2-3.1,11.9-5.1
			C192.2,170.7,188,172.2,186.3,176.2 M318.5,184.7c3.9,0.5,6.4-0.4,6.8-3.4c-8.4,1.4-1.8-8.6-10.2-10.2
			C313.7,178.2,318.4,179.1,318.5,184.7 M213.4,177.9c1.8,3.3,14.1,2.9,11.9-3.4C221.4,175.7,212.1,171.4,213.4,177.9 M254.1,188
			c3.8-2.5,3.7-12.7,1.7-10.2C255.4,180.5,249.3,185.8,254.1,188 M460.8,181.3c-1-0.1-2-0.3-1.7-1.7c2.1-0.2,4-0.5,3.4-3.4
			c-5.3-0.8-6.9,2.1-8.5,5.1C457.9,178.9,460.4,185.6,460.8,181.3 M496.3,179.6c-2.2-1.7-6.2-1.7-8.5-3.4c-0.8,2-1.8,3.8-3.4,5.1
			c0.1-2.6-4.9-1.2-1.7,0C481,185.2,493,186.4,496.3,179.6 M262.6,188c3-1.5,8.5-0.6,10.2-3.4C269.1,181,263.5,184,262.6,188
			 M496.3,188c-1-1-8-4-8.5,0c5.2,1.7-0.8,5.7-1.7,6.8c2.7,0.7,1.4,5.3,6.8,3.4c0-4-2.9-5-1.7-10.2c2.3,0.5,3.2,2.4,6.8,1.7
			c-0.3-2,0.3-4.8-1.7-5.1V188z M506.5,193.1c2.3-3.9-4.4-6.4,0-6.8c2.2,0,1.5,3,3.4,3.4c0.3-3.7-1.4-5.4-5.1-5.1
			C502.1,187.2,498.9,193.4,506.5,193.1 M508.2,194.8c6.5-0.8,6.7-8,11.9-1.7c-0.1-2.3,0.8-3.7,1.7-5.1c-1.2-1.3-9.4-3.8-10.2,0
			C520.3,189.1,507.6,191.4,508.2,194.8 M423.5,196.5c2.9-7-7.7-9.1-10.2-5.1C418.5,191.3,419.9,195,423.5,196.5 M411.6,196.5
			c0.1-1,0.2-2,1.7-1.7v6.8c5.1,1.7,3-3.8,3.4-6.8C413.4,192.9,408.1,194,411.6,196.5 M426.9,201.6c2.3-0.1,3.7,0.8,5.1,1.7
			c0.3-4.9-0.4-8.6-3.4-10.2C427.2,195.1,426.3,197.7,426.9,201.6 M454,203.3c-0.8,7,4.6-1.6,5.1,5.1c-4.1,7.4-7.5-3.1-10.2,0
			c2,0.3,1.8,2.7,1.7,5.1c9.7-0.8,13.5,1.8,20.3,0c1-1,4-8,0-8.5c1,8.7-7,7.2-11.9,5.1c5.4-2,12.4-2.3,11.9-10.2h-3.4
			c-1,0.1-2,0.3-1.7,1.7c1.3,0.4,3.3,0,3.4,1.7C461.5,204.1,459.6,200.3,454,203.3 M423.5,213.5c-1.6-4-0.5-10.7-6.8-10.2
			C414.7,208,415.7,214.1,423.5,213.5 M435.4,215.1c3-1,10,2.1,10.2-1.7c-4.2,1.2-7-7.5-10.2-1.7
			C437.4,212.1,436.4,213.6,435.4,215.1 M487.9,221.9c3.3,0.5,3.4-2.3,5.1-3.4c0.1,1,0.3,2,1.7,1.7c-0.4-6.9-9.3-5.4-11.9-10.2
			c1.6,3.2-5.1,5.7,0,6.8c0-0.9,1.4-1.9,1.7,0c-1,0.1-2,0.3-1.7,1.7c3.3,0.5,3.4-2.3,5.1-3.4V221.9z M211.8,223.6
			c8.3,1,12.5-2.2,13.5-8.5c-5.2-1.7-6.6,9-10.2,3.4c0.2-3.2,5.6-1.2,5.1-5.1c-4.9,1.3-9.7,2.7-11.9,6.8
			C214,217.8,216.7,220.5,211.8,223.6 M464.1,216.8c-6.9,1.4-5.8,0.3-13.5,0c3.3,8.1-6.5,1.5,0,11.9h10.2
			C458.8,221.7,464.3,222.1,464.1,216.8 M465.9,218.5c-0.2,2.1-0.5,4-3.4,3.4c2.1,7.8,12.1,8.1,15.2,3.4c1.9-0.2,2.6,2.5,3.4,0
			C478,217.3,472.9,221.4,465.9,218.5 M520.1,221.9h-6.8C511.9,228.4,521.4,228.4,520.1,221.9 M435.4,232.1
			c-1.8,2.2-10.2-3.2-11.9-6.8c-2.9-0.1-5.3,0.4-6.8,1.7c1.2-5.6-3.4-2.6-3.4,0C419.3,230.4,436.1,242.3,435.4,232.1 M464.1,233.8
			c-6.8-0.3-11.6-1.6-18.6-5.1C445.1,236.2,460.3,241.3,464.1,233.8 M521.7,243.9c-5-8.5,18.7,0.2,10.2-10.2
			c-4.6,6.1-6.6-4.6-11.9-3.4c1.2,8.7-7.2-2.9-8.5,3.4c5.7,1.5,1.5,3.8,0,6.8C518.8,236.9,520.1,247.6,521.7,243.9 M233.8,237.2
			c0.4-1.3,1.4-2,3.4-1.7v3.4c3.3,0.8,8.7-4.6,5.1-5.1C243.9,236,226.8,231,233.8,237.2 M289.7,242.2c3.2-0.4,3.7,1.9,6.8,1.7
			c-3.9-7.7-1.6-4,1.7-10.2C292.1,233.4,289.3,236.2,289.7,242.2 M88.1,240.5c0.6-5.7-7.3-2.8-10.2-5.1
			C77.9,240.6,83.9,239.7,88.1,240.5 M369.3,238.9c-1.2,4.6,3.4,3.4,3.4,6.8c-1.7,0-2,1.4-3.4,1.7c-0.9-2.5-2.5-4.3-3.4-6.8
			c-4.3,2.9-5.9-1.9-8.5,1.7c1.3,0.4,2,1.4,1.7,3.4c6.3-0.7,9.9,1.4,10.2,6.8c9.5-0.2,6.5-6.1,6.8-8.5c3.1,2.5,5.7,4.5,8.5,0
			c-3.9-1.9,2.4-6.6-3.4-8.5C374,236.7,371.6,240.6,369.3,238.9 M110.1,237.2c-0.2,0.6-14.5,2.3-5.1,6.8c-0.8-5.5,17.7,5.5,13.6,0
			C112.8,244.7,113.5,238.9,110.1,237.2 M450.6,249c-1.5-4.7-1-11.4-6.8-11.9C439.8,242,444.1,249.4,450.6,249 M499.7,243.9
			c0,1.7-1.4,2-1.7,3.4c4.8-0.3,11.6,1.5,11.9-3.4c-2.3-1.1,0.5-10.4-5.1-5.1c-1.6,1.2-2.5,4.8-6.8,3.4
			C499.1,242.3,500,242.5,499.7,243.9 M398.1,247.3c1,0.1,2,0.2,1.7,1.7c-0.5,5.3,4.9-4.3,5.1,1.7v3.4c-3-3.1-5.9-0.2-5.1,5.1
			c5.2-2.1,12.1-2.6,13.6-8.5c-2.5-0.3-6.3,0.6-6.8-1.7c2.1,0.5,10.5-0.3,5.1-1.7c-2.9,0.1-4.4-1.3-5.1-3.4c2-0.3,4.8,0.3,5.1-1.7
			C407.8,239.2,403.6,246.7,398.1,247.3 M540.4,243.9c-0.9,0-1.9,1.4,0,1.7c3.1-4.1,1.5,7.9,3.4,6.8c0.1-4.6,10.1-7.8,5.1-11.9
			c-2.5,7.1-9.1-1-10.2,1.7C539.7,242.3,540.7,242.5,540.4,243.9 M66.1,250.7c3.5-3.8,8.7,2.4,10.2-5.1
			C71.1,244.6,61,247.1,66.1,250.7 M338.8,252.4c6.1-3.2,11.3,1.6,15.2-1.7c-3.9-1.1-4.5-5.6-8.5-6.8
			C344.4,247.9,339.9,248.5,338.8,252.4 M367.6,254.1v-3.4c-1.7,0-2-1.4-3.4-1.7c-0.4,1.3,0,3.3-1.7,3.4c1.9-4.8-8.2-7.6-10.2-6.8
			C356,249.8,358.6,255.2,367.6,254.1 M391.3,255.8h6.8c-0.6-4-2-7-3.4-10.2c-4.2-0.2-8.2-0.3-8.5,3.4c3.5,3.4,4.5,0.4,6.8-1.7
			C393.7,251.4,389.9,251,391.3,255.8 M518.4,250.7c-3.2-0.7-4.2-3.6-8.5-3.4C509.2,252.8,517.1,257,518.4,250.7 M44,255.8
			c5.3,0.8,6-3,11.9-1.7C55.2,244,46.2,252.6,44,255.8 M330.3,266c18.9-6.4,30.3,6.2,42.4,11.9c1.5-4.1,8.3-3,10.2-6.8
			c-16.1-4.2-30.2-10.4-45.7-15.3C334.1,258.5,326.7,261.9,330.3,266 M49.1,260.9c4.6-1,13.4,2.2,15.2-1.7
			C60.8,258.8,52.8,255.5,49.1,260.9 M362.5,260.9c4.9,0.8,16.1,4.1,18.6,1.7C374.8,260.6,368,254.6,362.5,260.9 M394.7,264.3
			c0.2-2.7,4.3-1.3,3.4-5.1c-4.3,1.8-8.1-5.2-10.2,0C393.4,257.7,391.4,263.6,394.7,264.3 M562.4,269.4c-4.3,0.2-5.9,3.1-8.5,5.1
			c6.3,0.7,9.9-1.4,10.2-6.8c-1.7-4.6-10.7-1.8-13.6-5.1c0.9,0,1.9-1.4,0-1.7C544.9,267.7,560.4,264.8,562.4,269.4 M420.1,264.3
			c-5.5,1-7.9-1.2-11.8-1.7C406.3,269.5,420,269.4,420.1,264.3 M116.9,269.4c-1.3,0.4-3.4,0-3.4,1.7c5.3,0.8,7.6-1.5,6.8-6.8h-5.1
			C115.1,266.6,116,268,116.9,269.4 M291.4,267.7c-0.4,1.3-1.4,2-3.4,1.7c-2.2,9.9,3.2,25.9,13.5,28.8
			C305.6,285.4,300.1,277.4,291.4,267.7 M323.6,271c1.1,6.2-3.7,6.5-3.4,11.8c5.8,2.1,11.5,4.3,13.6,10.2h-5.1
			c-0.3,7.6,7.6,7.1,15.2,6.8c1.1-5.7,7.2-6.3,10.2-10.2c-3.9,0.5-6.4-0.4-6.8-3.4c9.9,3.9,14.8-3.4,20.3-8.5
			c-10.2-4.5-16.8-12.6-33.9-10.2c1.9,6,9.2,15.6,6.8,20.3C335.7,279.3,335.2,268.9,323.6,271 M421.8,277.8
			c8.1,2,16.3,4.3,10.2,11.9c7.9,0.3,27,0.4,18.6-5.1c2.3,0.1,3.7-0.8,5.1-1.7c-0.1,2.9,1.3,4.3,3.4,5.1c-0.4-5.5,6.6-3.6,6.8-8.5
			c-4.7-8.5-9,1.9-8.5-8.5C442.2,272.9,430.6,266.3,421.8,277.8 M193.1,271c-9.2-1.3-13.1,2.7-22,1.7c-0.7,3.2-0.6,7.3-5.1,6.8
			c-1.2-4.6,3.4-3.4,3.4-6.8c-3.2,0.2-5.7,1.1-6.8,3.4c0.8,3.8,7.5,10.4,10.2,6.8c-1.3-0.4-2-1.4-1.7-3.4c2.8,2.8,9.9,1.3,15.2,1.7
			C184.7,273.9,192.7,276.3,193.1,271 M487.9,277.8c0-2.8,4.7-1,5.1-3.4c-4.2,0.3-5.2-2.7-8.5-3.4
			C484,274.9,484.9,277.4,487.9,277.8 M218.5,272.7c-17.9-1-28.5,12.6-33.9,18.6c-0.4-1.3-1.4-2-3.4-1.7c2.9,5.8-1.3,9.9,0,18.6
			c4.5-1,10.6,5,13.5,0c-1.6-1.8-6.2-0.5-5.1-5.1c2.2-0.1,2.4-2.2,5.1-1.7c-0.4,3.2,1.9,3.7,1.7,6.8c8.1,1,7.9-6.3,15.3-1.7
			c-2.4-6.2,0.9-7.6-3.4-11.9c7.4-1.5,13.9-19.1,5.1-16.9C221.1,276.1,225.8,272.6,218.5,272.7 M216.8,289.7
			c5.2-1.3,2.1,5.8,8.5,3.4c1.5-7.8-2.7-1.8-3.4-5.1c-0.3-2.5,0.6-6.3-1.7-6.8C221.5,286.4,215.6,284.5,216.8,289.7 M228.7,298.1
			c-2.2-0.1-2.3-2.2-5.1-1.7c0.1,2.3-0.8,3.7-1.7,5.1c2.5,0.9,4.3,2.5,6.8,3.4c3.4-3.9,5.1-9.6,13.6-8.5c3.1-10.1,5.6-14,3.4-22
			c-5.8,1.7-13.2-2.4-18.6-1.7C230.1,281.2,229,293.3,228.7,298.1 M252.4,282.9c4.1,0.7,3.7-3.1,8.5-1.7c0.8-5.3-5.8-4.5-1.7-8.5
			C252.2,271.4,248.5,278.5,252.4,282.9 M115.2,284.6c7.6,3,8.4-9.5,6.8-10.2C122.5,280.6,113.4,277.1,115.2,284.6 M410,301.5
			c4.3-0.2,5.9-3.1,8.5-5.1c-1.3-0.4-3.3-0.1-3.4-1.7c1.7,0,2-1.4,3.4-1.7c0.4,1.9,1.9,2.6,3.4,3.4c0.7-2.9-2.5-4.3,0-5.1
			c0.6,1.9,6.8,6.4,8.5,1.7c-7.6,0.1-12.2-20.5-18.6-8.5c3.8,2.3,6.4-4.4,6.8,0c-0.7,2.4-2,2.9,0,5.1c-2.3-0.1-3.7,0.8-5.1,1.7
			c-6.4-6.9-3.2-18-16.9-15.2c3.9-0.5,6.4,0.4,6.8,3.4c-5.4,0.3-8.6-3.4-11.9-1.7C397.7,285.6,406.7,290.7,410,301.5 M384.5,284.6
			c-1.3,6.4,6.5,3.7,6.8,8.5c-1.3,0.4-3.3,0-3.4,1.7c7.1-0.3,4.1,0.9,1.7,3.4c2.4,0.4,2.9,2.8,5.1,3.4c0-3.1,5.9-5.4,8.5-3.4
			c-0.2,2.7-4.3,1.3-3.4,5.1c5.2-1.2,3.3-1.2,8.5,0c-5.3-11-13.6-19.1-23.7-25.4c-1.7,2.2-2.8,5.1-5.1,6.8c0-0.9-1.4-1.9-1.7,0
			C380.3,286.6,382,286.6,384.5,284.6 M72.8,282.9H83c-0.3-2,0.3-4.8-1.7-5.1C80.2,281.3,73.4,278.9,72.8,282.9 M125.4,288
			c2.4-3.3,8.1-3.2,8.5-8.5C128.7,279.1,122.1,285.7,125.4,288 M145.7,296.5c5.2-2.1,7-7.7,8.5-13.6c-3,0.1-5.3-0.4-6.8-1.7
			c-0.4,3.2,1.9,3.7,1.7,6.8c-2.3,0.1-3.7-0.8-5.1-1.7c0.5,3.9-0.4,6.4-3.4,6.8c-0.3-2,0.3-4.8-1.7-5.1c0.7,4.1-3.1,3.7-1.7,8.5
			c4.6-0.5,8-2.2,10.2-5.1C147.5,293.7,146.6,295.1,145.7,296.5 M562.4,294.8c-1.8-6.8-1-14.6-6.8-11.9c1,0.1,2,0.3,1.7,1.7
			c-1.3,0.4-3.3,0.1-3.4,1.7C560.2,285.6,557.1,294.4,562.4,294.8 M252.4,296.5c3.3-6,3.2-6.5,11.9-5.1c0.1-6.9-6.3-7.3-13.6-6.8
			c-0.9,7.5-2.4,7.4,1.7,8.5C250.7,293.1,250.3,296,252.4,296.5 M326.9,289.7c-3.2-0.7-3.1-4.8-8.5-3.4v6.8c5.5,2.1,1.3-5.5,6.8-3.4
			C325.2,290.6,326.6,291.6,326.9,289.7 M484.5,308.3c0.2-4.9-0.9-11.1,1.7-13.6c-7.1-8.7-13.3-2.9-22-5.1c1.3,4.6-3.4,3.4-3.4,6.8
			c7.8-0.4,10.8,9.3,11.9,1.7C476.5,301.6,478.6,306.8,484.5,308.3 M298.1,316.8c1-2.4,2.7-4.1,5.1-5.1c-1.5-6.4-7-17.8-11.8-15.2
			C297.6,300.5,290.7,311.7,298.1,316.8 M442.1,308.3c4.5,0,4.3,4.7,6.8,6.8c2-4.7,3.8-9.7,5.1-15.2c-2.5-0.9-4.3-2.5-6.8-3.4
			c0.4,3.2-1.9,3.7-1.7,6.8c3.7-0.3,5.4,1.4,5.1,5.1C449.6,307.3,442.6,304.3,442.1,308.3 M503.1,308.3c-8.7-0.3-6.5-11.6-15.2-11.9
			c0,4-2.9,5-1.7,10.2C492.7,308.2,500.3,311.9,503.1,308.3 M379.5,301.5h-5.1c1.2,5.2,1.2,3.3,0,8.5c3.9,0.5,6.5-0.3,8.5-1.7
			c1.7-5.3-3.5-12.1-5.1-8.5C378.8,299.9,379.8,300.1,379.5,301.5 M416.7,306.6c8.8,7.5,11.3,16.4,28.8,11.9c-0.1-5-3.9-6.3-6.8-8.5
			c0.8,3.3-4.6,8.7-5.1,5.1c-1.2-4.5,3.5-3.3,5.1-5.1c-1.1-11.7-15.7-15.3-23.7-6.8c3.7-0.3,5.4,1.4,5.1,5.1
			C418.6,307.4,412.7,303.2,416.7,306.6 M152.5,304.9c2.3-0.1,3.7,0.8,5.1,1.7c3.3-1.1,1.2-11-1.7-5.1c0.9,0,1.9,1.4,0,1.7
			c-2.2,0-1.6-3-3.4-3.4V304.9z M232.1,310c6.5,0.3,0.6-1.4,1.7-5.1c4.4,0.5,7.3-0.6,6.8-5.1C233.5,299,232.4,304.1,232.1,310
			 M454,310c5.4,0.3,5.7-4.5,11.9-3.4c2.6-6.2-6.2-9.4-8.5-5.1C462.3,306.1,452.5,301.8,454,310 M518.4,315.1
			c2.8-7.8-13.6-9.7-18.6-15.2C501.5,309.4,514.4,307.8,518.4,315.1 M138.9,310c-0.5-3.9,4.9-1.9,5.1-5.1c-2.5-0.9-4.3-2.5-6.8-3.4
			C138.1,304,135.2,310.3,138.9,310 M172.8,308.3c0.5-3.5,4.6,2.5,5.1-3.4c-2.4-0.7-2.9-2-5.1,0c-0.4-1.3,0-3.3-1.7-3.4
			C168.9,303.8,170,306.7,172.8,308.3 M267.7,301.5c-9.2,1.9-5.3,14.6,6.8,11.9c1.2-5.2-2.9-5-1.7-10.2c-3.9-2.3-6.4,4.4-6.8,0
			C267,303.1,268,303,267.7,301.5 M49.1,308.3c0-1.7-1.4-2-1.7-3.4c-7.2,0.2-10.1,4.6-11.9,10.2H44
			C44.3,306.9,45.3,307.3,49.1,308.3 M401.5,308.3c2.9,0.7-0.4,2.2,0,5.1c4.8,0.3,4.9-7.3,5.1,1.7c5.3,0.8,5.4-3.6,5.1-8.5
			C405.9,306.7,404.4,303.6,401.5,308.3 M59.3,318.5c-4.2-1.4-3.6-7.7-10.2-6.8v5.1C53.2,312.2,61.8,322.9,59.3,318.5 M401.5,321.9
			c-1.3-0.4-3.3-0.1-3.4-1.7c1-0.1,2-0.3,1.7-1.7c-4.3,1.8-8.1-5.2-10.2,0C393.3,318.9,398.7,326.1,401.5,321.9 M83,347.3
			c13.9,6.3,28.1-8.6,25.4-18.6C104.3,339.2,89.6,339.2,83,347.3 M105,347.3c0.1-1,0.3-2,1.7-1.7v5.1c3.2-1.4,16.8-1.1,13.6-3.4
			c-2-0.3-4.8,0.3-5.1-1.7c1.7-2.3,4.5-3.4,6.8-5.1c0.3,2-0.3,4.8,1.7,5.1c0-2.2,3-1.6,3.4-3.4c-4.8-1.1-1.9-2.3-5.1-6.8
			c2.7-0.2,5.9,0.2,5.1-3.4c0.5-5.3-4.9,4.3-5.1-1.7c2.2-2.4,8.3-0.7,8.5-5.1c-1.3-0.4-2-1.4-1.7-3.4c-3,1.5-8.5,0.6-10.2,3.4
			c1.8,0.1,1.3,2.2-1.7,1.7c-1,3.5,2.1,11.1-1.7,11.9c-0.3-2,0.3-4.8-1.7-5.1C114,344,101.2,339.4,105,347.3 M96.6,326.9
			c-6.5,0.3-0.6-1.4-1.7-5.1c2-0.3,4.8,0.3,5.1-1.7h-6.8c-2.5,6.5-9.8,17.3-6.8,23.7C91.4,336.1,92.6,334.4,96.6,326.9 M420.1,328.6
			c-6.2-2.7,6.9,0.4,3.4-5.1c-5.2-1.3-3.3,4.6-8.5,3.4c-0.2-5.4-3.9-7.5-10.2-6.8c-1.5,4.5,4.1,10.3,5.1,6.8
			c-2.6-0.4-0.3-2.8,1.7-3.4c3.7,2.4-2.1,4.1,1.7,5.1C413.9,323,418.6,335.3,420.1,328.6 M432,323.6c6.5,2.7,3.4,1.3,1.7,6.8
			c5-2.1,10.7,1.7,16.9-1.7c0.3-4.2-2.7-5.2-3.4-8.5C439.8,322.4,437.2,319,432,323.6 M230.4,333.7c-2.4,0.9-4.1-6.6-5.1-1.7
			c1.3,0.4,2,1.4,1.7,3.4c10.7,1.1,14.2-5,20.3-8.5c-4.3,0.8-9.6-6-11.9-1.7c1.9,0.3,2.6,1.9,3.4,3.4c-1.7,0-2,1.4-3.4,1.7
			C226.1,326.2,237.5,332,230.4,333.7 M137.2,330.3c-2.2,0-1.6-3-3.4-3.4c0.5,4.5-6.6,1.3-5.1,6.8c5.3,1.9,4.1-2.7,6.8-3.4
			C135.5,331.3,136.9,332.3,137.2,330.3 M76.2,350.7c0.4-3.2-1.9-3.7-1.7-6.8c1.7,0,2-1.4,3.4-1.7c0.2,2.1,0.5,4,3.4,3.4
			c-2.2-5.3,5-9.4,0-11.9c-17.9,2.9-20.4,26.8-35.6,27.1c2.4,9.8-10.9,12.7-8.5,16.9c1.5-1.7,6.3-2.3,8.5,1.7
			c4.2-2.2-3.1-5.1,1.7-6.8c2,0.5,6.4,6.8,8.5,1.7c-2.2,0-2.2-4.7,0-5.1c0.4,2.1,1.9,1,3.4,0c0.2,2.7-0.2,5.9,3.4,5.1
			c4.6-2.1,4.1-6.6,5.1-8.5c0.2,3.7,4.3,3.6,8.5,3.4c0.2-5.9-8.6-2.7-8.5-8.5c6.1,2.8,6.9,2,3.4-3.4c10.1,2.4,10.9-6.4,18.6-1.7
			C89.7,349.8,78.6,349.1,76.2,350.7 M369.3,342.2c-1.8-1.6-0.5-6.3-5.1-5.1c-0.3,2,0.3,4.8-1.7,5.1c-0.3-2.5,0.6-6.3-1.7-6.8
			c0.1,3.2-1.3,3.6-3.4,1.7c0.8,8.1-3.6,11.1-6.8,15.2c0-0.9-1.4-1.9-1.7,0c3.9,2,11,1.8,18.6,0c-0.2-6.6-5.6-6.6,0-11.9
			C367.5,342.3,368.4,344.8,369.3,342.2 M372.7,350.7c0.3-2,2.7-1.8,5.1-1.7c0.3-2.5-0.6-6.2,1.7-6.8c0.8,2,1.8,3.8,3.4,5.1
			c4.3-4.3-0.4-8.2-3.4-10.2c0.9,0,1.9-1.4,0-1.7C378.8,341,368.9,346.2,372.7,350.7 M406.6,342.2c-0.4-9.8-9.9-1.7-11.9,1.7
			C404.8,344,399.4,339.7,406.6,342.2 M413.3,349c3.5-3.4,0.1-7.2-3.4-8.5C409.7,344.7,409.6,348.7,413.3,349 M428.6,350.7
			c-5.6,1.5-7.3-9.4-10.2-5.1C421.1,348.1,424.8,359.4,428.6,350.7 M410,349c-3.7-1.4-5.8-4.4-11.9-3.4
			C397.4,350.4,409.6,350.8,410,349 M45.7,357.4c3.9,0.5,6.5-0.3,8.5-1.7c-0.2-3.2-1.1-5.7-3.4-6.8
			C51.6,354.3,46.3,353.4,45.7,357.4 M79.6,369.3c4.7,0.2,11.9-0.3,11.9-6.8c5.6,2.6,13.9-4.8,18.6-8.5
			C96,357.2,90.2,360.9,79.6,369.3 M399.8,355.7c7.5-2.4,4.4,5.7,10.2,5.1c-0.5-3.3,2.3-3.4,3.4-5.1
			C410.1,355.5,396.5,351.8,399.8,355.7 M264.3,360.8c-8.4-0.9,1.8-0.9,1.7-3.4c-2.3-0.5-3.2-2.4-6.8-1.7
			C253.5,360.1,262.4,368.9,264.3,360.8 M382.8,362.5c-5.1-4.9-10.4-0.5-20.3-1.7c0.5,9,5.7,2.4,10.2,1.7c0.1,2.3-0.8,3.7-1.7,5.1
			c1.3,0.4,3.3,0,3.4,1.7C379.3,369.2,380.7,365.4,382.8,362.5 M509.9,369.3c-5-2.9-12.6-12.1-18.6-8.5c1.8,0.4,4.1,2.8,1.7,3.4
			c-5.9-1.9,4.1,1.7,3.4,5.1C502.4,366.7,512.2,371.5,509.9,369.3 M443.8,367.6c-4.4,2-7.3-5.2-6.8,1.7c1.6,4.6,5.3-2.4,10.2,0v-5.1
			c-2.5,0.3-6.3-0.6-6.8,1.7C441.7,366.3,443.8,366,443.8,367.6 M77.9,387.9h13.5c-0.7-2.9,2.5-4.3,0-5.1c-2.5,0.9-7.1,2.8-8.5,1.7
			c6.3-4.8,11.7-10.4,16.9-15.2c-2.1-0.4-1-1.9,0-3.4c-5.6,1.7-10,4.7-10.2,11.9C85.7,375.4,79.7,382.7,77.9,387.9 M391.3,371
			c1.2-5.6-3.4-2.6-3.4,0c5.6,0.3,7.4,3.5,10.2-1.7c-2.7-0.2-1.3-4.3-5.1-3.4C392.7,367.9,393.3,370.7,391.3,371 M215.1,374.4h6.8
			c-0.5-7.9-7.2-4.6-10.2-6.8c1.5,5.5-5.6,2.3-5.1,6.8C210.8,374.7,219.7,367.9,215.1,374.4 M430.3,376.1c5.3,0.8,5.4-3.6,5.1-8.5
			h-5.1V376.1z M425.2,376.1c-4-0.5-3.1-5.9-8.5-5.1c0.2,6,5.6,6.8,11.9,6.8v-8.5c-2.5,0.3-6.2-0.6-6.8,1.7
			C423.9,371.7,425.3,373.2,425.2,376.1 M433.7,379.5c11-2.9,17.9-0.5,30.5-6.8C453.8,368.4,437.9,372.1,433.7,379.5 M401.5,376.1
			c5.2-2.2,9.4,5,11.9,0C408.8,372.7,405.8,371.6,401.5,376.1 M491.3,384.5c-2.7-1.9-9.1-8.9-13.6-3.4
			C482.9,380.6,489.3,387.5,491.3,384.5 M213.4,387.9c-3.2-0.4-3.7,1.9-6.8,1.7c-1-3,5-7,0-8.5c-12.8,4.7-20.2,23.8-20.3,35.6
			C191.2,412.8,206.6,394,213.4,387.9 M469.2,393c0.8-10.4-19.3-8.9-23.7-8.5C450.7,390.1,461.5,390,469.2,393 M166,398.1
			c3-2.3,12.9-13.2,8.5-11.8C172.9,390.4,161.8,393.8,166,398.1 M277.8,408.3c12.6,1.2,12.4-17.5,8.5-20.3
			C289.2,400.5,275.3,396.1,277.8,408.3 M455.7,398.1c-3.5-5-8.1-8.8-13.6-11.8C437.8,392.6,452.9,404.5,455.7,398.1 M482.8,401.5
			c3.4,2.8,5.9,4.7,8.5,0c2.4,7.5,0.7,9.1,10.2,10.2c-0.6-17.5-16.1-20.1-28.8-25.4c1.3,5.5,6.5,7.1,8.5,11.8
			C490.1,397,486.8,397.8,482.8,401.5 M276.1,398.1c4-1,7.9-2.3,8.5-6.8c-0.4-1.9-1.9-2.6-3.4-3.4
			C278.3,390.1,276.6,393.5,276.1,398.1 M272.7,401.5c1.3-1.2,3.8-9.5,0-10.2C272.7,395.9,265.6,399.2,272.7,401.5 M521.7,401.5
			c-5.5,0.8-10-7.9-13.5-3.4C514.3,397.6,517.9,410.1,521.7,401.5 M193.1,413.3c4.4-0.7,9.3-0.9,11.9-3.4c-2.9-0.7,0.4-2.2,0-5.1
			C199.6,406.3,196.4,409.8,193.1,413.3 M242.2,423.5c-0.7-8.3-5.6-12.5-8.5-18.6C226.2,411.5,239.1,417.4,242.2,423.5 M288,411.6
			c0.7-3.3,6.6-1.3,5.1-6.8C289.2,404,282.9,409.1,288,411.6 M242.2,410c-1.9,0.2-2.6-2.5-3.4,0c5.1,1.1,3.3,9.1,8.5,10.2
			c1.2-4.5,7.7-3.6,8.5-8.5C251.6,408.4,246.4,404.3,242.2,410 M538.7,425.2c-2.8-0.5-4.6,2.3-1.7,3.4c0.1-1,0.3-2,1.7-1.7
			c0,1.7-1.4,2-1.7,3.4c4.6,1.2,3.3-3.5,5.1-5.1c-8.3-3-6-16.6-18.6-15.2v5.1c2.3-0.1,3.7,0.8,5.1,1.7c0.4-1.3,0.1-3.3,1.7-3.4
			C531.5,418.8,534.5,422.6,538.7,425.2 M291.4,420.1c6.4,3.4,6.7-7.7,3.4-8.5C294,414.9,289.9,414.7,291.4,420.1 M462.5,423.5
			c-3.4,9.5,6.7-10.3-1.7-11.9C461.6,419.1,461.3,417.2,462.5,423.5 M250.7,423.5c6,0.9,8.7-1.4,10.2-5.1c-2.4-0.4-2.9-2.8-5.1-3.4
			C255.3,419,249.9,418.2,250.7,423.5 M186.3,421.8c2.6,2.8,7.9,0.7,10.2-1.7c-1.3-0.4-3.3,0-3.4-1.7c1.3-0.4,3.3,0,3.4-1.7
			C192.2,417.5,188.7,419.1,186.3,421.8 M177.9,432c-2-0.4-1-1.9,0-3.4c-6.8-2.1-6.5,11.4-3.4,13.6c2-10.4,13.1-11.8,20.3-16.9
			c-6.4,0.9-7.9,2.4-11.8-1.7C180.4,425.5,180.3,429.9,177.9,432"/>
	</g>
</g>
</svg>
