<?xml version="1.0" encoding="utf-8"?>
<!-- Generator: Adobe Illustrator 19.1.0, SVG Export Plug-In . SVG Version: 6.00 Build 0)  -->
<svg version="1.1" xmlns="http://www.w3.org/2000/svg" xmlns:xlink="http://www.w3.org/1999/xlink" x="0px" y="0px"
	 viewBox="0 0 543.4 840" style="enable-background:new 0 0 543.4 840;" xml:space="preserve">
<style type="text/css">
	.st0{fill:#FF765E;}
	.st1{fill:#42210B;}
	.st2{fill:#754C24;}
	.st3{opacity:0.5;fill:url(#SVGID_3_);}
	.st4{fill:url(#SVGID_4_);}
	.st5{opacity:0.2;fill:#231F20;}
	.st6{fill:#231F20;}
	.st7{fill:url(#SVGID_5_);}
	.st8{opacity:0.7;fill:url(#SVGID_6_);}
	.st9{fill:url(#SVGID_7_);}
	.st10{opacity:0.7;fill:url(#SVGID_8_);}
	.st11{opacity:0.7;fill:url(#SVGID_9_);}
	.st12{opacity:0.4;fill:#B58B3C;}
	.st13{fill:url(#SVGID_10_);}
	.st14{fill:#F29D35;}
	.st15{fill:#FFFFFF;}
	.st16{fill:#803B2F;}
	.st17{fill:#BDA159;}
	.st18{fill:#FCD776;}
	.st19{fill:#74A588;}
	.st20{fill:#FDFAD2;}
	.st21{fill:#FDFAD0;}
	.st22{fill:#1B0F11;}
	.st23{display:none;}
	.st24{display:inline;}
	.st25{fill:#FFE5C6;}
	.st26{clip-path:url(#SVGID_12_);fill:#BF5947;}
	.st27{clip-path:url(#SVGID_12_);fill:#FFE5C6;}
	.st28{clip-path:url(#SVGID_14_);fill:#BF5947;}
	.st29{clip-path:url(#SVGID_14_);fill:#BDA159;}
	.st30{clip-path:url(#SVGID_16_);fill:#BF5947;}
	.st31{clip-path:url(#SVGID_16_);fill:#FCD776;}
	.st32{clip-path:url(#SVGID_18_);fill:#BF5947;}
	.st33{clip-path:url(#SVGID_18_);fill:#74A588;}
	.st34{fill:#42282F;}
	.st35{fill:#D6655A;}
	.st36{fill:#DC9C76;}
	.st37{fill:#757BA2;}
	.st38{fill:#5C4B51;}
	.st39{fill:none;stroke:#5C4B51;stroke-width:6;stroke-linecap:round;stroke-miterlimit:10;}
	.st40{fill:none;stroke:#5C4B51;stroke-width:6;stroke-linecap:round;stroke-linejoin:round;}
	.st41{fill:none;stroke:#5C4B51;stroke-width:6;stroke-linecap:round;stroke-linejoin:round;stroke-dasharray:0,12.3056;}
	.st42{fill:none;stroke:#5C4B51;stroke-width:30;stroke-linejoin:round;stroke-miterlimit:10;}
	.st43{fill:none;stroke:#FFFFFF;stroke-width:30;stroke-linejoin:round;stroke-miterlimit:10;}
	.st44{fill:none;stroke:#ABD25D;stroke-width:6;stroke-linejoin:round;}
	.st45{fill:#ABD25D;}
	.st46{fill:none;stroke:#5C4B51;stroke-width:6;stroke-linecap:round;stroke-linejoin:round;stroke-dasharray:0,11.8498;}
	.st47{fill:#5A2C18;}
	.st48{fill-rule:evenodd;clip-rule:evenodd;fill:#35591C;}
	.st49{opacity:0.3;fill:url(#SVGID_19_);}
	.st50{opacity:0.3;fill:url(#SVGID_20_);}
	.st51{fill:url(#SVGID_21_);}
	.st52{fill:url(#SVGID_22_);}
	.st53{opacity:0.3;}
	.st54{opacity:0.9;}
	.st55{fill:#D3D3D3;}
	.st56{opacity:0.9;fill:#989898;}
	.st57{fill:#AAAAAA;}
	.st58{fill:#BFBFBF;}
	.st59{fill:#E4E4E4;}
	.st60{fill:none;stroke:#BABABA;stroke-width:0;}
	.st61{fill:#F4F4F4;}
	.st62{fill:url(#SVGID_23_);}
	.st63{fill:url(#SVGID_24_);}
	.st64{fill:#5A6D81;}
	.st65{fill:#AEBFC2;}
	.st66{fill:#424242;}
	.st67{fill:#BEBDB8;}
	.st68{fill:#816F64;}
	.st69{fill:#716764;}
	.st70{fill:#322E32;}
	.st71{fill:#73655D;}
	.st72{fill:#D9D9D7;}
	.st73{fill:#716463;}
	.st74{fill:#655752;}
	.st75{fill:#806F6B;}
	.st76{fill:#595554;}
	.st77{fill:#746D68;}
	.st78{fill:#494A4C;}
	.st79{fill:#363D42;}
	.st80{fill:#262733;}
	.st81{fill:#E6EEF4;}
	.st82{fill:#7C8C9A;}
	.st83{fill:#8A9693;}
	.st84{fill:#E4ECEF;}
	.st85{fill:#EDF3F9;}
	.st86{fill:#EDF1F4;}
	.st87{fill:#ECF3F8;}
	.st88{fill:#F8FBFD;}
	.st89{fill:#96A9AB;}
	.st90{fill:#717D79;}
	.st91{fill:#6983A4;}
	.st92{fill:#637891;}
	.st93{fill:#5D7690;}
	.st94{fill:#6886B1;}
	.st95{fill:#5E8CC7;}
	.st96{fill:#6D5E56;}
	.st97{fill:#61504B;}
	.st98{fill:#76675B;}
	.st99{fill:#2B282A;}
	.st100{fill:#1D1A1A;}
	.st101{fill:#201D20;}
	.st102{fill:#4C4E54;}
	.st103{fill:#393B36;}
	.st104{fill:#202325;}
	.st105{fill:#2D2726;}
	.st106{fill:#30302E;}
	.st107{fill:#353739;}
	.st108{fill:#645954;}
	.st109{fill:#745F51;}
	.st110{fill:#3F434B;}
	.st111{fill:#594740;}
	.st112{fill:#605654;}
	.st113{fill:#6A5955;}
	.st114{fill:#CCC9C4;}
	.st115{fill:#B0AFAD;}
	.st116{fill:#76756A;}
	.st117{fill:#634F43;}
	.st118{fill:#665852;}
	.st119{fill:#6F5C54;}
	.st120{fill:#6C5A57;}
	.st121{fill:#74665B;}
	.st122{fill:#C1C1BA;}
	.st123{fill:#4F504E;}
	.st124{fill:#3E3F3C;}
	.st125{fill:#2F1D19;}
	.st126{fill:#65544E;}
	.st127{fill:#7E6F64;}
	.st128{fill:#D1CEC8;}
	.st129{fill:#DFDED9;}
	.st130{fill:#65544F;}
	.st131{fill:#60504D;}
	.st132{fill:#705D50;}
	.st133{fill:#79685C;}
	.st134{fill:#7C695D;}
	.st135{fill:#605250;}
	.st136{fill:#71615A;}
	.st137{fill:#64534A;}
	.st138{fill:#776862;}
	.st139{fill:#655247;}
	.st140{fill:#675546;}
	.st141{fill:#695A5A;}
	.st142{fill:#D8E1EC;}
	.st143{fill:#F2F5F7;}
	.st144{fill:#DAE3EC;}
	.st145{fill:#E4EBF4;}
	.st146{fill:#EEF1F7;}
	.st147{fill:#FAFBFC;}
	.st148{fill:#5986C4;}
	.st149{fill:#252226;}
	.st150{fill:#484C4D;}
	.st151{fill:#5F514F;}
	.st152{fill:#736154;}
	.st153{fill:#846F5E;}
	.st154{fill:#544853;}
	.st155{fill:#5F5047;}
	.st156{fill:#252220;}
	.st157{fill:#665951;}
	.st158{fill:#826C59;}
	.st159{fill:#726357;}
	.st160{fill:#695D57;}
	.st161{fill:#7C776E;}
	.st162{fill:#584F4D;}
	.st163{fill:#766962;}
	.st164{fill:#5B5656;}
	.st165{fill:#7D6F65;}
	.st166{fill:#706B70;}
	.st167{fill:#70625B;}
	.st168{fill:#536174;}
	.st169{fill:#8192A9;}
	.st170{fill:#6E797E;}
	.st171{fill:#F8F9F9;}
	.st172{fill:#A0B4C6;}
	.st173{fill:#E8F1F5;}
	.st174{fill:#EEF6FA;}
	.st175{fill:#E5EEF3;}
	.st176{fill:#EBEEEB;}
	.st177{fill:#9AA39E;}
	.st178{fill:#EDF5F9;}
	.st179{fill:#9EB0BA;}
	.st180{fill:#19222D;}
	.st181{fill:#739DD2;}
	.st182{fill:#272429;}
	.st183{fill:#232125;}
	.st184{fill:#35393A;}
	.st185{fill:#3F4143;}
	.st186{fill:#515152;}
	.st187{fill:#586B80;}
	.st188{fill:#8C9594;}
	.st189{fill:#637684;}
	.st190{fill:#18171E;}
	.st191{fill:#8C9AAC;}
	.st192{fill:#EEF5FA;}
	.st193{fill:#688D9B;}
	.st194{fill:#687D8A;}
	.st195{fill:#67798A;}
	.st196{fill:#586C7F;}
	.st197{fill:#677479;}
	.st198{fill:#727877;}
	.st199{fill:#758A9C;}
	.st200{fill:#7C8582;}
	.st201{fill:#92A3AE;}
	.st202{fill:#A1B2BB;}
	.st203{fill:#EBF3F9;}
	.st204{fill:#6C7F97;}
	.st205{fill:#6B7D90;}
	.st206{fill:#6B7880;}
	.st207{fill:#869AA4;}
	.st208{fill:#8FA1A8;}
	.st209{fill:#657678;}
	.st210{fill:#D0DBDC;}
	.st211{fill:#8C939A;}
	.st212{fill:#6F9AD1;}
	.st213{fill:#5B7593;}
	.st214{fill:#5F788F;}
	.st215{fill:#4B6A8D;}
	.st216{fill:#6A97CF;}
	.st217{fill:#5E7187;}
	.st218{fill:#445C70;}
	.st219{fill:#5483C2;}
	.st220{fill:#5F6A73;}
	.st221{fill:#475563;}
	.st222{fill:#566169;}
	.st223{fill:#65544C;}
	.st224{fill:#715E54;}
	.st225{fill:#665652;}
	.st226{fill:#625145;}
	.st227{fill:#544544;}
	.st228{fill:#564945;}
	.st229{fill:#7C706B;}
	.st230{fill:#746057;}
	.st231{fill:#7F6A5A;}
	.st232{fill:#665A57;}
	.st233{fill:#786B66;}
	.st234{fill:#685F5E;}
	.st235{fill:#6C5B52;}
	.st236{fill:#655852;}
	.st237{fill:#7C7271;}
	.st238{fill:#86766D;}
	.st239{fill:#6E625F;}
	.st240{fill:#847B79;}
	.st241{fill:#28262B;}
	.st242{fill:#282A35;}
	.st243{fill:#281714;}
	.st244{fill:#6B584D;}
	.st245{fill:#574A48;}
	.st246{fill:#212026;}
	.st247{fill:#736052;}
	.st248{fill:#7B7275;}
	.st249{fill:#8D8482;}
	.st250{fill:#DCE3EB;}
	.st251{fill:#819FAE;}
	.st252{fill:#D8E0E6;}
	.st253{fill:#354C5C;}
	.st254{fill:#4A4E53;}
	.st255{fill:#786759;}
	.st256{fill:#383731;}
	.st257{fill:#393D41;}
	.st258{fill:#43433E;}
	.st259{fill:#68675C;}
	.st260{fill:#383838;}
	.st261{fill:#252726;}
	.st262{fill:#6D584C;}
	.st263{fill:#745F52;}
	.st264{fill:#685A50;}
	.st265{fill:#68564F;}
	.st266{fill:#7C6657;}
	.st267{fill:#69564D;}
	.st268{fill:#7B604E;}
	.st269{fill:#786352;}
	.st270{fill:#6A5E57;}
	.st271{fill:#635C61;}
	.st272{fill:#7F7363;}
	.st273{fill:#D2D0C9;}
	.st274{fill:#7E6E60;}
	.st275{fill:#3F303A;}
	.st276{fill:#3F3949;}
	.st277{fill:#3B3C4C;}
	.st278{fill:#D0DBE8;}
	.st279{fill:#4E536B;}
	.st280{fill:#BFC7CF;}
	.st281{fill:#49343C;}
	.st282{fill:#51616F;}
	.st283{fill:#CDCED1;}
	.st284{fill:#3F2C37;}
	.st285{fill:#3C3746;}
	.st286{fill:#E9E7EA;}
	.st287{fill:#7C889A;}
	.st288{fill:#CCD9E6;}
	.st289{fill:#726561;}
	.st290{fill:#6A5A55;}
	.st291{fill:#60554F;}
	.st292{fill:#292223;}
	.st293{fill:#454547;}
	.st294{fill:#303032;}
	.st295{fill:#1B0C0D;}
	.st296{fill:#3A4141;}
	.st297{fill:#75645A;}
	.st298{fill:#7C716D;}
	.st299{fill:#645142;}
	.st300{fill:#675C58;}
	.st301{fill:#837464;}
	.st302{fill:#71645C;}
	.st303{fill:#5B4E4C;}
	.st304{fill:#6D6564;}
	.st305{fill:#847560;}
	.st306{fill:#2B1A18;}
	.st307{fill:#6B5548;}
	.st308{fill:#6A5D53;}
	.st309{fill:#655858;}
	.st310{fill:#66595C;}
	.st311{fill:#6A686C;}
	.st312{fill:#5E514A;}
	.st313{fill:#90A2AE;}
	.st314{fill:#5C676A;}
	.st315{fill:#3F2D35;}
	.st316{fill:#5B4140;}
	.st317{fill:#413743;}
	.st318{fill:#422C38;}
	.st319{fill:#EBEEEE;}
	.st320{fill:#7F9BA5;}
	.st321{fill:#DDDEE1;}
	.st322{fill:#8A9FA2;}
	.st323{fill:#708994;}
	.st324{fill:#F2F4F6;}
	.st325{fill:#CECED2;}
	.st326{fill:#B4BDC6;}
	.st327{fill:#D1D1D4;}
	.st328{fill:#87A4AC;}
	.st329{fill:#F5F8F9;}
	.st330{fill:#8D9CAA;}
	.st331{fill:#7698A3;}
	.st332{fill:#F9FBFC;}
	.st333{fill:#D3DAD6;}
	.st334{fill:#638291;}
	.st335{fill:#EFF6FB;}
	.st336{fill:#EDF5F8;}
	.st337{fill:#7B827F;}
	.st338{fill:#697371;}
	.st339{fill:#7E94A1;}
	.st340{fill:#7F8B93;}
	.st341{fill:#4B5053;}
	.st342{fill:#766358;}
	.st343{fill:#775E4D;}
	.st344{fill:#64544D;}
	.st345{fill:#6A5041;}
	.st346{fill:#766155;}
	.st347{fill:#66564F;}
	.st348{fill:#5F585B;}
	.st349{fill:#6D564A;}
	.st350{fill:#6F89A8;}
	.st351{fill:#2B4661;}
	.st352{fill:#6B7C8A;}
	.st353{fill:#E9F0F5;}
	.st354{fill:#E6EDF2;}
	.st355{fill:#8796AD;}
	.st356{fill:#616B72;}
	.st357{fill:#3F362D;}
	.st358{fill:#50585D;}
	.st359{fill:#5C6565;}
	.st360{fill:#554F4B;}
	.st361{fill:#7D8697;}
	.st362{fill:#E1E5E8;}
	.st363{fill:#F1F5F7;}
	.st364{fill:#4B433B;}
	.st365{fill:#453930;}
	.st366{fill:#535955;}
	.st367{fill:#847F7E;}
	.st368{fill:#6E707E;}
	.st369{fill:#7D91A0;}
	.st370{fill:#95A3AD;}
	.st371{fill:#161E2C;}
	.st372{fill:#1B252D;}
	.st373{fill:#2F3840;}
	.st374{fill:#6F7C96;}
	.st375{fill:#6E809A;}
	.st376{fill:#4A5860;}
	.st377{fill:#4B5E6E;}
	.st378{fill:#6F8DBD;}
	.st379{fill:#D8DEDD;}
	.st380{fill:#BFCACC;}
	.st381{fill:#141B23;}
	.st382{fill:#DFE6EA;}
	.st383{fill:#E4EDF1;}
	.st384{fill:#4B678C;}
	.st385{fill:#7289AB;}
	.st386{fill:#4A6387;}
	.st387{fill:#374C70;}
	.st388{fill:#456386;}
	.st389{fill:#426188;}
	.st390{fill:#556477;}
	.st391{fill:#3C4D56;}
	.st392{fill:#7185A0;}
	.st393{fill:#414039;}
	.st394{fill:#4B4E4E;}
	.st395{fill:#697280;}
	.st396{fill:#766456;}
	.st397{fill:#7C6D5F;}
	.st398{fill:#6F5D55;}
	.st399{fill:#6A584C;}
	.st400{fill:#786353;}
	.st401{fill:#615455;}
	.st402{fill:#82746E;}
	.st403{fill:#716050;}
	.st404{fill:#847268;}
	.st405{fill:#544540;}
	.st406{fill:#766255;}
	.st407{fill:#18181E;}
	.st408{fill:#745C4A;}
	.st409{fill:#776456;}
	.st410{fill:#755F4D;}
	.st411{fill:#5E514E;}
	.st412{fill:#867262;}
	.st413{fill:#605151;}
	.st414{fill:#6F5F58;}
	.st415{fill:#49494C;}
	.st416{fill:#66544C;}
	.st417{fill:#66584E;}
	.st418{fill:#63534C;}
	.st419{fill:#594A46;}
	.st420{fill:#5D4B40;}
	.st421{fill:#766053;}
	.st422{fill:#5A4740;}
	.st423{fill:#38232F;}
	.st424{fill:#3B2733;}
	.st425{fill:#464753;}
	.st426{fill:#EFF1F2;}
	.st427{fill:#EEEFF0;}
	.st428{fill:#6E5D4D;}
	.st429{fill:#46494E;}
	.st430{fill:#302823;}
	.st431{fill:#6D6969;}
	.st432{fill:#292727;}
	.st433{fill:#6C5E54;}
	.st434{fill:#29292B;}
	.st435{fill:#1D1A14;}
	.st436{fill:#7A6659;}
	.st437{fill:#705C4C;}
	.st438{fill:#75655B;}
	.st439{fill:#675244;}
	.st440{fill:#8B7258;}
	.st441{fill:#614E44;}
	.st442{fill:#5A4741;}
	.st443{fill:#654E39;}
	.st444{fill:#786E73;}
	.st445{fill:#867363;}
	.st446{fill:#827467;}
	.st447{fill:#5E4B45;}
	.st448{fill:#C0BCC1;}
	.st449{fill:#EAEAEB;}
	.st450{fill:#EBEFF0;}
	.st451{fill:#5D4845;}
	.st452{fill:#CDCDD0;}
	.st453{fill:#C4C4C8;}
	.st454{fill:#B5BABF;}
	.st455{fill:#EDF0F2;}
	.st456{fill:#F1F6F7;}
	.st457{fill:#746459;}
	.st458{fill:#786F6B;}
	.st459{fill:#847466;}
	.st460{fill:#7E6C61;}
	.st461{fill:#362824;}
	.st462{fill:#7A6D65;}
	.st463{fill:#6D5B50;}
	.st464{fill:#6B5A52;}
	.st465{fill:#7A6D62;}
	.st466{fill:#6A5A50;}
	.st467{fill:#695A50;}
	.st468{fill:#87725D;}
	.st469{fill:#796B5F;}
	.st470{fill:#594E4F;}
	.st471{fill:#6E6566;}
	.st472{fill:#574947;}
	.st473{fill:#837161;}
	.st474{fill:#7B6D5B;}
	.st475{fill:#6A5C4C;}
	.st476{fill:#7B6758;}
	.st477{fill:#5F504B;}
	.st478{fill:#5F5051;}
	.st479{fill:#564A44;}
	.st480{fill:#745F4F;}
	.st481{fill:#D8DEE3;}
	.st482{fill:#C6C8CD;}
	.st483{fill:#C6C8CC;}
	.st484{fill:#D0D1D3;}
	.st485{fill:#F1F2F4;}
	.st486{fill:#F0F1F2;}
	.st487{fill:#F4F6F8;}
	.st488{fill:#EFF2F2;}
	.st489{fill:#BEC1C3;}
	.st490{fill:#AFAEB6;}
	.st491{fill:#1B2021;}
	.st492{fill:#A5B8BE;}
	.st493{fill:#5B7686;}
	.st494{fill:#768E95;}
	.st495{fill:#75939D;}
	.st496{fill:#5E7E8B;}
	.st497{fill:#708A97;}
	.st498{fill:#728E9D;}
	.st499{fill:#5A7680;}
	.st500{fill:#D6DFE5;}
	.st501{fill:#426A78;}
	.st502{fill:#4D727F;}
	.st503{fill:#D0D9DF;}
	.st504{fill:#ECF1F5;}
	.st505{fill:#725C51;}
	.st506{fill:#7E6E65;}
	.st507{fill:#83736B;}
	.st508{fill:#654D42;}
	.st509{fill:#60504C;}
	.st510{fill:#69564A;}
	.st511{fill:#5D4D48;}
	.st512{fill:#6D5545;}
	.st513{fill:#5D4F47;}
	.st514{fill:#685C5A;}
	.st515{fill:#5F453D;}
	.st516{fill:#5A4D47;}
	.st517{fill:#554843;}
	.st518{fill:#57453E;}
	.st519{fill:#6F5846;}
	.st520{fill:#6D5A4B;}
	.st521{fill:#534946;}
	.st522{fill:#534B4F;}
	.st523{fill:#564744;}
	.st524{fill:#5E7BA0;}
	.st525{fill:#1B1613;}
	.st526{fill:#717873;}
	.st527{fill:#68808D;}
	.st528{fill:#8792A4;}
	.st529{fill:#111E26;}
	.st530{fill:#5E6873;}
	.st531{fill:#BEC4CD;}
	.st532{fill:#748699;}
	.st533{fill:#0A131C;}
	.st534{fill:#E0E8ED;}
	.st535{fill:#394448;}
	.st536{fill:#7F6A5E;}
	.st537{fill:#7B6657;}
	.st538{fill:#604B41;}
	.st539{fill:#6B594D;}
	.st540{fill:#5A4941;}
	.st541{fill:#826F60;}
	.st542{fill:#776763;}
	.st543{fill:#5F4C45;}
	.st544{fill:#63534D;}
	.st545{fill:#7C6863;}
	.st546{fill:#736460;}
	.st547{fill:#523E36;}
	.st548{fill:#5E4C46;}
	.st549{fill:#5D4B45;}
	.st550{fill:#75695C;}
	.st551{fill:#7A6F68;}
	.st552{fill:#615B5A;}
	.st553{fill:#888483;}
	.st554{fill:#726864;}
	.st555{fill:#807061;}
	.st556{fill:#262225;}
	.st557{fill:#121115;}
	.st558{fill:#454649;}
	.st559{fill:#F2F5F5;}
	.st560{fill:#827165;}
	.st561{fill:#715F51;}
	.st562{fill:#726361;}
	.st563{fill:#837267;}
	.st564{fill:#796457;}
	.st565{fill:#625049;}
	.st566{fill:#624E40;}
	.st567{fill:#7F6E60;}
	.st568{fill:#716563;}
	.st569{fill:#7B7069;}
	.st570{fill:#D1D0C9;}
	.st571{fill:#73645A;}
	.st572{fill:#7A6859;}
	.st573{fill:#574943;}
	.st574{fill:#E6E4DF;}
	.st575{fill:#6E5F5A;}
	.st576{fill:#A5817A;}
	.st577{fill:#D9E2E7;}
	.st578{fill:#537781;}
	.st579{fill:#EAF1F6;}
	.st580{fill:#BBC5CF;}
	.st581{fill:#637C88;}
	.st582{fill:#547482;}
	.st583{fill:#E7EFF4;}
	.st584{fill:#8BA0AF;}
	.st585{fill:#A9B8C6;}
	.st586{fill:#F6F9FB;}
	.st587{fill:#ECF2F6;}
	.st588{fill:#A9B8C1;}
	.st589{fill:#F3F7FA;}
	.st590{fill:#F0F3F6;}
	.st591{fill:#B1C2CC;}
	.st592{fill:#AFC1CF;}
	.st593{fill:#90A1AF;}
	.st594{fill:#849BAB;}
	.st595{fill:#819DB0;}
	.st596{fill:#F2F5F9;}
	.st597{fill:#A4B7C4;}
	.st598{fill:#8298A8;}
	.st599{fill:#ABBCC8;}
	.st600{fill:#746256;}
	.st601{fill:#5D463A;}
	.st602{fill:#604537;}
	.st603{fill:#655757;}
	.st604{fill:#7F6B5D;}
	.st605{fill:#5C4735;}
	.st606{fill:#857B7C;}
	.st607{fill:#948C9A;}
	.st608{fill:#7B6654;}
	.st609{fill:#645A59;}
	.st610{fill:#716051;}
	.st611{fill:#695447;}
	.st612{fill:#655750;}
	.st613{fill:#6E645E;}
	.st614{fill:#75675E;}
	.st615{fill:#94928B;}
	.st616{fill:#7D6D5B;}
	.st617{fill:#2B2E35;}
	.st618{fill:#8A7461;}
	.st619{fill:#776354;}
	.st620{fill:#725E52;}
	.st621{fill:#675448;}
	.st622{fill:#675344;}
	.st623{fill:#776049;}
	.st624{fill:#8A7C72;}
	.st625{fill:#8F816F;}
	.st626{fill:#77655B;}
	.st627{fill:#6B5957;}
	.st628{fill:#605356;}
	.st629{fill:#675340;}
	.st630{fill:#3A3934;}
	.st631{fill:#7A6556;}
	.st632{fill:#807064;}
	.st633{fill:#6E6C5B;}
	.st634{fill:#6A584E;}
	.st635{fill:#5D5048;}
	.st636{fill:#61534E;}
	.st637{fill:#69554E;}
	.st638{fill:#27231E;}
	.st639{fill:#BDCAD4;}
	.st640{fill:#556F7C;}
	.st641{fill:#98A9B7;}
	.st642{fill:#94A9B7;}
	.st643{fill:#C2D0DA;}
	.st644{fill:#8BA4B5;}
	.st645{fill:#7F9BA8;}
	.st646{fill:#81736A;}
	.st647{fill:#908484;}
	.st648{fill:#5B473D;}
	.st649{fill:#5B4A3E;}
	.st650{fill:#675540;}
	.st651{fill:#584844;}
	.st652{fill:#59463C;}
	.st653{fill:#77614F;}
	.st654{fill:#5C4942;}
	.st655{fill:#563F35;}
	.st656{fill:#6E5C51;}
	.st657{fill:#5B4B40;}
	.st658{fill:#897864;}
	.st659{fill:#604B3F;}
	.st660{fill:#78614D;}
	.st661{fill:#67513E;}
	.st662{fill:#7E695C;}
	.st663{fill:#746355;}
	.st664{fill:#302F2D;}
	.st665{fill:#69524A;}
	.st666{fill:#8F796F;}
	.st667{fill:#7A6353;}
	.st668{fill:#685855;}
	.st669{fill:#41403E;}
	.st670{fill:#241412;}
	.st671{fill:#918580;}
	.st672{fill:#776355;}
	.st673{fill:#756763;}
	.st674{fill:#312A27;}
	.st675{fill:#665A53;}
	.st676{fill:#624C39;}
	.st677{fill:#816B61;}
	.st678{fill:#6B594F;}
	.st679{fill:#6A5647;}
	.st680{fill:#26130F;}
	.st681{fill:#6E5E55;}
	.st682{fill:#69584E;}
	.st683{fill:#766658;}
	.st684{fill:#5D4F48;}
	.st685{fill:#827468;}
	.st686{fill:#5C4C46;}
	.st687{fill:#7F7166;}
	.st688{fill:#7C6B62;}
	.st689{fill:#7B6B5E;}
	.st690{fill:#75675C;}
	.st691{fill:#7D6755;}
	.st692{fill:#918177;}
	.st693{fill:#877668;}
	.st694{fill:#68584D;}
	.st695{fill:#5E5047;}
	.st696{fill:#705E50;}
	.st697{fill:#594F4F;}
	.st698{fill:#69574C;}
	.st699{fill:#7B6B5D;}
	.st700{fill-rule:evenodd;clip-rule:evenodd;fill:#243C13;}
	.st701{fill-rule:evenodd;clip-rule:evenodd;fill:#052B03;}
</style>
<g id="Layer_3">
</g>
<g id="Layer_4">
</g>
<g id="Layer_1">
	<g id="Logo_Dark">
	</g>
</g>
<g id="Layer_5">
	<g id="Layer_6">
	</g>
</g>
<g id="Layer_7" class="st23">
</g>
<g id="Layer_8">
</g>
<g id="Layer_9">
	<g id="Logo_Dark_1_">
	</g>
	<g id="BoilerCamp_1_">
	</g>
	<g id="BoilerCamp">
	</g>
	<g id="BoilerCamp_2_">
		<path class="st700" d="M443.6,177.4c2.5,0.4,1.2,2.2,0,2.2c-0.8,3.7,1.7,4.1,4.3,4.3c-7.6,11.1-2.1,15.9-4.3,28.1
			c-7.5-10-14.1,21-28.1,10.8c-6.6,2.7,3.2,8.3-2.1,10.8c1.9,3.8,8,3.6,8.7,8.7c2.8-5.9,9.8-7.5,8.7-17.3c6,2.4,11.2-5.7,17.3,2.2
			c-0.8,5.8-5.7,7.3-10.8,8.7c-0.3,5.4-0.4,10.5,4.3,10.8c11.3-4.6,22.4-9.3,30.3-17.3c5.9,7-5.1,12.4,2.2,19.5
			c-4.3,3.6-2.7-0.2-8.6,0c2.2,2.9,2.1,8,6.5,8.7c-4.5,4.8-7.1,11.7-17.3,10.8c-0.4,4.7,1.8,6.9,6.5,6.5
			c-1.8,12.7-13.6,15.2-19.5,23.8C444,309,457,292,452.3,303c7.3-1.4,9-8.3,15.2-10.8c7.3,6-6.1,24.5-10.8,32.5
			c2.1,6,5.8-3.2,8.7,2.2c0.7,12.7-12-1.5-10.8,10.8c6.2,5.3,19.4,3.6,23.8,10.8c3.4-4.9,4.5-4.1,10.8-2.2
			c3.4-12.4,26.3-5.5,23.8-23.8c5.6,5.3,10.4-2.3,13-6.5c7.4,12.5-8.1,20.7-4.3,36.8c-8.3,3.4-27.1-5.1-19.5,13
			c-6.9,1-9.1,6.8-17.3,6.5c-1.6,6.7,5.9,4.2,4.3,10.8c-4.1,0.9-5.4,4.7-10.8,4.3c0.8-3.7-1.7-4.1-4.3-4.3
			c-1.8-6.1,3.1-5.6,2.2-10.8c-8.3,0.3-12.5,4.8-15.1,10.8c-2.5-1.8-5.8-2.8-10.8-2.1c-9.4,1.6,3.2,11.7-8.7,10.8
			c3.4,10.5,6.5,10.6,4.3,23.8c-2.8-0.7-3.4-3.8-6.5-4.3c-1.8,0.4-2.2,2.2-4.3,2.2c2.3,11.5,27.9,14.6,30.3,2.1h15.1
			c0.6,5.9,2.2,8.6,8.7,13c5-3,7-8.9,10.8-13c10.2,6.6,2.9,17.2,8.7,28.2c-7.9-1.4-8.5,4.5-8.7,10.8c-9.3-8.7-13.1,3.8-19.5,0
			c-3.2,1.8-3.1,7-4.3,10.8c-10.9-1.6-9.9,2.1-21.6-2.2c-2.3,7.2,7.7,14.4-4.3,13c3.7,4.3,15.2,0.7,17.3,6.5
			c4.7,0.4,6.9-1.8,6.5-6.5c11.7,1.7,13.9-0.6,21.7,4.3c0.4,4.7-1.8,6.9-6.5,6.5c3.7,3.5,5.4,9,4.3,17.3
			c19.9,2.7,22.9-11.7,41.1-10.8c-7.3,7-0.9,14.5-13,15.2c-1.8,6.1,3,5.6,2.2,10.8c-10.8-0.3-12.9,3.2-19.5-2.2
			c-4.3,3.6-10.1,5.8-10.8,13c-5.4-0.3-6.8-4.1-8.6,2.2c-2.9-0.7-1.8-5.4-2.2-8.7c-2.9,1.4-4,4.6-4.3,8.7c-2.6-1-4.4-2.8-4.3-6.5
			c-5.7-0.6-1.7,8.4-8.6,6.5c-3.7-1.3,0.2-10.3-4.3-10.8c-6.6,4.7,2.1,12.2,0,19.5c-6.8-2.1-17.9-8.1-26-2.2
			c5.3,4.1,9.1,9.7,19.5,8.7c0.6,5.7-3,7.1-8.7,6.5c2.3,8.6,8.1,1,10.8-2.2c5.2-0.9,4.7,4,10.8,2.2c-10.2,8.1,3.8,8.2,4.3,17.3
			c6.9,0.1,22.3-7.2,23.8,6.5c9.8-11.3,16.7-2.8,30.3-13c6.5,7.9-6.9,12.6,0,21.6c-6.9-3.3-9.5-0.7-8.7,8.7
			c-11.3-1.2-16.2,3.9-19.5,10.8c-3.8-1.2-9-1.1-10.8-4.3c-6.1,7.6-10.7,16.7-13,28.1c8.2,4.5,18.9,6.2,21.7,6.5
			c8.9,2.7-0.8,6.3-2.2,10.8c4.2,6.1,11.3-3,17.3-2.2c1.1,3.7,5.7,15.7-4.3,17.3c7.7,11.9,16.5-6.3,26-6.5c5.8,8.7-4.8,9.8,0,19.5
			c-15.7,5.3-11.6,27.6-26,26c-0.2,11,10.3,11.3,21.7,10.8c-0.5,7.9-3,8.3,0,15.1c6.7,0.8,10.3-5,15.1,0
			c2.6,22.1-20.8,18.2-17.3,41.1c-9.4-2.8-14.4,1.9-15.1,13c-33.4-11.6-62.7,14.3-95.2-4.3c-33.5-0.5-86.8,14.1-108.2-13
			c-6,9.8,0.8,25.1,2.2,34.6c37.3,32.7,131.9,8,171,38.9c-146.4,5.1-302.2,0.7-452.3,2.2c70.5-34.9,250.9,13,233.7-99.5
			c-0.5-3.3-8.1-10.4-10.8-4.3c-3.1-0.5-0.8-6.5-4.3-6.5c-9.8,1-4.9,10.2-4.3,17.3c-16,1.3-26.5,8.2-30.3,21.6
			c-10.3-2-15.4,9-23.8,2.2c-22.7,18.9-65-1.5-84.4,2.2c9.3-13.1,29.5-15.2,34.6-32.4c-16.3,0.3-23.9,15.5-32.4,8.7
			c-10.4,16.3-27.9,25.5-54.1,25.9c-5.4-8.1-1.1-21.8,8.7-21.6c-3.8-7.8-13.6-9.5-17.3-17.3c19-3.9,15.9-20.7,30.3-26
			c-11.3,0.1-23.3-21-36.8-13c-7.1-4.7-3.3-21-13-23.8c3.1-20.1-22.8-25.3-23.8-43.3c21.6-1.7,35.1,22.5,47.6,0
			c3.9-0.3,4.6,2.6,8.7,2.2c3.8-0.5,4.9-3.7,4.3-8.7c11,4.5,12.6-1.9,19.5-6.5c0.4-7.6-7.3-7.1-8.7-13c-5.2,1.3-9.9,3.1-17.3,2.2
			c-6-5.4-0.6-18.9-13-13c0.9-4.1-1.5-7.8-2.2-4.3c-2.5-5-2.8-12.7,0-19.5c-18.4,2.5-17.2-14.5-28.1-19.5c-0.4-1.9,0.8-2.1,2.2-2.2
			v-4.3c22.8,13.5,35.8-2.9,56.3-8.7c-4.6-5.3,3.4-11.1-4.3-10.8c-0.4-5.4,3.3-6.8,6.5-8.7c6.1-0.3,5.4,6.1,8.7,8.7
			c6.5,0,2.8-10.2,6.5-13c-6.1-3-13.5-9.1-26-8.7c-0.6-3.5,2.1-3.7,2.2-6.5c-2.7,2.4-4.5,1.9-4.3-2.2c-4.3,0-2.8,5.9-8.7,4.3
			c-5-15-8.7-18.4-15.1-32.4c2.9-5.3,6.5,3.9,8.7-2.2c2.9,1.4,4,4.6,4.3,8.6c1.9-1,3.9-1.9,4.3-4.3c13.2,16.5,33,5.7,52,2.2
			c-0.7-2.9-5.4-1.8-8.7-2.2v-8.6c19.8-6.6,31.3,10.9,52,4.3c4.1-2.9-5-7.1,0-13c-3.3-2.5-5.3-6.3-10.8-6.5
			c1.5-10,14.9-8.2,15.2-19.5c-2.4-4.8-13.7-7.3-6.5-15.1c-7.8-4.7-13-0.4-23.8-8.7c-2.9,2.1-4.3,5.7-6.5,8.7
			c-7.4-15-17.7-27-32.4-34.6c9.1-6.9-1.9-12,2.2-19.5c7.6-0.6,15.5,5.9,13,13c5.1-2.1,10.6-3.8,17.3-4.3c0.8,3.7-1.7,4.1-4.3,4.3
			c14.2,2.7,23.7,0.5,41.1,0c1.1-7.1-10.8-4.6-4.3-10.8c10.9,0.9,4.6,7.8,10.8,10.8c1.3-11.6,15.8-10.1,19.5-19.5
			c7,3.2,21.7,7.5,30.3,2.2c-0.5-2.8-6.4-2.8-6.5,0c-5.4-0.3-0.6-7.3,0-8.7c-10.1,8.7-24.6-3.8-41.1-6.5c4.1-4.1,0.2-5.4,0-10.8
			c-9.4-3-7.8,5.1-13,6.5c-7.4-0.9-2.8-5.8-10.8-2.2v-13c-8.8,1.7-10,2.8-15.1,4.3c-12.1-9.1,0.1-20.9-8.7-32.5
			c1.9-0.9,3.9-1.9,4.3-4.3c7,0.2,4.6,9.8,15.1,6.5c-6.6,12.9,19.7,18.3,28.1,10.8c-0.3-5.3-0.3-10.4,2.2-13
			c-3.2-7.1-2.5,7.2-8.7,4.3c-0.3-7.7-8.6-7.3-13-10.8c1.9-9.6-0.3-21.3,13-23.8c1.6,4.4,6.8,8.6,2.2,13c8.8-5.2,6.9,7.4,13,10.8
			c10.5-1.4,15.3,2.9,21.6,0c1.1-5.6,0.9-8.1,4.3-15.1c-6.5-2.8-8.5,0.4-10.8-8.7c-6.1-0.3-6.2,5.3-6.5,10.8
			c-7.5-2.7-3.5-6.8-10.8-6.5c-0.1-3.7,1.6-5.6,4.3-6.5c-2.5-6.2-13.9-1.3-8.7-13c-3.3,3.2-9.1,3.8-10.8,8.6c-10-7.6-6.9-15-13-26
			c9.4-3,7.8,5.1,13,6.5c1.7-0.4,2.2-2.2,4.3-2.2c-6.5-4.1-3.4-10.8-2.2-15.1h8.7c1.8,10.8,1.5,13-6.5,17.3c1.9,4,8-7,10.8,2.2
			c4-0.3,1.3-7.3,4.3-8.6c6.3,2.9-0.3,10,10.8,10.8c5,0.6,2.4-6.3,6.5-6.5c8-1.5,5.4,7.6,8.7,10.8c2.8-0.8,3.4-3.8,6.5-4.3
			c-2.8-12.4-10.9-18.2-6.5-32.5c-3.5-0.4-2.7-4.1-10.8-4.3c-1.9-7,7.1-3,6.5-8.6c-6.8-1-9.6,1.9-8.7,8.6c-6.3-2.9-7-5.6-10.8,2.2
			c-3.5-10.9,0.4-17.2-6.5-26c4.1-4.1,3.9,1.3,10.8,0c-6.8-2.7,1.7-7.3-8.7-6.5c1.5-5.7,9.8-4.6,10.8-10.8c-0.7-3-5.4-1.8-8.6-2.2
			c1.1-5.4,5.7-7.2,6.5-13c1.3,9.4,11,4.1,15.1,6.5c-1.4,7.2-4.4,9.4,4.3,6.5c-7.7,7.5,12.5,17.1,15.2,6.5
			c11.8-0.2,10.1,12.9,23.8,10.8c-1.8-7.5-6.2-12.5-10.8-17.3c0.6-2.3,4.3-1.5,4.3-4.3c-5.9-2-3-1,0-8.7c-8.1-1.7-4.7,8.3-10.8,8.7
			c-17.3-9.9-15.4-17.9-21.6-36.8c5.1,0.7,8.1,3.4,15.2,2.2c1.5,5.6,3.3,11.2,13,8.6c-5.2,17.2,19.5-0.3,26,8.7
			c0.6-9.2-6.6-10.7-4.3-21.6c-3.5,3-5.5,7.5-6.5,13c-19.6-4-6.8-27-26-30.3c1.8-2.5,2.8-5.8,2.2-10.8c10.1,5.2,13-8.1,17.3-15.1
			c2.7,0.9,4.4,2.8,4.3,6.5c4.2-4.9,6.8-11.4,15.1-6.5c-3.8,4.4,1.6,4.2-2.2,8.7c3.9,9.5,12.6,2.2,17.3,8.7
			c5.4-3.9,10.3-8.4,10.8-17.3c-4-0.9-3.2-4.8-10.8-2.2c3.8-8.9,0.8-18.5-6.5-17.3c-2.5-14.2,16.6-11.8,6.5-21.7
			c3.2-1.2,11.2,2.5,10.8-2.1c5.5,5.8-5.6,13.2,8.7,8.7c1.2,4.8-4.1,3.1-4.3,6.5c1.9,6.4,3.2-5,8.7-2.2c1.1,6.8-7.5,5.7-2.2,10.8
			c8.7-0.7,3.1-15.7,15.1-13c-0.3-4-7.3-1.3-8.7-4.3c1.8-2.5,2.8-5.8,2.2-10.8h8.7c0.4-8.6-3.3,0.7-6.5-4.3c-0.6-6.3,4.9-6.6,4.3-13
			c5.4,2,14.9,4.2,15.2-4.3c4.7-0.4,1,7.7,2.2,10.8c6.7,1.6,4.2-5.9,10.8-4.3c-2.5,3.2-2.7,8.8-6.5,10.8c0.6,4.4,9.6,0.5,8.6,6.5
			c8.4-0.3,6.7-10.6,15.2-10.8c0.4,7.6-7.3,7.1-8.6,13c0.5,2.3,4.3,1.5,4.3,4.3c4.4-0.6,4.3-5.8,6.5-8.7c9.2,2.8-2,7.1,0,15.2
			c3.6,5.5,5.8-8.5,13-6.5c-1.4,8.9-11.3,12.7-6.5,21.6c-10-2.1-2.9,12.9-13,10.8c12.2,10.4,21.2,0.6,26-10.8
			c8.1,1.9-9.1,12.1,2.2,10.8c-2.9,6.5-5.4,13.3-13,15.1c-1.1,6.8,3.9,7.6,2.2,15.1c9-11,20.3-9.6,26-26c6.5,2.6-1.5,8.2-2.2,10.8
			c0.8,3,3.8,0.2,4.3-2.2c2.1,9.4,4.8,11.3,0,19.5c4.8,6.8,12.7-1.6,13-6.5c3.8-2-1.8,19.3,0,21.6c-2.6,3.2-8.3,3.3-10.8,6.5
			c1.6,2,3.9,3.3,6.5,4.3c4.8-2.4,12-2.5,13-8.7c7.1,5.2-2.7,11.5-4.3,15.1c8.4,1.9,12.8-5.7,17.3-6.5
			c-0.1,20.7-19.5,40.1-19.5,62.8c-12.5,1.9-13.4,15.4-23.8,19.5c0.7,4.6,9.4-0.3,10.8-2.2c7.3,2,0.3,4.8,4.3,8.6
			c4.8,1.7,7.7-10.8,8.7,0C422.5,202.5,433.9,190.9,443.6,177.4 M244.5,106c4.3,4.5,9.2,0.1,10.8-4.3
			C250,101.4,244.8,101.3,244.5,106 M207.7,225.1c0.5-1.7,1.8-2.5,4.3-2.2c-2-3.8,0.1-11.6-6.5-10.8
			C202,215.4,204.7,222.2,207.7,225.1 M385.2,242.4c10.6,2.6,22.4-4.9,17.3-10.8c-3.5,2.7-8.1,1.9-13,0
			C392.6,239.8,383.6,235.7,385.2,242.4 M212.1,287.8c5.7,1.2,7.4-12.6,4.3-13C215.1,279.4,211,281,212.1,287.8 M415.5,322.4h-8.6
			C405.1,330.8,417.2,330.8,415.5,322.4 M437.1,465.3c6.2-3,11,5.9,13,0c-5.1-0.7-4-7.5-10.8-6.5
			C439.4,461.7,438.2,463.5,437.1,465.3 M112.5,681.7c1.4-2.9,4.6-4,8.7-4.3c-2.7-6.6-1.7-8.4,2.2-13
			C115.4,664.4,108.5,676.7,112.5,681.7 M41.1,670.8c6.3,7.6,28.3,7.4,21.7-4.3C59.4,678.9,43.9,659.1,41.1,670.8"/>
	</g>
</g>
</svg>
