<?xml version="1.0" encoding="utf-8"?>
<!-- Generator: Adobe Illustrator 19.1.0, SVG Export Plug-In . SVG Version: 6.00 Build 0)  -->
<svg version="1.1" xmlns="http://www.w3.org/2000/svg" xmlns:xlink="http://www.w3.org/1999/xlink" x="0px" y="0px"
	 viewBox="0 0 643.7 824" style="enable-background:new 0 0 643.7 824;" xml:space="preserve">
<style type="text/css">
	.st0{fill:#FF765E;}
	.st1{fill:#42210B;}
	.st2{fill:#754C24;}
	.st3{opacity:0.5;fill:url(#SVGID_3_);}
	.st4{fill:url(#SVGID_4_);}
	.st5{opacity:0.2;fill:#231F20;}
	.st6{fill:#231F20;}
	.st7{fill:url(#SVGID_5_);}
	.st8{opacity:0.7;fill:url(#SVGID_6_);}
	.st9{fill:url(#SVGID_7_);}
	.st10{opacity:0.7;fill:url(#SVGID_8_);}
	.st11{opacity:0.7;fill:url(#SVGID_9_);}
	.st12{opacity:0.4;fill:#B58B3C;}
	.st13{fill:url(#SVGID_10_);}
	.st14{fill:#F29D35;}
	.st15{fill:#FFFFFF;}
	.st16{fill:#803B2F;}
	.st17{fill:#BDA159;}
	.st18{fill:#FCD776;}
	.st19{fill:#74A588;}
	.st20{fill:#FDFAD2;}
	.st21{fill:#FDFAD0;}
	.st22{fill:#1B0F11;}
	.st23{display:none;}
	.st24{display:inline;}
	.st25{fill:#FFE5C6;}
	.st26{clip-path:url(#SVGID_12_);fill:#BF5947;}
	.st27{clip-path:url(#SVGID_12_);fill:#FFE5C6;}
	.st28{clip-path:url(#SVGID_14_);fill:#BF5947;}
	.st29{clip-path:url(#SVGID_14_);fill:#BDA159;}
	.st30{clip-path:url(#SVGID_16_);fill:#BF5947;}
	.st31{clip-path:url(#SVGID_16_);fill:#FCD776;}
	.st32{clip-path:url(#SVGID_18_);fill:#BF5947;}
	.st33{clip-path:url(#SVGID_18_);fill:#74A588;}
	.st34{fill:#42282F;}
	.st35{fill:#D6655A;}
	.st36{fill:#DC9C76;}
	.st37{fill:#757BA2;}
	.st38{fill:#5C4B51;}
	.st39{fill:none;stroke:#5C4B51;stroke-width:6;stroke-linecap:round;stroke-miterlimit:10;}
	.st40{fill:none;stroke:#5C4B51;stroke-width:6;stroke-linecap:round;stroke-linejoin:round;}
	.st41{fill:none;stroke:#5C4B51;stroke-width:6;stroke-linecap:round;stroke-linejoin:round;stroke-dasharray:0,12.3056;}
	.st42{fill:none;stroke:#5C4B51;stroke-width:30;stroke-linejoin:round;stroke-miterlimit:10;}
	.st43{fill:none;stroke:#FFFFFF;stroke-width:30;stroke-linejoin:round;stroke-miterlimit:10;}
	.st44{fill:none;stroke:#ABD25D;stroke-width:6;stroke-linejoin:round;}
	.st45{fill:#ABD25D;}
	.st46{fill:none;stroke:#5C4B51;stroke-width:6;stroke-linecap:round;stroke-linejoin:round;stroke-dasharray:0,11.8498;}
	.st47{fill:#5A2C18;}
	.st48{fill-rule:evenodd;clip-rule:evenodd;fill:#35591C;}
	.st49{opacity:0.3;fill:url(#SVGID_19_);}
	.st50{opacity:0.3;fill:url(#SVGID_20_);}
	.st51{fill:url(#SVGID_21_);}
	.st52{fill:url(#SVGID_22_);}
	.st53{opacity:0.3;}
	.st54{opacity:0.9;}
	.st55{fill:#D3D3D3;}
	.st56{opacity:0.9;fill:#989898;}
	.st57{fill:#AAAAAA;}
	.st58{fill:#BFBFBF;}
	.st59{fill:#E4E4E4;}
	.st60{fill:none;stroke:#BABABA;stroke-width:0;}
	.st61{fill:#F4F4F4;}
	.st62{fill:url(#SVGID_23_);}
	.st63{fill:url(#SVGID_24_);}
	.st64{fill:#5A6D81;}
	.st65{fill:#AEBFC2;}
	.st66{fill:#424242;}
	.st67{fill:#BEBDB8;}
	.st68{fill:#816F64;}
	.st69{fill:#716764;}
	.st70{fill:#322E32;}
	.st71{fill:#73655D;}
	.st72{fill:#D9D9D7;}
	.st73{fill:#716463;}
	.st74{fill:#655752;}
	.st75{fill:#806F6B;}
	.st76{fill:#595554;}
	.st77{fill:#746D68;}
	.st78{fill:#494A4C;}
	.st79{fill:#363D42;}
	.st80{fill:#262733;}
	.st81{fill:#E6EEF4;}
	.st82{fill:#7C8C9A;}
	.st83{fill:#8A9693;}
	.st84{fill:#E4ECEF;}
	.st85{fill:#EDF3F9;}
	.st86{fill:#EDF1F4;}
	.st87{fill:#ECF3F8;}
	.st88{fill:#F8FBFD;}
	.st89{fill:#96A9AB;}
	.st90{fill:#717D79;}
	.st91{fill:#6983A4;}
	.st92{fill:#637891;}
	.st93{fill:#5D7690;}
	.st94{fill:#6886B1;}
	.st95{fill:#5E8CC7;}
	.st96{fill:#6D5E56;}
	.st97{fill:#61504B;}
	.st98{fill:#76675B;}
	.st99{fill:#2B282A;}
	.st100{fill:#1D1A1A;}
	.st101{fill:#201D20;}
	.st102{fill:#4C4E54;}
	.st103{fill:#393B36;}
	.st104{fill:#202325;}
	.st105{fill:#2D2726;}
	.st106{fill:#30302E;}
	.st107{fill:#353739;}
	.st108{fill:#645954;}
	.st109{fill:#745F51;}
	.st110{fill:#3F434B;}
	.st111{fill:#594740;}
	.st112{fill:#605654;}
	.st113{fill:#6A5955;}
	.st114{fill:#CCC9C4;}
	.st115{fill:#B0AFAD;}
	.st116{fill:#76756A;}
	.st117{fill:#634F43;}
	.st118{fill:#665852;}
	.st119{fill:#6F5C54;}
	.st120{fill:#6C5A57;}
	.st121{fill:#74665B;}
	.st122{fill:#C1C1BA;}
	.st123{fill:#4F504E;}
	.st124{fill:#3E3F3C;}
	.st125{fill:#2F1D19;}
	.st126{fill:#65544E;}
	.st127{fill:#7E6F64;}
	.st128{fill:#D1CEC8;}
	.st129{fill:#DFDED9;}
	.st130{fill:#65544F;}
	.st131{fill:#60504D;}
	.st132{fill:#705D50;}
	.st133{fill:#79685C;}
	.st134{fill:#7C695D;}
	.st135{fill:#605250;}
	.st136{fill:#71615A;}
	.st137{fill:#64534A;}
	.st138{fill:#776862;}
	.st139{fill:#655247;}
	.st140{fill:#675546;}
	.st141{fill:#695A5A;}
	.st142{fill:#D8E1EC;}
	.st143{fill:#F2F5F7;}
	.st144{fill:#DAE3EC;}
	.st145{fill:#E4EBF4;}
	.st146{fill:#EEF1F7;}
	.st147{fill:#FAFBFC;}
	.st148{fill:#5986C4;}
	.st149{fill:#252226;}
	.st150{fill:#484C4D;}
	.st151{fill:#5F514F;}
	.st152{fill:#736154;}
	.st153{fill:#846F5E;}
	.st154{fill:#544853;}
	.st155{fill:#5F5047;}
	.st156{fill:#252220;}
	.st157{fill:#665951;}
	.st158{fill:#826C59;}
	.st159{fill:#726357;}
	.st160{fill:#695D57;}
	.st161{fill:#7C776E;}
	.st162{fill:#584F4D;}
	.st163{fill:#766962;}
	.st164{fill:#5B5656;}
	.st165{fill:#7D6F65;}
	.st166{fill:#706B70;}
	.st167{fill:#70625B;}
	.st168{fill:#536174;}
	.st169{fill:#8192A9;}
	.st170{fill:#6E797E;}
	.st171{fill:#F8F9F9;}
	.st172{fill:#A0B4C6;}
	.st173{fill:#E8F1F5;}
	.st174{fill:#EEF6FA;}
	.st175{fill:#E5EEF3;}
	.st176{fill:#EBEEEB;}
	.st177{fill:#9AA39E;}
	.st178{fill:#EDF5F9;}
	.st179{fill:#9EB0BA;}
	.st180{fill:#19222D;}
	.st181{fill:#739DD2;}
	.st182{fill:#272429;}
	.st183{fill:#232125;}
	.st184{fill:#35393A;}
	.st185{fill:#3F4143;}
	.st186{fill:#515152;}
	.st187{fill:#586B80;}
	.st188{fill:#8C9594;}
	.st189{fill:#637684;}
	.st190{fill:#18171E;}
	.st191{fill:#8C9AAC;}
	.st192{fill:#EEF5FA;}
	.st193{fill:#688D9B;}
	.st194{fill:#687D8A;}
	.st195{fill:#67798A;}
	.st196{fill:#586C7F;}
	.st197{fill:#677479;}
	.st198{fill:#727877;}
	.st199{fill:#758A9C;}
	.st200{fill:#7C8582;}
	.st201{fill:#92A3AE;}
	.st202{fill:#A1B2BB;}
	.st203{fill:#EBF3F9;}
	.st204{fill:#6C7F97;}
	.st205{fill:#6B7D90;}
	.st206{fill:#6B7880;}
	.st207{fill:#869AA4;}
	.st208{fill:#8FA1A8;}
	.st209{fill:#657678;}
	.st210{fill:#D0DBDC;}
	.st211{fill:#8C939A;}
	.st212{fill:#6F9AD1;}
	.st213{fill:#5B7593;}
	.st214{fill:#5F788F;}
	.st215{fill:#4B6A8D;}
	.st216{fill:#6A97CF;}
	.st217{fill:#5E7187;}
	.st218{fill:#445C70;}
	.st219{fill:#5483C2;}
	.st220{fill:#5F6A73;}
	.st221{fill:#475563;}
	.st222{fill:#566169;}
	.st223{fill:#65544C;}
	.st224{fill:#715E54;}
	.st225{fill:#665652;}
	.st226{fill:#625145;}
	.st227{fill:#544544;}
	.st228{fill:#564945;}
	.st229{fill:#7C706B;}
	.st230{fill:#746057;}
	.st231{fill:#7F6A5A;}
	.st232{fill:#665A57;}
	.st233{fill:#786B66;}
	.st234{fill:#685F5E;}
	.st235{fill:#6C5B52;}
	.st236{fill:#655852;}
	.st237{fill:#7C7271;}
	.st238{fill:#86766D;}
	.st239{fill:#6E625F;}
	.st240{fill:#847B79;}
	.st241{fill:#28262B;}
	.st242{fill:#282A35;}
	.st243{fill:#281714;}
	.st244{fill:#6B584D;}
	.st245{fill:#574A48;}
	.st246{fill:#212026;}
	.st247{fill:#736052;}
	.st248{fill:#7B7275;}
	.st249{fill:#8D8482;}
	.st250{fill:#DCE3EB;}
	.st251{fill:#819FAE;}
	.st252{fill:#D8E0E6;}
	.st253{fill:#354C5C;}
	.st254{fill:#4A4E53;}
	.st255{fill:#786759;}
	.st256{fill:#383731;}
	.st257{fill:#393D41;}
	.st258{fill:#43433E;}
	.st259{fill:#68675C;}
	.st260{fill:#383838;}
	.st261{fill:#252726;}
	.st262{fill:#6D584C;}
	.st263{fill:#745F52;}
	.st264{fill:#685A50;}
	.st265{fill:#68564F;}
	.st266{fill:#7C6657;}
	.st267{fill:#69564D;}
	.st268{fill:#7B604E;}
	.st269{fill:#786352;}
	.st270{fill:#6A5E57;}
	.st271{fill:#635C61;}
	.st272{fill:#7F7363;}
	.st273{fill:#D2D0C9;}
	.st274{fill:#7E6E60;}
	.st275{fill:#3F303A;}
	.st276{fill:#3F3949;}
	.st277{fill:#3B3C4C;}
	.st278{fill:#D0DBE8;}
	.st279{fill:#4E536B;}
	.st280{fill:#BFC7CF;}
	.st281{fill:#49343C;}
	.st282{fill:#51616F;}
	.st283{fill:#CDCED1;}
	.st284{fill:#3F2C37;}
	.st285{fill:#3C3746;}
	.st286{fill:#E9E7EA;}
	.st287{fill:#7C889A;}
	.st288{fill:#CCD9E6;}
	.st289{fill:#726561;}
	.st290{fill:#6A5A55;}
	.st291{fill:#60554F;}
	.st292{fill:#292223;}
	.st293{fill:#454547;}
	.st294{fill:#303032;}
	.st295{fill:#1B0C0D;}
	.st296{fill:#3A4141;}
	.st297{fill:#75645A;}
	.st298{fill:#7C716D;}
	.st299{fill:#645142;}
	.st300{fill:#675C58;}
	.st301{fill:#837464;}
	.st302{fill:#71645C;}
	.st303{fill:#5B4E4C;}
	.st304{fill:#6D6564;}
	.st305{fill:#847560;}
	.st306{fill:#2B1A18;}
	.st307{fill:#6B5548;}
	.st308{fill:#6A5D53;}
	.st309{fill:#655858;}
	.st310{fill:#66595C;}
	.st311{fill:#6A686C;}
	.st312{fill:#5E514A;}
	.st313{fill:#90A2AE;}
	.st314{fill:#5C676A;}
	.st315{fill:#3F2D35;}
	.st316{fill:#5B4140;}
	.st317{fill:#413743;}
	.st318{fill:#422C38;}
	.st319{fill:#EBEEEE;}
	.st320{fill:#7F9BA5;}
	.st321{fill:#DDDEE1;}
	.st322{fill:#8A9FA2;}
	.st323{fill:#708994;}
	.st324{fill:#F2F4F6;}
	.st325{fill:#CECED2;}
	.st326{fill:#B4BDC6;}
	.st327{fill:#D1D1D4;}
	.st328{fill:#87A4AC;}
	.st329{fill:#F5F8F9;}
	.st330{fill:#8D9CAA;}
	.st331{fill:#7698A3;}
	.st332{fill:#F9FBFC;}
	.st333{fill:#D3DAD6;}
	.st334{fill:#638291;}
	.st335{fill:#EFF6FB;}
	.st336{fill:#EDF5F8;}
	.st337{fill:#7B827F;}
	.st338{fill:#697371;}
	.st339{fill:#7E94A1;}
	.st340{fill:#7F8B93;}
	.st341{fill:#4B5053;}
	.st342{fill:#766358;}
	.st343{fill:#775E4D;}
	.st344{fill:#64544D;}
	.st345{fill:#6A5041;}
	.st346{fill:#766155;}
	.st347{fill:#66564F;}
	.st348{fill:#5F585B;}
	.st349{fill:#6D564A;}
	.st350{fill:#6F89A8;}
	.st351{fill:#2B4661;}
	.st352{fill:#6B7C8A;}
	.st353{fill:#E9F0F5;}
	.st354{fill:#E6EDF2;}
	.st355{fill:#8796AD;}
	.st356{fill:#616B72;}
	.st357{fill:#3F362D;}
	.st358{fill:#50585D;}
	.st359{fill:#5C6565;}
	.st360{fill:#554F4B;}
	.st361{fill:#7D8697;}
	.st362{fill:#E1E5E8;}
	.st363{fill:#F1F5F7;}
	.st364{fill:#4B433B;}
	.st365{fill:#453930;}
	.st366{fill:#535955;}
	.st367{fill:#847F7E;}
	.st368{fill:#6E707E;}
	.st369{fill:#7D91A0;}
	.st370{fill:#95A3AD;}
	.st371{fill:#161E2C;}
	.st372{fill:#1B252D;}
	.st373{fill:#2F3840;}
	.st374{fill:#6F7C96;}
	.st375{fill:#6E809A;}
	.st376{fill:#4A5860;}
	.st377{fill:#4B5E6E;}
	.st378{fill:#6F8DBD;}
	.st379{fill:#D8DEDD;}
	.st380{fill:#BFCACC;}
	.st381{fill:#141B23;}
	.st382{fill:#DFE6EA;}
	.st383{fill:#E4EDF1;}
	.st384{fill:#4B678C;}
	.st385{fill:#7289AB;}
	.st386{fill:#4A6387;}
	.st387{fill:#374C70;}
	.st388{fill:#456386;}
	.st389{fill:#426188;}
	.st390{fill:#556477;}
	.st391{fill:#3C4D56;}
	.st392{fill:#7185A0;}
	.st393{fill:#414039;}
	.st394{fill:#4B4E4E;}
	.st395{fill:#697280;}
	.st396{fill:#766456;}
	.st397{fill:#7C6D5F;}
	.st398{fill:#6F5D55;}
	.st399{fill:#6A584C;}
	.st400{fill:#786353;}
	.st401{fill:#615455;}
	.st402{fill:#82746E;}
	.st403{fill:#716050;}
	.st404{fill:#847268;}
	.st405{fill:#544540;}
	.st406{fill:#766255;}
	.st407{fill:#18181E;}
	.st408{fill:#745C4A;}
	.st409{fill:#776456;}
	.st410{fill:#755F4D;}
	.st411{fill:#5E514E;}
	.st412{fill:#867262;}
	.st413{fill:#605151;}
	.st414{fill:#6F5F58;}
	.st415{fill:#49494C;}
	.st416{fill:#66544C;}
	.st417{fill:#66584E;}
	.st418{fill:#63534C;}
	.st419{fill:#594A46;}
	.st420{fill:#5D4B40;}
	.st421{fill:#766053;}
	.st422{fill:#5A4740;}
	.st423{fill:#38232F;}
	.st424{fill:#3B2733;}
	.st425{fill:#464753;}
	.st426{fill:#EFF1F2;}
	.st427{fill:#EEEFF0;}
	.st428{fill:#6E5D4D;}
	.st429{fill:#46494E;}
	.st430{fill:#302823;}
	.st431{fill:#6D6969;}
	.st432{fill:#292727;}
	.st433{fill:#6C5E54;}
	.st434{fill:#29292B;}
	.st435{fill:#1D1A14;}
	.st436{fill:#7A6659;}
	.st437{fill:#705C4C;}
	.st438{fill:#75655B;}
	.st439{fill:#675244;}
	.st440{fill:#8B7258;}
	.st441{fill:#614E44;}
	.st442{fill:#5A4741;}
	.st443{fill:#654E39;}
	.st444{fill:#786E73;}
	.st445{fill:#867363;}
	.st446{fill:#827467;}
	.st447{fill:#5E4B45;}
	.st448{fill:#C0BCC1;}
	.st449{fill:#EAEAEB;}
	.st450{fill:#EBEFF0;}
	.st451{fill:#5D4845;}
	.st452{fill:#CDCDD0;}
	.st453{fill:#C4C4C8;}
	.st454{fill:#B5BABF;}
	.st455{fill:#EDF0F2;}
	.st456{fill:#F1F6F7;}
	.st457{fill:#746459;}
	.st458{fill:#786F6B;}
	.st459{fill:#847466;}
	.st460{fill:#7E6C61;}
	.st461{fill:#362824;}
	.st462{fill:#7A6D65;}
	.st463{fill:#6D5B50;}
	.st464{fill:#6B5A52;}
	.st465{fill:#7A6D62;}
	.st466{fill:#6A5A50;}
	.st467{fill:#695A50;}
	.st468{fill:#87725D;}
	.st469{fill:#796B5F;}
	.st470{fill:#594E4F;}
	.st471{fill:#6E6566;}
	.st472{fill:#574947;}
	.st473{fill:#837161;}
	.st474{fill:#7B6D5B;}
	.st475{fill:#6A5C4C;}
	.st476{fill:#7B6758;}
	.st477{fill:#5F504B;}
	.st478{fill:#5F5051;}
	.st479{fill:#564A44;}
	.st480{fill:#745F4F;}
	.st481{fill:#D8DEE3;}
	.st482{fill:#C6C8CD;}
	.st483{fill:#C6C8CC;}
	.st484{fill:#D0D1D3;}
	.st485{fill:#F1F2F4;}
	.st486{fill:#F0F1F2;}
	.st487{fill:#F4F6F8;}
	.st488{fill:#EFF2F2;}
	.st489{fill:#BEC1C3;}
	.st490{fill:#AFAEB6;}
	.st491{fill:#1B2021;}
	.st492{fill:#A5B8BE;}
	.st493{fill:#5B7686;}
	.st494{fill:#768E95;}
	.st495{fill:#75939D;}
	.st496{fill:#5E7E8B;}
	.st497{fill:#708A97;}
	.st498{fill:#728E9D;}
	.st499{fill:#5A7680;}
	.st500{fill:#D6DFE5;}
	.st501{fill:#426A78;}
	.st502{fill:#4D727F;}
	.st503{fill:#D0D9DF;}
	.st504{fill:#ECF1F5;}
	.st505{fill:#725C51;}
	.st506{fill:#7E6E65;}
	.st507{fill:#83736B;}
	.st508{fill:#654D42;}
	.st509{fill:#60504C;}
	.st510{fill:#69564A;}
	.st511{fill:#5D4D48;}
	.st512{fill:#6D5545;}
	.st513{fill:#5D4F47;}
	.st514{fill:#685C5A;}
	.st515{fill:#5F453D;}
	.st516{fill:#5A4D47;}
	.st517{fill:#554843;}
	.st518{fill:#57453E;}
	.st519{fill:#6F5846;}
	.st520{fill:#6D5A4B;}
	.st521{fill:#534946;}
	.st522{fill:#534B4F;}
	.st523{fill:#564744;}
	.st524{fill:#5E7BA0;}
	.st525{fill:#1B1613;}
	.st526{fill:#717873;}
	.st527{fill:#68808D;}
	.st528{fill:#8792A4;}
	.st529{fill:#111E26;}
	.st530{fill:#5E6873;}
	.st531{fill:#BEC4CD;}
	.st532{fill:#748699;}
	.st533{fill:#0A131C;}
	.st534{fill:#E0E8ED;}
	.st535{fill:#394448;}
	.st536{fill:#7F6A5E;}
	.st537{fill:#7B6657;}
	.st538{fill:#604B41;}
	.st539{fill:#6B594D;}
	.st540{fill:#5A4941;}
	.st541{fill:#826F60;}
	.st542{fill:#776763;}
	.st543{fill:#5F4C45;}
	.st544{fill:#63534D;}
	.st545{fill:#7C6863;}
	.st546{fill:#736460;}
	.st547{fill:#523E36;}
	.st548{fill:#5E4C46;}
	.st549{fill:#5D4B45;}
	.st550{fill:#75695C;}
	.st551{fill:#7A6F68;}
	.st552{fill:#615B5A;}
	.st553{fill:#888483;}
	.st554{fill:#726864;}
	.st555{fill:#807061;}
	.st556{fill:#262225;}
	.st557{fill:#121115;}
	.st558{fill:#454649;}
	.st559{fill:#F2F5F5;}
	.st560{fill:#827165;}
	.st561{fill:#715F51;}
	.st562{fill:#726361;}
	.st563{fill:#837267;}
	.st564{fill:#796457;}
	.st565{fill:#625049;}
	.st566{fill:#624E40;}
	.st567{fill:#7F6E60;}
	.st568{fill:#716563;}
	.st569{fill:#7B7069;}
	.st570{fill:#D1D0C9;}
	.st571{fill:#73645A;}
	.st572{fill:#7A6859;}
	.st573{fill:#574943;}
	.st574{fill:#E6E4DF;}
	.st575{fill:#6E5F5A;}
	.st576{fill:#A5817A;}
	.st577{fill:#D9E2E7;}
	.st578{fill:#537781;}
	.st579{fill:#EAF1F6;}
	.st580{fill:#BBC5CF;}
	.st581{fill:#637C88;}
	.st582{fill:#547482;}
	.st583{fill:#E7EFF4;}
	.st584{fill:#8BA0AF;}
	.st585{fill:#A9B8C6;}
	.st586{fill:#F6F9FB;}
	.st587{fill:#ECF2F6;}
	.st588{fill:#A9B8C1;}
	.st589{fill:#F3F7FA;}
	.st590{fill:#F0F3F6;}
	.st591{fill:#B1C2CC;}
	.st592{fill:#AFC1CF;}
	.st593{fill:#90A1AF;}
	.st594{fill:#849BAB;}
	.st595{fill:#819DB0;}
	.st596{fill:#F2F5F9;}
	.st597{fill:#A4B7C4;}
	.st598{fill:#8298A8;}
	.st599{fill:#ABBCC8;}
	.st600{fill:#746256;}
	.st601{fill:#5D463A;}
	.st602{fill:#604537;}
	.st603{fill:#655757;}
	.st604{fill:#7F6B5D;}
	.st605{fill:#5C4735;}
	.st606{fill:#857B7C;}
	.st607{fill:#948C9A;}
	.st608{fill:#7B6654;}
	.st609{fill:#645A59;}
	.st610{fill:#716051;}
	.st611{fill:#695447;}
	.st612{fill:#655750;}
	.st613{fill:#6E645E;}
	.st614{fill:#75675E;}
	.st615{fill:#94928B;}
	.st616{fill:#7D6D5B;}
	.st617{fill:#2B2E35;}
	.st618{fill:#8A7461;}
	.st619{fill:#776354;}
	.st620{fill:#725E52;}
	.st621{fill:#675448;}
	.st622{fill:#675344;}
	.st623{fill:#776049;}
	.st624{fill:#8A7C72;}
	.st625{fill:#8F816F;}
	.st626{fill:#77655B;}
	.st627{fill:#6B5957;}
	.st628{fill:#605356;}
	.st629{fill:#675340;}
	.st630{fill:#3A3934;}
	.st631{fill:#7A6556;}
	.st632{fill:#807064;}
	.st633{fill:#6E6C5B;}
	.st634{fill:#6A584E;}
	.st635{fill:#5D5048;}
	.st636{fill:#61534E;}
	.st637{fill:#69554E;}
	.st638{fill:#27231E;}
	.st639{fill:#BDCAD4;}
	.st640{fill:#556F7C;}
	.st641{fill:#98A9B7;}
	.st642{fill:#94A9B7;}
	.st643{fill:#C2D0DA;}
	.st644{fill:#8BA4B5;}
	.st645{fill:#7F9BA8;}
	.st646{fill:#81736A;}
	.st647{fill:#908484;}
	.st648{fill:#5B473D;}
	.st649{fill:#5B4A3E;}
	.st650{fill:#675540;}
	.st651{fill:#584844;}
	.st652{fill:#59463C;}
	.st653{fill:#77614F;}
	.st654{fill:#5C4942;}
	.st655{fill:#563F35;}
	.st656{fill:#6E5C51;}
	.st657{fill:#5B4B40;}
	.st658{fill:#897864;}
	.st659{fill:#604B3F;}
	.st660{fill:#78614D;}
	.st661{fill:#67513E;}
	.st662{fill:#7E695C;}
	.st663{fill:#746355;}
	.st664{fill:#302F2D;}
	.st665{fill:#69524A;}
	.st666{fill:#8F796F;}
	.st667{fill:#7A6353;}
	.st668{fill:#685855;}
	.st669{fill:#41403E;}
	.st670{fill:#241412;}
	.st671{fill:#918580;}
	.st672{fill:#776355;}
	.st673{fill:#756763;}
	.st674{fill:#312A27;}
	.st675{fill:#665A53;}
	.st676{fill:#624C39;}
	.st677{fill:#816B61;}
	.st678{fill:#6B594F;}
	.st679{fill:#6A5647;}
	.st680{fill:#26130F;}
	.st681{fill:#6E5E55;}
	.st682{fill:#69584E;}
	.st683{fill:#766658;}
	.st684{fill:#5D4F48;}
	.st685{fill:#827468;}
	.st686{fill:#5C4C46;}
	.st687{fill:#7F7166;}
	.st688{fill:#7C6B62;}
	.st689{fill:#7B6B5E;}
	.st690{fill:#75675C;}
	.st691{fill:#7D6755;}
	.st692{fill:#918177;}
	.st693{fill:#877668;}
	.st694{fill:#68584D;}
	.st695{fill:#5E5047;}
	.st696{fill:#705E50;}
	.st697{fill:#594F4F;}
	.st698{fill:#69574C;}
	.st699{fill:#7B6B5D;}
	.st700{fill-rule:evenodd;clip-rule:evenodd;fill:#243C13;}
	.st701{fill-rule:evenodd;clip-rule:evenodd;fill:#052B03;}
</style>
<g id="Layer_3">
</g>
<g id="Layer_4">
</g>
<g id="Layer_1">
	<g id="Logo_Dark">
	</g>
</g>
<g id="Layer_5">
	<g id="Layer_6">
	</g>
</g>
<g id="Layer_7" class="st23">
</g>
<g id="Layer_8">
</g>
<g id="Layer_9">
	<g id="Logo_Dark_1_">
	</g>
	<g id="BoilerCamp_1_">
	</g>
	<g id="BoilerCamp">
	</g>
	<g id="BoilerCamp_2_">
		<path class="st48" d="M168.3,19.8c6.2-1.5,2.1-13.3,3.3-19.8c8.7,0.7-1.9,20.6,6.6,21.5c-0.3-1.4,0.6-1.6,1.7-1.7
			c-0.7-2.6-5.2-1.4-3.3-6.6c5.7,3,7.7,1,6.6-6.6c5-1.7,2.9,3.7,3.3,6.6c2.4-0.9,4-2.6,5-5c-2.3,8.4,8.6,13.8,3.3,18.2
			c3.1,6.6,8.5-6.6,11.6,0c4.7-1.4,0.2-11.9,6.6-11.6c1.2,5-1.7,6-1.7,9.9c4.8-0.1,3.6-6.3,9.9-5c-2.2,4.9-8.6,5.7-9.9,11.5
			c-2.4-0.7,0.7-2.1,0-4.9c-2.9,1.5-4.6,6.1,0,6.6c-10.7,6.4-10.4,18.5-14.9,28.1c7.5-0.3,17.1-12.6,19.8-23.1
			c4.4,4.1,2.4,3.9,0,4.9c6,3.7,12.6-11,19.8-6.6c0,1.6-2,1.3-3.3,1.7c0,1.6,2,1.3,3.3,1.7c-1.1,4.9-3.5-1.6-6.6,0
			c4,7.7,6.5,9.2-1.7,3.3c-2.2,4.4-9.5,3.8-9.9,9.9c12.4-0.5,14.5-0.3,24.8,0c-0.3,11.1,6.9,9.7,1.6,18.1c3.2-3.9,7.4-6.9,11.5-9.9
			c0.7,4.7,1.7,13.4,8.2,16.5c-2.1,3.9-8.9,3.2-13.2,5c6.1,3.9,16.9-1.7,18.2-8.2c6,9.3-11.4,9.5-16.5,13.2c0.4,2.9,2.8,3.8,6.6,3.3
			c-0.4,5.7-11.8,0.3-8.2,9.9c-5.7-0.5,0.1-4.5-3.3-5c-1.6,3.5-0.7,6.2-4.9,9.9c6.4-0.6,0.1,1,11.5,0c-1.4,6.6-1.4,8.3,0,14.9
			c1.3-3,11.4-14.5,8.2-6.6c4.6-6.8,9-7.3,16.5-13.2c3.1,0.2,1,5.6,3.3,6.6c5.2-3.5,0.2-14.5,8.3-18.1c-1.6-1.1-8-1.6-8.3-8.3
			c1.9,5.1,4.8-0.9,4.9,5c5-2-1.8-5.7,0-9.9c2.8-6.3-0.1,6.4,3.3,5c4.6-1.7-0.5-7,0-9.9c7.8,7.6-2.7,17.9,6.6,24.8
			c0.7-2.2,1-4.2,3.3-8.3c5.4,5-2.2,10.9-3.3,14.9c5.3-5.1,9.7-11.2,16.5-14.9c1-5.4-1.1-7.7-1.7-11.5c2.2,0.6,2.6,2.9,4.9,3.3
			c1.4-6.6-2.5-12.2,0-14.9c3.4,0.4,0.5,7.3,3.3,8.3c2.2-2,2.6-0.6,4.9,0c4.4,0.5-4.4-6.4,3.3-5c0.1,6.2-4.4,9.3,3.3,6.6
			c-1.6,3.4-6.5,3.4-6.6,8.2c2.4,5.9,5.3-9.8,8.3-3.3c1.2-1.5,0-6.6,1.6-11.6c5.8-1.5,2.8,5.4,1.7,6.6c4.2-1.3,4.2-6.8,6.6-9.9
			c2.4,2.2,4.4,7.3,1.7,9.9c1.5-0.7,3-1.5,3.3-3.3c2.9,1.5,4.3,5.8,1.7,8.3c-2.2-2.1-3.2-5-6.6-1.7c2.7,1.1,6.5,4.5,11.5,0
			c-1.6-4.7-2.4-4.1-3.3-6.6c2.6-6,2.5,3.8,6.6,1.7c0.7,3.4-1.1,4.4-1.7,6.6c1.9-0.3,2.9,0.4,3.3,1.7c1.1-1.6,0-9.6,3.3-13.2
			c2.5,2.5,6.9,3,8.2,6.6c5.1-3.8,10.5-2.9,14.8-1.7c-4.3,7.1,6.1,2.5-1.6,8.3c-0.7,4,7.5-0.9,4.9,5c-1.3-0.3-1.6-1.7-3.3-1.7
			c-1.3,6.3,8,1.9,6.6,8.3h-5c-0.3,3.6,1.4,5.3,5,5c-1.5,5.6-3.7,0.2-6.6,3.3c1.9,2.4,1.9,4.1,0,6.6c5,2.3-0.4,4.7,5,6.6
			c-0.6,3.9-1.7,7.1-5,8.3c2.2,2.7,17.3-5.4,14.9,4.9c5.1,0.1,8.3-4.2,13.2-8.2c1.3,7.9,2.2,3.7,6.6,11.5c2.8-7.8,11.4-7.1,14.9-6.6
			c2.9,1.2,0.2,3,0,5c8.7,1.5,6.8-7.5,13.2-8.3c-4.8,11-6.9,14.6-11.6,19.8c1.2,6.1,5-0.7,8.3,3.3c-5.6,3.2-8.7,8.9-14.8,11.6
			c1.4,4.9,2.5-3.8,6.6-1.7c-2.5,6.3-10.7,6.9-13.2,13.2c2.6,6,2.5-3.8,6.6-1.7c0.9,3.7-3.2,2.4-3.3,5c2,3.4,5.7-5.2,9.9-5
			c0.6-2.8-1.3-3.1-3.3-3.3c0.8-4.1,4-5.9,6.6-8.3c3.7,0.2-2.1,4.2,0,8.3c4,0.6-0.9-7.5,4.9-5c1.8-6.2-4.1-4.7-3.3-9.9
			c3,0.2,3.5-2,6.6-1.7c-1.6-1.7-3.3-3.3-4.9-5c1.9-1.8,10.3,3.9,18.2,1.7c-1.2,4.3-7.8,3.3-9.9,6.6c0.9,1.3,1.7,2.7,1.7,5
			c2.2-1.1,3.1-3.5,3.3-6.6c6.6,4.9,2.6-0.3,9.9-1.7c-2.7,8.3,4.4,1.2,5,11.6c6.6-3.9,4,2.6,9.9,3.3c-2,4.9-0.5,5.6,1.7,9.9
			c5-6,14.5-7.5,16.5-16.5c4.3,5.5-3.5,12.9-9.9,13.2c0.4,5.1,8.2,2.8,13.2,3.3c-0.2,3.6-4.2,3.5-8.3,3.3c-0.7,4,3,3.6,1.6,8.3
			c9.6-1.5,15.4-6.6,21.5-11.6c3.3,2.3-1.8,10.2-8.3,8.3c0.9,3.4,4.1,4.7,3.3,9.9c-5,1.7-2.9-3.7-3.3-6.6c-5.7-0.2-9.6,1.4-8.2,8.2
			c-6.5-4.9-10.7-0.6-16.5,3.3c1.3,4.2,10.6,0.4,9.9,6.6c-6.2,1-18.5-3.1-13.2,4.9c-3,0.2-3.5-2-6.6-1.7c-3.4,0.5-1.6,6.2-4.9,6.6
			c6.8,1.4,10.5,6,14.8,9.9c6.1-3.8,13.2-6.6,21.5-8.3c-2.1-2.2-2.1-6.1,0-8.3c2.1,0.4,1.7,3.3,0,3.3c1.4,3.9,4.1-4.5,9.9-1.7
			c0.9,3.4-3.1,3.9-3.3,1.7c-2.4,0.4-0.6,4.9-3.3,5c0.5,2.2,4.1,1.4,6.6,1.7c-4.1,6.4-24.6,0.3-28.1,11.6c7.5-2,10.7-3.7,16.5,0
			c-2.9,5.5-7.2,0.1-14.9,1.6c6.7,6.3,6.4,9.5,8.3,19.8c3.9-3,0.9-12.9,0-16.5c9.4,0.5-0.3,12,9.9,13.2c-4.3,6.6-0.4,12.9,0,19.8
			c6.5-10.4,14.4-2.5,11.6-24.8c6,3.8,4.4-6.2,1.7-9.9c-5.6-0.6-3,6.9-8.3,6.6c-0.6-7.2,4.5-8.7,9.9-9.9v3.3c4.4-3-1.1-9.8-6.6-8.2
			c0.7-2.8,18.6,0,14.9-9.9c1.6-4,6.5,2.1,6.6,5c5.6,1.2,2.1-6.7,8.2-5c-2.7,6.1-3.1,12.9-9.9,18.1c7.9-2.3,10.9-0.4,13.2-6.6
			c-0.6-2.3-2.9-0.1-3.3,1.7c-2.9-3,2.5-11.7,6.6-13.2c3.9,9,4.1,5.2,8.2,16.5c-9.3,2.2-11.4,11.7-16.5,18.2
			c9.7,5.8,10.7-11.2,21.5-9.9c-0.4,2.9-2.8,3.8-6.6,3.3c1.8,6.5,9.9-1.2,13.2-3.3c1.4,8.6-20.2,8.4-26.4,14.8
			c9.1,0.9,21.3-9.5,36.3-8.3c-15.6,3.6-31.2,12.4-41.3,16.5c1.6,1.7,3.3,3.3,4.9,5c-9.3-1.4-6.8,8.6-16.5,6.6
			c-2.2,5.9,0.1,6-1.6,11.6c2.4-1.4,3.5-4.2,3.3-8.3c5.5,0.9,7.2,1.4,4.9,6.6c5.3-0.7,9.6-2.5,8.2-9.9c1.7,12.3,13.8-3.2,13.2,3.3
			c2.8-2,0.2-11.2-4.9-6.6c-2.5-6.9,8.5-0.3,8.2-5c1.7,0.7,5.8,6.4,0,5c7.7,4.7,16.7-2.2,23.1,3.3c-2.3,1-0.2,6.4-3.3,6.6
			c0.7,3.2,6.4,1.3,4.9,6.6c1.5-1.3,3.7-1.8,6.6-1.7c-1.6,4.5-4.1,8-9.9,8.2c-1.3,5.7,3.1,7,0,9.9c1.9-0.3,2.9,0.4,3.3,1.7
			c4.7-1.7-0.5-7,0-9.9c8.2,3.9,7.3,6.9,6.6,11.6c2.7-0.8,8.4,5.8,11.5,0c-4.5-1-0.3-0.8-3.3-4.9c5,0.1,5.5-5.6,13.2-6.6
			c-1.5,7.8-8.1,10.6-11.5,16.5c5.6,4.4,8.4-8,16.5-6.6c-8.7,7.3-10.4,10.2-18.2,13.2c-0.2,3,2,3.5,1.7,6.6
			c-13.4-3.5-8.5,11.3-18.2,11.5c2,5,5.7-1.8,9.9,0c-12.7,5.5-24.9,11.4-34.7,19.8c0.4,4.3,2.8-2.3,6.6,0
			c-5.5,7.9-26.4,9.8-18.2,21.5h-6.6c-0.5,2.7,1.6,2.8,1.7,4.9c6.7,1.6,5.1-9.6,9.9-4.9c-3.5,2.5-6.1,6-9.9,8.2
			c2.5,1.5,15.2-4.7,9.9-11.6c3.5-0.8,3.1,2.4,3.3,5c6.4-0.2,6.8-6.4,6.6-13.2c7.1,4.4,5.4-4.2,11.5-5c-0.3,1.3-1.7,1.6-1.7,3.3
			c5.1-2.1,8.9-5.5,11.5-9.9c-4.2,2.8-6.4-2.5-6.6,3.3c-4,0.7-3.6-3-8.3-1.7c3.2-3.9,10.9-3.4,18.2-3.3c-1.1-1.7-3.8-1.7-3.3-5
			c6.2,2.8,2.6-1,8.3-1.7c-0.9,1.3-1.7,2.7-1.6,5c3.9-5.7,3.1-6.5,4.9-14.9h6.6c-2.5,6.1-4,4.6,3.3,3.3c-2.7,3.9-7,6.2-9.9,9.9
			c2.1,4.6,3.4-5.2,8.2-3.3c-10.3,14-28.8,14.3-36.3,28.1c2.3,3.2,6.9-5,8.2-8.2c2.1,5.6,9,1.7,9.9-3.3c7.1,10.2-15.6,9.4-19.8,18.2
			c8.4,1.2,19.3-9.2,29.7-11.6c-0.3-3-5.6-1-6.6-3.3c1.4-3.3,8.7,1,11.6,1.7c4.5-2.7,15.4-7.6,11.5-13.2c3.9-5.9,4.9,4.9,11.6,1.6
			c-1.1,5.5-5.7,7.5-11.6,8.3c9,3.4,21.5-3.8,31.4-5c-13,9.5-43.6,8.4-51.2,28.1c6.1-2.7,5.5-1.6,16.5-3.3
			c-13.5,6.3-24.5,15.1-44.6,14.9c11.1,4.9,21.7,10.2,34.7,13.2c-5.1-3.9-1.3-1.6,1.7-5c4.6,0-3.9,4.5,3.3,3.3
			c-1.1,1.7-3.8,1.7-3.3,5c-15.7-4.4-36.5-18.4-49.5-6.6c7.3,6,3.8,3.4,9.9,11.5c3.7-3.8,6.4,0.6,11.6,0
			c-11.7,4.7-23.5-0.5-31.4,6.6c8.3,2.1,11.8,0.6,16.5-1.6c4.1,9,14.3,1.6,28,1.6c-8.1-3.2-0.8-7.5,1.7-13.2c4.2,3.2-2.9,7.5,0,13.2
			c5.4-3.5,12.2,6.2,8.2,11.6c-2.4-2-2.5-6.3-4.9-8.3c-7.2,3.3-15.6,5.3-26.4,5c1.1,2.2,3.5,3.1,6.6,3.3c-2.3,7.2-7-2.8-14.9,0
			c2.5,4.6,3.6,9.2,1.7,14.9c9.4-4,0.8,7.1,6.6,11.5c3.7-6.5,2.9,1.2,6.6,3.3c-1.2,2.9-3,0.2-5,0c1.1,1.3,2.6,4.5,0,5
			c6-0.8-1.5,5.9,5,8.2c5.4,0.8,3.5-8.2,8.2-3.3c-0.5,1.9-8.7,4.1-3.3,6.6c-0.7,3.7-9-0.2-8.2,5c2.1,1.5,2.6-2,8.2-1.7
			c0.3,5.3-7.2,2.7-6.6,8.3c-3.1-0.2-5.5-1.1-6.6-3.3c-1.2,0.2-1.2,6.4,0,6.6c-6-0.2-12.3,9.8-21.5,11.6c0.1,5.4,9.8,1.2,8.2,8.2
			c-13.3-12.4-24.1,6.4-41.3,5c-4.3,0.4,2.3,2.8,0,6.6c-4.8-8-18.7-6.4-28.1-6.6c6.8,4.6,3.7,9.6,9.9,13.2c1.9-0.3,1.4-3,1.7-5
			c3.2,5.7,1.4,15.9,8.3,21.5c-1.6-0.1-1.3-2-1.7-3.3c-1.6,0-1.3,2-1.7,3.3c-2.7-3.3-6-6.1-6.6-11.6c-4.8,9.8,12.3,11.9,13.2,21.5
			c1.2-7,7.4,0.1,3.3,4.9c-4.1-1.9-7.3-4.8-9.9-8.2c-1,10.4,11.9,39.4,11.6,57.8c-11.1-15.8-6.8-28.9-16.5-42.9
			c10.6-14.8-9.4-30.6-14.9-44.6c-4.7,3.3,0.6,10.3,0,14.9c-8-3.8-1.3-13.5-4.9-19.8c-3.4,0.9-3.2,5-6.6,1.7c-2.1,0.4-1.7,3.3,0,3.3
			c-6.3,4.3-3.5-3.9-1.7-8.2c1.7,1.1,1.7,3.8,4.9,3.3c-0.8-9.9-16-3.8-16.5,1.7c-2.8,4.7,1-6.2,3.3-6.6c-7.4-5.8-17.6-8.8-29.7-9.9
			c2.3,4.6,8.5,5.3,13.2,3.3c-0.6,2.8,1.3,3.1,3.3,3.3c-0.5,2.2-4.1,1.4-6.6,1.7c-1.7,7.7,2.7,9.4,5,13.2c8.3-7.6,12.4,4.7,19.8,1.7
			c-6,3.2-0.7,4.7,0,9.9c5.3-1.4,3.4-1.4,6.6,1.7c-1.1,1.8-5.5-0.3-6.6,5c5.7,9.1,3.1,14,5,24.8c-2.7-3.4-8.3-3.8-14.9-3.3
			c3.2-3.4,7.2-3.3,11.6-1.7c0.6-6.9-6.2-11.3,0-14.9c-0.7-2.5-2.1,0.7-5,0c0.3-4.3-1.4-13.1,3.3-8.3c-3.1-4-6.3-8-8.2-13.2
			c-3.4,5.5-3.4,1.2-8.3,0c-1,6.5-9.7,28.5-1.7,38c3,0.2,3.5-2,6.6-1.7c-7.2,2.4,0.6,10.2-8.2,11.5c5.3-5.4-8-3.5-8.3,0
			c-0.5,4.4,6.4-4.4,4.9,3.3c-8.5-1.7-12.1-0.6-19.8,1.7c0.5,8.3,10.1,7,6.6,5c0.7,0.4,2.2,9.4,5,1.6c4.8,0.9-2.5,2.6-1.7,5
			c0.2,3.1,6.5-1,6.6-3.3c1-5.3-5.9-2.3-1.7-6.6c1.6-0.2,10.5,20.8,13.2,8.3c5.1,7,4.2,20,6.6,29.7c-1.6,0.4-6.5-10-5-18.2
			c-1.1-3.3-5-3.8-6.6-6.6c-3.6-0.3-5.3,1.3-5,4.9c-2.9-0.4-3.8-2.8-3.3-6.6c-5.1,6.2,7,9.4,6.6,16.5c-9.3-4.1-14.4-28.7-23.1-18.1
			c-0.5-2.7,1.6-2.8,1.7-5c-0.5-2.3-10.1,5.3-4.9-3.3c-7.7,6.7-20.9,14.5-18.2,26.4c0.3,3.1,5.6,1,6.6,3.3
			c9.5-3.1,5.2-12.8,14.8-13.2c-1.2,9.8-10.4,11.6-16.5,16.5c9.2,3.7,4.3,12.9,13.2,11.6c-8,6-13.6,4.9-13.2,13.2
			c-6.2-3.7-2-17.8-11.6-18.2c-0.6-10.5-7.5-17.8-19.8-21.5c0.9,4.6,1.7,9.3,8.2,8.2c5.3,2.3-6.5,2.3-6.6,0
			c7.7,10.2,7.7,28.3,11.6,38c-4.3,4.5-5.3,12.3-14.8,11.5c-1.3-1.5-1.8-3.7-1.7-6.6c-3.4,0.4-0.4,7.2-3.3,8.3
			c-6.6-3.8,2.1-9.3-1.7-14.8c-3.7,3.2-3.8,10-1.6,14.8c-4.8-1.5-5.1-1.5-9.9,0c-0.7-7.9-0.7-7,0-14.8c-4.4-0.5,1.5,9.2-4.9,6.6
			c2.3,1,0.2,6.4,3.3,6.6c-1,4-6.2,3.7-9.9,5c-2.7-5-2-13.4-4.9-18.1c-3.9,2.1-3.1-0.2-8.3,1.6c-0.2-9.1-5.9-12.8-8.2-19.8
			c-3.8,57-10.5,135.6,16.5,171.6c29.2,11.9,93.8-2.1,108.9,19.8c-135.9,2.7-283.3,2.7-419.2,0c1.1-3.8,5.5-4.4,6.6-8.3
			C76,800,149.4,811.7,183.2,784c1-93.4-13-171.9-11.6-265.7c-9.5-1.7-2.2,5.6-8.3,5c-0.5-2.7,1.6-2.8,1.7-5
			c-4.3-0.5-4.3,3.4-4.9,6.6c-1.7-7.8,9.3-17.1,8.3-29.7c-1.8-6.6-11.5-1.7-16.5-1.7c-2.5,18-22.2,34.3-6.6,51.2
			c-4.4,4.3-10.7-10.4-8.2-13.2c-3.1,2.4-7.3,3.7-6.6,9.9c-2.7-10.9-20.6,6.8-26.4-3.3c32.6,4.6,33.8-22.3,44.6-39.6
			c-9.2,6.1-30.6-0.8-39.6,3.3c-10.3,4.7-10.3,21-21.5,23.1c-0.8-9,14.3-11.6,14.8-21.5c-1.2-1.5-3-2.5-4.9-3.3
			c-6.6,5.5-17.7,6.5-24.8,11.6c-2.5-4.8,10.3-8.4,16.5-9.9c-4.7-6.9-12.7,1-16.5-1.7c8.9-1.8-1-6.3,3.3-11.5
			c3,12.2,30.2,13,34.7,6.6c1.2,7.5,10.4,4.4,16.5,3.3c-2.4-4.8-7.5-7.9-13.2-5c0.6-2.2,2.9-2.6,3.3-5c-8.6,0.2-12.5,5.1-18.2,8.3
			c2.8-6.6,9.2-9.5,8.3-19.8c-7.3-2.3-4.3,5.6-9.9,5c1.8-1.5,0.5-6.1,4.9-5c-0.1-8.1-18.3,1.8-18.1-6.6c6.1,3.3,10.4-1.7,16.5,1.6
			c-1.4-10.2-13.9-9.2-16.5-18.1c4.7-0.3,4.1,6.5,6.6,0c1,7,16,9.5,13.2,19.8c6.8,1.3,3.1-7.9,9.9-6.6c-1.1-4.9-3.5,1.6-6.6,0
			c-0.5-6.6,10.6-5.4,11.6,0c2.4-0.9,4.2-2.4,6.6-3.3c-0.2-3.1-5.6-1-6.6-3.3c1.5-4.5,5.8,1.7,8.2,1.7c3.4-0.5,3.3-4.4,4.9-6.6
			c-6.2-4.7-14.9-6.3-19.8,0c-3.2-18.7-28.2-7.7-44.6-14.8c-5-2,11.6-1.8,1.7-5c6,0.1,17.3,9.1,31.4,6.6c0.2-5.1-5.8-7.4-1.7-11.6
			c6.8,15.5,15.4,7,29.7,6.6c-0.7-6.3-1.2-6.3-3.3-13.2c-4.8-0.2-10.8,0.9-13.2-1.7c0.7-3.7,8.1-0.7,11.6-1.6c0.8-5.2-3.6-6.5,0-9.9
			c3-0.2,3.5,2,6.6,1.7c-4.3,7.2,0.7,13.8,8.3,16.5c1.7-1.6,3.3-3.3,4.9-4.9c3.8-1.4,7.1,5.8,8.3,1.6c2.4,0.7-0.7,2.1,0,5
			c0.4,1.8,3.3,1.1,3.3,3.3c1.9-2.5,4.1-4.7,6.6-6.6c2.6,1.1-1.3,9.6-3.3,11.5c1-1,6.9,6.2,6.6,0c7.2,3.2-7.2,9,3.3,13.2
			c9.3-30.7-16.9-40.3-36.3-47.9c-6.4,2.9-12.2,6.5-14.8,13.2c-6.8-4.1,6.6-12,11.5-14.9c-10.3-9.3-22.6-10-41.3-8.2
			c-3.6,0.2-0.7,7-1.6,9.9c-2.6-15.3-40.8-5.5-42.9,9.9c-5.5-1.6,1.9-3.3,1.7-4.9c-2-3-7.3,4.6-9.9,6.6c0.9-5.1,11.2-15.2,21.5-16.5
			c-4.9-5.6-17.7-3.2-23.1-8.3c6.5-5,20.8-11.1,16.5-21.5c1.1-4.9,3.5,1.6,6.6,0c-0.4,1.8-3.3,1.1-3.3,3.3c5.3,1.4,3.4-4.3,6.6-5
			c-9.7-3.5-17-0.6-24.8,3.3c1.1-3.8,5.5-4.4,6.6-8.2c-2.5-9.1-12.9-10.2-21.5-13.2c3.7-4.1-1.9-9.1-4.9-11.6c6.6,1.1,3.2-5,9.9-6.6
			c-3.3,10.5,4.3,18.3,13.2,21.5c4.9-2.2-8.1-3.8-1.7-8.2c-3-0.2-3.5,2-6.6,1.7c4.7-3.5,1.9-8-5-8.3c1.3-1.5,1.8-3.7,1.7-6.6
			c4,3.7,6.9,8.5,11.5,11.6c1.2-4.5-3.3-3.3-3.3-6.6c0.7,0.2,9.6,3.3,8.3-6.6c6,1.5,1,4.9,1.7,9.9c-1.3-0.9-2.7-1.7-5-1.7
			c1.7,6,4.3,11.1,13.2,9.9c-1.3,6.2-5.8,0.1-8.3,3.3c10.8,11.9,8.3,7.1,26.4,11.6c-1.5-3.5-5-4.9-4.9-9.9c-4.8,3-5.2,2.7-11.6,1.7
			c0.5-2.2,4.1-1.4,6.6-1.7c1.2-5-1.7-6-1.7-9.9c-4.8,2.8-9.2-6.6-11.6-11.6c7.2,4.1,6.6-1.3,16.5,5c-2.6-7.4-12.3-8.5-9.9-16.5
			c-5.1,1.6-6.3,5.9-6.6,8.2c-7,0.6-2.4-9.5,3.3-6.6c-1-2.9,2-9.7-1.7-9.9c3,1,5.6,2.7,13.2-1.7c4.2,0.7-2.7,3.6-4.9,3.3
			c1.1,1.7,3.8,1.7,3.3,4.9c6.6,1.6,5-4.9,11.5-3.3c-1.1-6-6.2-8-8.2-13.2c-10.9,1-22.1,0-36.3,3.3c-1.4-5.3,1.4-6.3,3.3-8.2
			C24,289.8,9.6,290.7,0,278.9c2.6,0.4,7.7,6.3,9.9,1.7c1.8,1.5-0.1,3.7,3.3,6.6c9.1-2.3,10.9,0.6,16.5,5c2.3-2.5,6.1-7.1,9.9-3.3
			c-0.1-2.3-0.3-4.7,1.7-4.9c-4-0.5-14.3-4.3-19.8-8.2c2.4-1.5,11.7,0.3,11.5,3.3c6.9-8.8-10.5-11.9-4.9-19.8
			c7.9,5.8,13,14.5,18.2,23.1c8.4-4.3,17.4,3.2,28.1,3.3c5.6-1.1-7.3-5.5-1.7-6.6c6.4,5.7,26.5,9.2,29.7,9.9
			c0.7-2.5,1.6-6.7,8.3-3.3c-12.1-9.2-23.3-17.4-46.2-11.6c-0.1-2.6,0.8-6.3-1.7-6.6c0.2,1.1-3.8,5.5-1.6,6.6
			c-0.3,2.8-7.9-0.8-6.6-5c6.3,0.8,3.4-7.6,11.6-4.9c-1.4,5.3,2.6,5.1,3.3,8.2c4-1.5,9.5-1.5,9.9-6.6c10.3,4.4,15,5.5,24.8,11.5
			c-0.2-3,4.7-6.3,3.3-14.8c9.4,1.7-1.3,5.1,4.9,9.9c-3.1,1.2-1.1,4.9-4.9,1.7c3.1,9.2,9.8-0.8,8.3,9.9c2.7-2.8,3.1-7.9,6.6-9.9
			c-8.5-12.1-14.3-32.5-34.7-19.8c0.6-16-25-3.1-28.1,3.3c1.7-5.5,0.4-5.8,4.9-9.9c-0.5-3.5-4.4,2.4-6.6-1.7
			c-1,3.4,2.7,11.5-3.3,9.9c0-4.4-0.6-9.4,1.6-11.6c-4.1-2.4-21.4-3.9-23.1,1.7c-2.7,0.7,0.2-6.2,1.7-6.6
			c-0.3-5.7-12.2,0.2-11.5-6.6c9,2.7,15.1,2.7,23.1,3.3c1.7-1.1,1.7-3.8,5-3.3c-3.9-5.8-11.7,2.1-11.6-8.2c1.9,0.3,2.9-0.4,3.3-1.7
			c1,0.9,5,6.7,6.6,1.7c2.4,0.7-0.2,1.4,0,3.3c0.6,2.6,2.9-1.4,3.3,1.7c0.6-1.1,1.1-9.6,0-11.5c-4.2,7.4-2.6-3.1-9.9-1.7
			c1.1-2.2,3.5-3.1,6.6-3.3c-0.8-6.9-6.4-9-9.9-13.2c-5.2-0.5,4.2,4.8-1.7,4.9c5.9,5.1,5.6-0.1,8.3,8.3c-2.2-1.7-5-2.7-6.6-5
			c-2.4,0.9-4,2.6-4.9,5c2.1-0.5-8.9-18.9,0-21.5c-4.1-3.6-7.5,3.4-8.2,8.3c-2.2-0.6-2.6-2.9-4.9-3.3c-2,1.7,3.5,2.9-1.7,6.6
			c-5.2-4.7,0.6-12.5,4.9-13.2c-6.8,3.5-1.1-11.2-8.2-6.6c-5.3-2.9-1.8-7.4,1.7-9.9c7.9,0.3,7.3,4.2,14.8,1.7c0-4.9-12.2,2.3-9.9-5
			c8-0.5,15.4,2.7,21.5,8.3c5.3-8.9,4.9,3.9,13.2,1.6c-1.4-5.3-6.4-5.8-3.3-11.6c-2.5,6.1-6,1.8-8.3,6.6c-4.5-1.5,2.3-5.2,0-9.9
			c3.2,3.1,1.3,3,6.6,1.7c-3.8-5.2,3-4.7,0-6.6c1.5-4.5,3.7,3.8,6.6,3.3c3.8,0.5,1.8-4.8,4.9-4.9c-0.2-4.2-6.4-2.4-6.6-6.6
			c-2.4,1.5-10.1,12.6-9.9,1.7c1.6,0,1.3,2,1.6,3.3c2.4-0.4,0.6-4.9,3.3-5c-4.3-4.8-7.2-0.9-14.9-1.6c16.1-11.1,26.6,8.9,41.3,9.9
			c-5.1-1-6.5-5.6-11.6-6.6c11.2-1.7,2.1-9.8,9.9-9.9c-1-5.8-6.9-1.5-6.6,3.3c-5.1-6-0.7-7.9,0-14.9c-4.5-0.7-3.1-5.7-6.6-13.2
			c-5-1.2-4.9,2.8-9.9,1.7c-4.4,1.6-2,10.1-8.3,9.9c-0.5-3,5.3-10.5,1.7-6.6c-3.4-6.8,5.2-6.5,13.2-8.3c0-6-5.8-6.3-8.2-9.9
			c-5.8,0.7-3.4,7.1-5,8.2c-7.3,2.2,0.8-8.7-3.3-3.3c-4.3-5.5,10.4-6,9.9-13.2c3.1,1.3,6.7,2.1,8.2,5c-1.2,2.9-3,0.2-4.9,0
			c1.3,7.7,10.8,11.4,11.5,14.8c3.4-2.5-1-11-6.6-9.9c0.7-1.5,1.5-2.9,3.3-3.3c-0.6-2.2-2.9-2.6-3.3-4.9c-2.7-15.7,3.7-4.6,4.9,6.6
			c5.6-0.9,2.5-8,1.7-11.6c3.4,1.5,7.4-4.3,3.3-4.9c7.5-1.4,2.3,17,1.7,26.4c4.3,0.5,1.3-6.4,6.6-4.9c-0.9,1.3-1.7,2.7-1.7,4.9
			c2.4-0.9,4.2-2.4,6.6-3.3c-0.2-3.6-4.2-3.5-8.3-3.3c4.1-7.7,15.8,2.4,8.3,6.6c7-0.6,11.7,0.3,8.2-9.9c-4.3,0.5-8.3,0.6-6.6-4.9
			c-4.7-1.4-4.3,2.3-8.2,1.7c2.1-7.8,12.9-6.9,11.5-18.2c-5,1.7-7.5,4.7-4.9,9.9c-9.3-1-0.5-3.7-1.7-9.9c-1.5-5.6-3.7-0.2-6.6-3.3
			c2.2-6,7.5-12.4,6.6-16.5c-0.2-0.8-4.9-2.4-4.9-1.6c0.2-2,11.7-6.2,3.3-9.9c0.7-3.2,6.4-1.3,4.9-6.6c2.7-0.5,2.8,1.6,4.9,1.7
			c2.7,1.2,2.7-7.8,0-6.6c8.5-8.6,20.2-3.9,28.1-11.6c-1.2,3.8-1.5,8.4-3.3,11.6c6.9,0.8,0.6-11.5,8.2-9.9V38
			c2.3-0.2,4.7-0.3,4.9,1.7c1-4.3-1.3-10.4-3.3-18.2c10.5-0.2,1.2,9,8.2,11.6c0.7-9.5,7.8-4.9,5-13.2c5.9,2.2,3.3,2.7,9.9,3.3
			c1.7,2.2,1.6,6.1,3.3,8.3c1.9-0.3,1.4-3,1.6-4.9c4.5-1.2-1.2,7.8,3.3,6.6c4.4-3.5-4.1-7.9-3.3-13.2c7.2,8.2-2.2-7.3,5-8.3
			c-0.7-2.4-2.1,0.7-5,0c-2.2-4.1,7.7-4,1.7-6.6c3.3-2.6,10.3,0,13.2,0C169.9,13.9,169.3,13.7,168.3,19.8 M163.4,6.6
			c-0.8,7.9-1.6,9,3.3,13.2c1-4,0.7-11,0-13.2C166.3,8.6,164.9,7.6,163.4,6.6 M283.9,115.5c-0.1-5,5.9-4,4.9-9.9
			C283.7,104.5,281.1,114.2,283.9,115.5 M429.1,146.9c0.3,5-8.9,15.3-5,13.2c3.1-4.6,7.7-7.7,9.9-13.2c0.4,1.3,0,3.3,1.6,3.3
			c0.4-1.3,1.4-1.9,3.3-1.7C439.6,141.5,431.9,147.1,429.1,146.9 M406,585.9c-9.2-1.7-3.3,2.6-6.6,4.9c-1.4-2.4-1.3-6.4-6.6-4.9
			c0.6,4.9,1,10,4.9,11.6C398.4,591.4,404.8,591.3,406,585.9 M82.5,381.2c-15.3-3.2-36.5,0.5-42.9,11.6
			C57.2,395,79.2,397.6,82.5,381.2 M29.7,302c5.4-0.1,10.2-0.8,13.2-3.3c-4.8,0.4-5.1-3.7-9.9-3.3C34.2,299.9,29.7,298.7,29.7,302
			 M33,292.1c6-2.1,8.8,7.5,11.6,3.3c-2-0.3-1-1.8,0-3.3C39.8,292.3,35.1,285.2,33,292.1 M141.9,33c0.9,2.4-1.9,8.5,1.6,8.2
			c0.4-4.6,9.3-0.6,8.3-6.6C145.8,37,145.5,38.7,141.9,33 M143.6,51.2c0.3-1.9,2.6-1.8,5-1.7v-5c-3,0.9-6.9,0.9-8.3,3.3
			c1.3,0.4,3.3,0.1,3.3,1.7C142.7,49.5,141.7,50.8,143.6,51.2 M217.9,66c6.6-3.7-2.1,14.7,3.3,9.9c-1-9.4,2.4-5.2,4.9-1.7
			c-3.1-10.8,6.9-9.1,5-14.9c-4.3-0.2-6.9,4-11.6,0C219.6,62.3,219.1,64.5,217.9,66 M247.6,75.9c-0.6,1.8-2,4,0,1.6
			c4.1,3.4,13.4-1.9,8.2-6.6C255.1,76.8,252.3,78,247.6,75.9 M326.8,105.6h5c1.7-1.7,0.6-9-1.7-11.6
			C328.1,97.3,323.8,102.4,326.8,105.6 M298.7,107.3c5.8,0.8,11.2-7.4,6.6-11.6C303.2,99.7,300.4,102.9,298.7,107.3 M293.8,118.8
			c3.4-1,11.5,2.7,9.9-3.3C299.3,115.5,294,114.6,293.8,118.8 M305.3,130.4c-4.2,1.3-7.6,2.4-9.9-1.6c2,0.5,5.7-4.8,1.6-5
			c-0.3,1.8-1.8,2.6-3.3,3.3c0-1.7-1.3-2-1.7-3.3c2.7,0.5,4.5-2.2,1.7-3.3c-0.4,2.3-3.6,1.9-4.9,3.3c-2.5,9.5,3.3,7.4-1.7,13.2
			c7.8-2.8,1.5,1,6.6,4.9c-7.1-2.3-4.5,26.4,1.7,18.2c-2.9,7.8,2.3,17.5,8.3,21.5c2.2-11.2-2.9-11.9,1.6-19.8
			c-2.2-6.4-5.9-1.8-9.9-5c6.5,2.6,3.4-4.3,6.6-5c0.7,3.2,0.6,7.1,5,6.6c0.8-5.2-3-5.8-1.7-11.6c-6.4-3-5.8,9.4-9.9,3.3
			c6.8-2.8,4.4-8.5,6.6-13.2C309.8,147.3,301.9,135.1,305.3,130.4 M417.6,145.2c-0.3-4.3,5.3-11.1,1.7-13.2
			C418.6,135.4,413.7,142.8,417.6,145.2 M420.9,146.9c1.8-3.8,8.2-11.5,5-14.9C423.4,135.2,418.7,144.6,420.9,146.9 M316.9,153.5
			c-1-0.1-1.9-0.2-1.6-1.7c0.7-4.7,5.8-5.2,4.9-11.5c-2.6-1.8-3.4-5.4-8.3-5c-2.8,4.3-0.2,14.1-3.3,18.2
			C312.7,151.3,316.6,157.2,316.9,153.5 M89.1,150.2c3.8,0.5,6.3-0.3,8.2-1.7c-1.4-5.2-4.8-8.4-8.2-11.5V150.2z M406,158.4
			c7.1,1.2,10.6-16.7,1.7-16.5C410.9,149.8,406.2,148.2,406,158.4 M110.6,146.9c-1.3,6.3-2.1-9.4-5-1.7c4.8,1.4-1,5.3,0,8.3
			c8.4,5.2,1.6,3,9.9,8.3c3.9-6.2-2.4-12.2-6.6-11.6C111.6,150.7,113.4,148,110.6,146.9 M396.1,151.8c3.8-0.5,1.8,4.8,5,5
			c2.2-3.1,8.6-13.7,0-13.2C404.1,151.2,399.2,145.4,396.1,151.8 M282.2,183.2c4.3,1.8,6.1,6,11.5,6.6c-1.4-5.3,4.3-3.4,5-6.6
			c-7.1-4.2-7.4-25.5-18.2-34.7c1.6,4.5-11.3,1.3-6.6,6.6c0-1.7,2.9-2.1,3.3,0c-4.7,0.2-3,6.9-3.3,11.6c-2.2-0.5-3.2-2.3-6.6-1.7
			c0.8,5.2-4.4,4.4-5,8.3c3.8-0.5,6.3,0.3,8.3,1.7c-0.3-4.1,3.7-4,5-6.6c1.9,0.8,3.7,1.8,4.9,3.3c-1.5,3.5-7,2.9-6.6,8.2h3.3
			c1-0.1,2-0.2,1.7-1.6c-1.3-0.4-3.3,0-3.3-1.7c8,2.5,4.9-6.1,8.2-8.3c1,6.2,7.6,6.7,8.2,13.2c-2.3-0.1-3.6,0.8-4.9,1.7
			c-3.3-1.1,1-9.8-4.9-8.3V183.2z M188.2,155.1c0.1,5.1-8.3,10.2-4.9,13.2C186.5,166.6,193.6,160.2,188.2,155.1 M315.2,163.4
			c5.2-1.9,4,2.6,6.6,3.3v-8.3h-5C317,160.7,316.1,162,315.2,163.4 M453.9,161.7c-0.1,7.3,10.3,1.8,9.9-1.7
			C459.7,159.9,455.8,159.8,453.9,161.7 M69.3,161.7c-5.4,1.8-10,4.3-11.5,9.9c-0.1-1.7-2.1-1.3-1.7,1.7c3.9-0.5,6.8-2,9.9-3.3
			c-0.1,2.3,0.8,3.6,1.6,5c6.7,0.6,11.5-0.6,11.6-6.6c-3.2-0.5-3.3,2.2-4.9,3.3c0.4-4.8,2.3-6.1,0-8.3c-2.6,1.3-2.5,5.2-6.6,5
			C67.4,166.1,74.4,163.4,69.3,161.7 M308.6,179.9c0.9-4.8,2.6,2.5,4.9,1.7c1.2-5.1-4.5-3.2-3.3-8.3c3.2-0.5,3.3,2.2,4.9,3.3v-4.9
			c-1.9-0.3-4.7,0.3-4.9-1.7c2-0.2,3.9-0.5,3.3-3.3C308.7,166.9,304.2,175.9,308.6,179.9 M452.2,173.3c2.1-3,6.6,5.4,9.9,6.6
			c-4.4,3.5-5.2,14.8,3.3,18.2c5.8-14.4-3.5-20.9-1.7-29.7c-0.7,7.9-8.8-0.1-1.7-1.6C458,167.1,448.5,170.5,452.2,173.3
			 M453.9,186.5c-1,4.1-8.8,10.9-1.7,13.2c-2.3-8.6,3.9-4.7,4.9-6.6c-5.5-1.6,1.8-3.3,1.7-4.9C456.6,188.2,455.2,187.4,453.9,186.5
			 M495.1,184.8c0.3-5.4-7.4-7.3-3.3-11.5C481.9,176.5,491.2,182.3,495.1,184.8 M374.7,199.7c2.3-10-1.4-15.8-3.3-19.8
			c-0.5,5.8-6.1-4.1-6.6,1.7c1,0.1,2,0.2,1.7,1.7c-0.5,5.2,4.8-4.2,4.9,1.6c-5.4,2.3-7.8,2.4-3.3,8.3c-2.4-0.9-4.2-2.4-6.6-3.3
			c2,11.5,8.3,2.9,11.6-1.6c0,1.6,1.3,2,1.6,3.3c-1.1,5.1-13.1,7.7-8.2,13.2c-0.1-2.8,1.3-4.2,3.3-4.9c1.3,5.7-2.5,6.3-1.6,11.5
			c8.2-4.1,5.1,11.7,8.2,13.2c0.4-1.3,1.4-1.9,3.3-1.7c0.4,1.3,0,3.3,1.7,3.3c-1.5-12.7,2.5-16.9-3.3-28c6.6,3.9-1.1-7.9,4.9-11.6
			c2.4,4.5,3.5,3.5,1.7-1.7c3.4-1.6,11.8,0.1,6.6-6.6c-0.4,1.8-2.7,4-3.3,1.6c1.9-2.5,4.1-4.7,6.6-6.6c-5,1.2-6-1.7-9.9-1.7
			c0.3,5.8-0.4,10.6-3.3,13.2c-3,1.6-1-9.4-3.3-3.3C379.5,189.3,381.1,196.9,374.7,199.7 M64.4,183.2c3.1-3.1-1-3,0-8.3
			c-1.9,0.3-4.7-0.3-4.9,1.6C62.8,177,61,182.7,64.4,183.2 M287.2,199.7c3.2-0.5,3.3,2.2,4.9,3.3c4.5-4.4-1.3-4.2-3.3-6.6
			c0.4-2.1,2.6-3.4-1.7-3.3V199.7z M392.8,201.4c4.1,1.2,7-7.1,3.3-8.3C395.4,196.2,391.4,196.1,392.8,201.4 M269,203
			c6.7,0.7,6.1-6,9.9-8.2C273.5,195.3,271.8,199.7,269,203 M72.6,206.3c0.4-2.3,2.7-2.8,3.3-4.9c-6.3,2.4-0.3-7.4-6.6-5
			C70.8,199.3,69.9,204.6,72.6,206.3 M54.5,203c3.1,1.3,6.7,2.1,8.2,5c3.3-3.8-0.4-1.8-1.6-5c3.9,1.4-1.9-8.4-1.7-3.3
			C64.1,206.6,56.2,197.8,54.5,203 M280.6,199.7c0.9,8-1.4,6.3-4.9,3.3c0.5,3.2-2.2,3.3-3.3,5c5.6,0.7-2.5,9,1.6,8.3
			c4.5-2.6,7.6-6.7,13.2-8.3c1.2-5.1-4.5-3.2-3.3-8.2c0.9,0,1.9-1.3,0-1.7C283.5,199.3,282.5,200,280.6,199.7 M415.9,207.9
			c3.2-2.3,4.9-6.1,6.6-9.9C417.6,197.7,412.5,205.4,415.9,207.9 M310.3,206.3c0.2,3-1.6,3.9-5,3.3c0.9-2.4,2.4-4.2,3.3-6.6
			c-6.1,5.6-5.9-6.5-9.9-1.6c2.4,0.3,1.5,4,1.7,6.6c-3.9-2.4-3.1-3.5-8.3-1.7c-1.4,7-13.1,13.1-23.1,16.5c-2.2,4.1,6.5,5.2,1.7,6.6
			c-4.3,0.5-1.3-6.4-6.6-4.9c4.8,7.8-4.9,7.3-6.6,13.2c5.3,1.4,3.4-4.3,6.6-5c4.2,4-3.5,3.5-1.7,9.9h5c-0.9-4.2-2.2-5.8,1.7-8.3
			c-1.6,5.4,8.9,5,1.7,9.9c17.1-2.8-0.5,7.7-6.6,9.9c1.9-0.6,1.9-8,0-3.3c0.6,5.5-5.3,5.7-8.2,11.6c11.3,2,16-4.7,21.5-5
			c-3.7,8.6-10.2,6.3-18.2,8.3c6.1,3.3,11.6,0.7,16.5-1.6c-1.7,4.3-6.5,5.6-8.3,9.9c4.3,1.4,9.1-5,11.6,0c-6.8-0.1-8.1,4.1-8.3,6.6
			c-0.8-1.9-1.8-3.7-3.3-4.9c-7.5,2.4-11.4,8.4-19.8,9.9c1.8,5.5-0.5,5.6,1.6,11.6c-4.2-2.3-1.8,2.2-6.6,1.7c2,0.3,1,1.8,0,3.3
			c4.1,0.8,5.5,4.4,9.9,5v-6.6c4.1,5.9,5.4-8.5,9.9-1.7c-2.3,2.7-4.7,5.2-6.6,8.2H269c2.1-3,6.2-12.4,9.9-8.2
			c-2.5,3-6.9,4.1-8.3,8.2c1.9,0.3,4.7-0.3,5,1.7c-1.7,0-2.1,2.9,0,3.3c0.9-2.4,2.6-4,4.9-5c-0.1,2.8,1.3,4.2,3.3,5
			c0.4-1.3,1.4-1.9,3.3-1.7c2.8-1-0.1-7.8,3.3-8.3c-0.4,3.1,1.9,3.6,1.6,6.6c-4.1,1.4-5.2,5.8-8.2,8.3c-0.4-1.3,0-3.3-1.7-3.3
			c-0.5,3.8,0.4,6.2,3.3,6.6c5.1-11.5,5.3-6.9,11.5-11.6c0.1-5-5.9-4-4.9-9.9c3.9,0,4.9-2.8,9.9-1.7c2.2-6.3,4.7-9.7,0-14.9
			c4.7,0.5,4.6,2.3,9.9,5v-3.3c1-0.1,2-0.2,1.7-1.7c-4.1,0.3-4-3.7-6.6-5c8.1-1.3,3.7-7.5,6.6-11.5c2.8,5.7-2.4,10.8,4.9,13.2
			c-1.6-7.8,3.6-19.7,1.7-33c-8.7-3.8-8.3,5.1-9.9,9.9c-4.2-3.2-2.8-17.5,1.6-9.9C310.9,225.1,312.4,221.8,310.3,206.3 M249.2,277.3
			c5.7-1.9,11.8-3.6,13.2-9.9c-6.8-1.9-6.4,3.5-11.5,3.3c-0.7-2.8,2.4-4.2,0-5C245,270.7,252.4,270.9,249.2,277.3 M85.8,211.2
			c-0.4,3.1,1.9,3.6,1.6,6.6c-2.4-0.4-2.8-2.7-4.9-3.3c0.3,6.3,6.9,6.3,6.6,13.2c4.3-1.2,5.6-5.4,9.9-6.6
			C96.2,216.7,93.7,205.4,85.8,211.2 M366.4,219.5c-0.3,2-1.8,1-3.3,0c-0.5,3.2,2.2,3.3,3.3,5c-1.3,0.4-1.9,1.4-1.7,3.3
			c7.5-1.5,2.2-15.6-3.3-14.8C358.8,219.4,365.7,216.3,366.4,219.5 M146.9,214.5c0.1,2.3-0.8,3.6-1.7,5c4.6-0.7,1.6,6.1,5,6.6
			c0.4-1.3,0-3.3,1.7-3.3c0,1.7,2.9,2.1,3.3,0c-3.5-3.1-6.2-4.3-8.2-5C148.6,217.8,149,215,146.9,214.5 M336.7,221.1
			c2.2,0,1.5,2.9,3.3,3.3c2.5-3,6.9-4.1,8.2-8.3c-2.8-0.6-4.2,2.4-4.9,0c0.9,0,1.9-1.3,0-1.7C341.8,217.4,337.2,217.3,336.7,221.1
			 M356.5,217.8c-9.5,2-15.7,7.4-19.8,14.9c4.8,4.6,4.3-5.4,11.6-3.3c-0.5,2.2-2.3,3.2-1.6,6.6c-6.4-1.8-5.9,5.8-9.9,1.7
			c-1.2,5,2.9,4.9,1.7,9.9c4.6-2,11.4-1.8,18.1-1.7c-1.9-9.5,0-2.3,1.7-8.2c0.5-5.2-4.8,4.2-4.9-1.7c2.3,0.1,3.6-0.8,4.9-1.7
			c-0.4-8.2,1.7-13.9-4.9-8.3C353.9,223,357.9,223.1,356.5,217.8 M435.7,231.1c0.6-4.3,2-6.3,5-11.6c-2.3,0.1-3.6-0.8-5-1.7
			C433.4,222.5,431.4,227.3,435.7,231.1 M533.1,224.5c-0.7-4.6,6.1-1.6,6.6-5c-2.6-3.1-6.4,2.4-9.9-1.7
			C529.3,221.6,530.2,224.1,533.1,224.5 M54.5,226.1c2.2,0.5,3.1,2.4,6.6,1.7c-0.2-4.2-3-5.8-5-8.2
			C56.2,222.4,55.8,224.6,54.5,226.1 M74.3,227.7c-4.8-0.2-2.9-7-8.3-6.6C61,224.9,73.6,230.1,74.3,227.7 M445.6,229.4
			c2,0.4,1,1.8,0,3.3c7.6,0.5,8.9-5.4,11.6-9.9C449.1,224.9,452.5,230.8,445.6,229.4 M397.8,252.5c6.3-0.7,6.3-7.6,13.2-3.3
			c0.8-7.5,3-13.5,3.3-21.5c-5.5,2.8-5.6-1-11.5-1.7c0.3,5.8-5.6,5.4-6.6,9.9c2.6,0.2,5.7-0.2,5,3.3c-2.5,0.3-6.1-0.6-6.6,1.7
			c7,4,8.7-3.6,13.2-6.6C405.6,241.6,402.6,248,397.8,252.5 M417.6,242.6c-2.7-0.5-4.4,2.2-1.7,3.3c3.2-2.3,3-8,5-11.5
			c-1.3-0.4-3.2-0.1-3.3-1.7c1.9-0.6,1.9-8,0-3.3C414.3,232.6,416.5,238.8,417.6,242.6 M481.9,234.4c1.4-2.9,5.5-5.1,0-6.6
			c-2.9,3.7-11,2.2-9.9,9.9c3.1,0.4,3.6-1.9,6.6-1.7c0.7-2.8-2.4-4.2,0-5c1.3,0.4,3.3,0,3.3,1.7C481,232.7,480.1,234,481.9,234.4
			 M52.8,232.7c6.2,6.8,17.4-1.2,24.7,5C75.5,228.8,60,227.2,52.8,232.7 M382.9,245.9c-1.6-6,7.1-1.7,8.3-5
			c-2.7-8.2,5.7-5.3,4.9-11.6C389.7,231.7,377.1,242,382.9,245.9 M453.9,234.4c4.1,0.2,8,0.3,8.3-3.3
			C458.8,227.6,455.1,231,453.9,234.4 M480.3,237.7c-0.8,5.2,1.4,7.4,6.6,6.6c-0.9-2.9,2-9.7-1.7-9.9
			C485.5,238.9,482.7,240,480.3,237.7 M178.3,264.1c5-4.3,14.5-24.1,1.7-26.4C178.1,249.7,177.2,256.4,178.3,264.1 M57.8,242.6
			c10.7,1.2,18,4.4,28.1,0C74.9,242.5,64.2,237.3,57.8,242.6 M442.3,254.2c10.7,0.2,9.1-1.8,19.8-1.7c1.7-5.9,0.2-8.4,6.6-3.3
			c1-5.3-3.1-5.1,0-8.3c-4,1.8-16-4.7-11.6,5c-0.5-2,4.8-5.7,5-1.7C456.5,248.5,449.8,251.8,442.3,254.2 M473.7,252.5h6.6
			c1.2-9-3.2-15.1-9.9-11.6C472.4,247,476.6,244.5,473.7,252.5 M194.8,252.5c5.3-1.4,3.4,4.3,6.6,5c0.4-2,1.8-1,3.3,0
			c-0.3-5.3-10.9-15.7-8.3-13.2C197.1,248.2,193.4,247.8,194.8,252.5 M206.3,250.9c0.2-4.1,0.3-8-3.3-8.3
			C199.6,245.9,203,249.7,206.3,250.9 M386.2,250.9h5c-0.3-2.5,0.6-6.1-1.7-6.6C388.8,246.8,384.3,245.7,386.2,250.9 M483.6,252.5
			c1.5-3.5,9.3-0.6,9.9-4.9C489.3,244,479.8,249.1,483.6,252.5 M156.8,259.1c5.6-1.2,2.1,6.7,8.2,5c-2.7-5.8,2.2-11.8-6.6-13.2
			C156.6,256,158.9,255.2,156.8,259.1 M188.2,257.5c-2.4,23.1,10.9-3.6,1.7-6.6C191.2,253.5,188.2,256.7,188.2,257.5 M472,264.1
			c2.8-0.1,4.2,1.3,4.9,3.3c-3.7,7.2-9,18.2-19.8,13.2c-3.6,3.5-0.6,9,3.3,9.9c0.7-2.8-2.5-4.2,0-4.9c2.9,2.6,3.6,7.4,3.3,13.2
			c5.3-1.4,3.4-1.4,6.6,1.7c-3.4-8.9,5-5,4.9-5c9.7-8.1,20.2-34.8,16.5-42.9C478.7,256.4,478.7,256.6,472,264.1 M196.4,265.7
			c0.4-2,1.8-1,3.3,0c3.2-5.9-2.3-7.2-4.9-11.6C195.7,257.6,192.7,265,196.4,265.7 M331.7,255.8c-2.1,3.7-4,18.6,1.7,19.8
			c4-2.2,1-3.3,3.3-5c0,2.2,2.9,1.5,3.3,3.3c-4.9,1.1,1.6,3.5,0,6.6c-1.9,0.3-4.7-0.3-5,1.7c2.9,0.8-0.7,1.8-1.6,3.3
			c5.3,1,5.1-3.1,8.3,0c0.1-5.4-0.7-11.7,4.9-11.6c1,2.9-4.8,6.9,0,8.3c5.9-8.7,5.5-19.3-1.7-26.4
			C340.8,261.8,335.2,262,331.7,255.8 M439,262.4c5.4-4.9,8.2,4.1,11.5,0c-4.8-0.9,2.5-2.6,1.7-5c-6.9,0-13.8,0.1-14.9,1.7
			C438.7,259.5,439.3,260.5,439,262.4 M500.1,288.8c-1.7-0.1-1.3-2.1,1.7-1.6c1.8-6.2-6.2-2.6-5-8.3c9.8,4.9,12.2-7.5,14.9-14.8
			c-8.7,2.1-6.9-6.3-13.2-6.6c-1,10-14.4,27.7-14.9,38c1.9-2.5,2.1-6.8,4.9-8.3c3.4,0.5,4.4,3.3,6.6,5
			C493.7,281.9,499.2,293.2,500.1,288.8 M516.6,275.6c1.5-3.6,10-8.6,5-13.2C522.2,268.1,512.1,271.6,516.6,275.6 M186.5,280.6
			c1,2.9-2,9.7,1.7,9.9c3-10.4-5.3-10.7-4.9-19.8C181.2,276.9,183.2,293.7,186.5,280.6 M564.5,275.6c3.2-4.3,9.3,4.2,9.9-5
			C572.2,272.5,558.7,271.3,564.5,275.6 M544.6,283.9c2.5-3,6.9-4.1,8.3-8.2C549,278,542.1,278.7,544.6,283.9 M138.6,283.9
			c-6.4,1.4-2.7-7.2-9.9-5C127.4,287.6,135.8,284.9,138.6,283.9 M71,295.4c6.4-2.4,17.4-0.2,19.8-6.6c-10.6-0.5-26.7-3.3-28.1,0
			C69,287.5,69.1,292.3,71,295.4 M331.7,288.8c-0.2,4.1-0.3,8,3.3,8.3c0.6-4.4,4.1-5.8,5-9.9C335.3,285.8,335.7,289.5,331.7,288.8
			 M536.4,303.7c2.7-3.3,4.4-7.7,9.9-8.2c0.3-4.1-3.7-4-4.9-6.6C541,295,536,296.9,536.4,303.7 M557.8,307c3.9-2.5,1.6-6.9,3.3-8.2
			c0.1,1,0.3,1.9,1.7,1.7c1.9-8-15.9-8.1-9.9-1.7c0.4-2.3,3.6-1.9,4.9-3.3C560.1,300.6,553.8,305.4,557.8,307 M69.3,295.4
			c-3.6-0.4-8.9-7.4-11.5-3.3C59.1,294.7,67.6,298.6,69.3,295.4 M178.3,311.9c0.4-9.9,3.9-16-1.7-21.5
			C174.4,297.8,174,309.9,178.3,311.9 M82.5,297.1c8.7,3.4,16.2-1.4,24.8,0C103.4,290.9,89.9,294.3,82.5,297.1 M450.6,305.3
			c1.5-4.5,3.1,4.4,8.3,1.7c-1.7-9.2,2.6-3.3,5-6.6c-3.1-0.3-1-5.6-3.3-6.6c-2.9-0.1-5.1,0.4-6.6,1.7c-1.2,4.1,7.3,6.8,1.6,9.9
			c-2.3-1-0.2-6.4-3.3-6.6C452.5,300.9,446.7,304.9,450.6,305.3 M571.1,305.3c3.1-1.6,5.5,5,6.6,0c-1.6-1,0.7-8.9-5-9.9
			C573.9,300.5,569.9,300.3,571.1,305.3 M557.8,320.2c0.2-8.6,13.6-12.8,8.3-21.5C563.2,304.6,554.9,313.9,557.8,320.2 M100.7,300.4
			c-5.1-1.7-11.8,3.4-8.2,4.9C93.6,303.7,99.9,306.2,100.7,300.4 M544.6,311.9c2.8-2.7,4.1-6.9,9.9-6.6c1.1-4.4-3.4-3.2-5-4.9
			C549.9,305.2,540.1,308.3,544.6,311.9 M599.1,307c-2.1-2.3-7.8-1-9.9-3.3c-11.3,19.6-34.1,36.3-39.6,56.1
			C564,340,593.2,327,597.5,307C597.5,307.9,598.8,308.8,599.1,307 M120.5,310.3c-2.3-0.1-3.6,0.8-4.9,1.7c0.4-3.1-1.9-3.6-1.7-6.6
			c-2.9,1.5-8.2,0.6-9.9,3.3c2.2,2.1,6.1,2.1,8.2,0c-5.1,5.9,5.8,6.4,8.3,9.9c-2.1-9.9,0.1-2.4,3.3-8.3c-1-1.4-8.9-5.2-4.9-1.7
			C119.8,308.7,120.8,308.9,120.5,310.3 M511.6,315.2c0.2-2.2,0.3-11.9-1.7-6.6c1.2,5.6-6.1,2.7-6.6,6.6c5.3-2,1.3,5.3,6.6,3.3
			C509.8,314,506.8,312.9,511.6,315.2 M143.6,313.6c6.2-2.4,3.2,4.5,8.3,3.3c-0.3-2.5,0.6-6.1-1.7-6.6c0,1.7-2.9,2.1-3.3,0
			c1.7-0.1,1.3-2.1-1.7-1.7C145.3,310.9,144.5,312.3,143.6,313.6 M241,316.9c0.1,2.9-0.4,5.1-1.7,6.6c6.6,1.1,4.7-6.3,4.9-11.6
			c-3.1-1.3-6-2.8-9.9-3.3c-2.3,5.2-0.4,5.5,0,11.6c-4.1-0.9-10.9-0.3-8.3,3.3C229.9,324.2,237.4,326.2,241,316.9 M247.6,315.2
			c3.1-0.2,5.5-1.1,6.6-3.3c-5.6,2.6-7-7-9.9-1.7C246.3,311,247.6,312.4,247.6,315.2 M576,318.5c0.7-4.3,4.9-5,4.9-9.9H576
			C578.3,313.4,571.5,317,576,318.5 M82.5,318.5c7.6,1.2,2.3-6.3,4.9-6.6c4.1,0.2,0.5,5.6,0,6.6c2.1,0.3,8.1,4.8,8.2,1.7
			c-3.9-0.4-0.9-7.3,0-8.3C88,311.1,82.3,308.6,82.5,318.5 M572.7,310.3c-12-0.9-21.7,27.4-19.8,34.7
			C559.8,333.7,571.6,327.3,572.7,310.3 M257.5,315.2c3.5-3.5,4.6,3.7,6.6,6.6c-5.1,1.2-3.2-4.5-8.2-3.3c-1.8,8.5,1.4,17.5-3.3,23.1
			c6.5,2.1,4-4.8,8.2-4.9c4.2,7.2,11.5,0.5,9.9-3.3c-0.1,1-0.2,2-1.7,1.7c0.3-1.9-0.3-4.7,1.7-5c2,0.8,3.7,1.8,5,3.3
			c-1.7,0.1-1.3,2.1,1.7,1.7c1.6-3.8-2.2-6.2-1.7-13.2c-5.2-0.8-6.8,3.9-8.3-1.6c5.3,1.5,2.3-5.4,6.6-5c0,1.7,2.9,2.1,3.3,0
			C271.6,311.8,257.3,310.7,257.5,315.2 M123.8,325.1c-8.9-3.7-13.5-11.8-26.4-11.5v9.9c3.7,1.3,6.4,3.5,11.6,3.3
			C114,315.8,119.4,329.3,123.8,325.1 M189.8,318.5c0.2,8.7-0.4,16.9,1.7,19.8c1.6-7.6,5.1-12.7,0-16.5c5-0.5,3.1-6.9,0-8.2
			C190.6,318.7,195.3,321.6,189.8,318.5 M445.6,320.2c-0.1,1-0.2,1.9-1.7,1.6c0.1-2.8-1.3-4.2-3.3-5
			C432.4,322.7,451.7,326.5,445.6,320.2 M163.4,328.4c0.6-5.6-2.9-7-4.9-9.9C160.9,323.2,156.3,326.9,163.4,328.4 M186.5,335
			c-1-5,2.1-14.2-1.6-16.5C181.6,322.6,183.2,332.4,186.5,335 M108.9,333.4c-2.9-8.4-14.7-0.4-16.5-11.6c-5.6,2.2-11.5-3.7-13.2,0
			c3,4-15.3,15.2-4.9,21.5c-4.8-8.1,7.9-3.4,11.5-3.3c-8,2.7-3,1.4,0,3.3c-5.1,1.8-6.2,7.7-9.9,6.6c3.4,0.5,3.2,4.5,6.6,4.9
			c2.4-2.6,2.2-7.7,4.9-9.9c0.9,6.9-2.9,9.2-3.3,14.9c9.2,2.9,10.9,13.3,24.8,11.5c1.6-3.1-4.9-5.5,0-6.6c1.6,6.4,8.3,1.4,13.2,1.7
			c-0.6-12.6-18.7-2.9-23.1-3.3c8-6.6,11.3-8.8,19.8-8.3c-4.3-2.4-7.9-4.3-9.9-4.9c4.7-0.2,9.1-0.6,9.9-8.3c0.9,2.9-2,9.7,1.7,9.9
			c1.5-6.1,3.8-13.1,8.2-11.5c-4.5,1.2,1.2-7.8-3.3-6.6c-2.3,2.1-0.7,8.1-4.9,8.2c-2.1-4.1,4.8-6.8,0-8.2c-0.8,1.9-1.8,3.7-3.3,4.9
			c-0.4-3.1-2.7,0.9-3.3-1.6c0.1-2.6,4.2-1.3,3.3-5c-12.1-3.3-4.3,13.3-11.6,14.9c4.7-7-7.3-5.8-9.9-8.3c2.4-4.5,8.5-0.3,9.9-8.2
			C106,331.9,107.5,332.6,108.9,333.4 M250.9,338.3c4.5-2.2-4.5-8.7,1.7-8.2c-0.2-4.2-3-5.8-4.9-8.3c-3.8,12.8-23,12.6-29.7,26.4
			c4.4,1,10.3-4.9,13.2,0c1.2,4.5-7.8-1.2-6.6,3.3c2.9-0.1,5.1,0.4,6.6,1.7c1.4-4.6,6.5-11.9,9.9-4.9c0.2-3.1,5.5-1.2,4.9-5
			c-2.7,0-0.9-4.6-3.3-5c0,0.9-1.3,1.9-1.7,0C245.3,334.9,251.5,339.2,250.9,338.3 M401.1,326.8c5.1-1.2,3.2-1.2,8.2,0
			C409.8,319,401.7,322.4,401.1,326.8 M462.1,343.3c4,0.7,3.6-3,8.2-1.7c-0.7-5.1-3-9-3.3-6.6C466.9,340,464.9,337.3,462.1,343.3
			 M508.3,338.3c3.3,2.8,2.1-0.1,6.6,0v-4.9h-5C510.1,335.7,509.2,337,508.3,338.3 M514.9,343.3c1.3,0.4,3.3,0,3.3,1.7
			c-6.6,1.8-2.3,4.2-6.6,8.2c5.8-0.5,4.1-4.5,9.9-1.7c2.5-4.3-1.1-9.7,1.6-14.8c-1-0.1-2-0.2-1.6-1.7h-3.3
			C518.5,339.1,515.6,340.1,514.9,343.3 M264.1,351.5c0.2,2.2-6.7,5-1.7,6.6c3-4.7,9.4-6,11.6-11.5c-5-1.7-2.1-2.7,0-5
			c-3.6-2.7-10.4,1.2-6.6,6.6c-3.8-1.4-7.1,5.8-8.3,1.7c0.5-3.4,4.5-3.2,4.9-6.6c-6.1-1.2-7.3,2.6-6.6,8.2
			C259.9,353.4,261.6,353.4,264.1,351.5 M501.7,344.9c0.4,1.3,0,3.2,1.7,3.3c-0.2-4.2-3-5.8-5-8.3c1.1,6-1.1,8.8-3.3,11.5
			c6.9-0.6,1.8,6,0,6.6h6.6C505.4,347.2,497.3,353.4,501.7,344.9 M326.8,364.7c1,4.5-2.1,13.1,1.7,14.9c2.3-6.5,11.1-25,1.6-33
			c-7.3,8.3,2.5,17,0,23.1C330.2,366.8,328.8,365.5,326.8,364.7 M244.3,359.8c-0.9,2.4-2.6,4-4.9,4.9c-4.2-8.5-15-10.3-23.1-14.8
			c-0.3,1.8-1.8,2.6-3.3,3.3c0.2,4.2,3,5.8,5,8.3c1.1-1.8,5.5-8.6,6.6-5c-0.5,3.9-5.7,3.1-4.9,8.2c7,8.4,21.1,18.5,23.1,26.4
			c-2.6-0.1-1.3-4.2-5-3.3c4.8,5.8,5.9,7.1,8.3,13.2c4.9-1.1,8.1-2,9.9,0c0,3.3-4.5,2.1-3.3,6.6c7.5,0.1,2.7-5.4,8.2-5
			c-3-8-8.8-13.2-11.5-21.5c4.6-0.7,1.5,6.1,4.9,6.6c4.6-6.7,1.3-22.5-4.9-28.1c1.8,4.6-0.1,15.2,0,18.1c-4.4-4-3-7.9-4.9-16.5
			c5.7,3.9,1.1-2.1,0-5c1.9-0.3,4.7,0.3,4.9-1.7c-6.9-0.1-2.2-2.2-4.9-6.6c-2.4,3.6-12.7-0.6-9.9,8.3
			C239.1,356.1,242.7,356.9,244.3,359.8 M450.6,354.8c2.4,9.3-1.1,12,0,21.5c5.9,1,8-1.9,11.6-3.3c2.1-4.1-3.7-8,0-8.3
			c4.5,3.2,11.8-11.8,8.2-16.5c-0.2,3.6-7,0.7-9.9,1.7c-0.9,2.4,1.9,8.5-1.6,8.2c-5.8-0.4,3-7.3-1.7-6.6
			C458.3,356,449.4,350.4,450.6,354.8 M127.1,358.1c-0.6-4.3,11.4,3.2,6.6-1.6c-4.8,1.4-5.4-9.8-8.3-5
			C130.1,350.8,121.3,357.7,127.1,358.1 M287.2,368c-3.8-5.6-6.4-12.3-11.5-16.5c-4.5,2.2-15.1,6.8-11.6,11.6
			c4.5-4.8,19.5,0.4,14.9,4.9C283,365.9,286.9,371.7,287.2,368 M336.7,363.1c4.3,0.5,4.3-3.4,5-6.6c-2.9,0.1-5.1-0.4-6.6-1.7
			C336.9,360,334.6,359.2,336.7,363.1 M526.5,366.4c2.7-5,8-10.3-1.7-11.6C523.6,358.8,523.5,362.8,526.5,366.4 M199.7,366.4
			c-3.1,5.2-5.3,11.2-6.6,18.2c8.8-2.3,9.5-21.3,8.2-28.1C197.7,360.1,194.1,366.6,199.7,366.4 M141.9,361.4
			c0.3,2.5-0.6,6.1,1.6,6.6c1-3.4,8.5-6.2,1.6-8.2C144.9,361.1,143.9,361.7,141.9,361.4 M176.6,366.4c-1.7,0-2-1.3-3.3-1.7
			c0.2,3.1,1.1,5.5,3.3,6.6c4.6-3-0.9-14.3-3.3-9.9C175.6,361.9,175.2,365.1,176.6,366.4 M305.3,371.3c3.4,1,5.3,3.5,8.2,5
			c1.2-4.5-3.3-3.3-3.3-6.6c2.3-0.1,3.6,0.8,4.9,1.7c-0.3-2.5,0.6-6.1-1.7-6.6c-2.3,5.3-0.7-6.7-4.9-4.9
			C309.7,365.8,305.1,366.1,305.3,371.3 M472,369.7c0.2-3,5.6-1,6.6-3.3c-0.3-2.5,0.6-6.1-1.6-6.6C475.2,362,466.5,365.7,472,369.7
			 M511.6,384.5c6.8-5,14.9-15.9,8.3-24.8c-1.3,6.4-2.1,5.8-3.3,9.9c0.3-4.1-3.7-4-5-6.6C511.4,368.7,513.7,378.8,511.6,384.5
			 M163.4,374.6c-2.8-6-7.7-9.9-13.2-13.2C150.5,369.9,156.3,373,163.4,374.6 M387.9,377.9c2.9-6,19.2-7.2,16.5-13.2
			c-1,4-3.2-4.3-6.6-3.3C392.4,373,388.1,367.7,387.9,377.9 M445.6,371.3c-1.5,0.5-8.4,3.3-3.3,5c0.3-1.9,1.8-2.6,3.3-3.3
			c-0.2,4.1-3.1,5.2,1.6,6.6v-9.9c-4.6-0.3-4.5-5.4-8.2-6.6C438.3,368.7,444,368,445.6,371.3 M333.4,387.9
			c8.8-2.2,17.3-14.7,9.9-23.1C337.6,372.8,336.7,380.5,333.4,387.9 M64.4,366.4c-2.7,2.5-8.6,6.1-4.9,9.9c6.1-3,13.9-0.3,19.8,1.7
			C79.4,369,67.6,371.9,64.4,366.4 M219.5,366.4c-14.1,2.4-15.6,17.4-19.8,29.7c13,3.8,12.8-10.5,19.8-3.3c3.3-1.7,3.8-6.1,6.6-8.3
			c4-0.7-0.9,7.5,5,5C234.4,380.7,222.3,374.4,219.5,366.4 M280.6,374.6c-3-3.1-11.3-12.6-14.9-5c7.6,8.4,14.9,15.3,19.8,18.2
			c4.7-5.2-4.7-14.6-9.9-9.9c0.6-2.8-2.4-4.2,0-4.9C276.6,376.7,278.2,371,280.6,374.6 M589.2,376.3c2.3-4.8,12.6-1.7,13.2-8.3
			C598.1,369.9,584.4,370.8,589.2,376.3 M122.1,369.7c-4.1-0.3-6.9,0.9-8.2,3.3c1.5,4.7,13.8,3.4,8.2-1.7
			C121.5,373.9,120.2,371.6,122.1,369.7 M95.7,376.3c-3.9-1.6-8.1-2.9-13.2-3.3C81.1,381.9,94.8,383.3,95.7,376.3 M297.1,379.6
			c1.2,8.8,5.6,15.2,11.6,14.9c-3.4,1.6-4.6,5.3-6.6,8.2c-3.8-5-1.9-15.7-8.2-18.1c-1.2,3.8-1.5,8.4-3.3,11.6
			c10.4,6.1,11.9,21.1,21.5,28.1c-5.9-10.3,4.3-16.9-1.6-28.1c3.6,0.3,5.2-1.4,4.9-5c-2-3.6-5.8-13.9-8.3-11.5
			c4.6,0.7,0.1,5.2-3.3,3.3c4.4-8-4.9,2.1-5-1.7c1.1-3.8,5.5-4.4,6.6-8.2C299.1,371.7,301.7,379.3,297.1,379.6 M478.6,373
			c-0.8,7.2,5.1,3.5,1.7,9.9c4.5-1.2,3.3,3.3,6.6,3.3c1.4-1.9,2.2-4.4,1.7-8.3c-1.3-0.4-3.2,0-3.3-1.7c0.9,0,1.9-1.3,0-1.7
			C483.8,379.5,482.8,370.8,478.6,373 M260.8,397.7c16.8,2.5-3.6,25,13.2,28.1c-1.2-9.5,5.3-14.4,1.7-21.5c7.1,0.5,7.3-5.9,8.2-11.6
			c-3-3.1-7.8-13-13.2-8.3c1.7,0.7-2.1,7.1-1.7,8.3c-6.7-4.2,1.7-5.4,0-13.2c-6.6,3.9-4.5-3.7-9.9-5
			C261.3,384.4,261.8,385.7,260.8,397.7 M536.4,396.1c10.8-4.3-4.2-12.1,1.7-19.8c-11,6.4-12.8,12.3-19.8,21.5
			c2.5,3.5,9.6,2.5,11.6,6.6c0.2-2,0.5-3.9,3.3-3.3c2.2-4.1-4.8-6.8,0-8.2C533.3,394.8,533.6,396.7,536.4,396.1 M141.9,384.5
			c6.3,1.3,6.3-7.9,0-6.6V384.5z M95.7,382.9c2.6,2.4,6.4,3.5,9.9,5c0.5-3.8-0.3-6.3-1.6-8.3C99.9,379.4,97.1,380.4,95.7,382.9
			 M181.6,396.1c-1-5,2.1-14.2-1.6-16.5C178.7,383.5,175.5,394.9,181.6,396.1 M566.1,391.1c7.9,0.2,12.3-3.1,18.1-4.9
			c-1.4-5.3-1.4-3.4,1.7-6.6c-5.9-1.4-8,3.7-11.5,0C572.4,384.2,567.3,385.8,566.1,391.1 M130.4,397.7c-1.2-4.9-1.9-10.2-4.9-13.2
			c-7,0.4-10.7-2.5-16.5-3.3C107.7,395.1,123.8,391.7,130.4,397.7 M348.2,394.4c5.1,1.2,3.2-4.5,8.2-3.3c-0.1-4.8-0.6-9.3-6.6-8.2
			C350.9,388.3,348.8,390.6,348.2,394.4 M458.8,387.9c2.2,7.7-3.7,7.3-6.6,9.9c5.1,1.2,3.2,1.2,8.2,0c-0.2,4.1-0.2,8,1.7,9.9
			c1.8,0.1,4.2-0.8,1.7-1.7c-1-0.1-2-0.2-1.7-1.6c0.4-5.2,7.3-8.7,3.3-13.2c6.4,1.4,5.9-4,9.9-4.9c1.6,3.1-4.9,5.5,0,6.6
			c0.4-6.7,8.7,2.5,9.9-4.9c-5,2.3-14.3-10.4-19.8-1.7c2.4,3.8,5.2-3.2,4.9,3.3C464.5,388.9,464.3,385.1,458.8,387.9 M87.5,392.8
			c0.7-4.8,12.5,1.5,13.2-3.3C96.4,386.2,82.1,384.6,87.5,392.8 M146.9,389.5c4.1-0.3,5.1,2.6,8.2,3.3c-0.3-2.5,0.6-6.1-1.6-6.6
			C154.7,390.7,145.7,385,146.9,389.5 M335,396.1c-1.1,4.4,3.4,3.2,5,4.9c0.9-4.1,8.2-10.3,3.3-14.8
			C340.5,389.4,339.4,394.4,335,396.1 M150.2,399.4c6.7-4.4-5.4-1.9-9.9-6.6c-3.3,0-2.1,4.5-6.6,3.3c4.9,12.5,23,11.7,29.7,18.1
			C161.9,406.4,156.9,402.1,150.2,399.4 M158.4,394.4c5.2-1.9,4,2.6,6.6,3.3v-9.9h-4.9C160.2,390.7,159.7,393,158.4,394.4
			 M363.1,401c1.5-1.4,3.5-10.5,0-11.5C359.6,392.3,360,397.1,363.1,401 M439,396.1c5.7-1.4,5.7,2.5,3.3,4.9
			c2.3-0.1,3.6,0.8,4.9,1.7c0.7-5.8-5.4-13.2-8.2-9.9C441,393.1,440,394.6,439,396.1 M343.3,420.9c7.9,0.1,9.6-17.7,14.9-9.9
			c2.8-5.4,1-10.6,0-16.5c-6.4,1.9-9.3,7.2-14.9,9.9c3.6,8.6-4.9,11.4,1.7,14.8C343.2,419.1,340.8,420,343.3,420.9 M209.6,407.7
			c2.3-3.2,4.4-6.6,4.9-11.6c-5.6,1-8.5,4.7-16.5,3.3c-1.3,5.3-4.9,8.3-4.9,14.8c9.8-1.2,7.1-1.3,11.6,1.7c0.8-6.1,0.5-11,6.6-14.9
			C211.5,403.2,205.7,407.2,209.6,407.7 M303.7,453.9c15.5-20-6.3-43.9-14.9-56.1c-0.5,14.9-4.2,26.6-11.5,34.7
			c-0.7,4.6,6.1,1.6,6.6,5c-3.9,10.5,10.3,21.8,13.2,29.7C301.7,460.7,313.8,457.5,303.7,453.9 M374.7,409.3c1.8-1.7,6.2-9,1.7-11.6
			C377.2,402.1,369.5,406.1,374.7,409.3 M244.3,412.6c-1.9-5.2,2.6-4,3.3-6.6c-2.2,0-1.5-2.9-3.3-3.3
			C242.9,405.8,238.2,411.3,244.3,412.6 M432.4,404.3c1.3,8.2-5,8.8-1.6,14.8h11.5c0.4-1.3,0-3.2,1.7-3.3
			C443.4,408.8,439.5,404.9,432.4,404.3 M278.9,420.9c2.4-1.6,5.9-10.4,1.6-13.2C280.9,411.9,275.3,418.7,278.9,420.9 M470.4,417.5
			c-6.3-6,8.2-1.2,3.3-9.9c-0.4,3.4-7.3,0.5-8.2,3.3C464,415.3,469.5,421,470.4,417.5 M196.4,432.4c7-0.2,8.5-5.8,11.6-9.9
			C201.7,423.4,199.2,428.1,196.4,432.4 M204.7,419.2H198c-0.2,2.6,0.2,5.7-3.3,5c-0.4-2.9,1.7-8.3-3.3-6.6c0.3,9.9-5.2,11.3,0,19.8
			c2.2-2.8,4.4-5.5,3.3-11.6C200.1,425.7,203.6,423.7,204.7,419.2 M343.3,422.5c1,3.4-2,10.8,1.7,11.6c2.4-4.3,10.6-11.3,6.6-16.5
			C350.4,420.8,347.1,421.9,343.3,422.5 M378,432.4c3.5-2.7,8.6-11.9,0-13.2C376.2,420.9,374.5,431,378,432.4 M439,424.2
			c-0.2,5.1,5,4.9,9.9,4.9c-1.4-5.3,1.4-6.3,3.3-8.2C446.1,422.9,442.8,423,439,424.2 M208,427.5c2.9-1.5,8.2-0.6,9.9-3.3
			c-1.9-1.4-4.4-2.2-8.2-1.7C209.7,424.8,208.8,426.1,208,427.5 M231.1,491.8h4.9c3.3-10.4,7.8-19.7,8.3-33
			c6.8-1.8,13.3-17.3,28.1-16.5c-1.2-9.2-6.6-14.3-13.2-18.1c-10.3,4.5-14.7,23.8-24.8,23.1c0.8-4.3,9.1-5.6,5-9.9
			c-5.7-1.3-7,1.8-9.9,3.3c-0.5-2.2-2.4-3.2-1.7-6.6c-12.1,5.8-4.2,20-14.9,23.1c1.3,0.4,1.9,1.4,1.7,3.3c9.1-0.8,13-6.8,16.5-13.2
			c0,2.2,2.9,1.5,3.3,3.3c-10.4,3-8.5,20.2-16.5,13.2c-3.6,5.8-2.5,8.8-1.6,16.5c-2.5-0.5-6.9-7.1-8.3-3.3c3.3,2.6,8.4,8.2,11.6,1.7
			c0.1,2.9-0.4,5.1-1.7,6.6c3.3,2.7,12.6,5.9,14.9,0C233.1,488.3,230.9,488.9,231.1,491.8 M366.4,425.8c-1.8,7-5.3,12.3-5,21.5
			c6.5-1.2,8.9-6.5,11.6-11.6C367.4,435.9,372,425.7,366.4,425.8 M244.3,429.1c5.8,0.5-4.1,6.1,1.7,6.6c-0.3-4.2,8.4-7.9,4.9-9.9
			C252.1,430.3,243.1,424.6,244.3,429.1 M407.7,437.4c2.2-4.4,8.3,0.9,14.8-5c-3.4-0.5-0.4-7.3-4.9-6.6c-3.6,2.4,2.1,4-1.7,5
			c-3.4-0.9-3.5-2.6-1.6-5C404.9,424.9,405.4,434.2,407.7,437.4 M541.3,425.8c-4.3-0.5-7.1,0.6-6.6,5c7.1-0.9,10.2,0.5,13.2-1.7
			c-3.9-2.5-7.1,0.6-8.2-1.7C540.7,427.4,541.7,427.2,541.3,425.8 M386.2,432.4c-3.5,9.7-11.3,15.2-19.8,19.8
			c19.1-1.1,34.8-5.4,31.3-24.8h-4.9C395.8,433.4,392.7,432.5,386.2,432.4 M198,437.4c4.1,1.9,3,7.1,0,9.9c-3.9,0.7,0.9-7.5-4.9-5
			c-2.3,8.2-6.5,14.4-6.6,24.8c9.1-5.5,14.2-8.1,13.2-18.1c7.8-3.4,6.6-8.6,11.6-16.5C206.5,428.5,199.8,433.2,198,437.4
			 M325.1,450.6c4.7-2.5,8.1-6.2,13.2-8.2c1.1-6.3-3-11.7-6.6-8.3c-0.5,3.2,2.2,3.3,3.3,4.9c-4.5,1.2-3.3-3.3-6.6-3.3
			c0.7,5.2-9.1,8.4-5,11.6c0.5-1.5,4.5-7.2,5-3.3C327.5,445.5,321.6,450,325.1,450.6 M554.5,439c-1.1-6.1-14.7-8.3-19.8-4.9
			C542.7,432.7,553,444.8,554.5,439 M533.1,442.3c2.9,0.9,9.7-2,9.9,1.7c-9-0.4-4.7,7.4-11.5,1.7c-1,7.7,10,2.2,4.9,9.9
			c2.9,0.9,6.9,0.9,8.2,3.3c1,7.4,2.1,9.3,3.3,16.5c-13.8,2-22.1,13.9-19.8,23.1c2.2-3.3,5.4-5.6,9.9-6.6
			c-2.8,6.7-21.1,11.3-13.2,18.1c-5.3,1.3-9.8,3.4-13.2,6.6c30.4-5.5,66.7-30.7,42.9-61.1c0,0.9-1.3,1.9-1.6,0
			c0.2-6.1,6.4-0.1,6.6-3.3c-3.4-0.5-3.2-4.5-6.6-4.9c1.9,4.8,1,6.1-3.3,8.2c2.6-2.4,1.5-8.4,1.7-13.2c-6.9-1.4-17.1-8.1-21.4-6.6
			C532.7,436.1,533.5,438.6,533.1,442.3 M513.3,470.4c-14.2,5.5-18.4,24.7-6.6,36.3c-2.6,0.1-1.3,4.2-4.9,3.3
			c-0.6-6-2.9-10.3-5-14.9v4.9c-1.7,0-2-1.3-3.3-1.6c-1.6,7.2,6,13.7,1.7,18.1c-3.4-2.6-2.9-9.2-6.6-11.5c0,7.2-3,2.2-6.6,5
			c4.8,7,26.7,12.5,26.4,1.7c8.4,3.3,17.8-13.4,13.2-23.1c4.2-0.8,6.7-3.2,8.3-6.6c1.3-0.4,3.2,0,3.3-1.7c-6,1.1-6.3-3.6-11.6-3.3
			c-0.3,1.9,0.3,4.7-1.7,5C515.9,474.5,519.7,480.3,513.3,470.4 M523.2,442.3c3.1-0.1,3.5,1.3,1.7,3.3c7.4,0.8,4.3-7.6,1.7-9.9
			C525.6,438.2,524,439.9,523.2,442.3 M424.2,445.6c-11.3,7.9-22.3,17.4-41.3,13.2c-2.4,4.9,1.4,5.6-1.7,9.9
			c8.2,0.7,0.9-4.9,4.9-6.6c-0.5,3.8,4.8,1.8,5,4.9c-4.5,4.3-14,3.6-14.9,11.6c7.5-1.2-2.5,4.5,4.9,3.3c5.6-0.7-2.5-9,1.7-8.2
			c3.4,5.4,6.3,11.3,9.9,16.5c-0.9,0-1.9,1.3,0,1.7c2.3-2.1,0.7-8.1,4.9-8.3c0.4,3.1-1.9,3.6-1.6,6.6c3.5,0.1,11.3-3.8,6.6-6.6
			c-1.9,5.7-8-9.5-3.3-14.8c0.2,9.7,6.3,13.5,9.9,19.8c-1.3,0.4-1.9,1.4-1.7,3.3c-1.5-1-6.1-3.9-4.9,1.6
			c14.3-2.7,32.5-17.5,26.4-29.7c2.3-0.1,3.6,0.8,5,1.7c0.1-9.7,7-18.9-3.3-24.8c3,10.4-2.5,4.6-4.9,11.5c1.3-6.8-2.5-8.5-1.7-14.8
			c-10.8-0.8-16.5,4.3-16.5,9.9c-2.7,0-0.9-4.6-3.3-5c-5.7,7-17.9,7.4-24.8,13.2C400.1,461.9,412.7,447.1,424.2,445.6 M480.3,453.9
			c5.1-1.2,3.2-1.2,8.3,0c1.6-3.1-4.9-5.5,0-6.6c2.5,2.5,0.5,9.4,6.6,8.2c2.8-7.8,5.6-12.1,9.9-14.8c-3.1-0.4,0.9-2.7-1.6-3.3
			C495.1,440.6,485,443.3,480.3,453.9 M117.2,445.6c4.6-4.8-6.9-2.5-8.3-1.7c5.9,1.3,15.3,7.8,19.8,5c-2.7,0.7-5.5-6.2-1.7-6.6
			c0.4,1.3,0.1,3.3,1.7,3.3c-0.1-3.1,1.3-3.5,3.3-1.7C129.5,435.1,121.6,445.8,117.2,445.6 M341.6,448.9c-0.3,4.1,0.8,6.8,3.3,8.2
			c0.8-2.9,1.8,0.7,3.3,1.7c0.4-2.3,3.6-1.9,5-3.3c1.4-4.4-4-10-5-6.6c1.3,0.4,1.9,1.4,1.7,3.3c-1.7,0-2,1.3-3.3,1.7
			c1.9-2.4,1.9-4.2,0-6.6c3.4-1,7.2-3.5,1.6-5C348.5,447,343.6,446.4,341.6,448.9 M216.2,564.4c-8.1-6.6-7.2-23.9-8.3-34.6
			c-0.7,2.1-2.1,3.4-5,3.3c2.5-6.3,7.9-18.5,6.6-23.1c-9.5,12.4-15.1,49.3,0,54.5c-4-0.7-3.6,3-8.3,1.7c-4.9-10.1-1.5-16.6-4.9-23.1
			c-0.3,1.9,0.3,4.7-1.7,5c-4.2-2.9,4.9-11.6,0-14.9c-0.4,1.3,0,3.3-1.7,3.3c-2.4-6.9-1.2-17.4-8.2-19.8
			c1.1,92.8,20.3,173.6,23.1,275.6c17.5,16,63.2,16.4,85.8,5c3.6-54.2-7.3-124.7,3.3-181.5c-6.6,1.2-6.6,1.2-13.2,0
			c-0.4,8.7,3.1,21.7-3.3,28.1c0.9-9.9-7.8-8.6-6.6-14.9c-7.1,4.2,1.3,11-1.6,14.9c-6.4-1.4-2.1-5.8-5-8.3c-1.8,1.5-0.5,6.1-5,4.9
			c0.3-5.2-1.1-12.1,1.7-14.9c-2.8-0.6-4.2,2.5-4.9,0c2.1-6.3,6.9-6.4,6.6-11.6c-4.1,3.6-7.1,3.2-5,6.6
			c-13.8-5.2-10.6,15.6-14.8,21.5c-3.8-2.4,3.2-5.2-3.3-4.9c0.3,4.7,0.2,9-5,8.2c2.5-16.2,12.5-33.3,14.8-54.5
			c-1.9-0.3-4.7,0.3-4.9-1.7c0.8-11.3-2.9-19.8-9.9-23.1c3.6-2.9,4.8-5.7-1.7-3.3c3-4.2-2.2-11.2-4.9-14.9c2-0.2,3.9-0.5,3.3-3.3
			c-2.3-1-0.3-6.4-3.3-6.6c-1.7,2.6-1.6,6.6-5,3.3c6.6-1.6,3.6-12.9,9.9-14.9c0.2,4.9-4.8,11.7,1.7,13.2c-0.9-7-0.1-9,5-16.5
			c-4.1-2.2-8,3.7-8.3,0c1.1-6.1,9.8-5.6,14.9-3.3c-2.6-5.9,5.6-1,4.9-5c-2.8,0.1-4.2-1.3-4.9-3.3c4.5,0.7,7.7,1.6,9.9,0
			c-7.2-2.4,1.7-3.7,0-9.9c-3.1-3.2-6-0.5-9.9,0c0.5-3.4,4.5-3.2,4.9-6.6c-2.9-0.9-6.9-0.8-8.2-3.3c2.4-0.9,8.5,1.9,8.2-1.7
			c-3.2-3-4.7-10.6,0-13.2c-0.3,8.6,4.5,12,9.9,14.9c1.9-5.6,3.3-2.6,1.7-9.9c-7.7-1.5,1.1,5.4-3.3,5c-0.2-3.1-5.5-1.2-4.9-5
			c6.9-1.1-1.6-7.5,4.9-8.2c2.7,0,0.9,4.6,3.3,4.9c4.5-8.4-7.6-7.3,0-13.2c6.6,1.7,0.1,25.1,9.9,18.1c-7.6,0,1.4-4.3,3.3-5
			c-4.3,6.6,1.1,1.9,3.3,5c-2.3,2.7-1.4,8.5-4.9,9.9c4.2-9.2-5.3-0.6-6.6-6.6c2.1,6.4,4.8,8.5,5,13.2c0.8-2.8,5.2,4.6,9.9,3.3
			c1.2-5-2.8-4.9-1.6-9.9c3.1-0.4,3.6,1.9,6.6,1.7c-0.9-5.8,5.8-4.1,4.9-9.9c-2.8-14.3-10.9-28.7-21.5-39.6
			c-29.3,2.9-25.1,29.2-36.3,49.5c4.2,0.2,5.8,3,8.3,4.9c-5.1-0.4-7.4-3.6-11.6-4.9c-2.4,5.4-3.7,4.1-9.9,3.3
			c-6.6,9.3-8.3,30.7-6.6,42.9c3.8,2.3,6.2-4.3,6.6,0c-4.7,1.6-1.1,5.5-3.3,6.6c-1.7,0-2-1.3-3.3-1.6c-1.8,4.2,5,7.9,0,9.9
			c-2.7,0-0.9-4.6-3.3-5C212.7,557.1,221.5,560.6,216.2,564.4 M500.1,455.5c-0.4-1.3-0.1-3.2-1.7-3.3c-0.1,2.8,1.3,4.2,3.3,5
			c0.5-3.8,4.4-3.8,6.6-1.7c0.2-4.1-0.9-6.8-3.3-8.2c-0.4,1.3-1.4,1.9-3.3,1.7C501.9,453,504.9,454.1,500.1,455.5 M521.5,458.8
			c-2.4,0.9-4,2.6-5,4.9c6.5-2.4,13.4,2.8,5,8.3c1.9-3.4-2.6-7.9-3.3-3.3c1.9,0.3,1.8,2.6,1.7,5c5.1-4.1,10.3,7.5,14.9,3.3
			c-4.5,1.2,1.2-7.8-3.3-6.6c0,0.9-1.3,1.9-1.7,0c1.7,0,2-1.3,3.3-1.7c3.8-0.5,1.8,4.8,4.9,5c-0.4-4.8,3.1-5.7,4.9-8.3
			c-3-0.2-1-5.6-3.3-6.6c-6.6,1.1-10.1-0.9-9.9-6.6c-4.7,1.4-4.3-2.3-8.3-1.7c-0.8,2-1.8,3.8-3.3,5c1.2-5.4-3.3-2.5-3.3,0
			C518,455.7,520.5,456.6,521.5,458.8 M160.1,453.9c-0.5,4.4,2.3,5.4,6.6,5c0.5-4.3-0.6-7.1-5-6.6
			C161.7,453.2,161.5,454.2,160.1,453.9 M330.1,462.1c1.3,0.4,1.9,1.4,1.7,3.3c7.1,0,4.6-7.7,3.3-9.9
			C334.6,458.9,330.6,458.8,330.1,462.1 M379.6,468.7c-4.6-1.7,0.5-7,0-9.9c-8.4-4.9-21.8,0-28.1,6.6c2.9-0.1,5.1,0.4,6.6,1.6
			c0.2-1.9-0.3-4.7,1.6-4.9c1.3,5.3,3.5,9.8,6.6,13.2c2.5-6.5,1.9,0.3,6.6,0C369.1,466.9,375.7,474.3,379.6,468.7 M493.5,470.4
			c7.2,0.6,3.3-9.9,9.9-9.9c-4.1,0.2-5.1-2.6-8.3-3.3v3.3c-0.9,0-1.9,1.3,0,1.7c0-1.7,2.9-2.1,3.3,0
			C495.5,463.6,492.7,465.2,493.5,470.4 M209.6,468.7c3.3-3.8-0.4-1.8-1.7-5c1.5-0.5,8.4-3.3,3.3-4.9c-0.7,3.2-6.4,1.3-4.9,6.6
			C208.5,465.4,207.8,468.3,209.6,468.7 M470.4,463.8c1.3,5.3,2.3,10.9,4.9,14.9c8,0.9,7.7-6.6,13.2-8.2c2.2,4.1-6.5,5.2-1.7,6.6
			c0.7-3.2,6.4-1.3,5-6.6c-3.8-1.1-2.4-7.5-6.6-8.3c0.5,3.8-0.4,6.2-3.3,6.6c-1.1-5.2,0.2-6.7-1.7-8.3
			C478.6,463.2,473.3,462.3,470.4,463.8 M302,475.3c-1.5-5.5,8.1-8.3,3.3-11.6C302.2,465.7,294.8,473,302,475.3 M445.6,481.9
			c1.5-6.6,5.2-9.3,3.3-13.2c-0.4,1.3-1.4,1.9-3.3,1.7C447.9,475.6,441.5,480.3,445.6,481.9 M130.4,472c0.3-3.6-5.9-0.8-8.2-1.6
			c0.5,3.2-2.2,3.3-3.3,5C122.4,472.5,133.8,472.7,130.4,472 M496.8,472c-0.6,2.4-2,2.8,0,5c-9.4,1-27.2,7.6-16.5,18.2
			c-4.5,1.2-3.3-3.3-6.6-3.3c0.9,2.4-1.9,8.5,1.7,8.2c1.4-3.6,8.5-1.4,9.9-4.9c-4.7,1.7,1.3-10.9,3.3-13.2c0,2.7,0,5.5,0,8.3
			c3.4-3.4,5.8-4.8,6.6-11.6c7.2,5.7,7.6-12.3,6.6-6.6C501.3,474.6,498.1,473.2,496.8,472 M184.9,485.2c4.8-2.9,11-4.5,9.9-13.2
			h-4.9C189.6,477.8,185.1,479.4,184.9,485.2 M128.7,498.4c16.2-1.9,25.3-11,42.9-11.5c0-3.9-2.8-4.9-1.7-9.9
			C149.6,465.7,137.8,487.8,128.7,498.4 M411,501.7c16.3,4.1,44.2-5.4,26.4-26.4C430.5,486.1,419,492.1,411,501.7 M457.2,488.5
			c5-1,8.4-3.7,8.3-9.9c-2.1-0.1-2.3-2.1-5-1.7C455.7,480.2,459.1,485.3,457.2,488.5 M108.9,488.5c0.7-4.3,4.9-5,5-9.9
			C109.8,478.5,105.8,486.9,108.9,488.5 M112.2,486.9h6.6c-0.1-2.9,0.4-5.1,1.7-6.6C115.6,480.4,114.4,484,112.2,486.9 M201.3,493.5
			c0.7-2.1,2.1-3.4,5-3.3v9.9c4.9-2.3,10.4-5,16.5-1.6c-2-5.3,5.3-1.3,3.3-6.6c-9.5-2.5-16-11.4-23.1-11.6
			C202.3,483.5,196.9,490.5,201.3,493.5 M331.7,488.5c5.9-4.7-4.2,10.1,6.6,9.9c-0.3-5.7-4.8-11.8,3.3-13.2v-3.3
			c-1.9-0.2-3.8-2.9-5,0C342.9,487.9,324.3,481.3,331.7,488.5 M373,493.5c-2.4,0.6-2.8,2-5,0c0.1,7,3.8,3.9,6.6,1.7
			c-1.4-5.2-4.8-8.4-8.2-11.6c2.3,4.7-4.5,8.4,0,9.9c0.4-2.3,3.6-1.9,4.9-3.3C371.3,491.8,372.7,492.1,373,493.5 M371.4,498.4v8.3
			c3.1,0.4,3.6-1.9,6.6-1.7c0.4,1.3,0,3.3,1.6,3.3c2.8-3.6-1.2-11-4.9-13.2C374.5,497.1,374.2,499,371.4,498.4 M448.9,493.5
			c0.3-3,5.6-1,6.6-3.3c-0.3-2.5,0.6-6.1-1.6-6.6C453.1,486.8,445.8,491.8,448.9,493.5 M122.1,486.9c-1.9,6.5,7.7,8.8,8.2,3.3
			c-5.9,2.6-1-5.6-4.9-4.9C125.1,486.5,124.1,487.1,122.1,486.9 M378,493.5c2.5,0.9,6,9.1,9.9,3.3c-6.7-2.2-0.3-4.2,0-8.3
			c-1.7,0-2-1.3-3.3-1.6C384.4,491.1,378.1,489.2,378,493.5 M467.1,498.4c-0.4-4.9,4.6-10.1-1.6-11.5
			C459.1,490.4,460.9,495.9,467.1,498.4 M186.5,500.1c7.7-1.4-2.3,4.3,3.3,5c1.3-4.2,4-7,8.2-8.2v-8.3
			C189.7,487.9,187.5,493.4,186.5,500.1 M204.7,498.4c-2-0.4-1-1.8,0-3.3c-4.1,2.3-10.8,6.9-13.2,13.2c-2.5,6.5,2.2,27.9,4.9,16.5
			c-3.3,2.1,5.7-11.5-3.3-13.2c2.2,0,1.5-2.9,3.3-3.3c2.3,0.1,1,11.9,3.3,6.6c0.4-1.3,0.1-3.3,1.7-3.3c0.1,1,0.3,1.9,1.6,1.6
			C204.2,500.7,197,502.2,204.7,498.4 M450.6,495.1c-1.5,3.5-2.6,7.3-4.9,9.9c8-1.4,8.5,4.7,16.5,3.3c0-3.3,4.5-2.1,3.3-6.6
			C458.7,500,460.8,495.5,450.6,495.1 M320.2,510c0.7-3.7,2.9-5.9,6.6-6.6c-0.5,2.2-2.3,3.2-1.7,6.6c7.5,1.5,6.7-5.4,8.3-9.9
			c-4.2,0.8-9.4-5.8-11.6-1.6C331.3,499.4,313.3,506.5,320.2,510 M361.4,506.7c5.6,2.5,9.4-9.5,3.3-8.3
			C366.2,503.7,362.2,503.5,361.4,506.7 M206.3,510c0.7-5.4,6.9-5.2,8.3-9.9C209.2,499.8,202.4,506.5,206.3,510 M353.2,513.3
			c7.8,3.3,5.7-11.8,3.3-13.2C356,504.5,354.1,505.9,353.2,513.3 M475.3,511.6c7,0.4,4.6-8.6,8.3-11.6
			C475.9,499,474.3,504,475.3,511.6 M404.4,521.5c2.8-1.6,4.2-4.6,3.3-9.9c-4.1,2.1-6.9-4.8-8.3,0C403,513,400.8,520.1,404.4,521.5
			 M417.6,511.6c-2.4,0.9-8.5-1.9-8.2,1.6c3.2,8.2-8.7,11.7-9.9,21.5c-1,7.8,5.4,14.9,3.3,21.5c-6-4.4-1.1-25-8.3-23.1
			c-0.5-6.1,10.2-9.5,4.9-14.8c-3.1,4.5,2-3.5-1.7-5c-5.9-0.4-6.1,5-11.6,5c-1,5.9,1.9,8,3.3,11.6c-10.7-3-10.7,4.7-13.2,9.9
			c-2.8-4.2,1.9-5.8-1.7-8.3c-10.3,7-2.1,17.5-1.6,24.8c2.1-2.8,3.4-6.5,8.2-6.6c1.1,3.6-4.7,5.2,1.7,4.9c0.9-2.4-1.9-8.5,1.7-8.2
			c3.2,5.9-0.6,6-1.7,11.5c8.1,0.2,7.9,17.4,13.2,14.9c-2.5-1.4-2.4-5.3-3.3-8.3c7.3-0.9,10.2,0.7,9.9,3.3c3.2-1.1-0.4-9.2,3.3-9.9
			c6.4,13.7,13.1-2.2,26.4,0c0.5-10.5-7.3-12.1-3.3-21.5c0,3.9,2.8,4.9,1.7,9.9h6.6c-1.7-11.1-2.3-21.1-11.5-33
			c-3.4,4.6,6.7,14.8-1.7,19.8C423.6,519.4,418.7,518.3,417.6,511.6 M297.1,519.9c-1.9-1.9-5.8-1.9-9.9-1.6c-0.8,5.2,3,5.8,1.7,11.6
			h3.3c3.6-5.4-0.2-3.1-1.6-5c3.1-0.4-0.9-2.7,1.6-3.3c0.4,2.9,2.8,3.8,6.6,3.3c0.3-5.2,0.1-10-3.3-11.6
			C295.1,516.4,297.3,516.9,297.1,519.9 M216.2,524.8c0-4.4,0.9-9.7-3.3-9.9C213.9,518.3,210.2,526.4,216.2,524.8 M335,521.5
			c5.7-2.2,7.8,7.4,11.6,1.7C345.7,519.2,336.7,514.9,335,521.5 M245.9,544.6c7.7,0.4-2.1-6.4,4.9-6.6c3.1,0.2,1.1,5.5,4.9,5
			c-0.3-5.3-2-9.8,0-14.9c-4,0.7-3.6-3-8.2-1.7C244.2,534.4,248.5,539.6,245.9,544.6 M275.6,544.6c-3-5.5,2.5-14.6-6.6-16.5
			c-3.7,6.2-3.9,7.4,1.7,8.2c-0.3,1.9-1.8,2.6-3.3,3.3c-2.1-0.1-2.3-2.1-5-1.7c-2.9,8.5-7.4,9.6,0,13.2c-3.4-2.9-3.2,1.2-6.6-1.6
			c-2.6,5.3,0.2,9.4,6.6,9.9c-1.3-11.4,9.6-3.2,5-11.6C272.2,546.4,273.5,545.5,275.6,544.6 M364.7,536.4c5.6,0.1,6.2-4.8,8.3-8.2
			C368.2,528.9,365.5,531.6,364.7,536.4 M316.9,543c4.5-1.6,7.5-4.6,9.9-8.2c-1.3-0.4-1.9-1.4-1.7-3.3c-1.9-1.9-5.8-1.9-9.9-1.6
			C312.5,537.7,319.9,539.8,316.9,543 M359.8,556.2c4.1-2.2,5.2,6.5,6.6,1.7c-2-12.2-1.3-7.7-3.3-14.9
			C359.1,547.5,361.6,548.8,359.8,556.2 M343.3,561.1c-2.8-6-5.1-12.5-9.9-16.5c-0.5,3.4-4.5-2.4-4.9,3.3c5.5,0.9,7.2,1.4,4.9,6.6
			C337.3,555.1,342.1,563.3,343.3,561.1 M278.9,557.8c-0.8-4,5.9-7.3,0-9.9C277.6,549.1,275.3,557.1,278.9,557.8 M344.9,556.2
			c9.6,0.1-1.8,12.4,8.3,13.2c0.7-8.3,4.4-12.1,1.6-19.8c-3.1,0.4-3.6-1.9-6.6-1.7C349.7,553.2,346.8,554.2,344.9,556.2
			 M320.2,589.2c4.1,2.2,5.2-6.5,6.6-1.6c-0.4,2.3-2.7,2.8-3.3,4.9c3.8,2.3,6.2-4.3,6.6,0c-0.1,2.6-4.2,1.3-3.3,5
			c7.3-0.3-0.8,4.7,3.3,6.6c2.3-0.1,3.6,0.8,4.9,1.7c13.5-16.4,7.5-60.7-18.2-42.9c1.2,8.7,11.3,8.5,13.2,16.5
			c-4.1,2.2-5.2-6.5-6.6-1.7C328.1,580.8,320.4,585.4,320.2,589.2 M359.8,577.6c-2.1-0.1-2.3-2.1-4.9-1.7c1.8,7.9-5.1,7-3.3,14.9
			c3.2-0.5,3.3,2.2,4.9,3.3c8-11.2,6.8-24.2,1.7-34.7C354.2,568.3,360.1,571,359.8,577.6 M407.7,569.4v3.3c0.1,1,0.2,2,1.7,1.7
			c0.3-2,1.8-1,3.3,0c0.3-2.5-0.6-6.1,1.7-6.6c0.1,1,0.2,2,1.6,1.7C412.3,560,410.4,574.9,407.7,569.4 M414.3,580.9
			c11.7,1.3,14.4-11.6,23.1-8.2c1.2-9.2-8.6-1.2-9.9-5c1.3-1.7,7.9-6.1,3.3-8.3C418.9,562.5,414.1,569.6,414.3,580.9 M262.4,566.1
			c1,2.9-4.8,6.8,0,8.3c0.3-0.6,2.2,3.5,8.3,6.6c-2.9-11.2,11.1-14.1,8.3-19.8C273.8,566.6,269.8,565,262.4,566.1 M381.3,571
			c-2.8-2.1-2-7.9-6.6-8.2C375.3,566.1,378.1,575.7,381.3,571 M254.2,580.9c2.7-2.9-1.5-8.2-3.3-11.5
			C249.1,571.3,250.1,579.8,254.2,580.9 M272.3,580.9c0.8,3.2-3.6,10.5,0,6.6c0.8-4.4,9.1-5.6,5-9.9c1.3-0.4,3.2,0,3.3-1.7
			c-2.3,0.1-3.6-0.8-4.9-1.6C272.4,578.6,277.8,584.7,272.3,580.9 M363.1,599.1c4.7-1.4,4.3,2.3,8.2,1.6c3.8-3.3,9.4-4.9,8.2-13.2
			c-7.6,2.5-13.2-12.2-11.5-8.3C366.8,585,360.8,586.2,363.1,599.1 M283.9,587.6c-14.2,7.4-9.8,16.3-1.7,18.1c-7-4-0.1,6.2,3.3,6.6
			C280.8,605.1,289,594.8,283.9,587.6 M288.8,613.9c2.9-3.1,1.2-10.9,1.7-16.5c-5.4,0.1-3.5,7.5-5,11.5
			C293.2,607.5,283.3,613.3,288.8,613.9 M394.5,600.7c-0.6-5-4.4-15.3-8.3-11.5C392.9,592.7,386.3,600.4,394.5,600.7 M389.5,609
			c-1.2-4.9-1.9-19-6.6-14.9C387.1,597.1,382.2,609.2,389.5,609 M331.7,617.2c-0.2,2-2.9,3.8,0,5c3.3-4.1-0.6-21.9-6.6-16.5
			C333.4,608.9,325.6,613.9,331.7,617.2 M343.3,617.2c-0.8-5.2,2.3-6.4,3.3-9.9C340.8,606.4,337,615.9,343.3,617.2 M356.5,635.4
			c-2.2-6-13.7-16.8-4.9-28.1C339.2,614.3,344.6,631.6,356.5,635.4 M252.5,612.3c-0.4-1.3-0.1-3.2-1.7-3.3c-1.5,1.4-3.5,10.5,0,11.6
			c0.4-1.3,0.1-3.3,1.7-3.3c0.1,1,0.2,2,1.6,1.7c-1.4-3.9,3.7-12.1,0-8.2C254.1,611.7,253.9,612.6,252.5,612.3 M392.8,620.6
			c2-6.5-6.3-11.1-8.3-8.3C389.3,613,388.5,619.4,392.8,620.6 M323.5,622.2c0.5-1,4.1-6.4,0-6.6c0.5,3.2-2.2,3.3-3.3,5
			c2.9,3.4,5.1,1.4,6.6,3.3c-2.1,0.7-3.4,2.1-3.3,4.9c2.2,0,1.5,2.9,3.3,3.3c-0.5-5.2,4.8,4.2,5-1.7c-2.8-0.7,0.3-2.1,0-5
			C327.9,624.8,327.3,618.2,323.5,622.2 M358.2,625.5c2.5,0,3.6-12.2-1.7-9.9C355.1,616.8,352.1,627,358.2,625.5 M336.7,620.6
			c0.7,4.3,4.5,14,8.3,9.9c-2.1-2.9-5.6-4.3-4.9-9.9c0.9,0,1.9-1.3,0-1.7C339.6,620.2,338.6,620.8,336.7,620.6 M373,633.8
			c-1.5-4.6-2.1-10-5-13.2C368.2,626.4,368.8,631.9,373,633.8 M351.5,645.3c-0.7-4,3-3.6,1.7-8.2c-5.3,2-1.3-5.3-6.6-3.3
			C350.5,639,346.2,642.1,351.5,645.3 M340,650.3c4.3,0.5,5.4-2.3,4.9-6.6H340V650.3z"/>
	</g>
</g>
</svg>
