<?xml version="1.0" encoding="utf-8"?>
<!-- Generator: Adobe Illustrator 19.1.0, SVG Export Plug-In . SVG Version: 6.00 Build 0)  -->
<svg version="1.1" xmlns="http://www.w3.org/2000/svg" xmlns:xlink="http://www.w3.org/1999/xlink" x="0px" y="0px"
	 viewBox="0 0 808 1260.6" style="enable-background:new 0 0 808 1260.6;" xml:space="preserve">
<style type="text/css">
	.st0{fill:#FF765E;}
	.st1{fill:#42210B;}
	.st2{fill:#754C24;}
	.st3{opacity:0.5;fill:url(#SVGID_3_);}
	.st4{fill:url(#SVGID_4_);}
	.st5{opacity:0.2;fill:#231F20;}
	.st6{fill:#231F20;}
	.st7{fill:url(#SVGID_5_);}
	.st8{opacity:0.7;fill:url(#SVGID_6_);}
	.st9{fill:url(#SVGID_7_);}
	.st10{opacity:0.7;fill:url(#SVGID_8_);}
	.st11{opacity:0.7;fill:url(#SVGID_9_);}
	.st12{opacity:0.4;fill:#B58B3C;}
	.st13{fill:url(#SVGID_10_);}
	.st14{fill:#F29D35;}
	.st15{fill:#FFFFFF;}
	.st16{fill:#803B2F;}
	.st17{fill:#BDA159;}
	.st18{fill:#FCD776;}
	.st19{fill:#74A588;}
	.st20{fill:#FDFAD2;}
	.st21{fill:#FDFAD0;}
	.st22{fill:#1B0F11;}
	.st23{display:none;}
	.st24{display:inline;}
	.st25{fill:#FFE5C6;}
	.st26{clip-path:url(#SVGID_12_);fill:#BF5947;}
	.st27{clip-path:url(#SVGID_12_);fill:#FFE5C6;}
	.st28{clip-path:url(#SVGID_14_);fill:#BF5947;}
	.st29{clip-path:url(#SVGID_14_);fill:#BDA159;}
	.st30{clip-path:url(#SVGID_16_);fill:#BF5947;}
	.st31{clip-path:url(#SVGID_16_);fill:#FCD776;}
	.st32{clip-path:url(#SVGID_18_);fill:#BF5947;}
	.st33{clip-path:url(#SVGID_18_);fill:#74A588;}
	.st34{fill:#42282F;}
	.st35{fill:#D6655A;}
	.st36{fill:#DC9C76;}
	.st37{fill:#757BA2;}
	.st38{fill:#5C4B51;}
	.st39{fill:none;stroke:#5C4B51;stroke-width:6;stroke-linecap:round;stroke-miterlimit:10;}
	.st40{fill:none;stroke:#5C4B51;stroke-width:6;stroke-linecap:round;stroke-linejoin:round;}
	.st41{fill:none;stroke:#5C4B51;stroke-width:6;stroke-linecap:round;stroke-linejoin:round;stroke-dasharray:0,12.3056;}
	.st42{fill:none;stroke:#5C4B51;stroke-width:30;stroke-linejoin:round;stroke-miterlimit:10;}
	.st43{fill:none;stroke:#FFFFFF;stroke-width:30;stroke-linejoin:round;stroke-miterlimit:10;}
	.st44{fill:none;stroke:#ABD25D;stroke-width:6;stroke-linejoin:round;}
	.st45{fill:#ABD25D;}
	.st46{fill:none;stroke:#5C4B51;stroke-width:6;stroke-linecap:round;stroke-linejoin:round;stroke-dasharray:0,11.8498;}
	.st47{fill:#5A2C18;}
	.st48{fill-rule:evenodd;clip-rule:evenodd;fill:#35591C;}
	.st49{opacity:0.3;fill:url(#SVGID_19_);}
	.st50{opacity:0.3;fill:url(#SVGID_20_);}
	.st51{fill:url(#SVGID_21_);}
	.st52{fill:url(#SVGID_22_);}
	.st53{opacity:0.3;}
	.st54{opacity:0.9;}
	.st55{fill:#D3D3D3;}
	.st56{opacity:0.9;fill:#989898;}
	.st57{fill:#AAAAAA;}
	.st58{fill:#BFBFBF;}
	.st59{fill:#E4E4E4;}
	.st60{fill:none;stroke:#BABABA;stroke-width:0;}
	.st61{fill:#F4F4F4;}
	.st62{fill:url(#SVGID_23_);}
	.st63{fill:url(#SVGID_24_);}
	.st64{fill:#5A6D81;}
	.st65{fill:#AEBFC2;}
	.st66{fill:#424242;}
	.st67{fill:#BEBDB8;}
	.st68{fill:#816F64;}
	.st69{fill:#716764;}
	.st70{fill:#322E32;}
	.st71{fill:#73655D;}
	.st72{fill:#D9D9D7;}
	.st73{fill:#716463;}
	.st74{fill:#655752;}
	.st75{fill:#806F6B;}
	.st76{fill:#595554;}
	.st77{fill:#746D68;}
	.st78{fill:#494A4C;}
	.st79{fill:#363D42;}
	.st80{fill:#262733;}
	.st81{fill:#E6EEF4;}
	.st82{fill:#7C8C9A;}
	.st83{fill:#8A9693;}
	.st84{fill:#E4ECEF;}
	.st85{fill:#EDF3F9;}
	.st86{fill:#EDF1F4;}
	.st87{fill:#ECF3F8;}
	.st88{fill:#F8FBFD;}
	.st89{fill:#96A9AB;}
	.st90{fill:#717D79;}
	.st91{fill:#6983A4;}
	.st92{fill:#637891;}
	.st93{fill:#5D7690;}
	.st94{fill:#6886B1;}
	.st95{fill:#5E8CC7;}
	.st96{fill:#6D5E56;}
	.st97{fill:#61504B;}
	.st98{fill:#76675B;}
	.st99{fill:#2B282A;}
	.st100{fill:#1D1A1A;}
	.st101{fill:#201D20;}
	.st102{fill:#4C4E54;}
	.st103{fill:#393B36;}
	.st104{fill:#202325;}
	.st105{fill:#2D2726;}
	.st106{fill:#30302E;}
	.st107{fill:#353739;}
	.st108{fill:#645954;}
	.st109{fill:#745F51;}
	.st110{fill:#3F434B;}
	.st111{fill:#594740;}
	.st112{fill:#605654;}
	.st113{fill:#6A5955;}
	.st114{fill:#CCC9C4;}
	.st115{fill:#B0AFAD;}
	.st116{fill:#76756A;}
	.st117{fill:#634F43;}
	.st118{fill:#665852;}
	.st119{fill:#6F5C54;}
	.st120{fill:#6C5A57;}
	.st121{fill:#74665B;}
	.st122{fill:#C1C1BA;}
	.st123{fill:#4F504E;}
	.st124{fill:#3E3F3C;}
	.st125{fill:#2F1D19;}
	.st126{fill:#65544E;}
	.st127{fill:#7E6F64;}
	.st128{fill:#D1CEC8;}
	.st129{fill:#DFDED9;}
	.st130{fill:#65544F;}
	.st131{fill:#60504D;}
	.st132{fill:#705D50;}
	.st133{fill:#79685C;}
	.st134{fill:#7C695D;}
	.st135{fill:#605250;}
	.st136{fill:#71615A;}
	.st137{fill:#64534A;}
	.st138{fill:#776862;}
	.st139{fill:#655247;}
	.st140{fill:#675546;}
	.st141{fill:#695A5A;}
	.st142{fill:#D8E1EC;}
	.st143{fill:#F2F5F7;}
	.st144{fill:#DAE3EC;}
	.st145{fill:#E4EBF4;}
	.st146{fill:#EEF1F7;}
	.st147{fill:#FAFBFC;}
	.st148{fill:#5986C4;}
	.st149{fill:#252226;}
	.st150{fill:#484C4D;}
	.st151{fill:#5F514F;}
	.st152{fill:#736154;}
	.st153{fill:#846F5E;}
	.st154{fill:#544853;}
	.st155{fill:#5F5047;}
	.st156{fill:#252220;}
	.st157{fill:#665951;}
	.st158{fill:#826C59;}
	.st159{fill:#726357;}
	.st160{fill:#695D57;}
	.st161{fill:#7C776E;}
	.st162{fill:#584F4D;}
	.st163{fill:#766962;}
	.st164{fill:#5B5656;}
	.st165{fill:#7D6F65;}
	.st166{fill:#706B70;}
	.st167{fill:#70625B;}
	.st168{fill:#536174;}
	.st169{fill:#8192A9;}
	.st170{fill:#6E797E;}
	.st171{fill:#F8F9F9;}
	.st172{fill:#A0B4C6;}
	.st173{fill:#E8F1F5;}
	.st174{fill:#EEF6FA;}
	.st175{fill:#E5EEF3;}
	.st176{fill:#EBEEEB;}
	.st177{fill:#9AA39E;}
	.st178{fill:#EDF5F9;}
	.st179{fill:#9EB0BA;}
	.st180{fill:#19222D;}
	.st181{fill:#739DD2;}
	.st182{fill:#272429;}
	.st183{fill:#232125;}
	.st184{fill:#35393A;}
	.st185{fill:#3F4143;}
	.st186{fill:#515152;}
	.st187{fill:#586B80;}
	.st188{fill:#8C9594;}
	.st189{fill:#637684;}
	.st190{fill:#18171E;}
	.st191{fill:#8C9AAC;}
	.st192{fill:#EEF5FA;}
	.st193{fill:#688D9B;}
	.st194{fill:#687D8A;}
	.st195{fill:#67798A;}
	.st196{fill:#586C7F;}
	.st197{fill:#677479;}
	.st198{fill:#727877;}
	.st199{fill:#758A9C;}
	.st200{fill:#7C8582;}
	.st201{fill:#92A3AE;}
	.st202{fill:#A1B2BB;}
	.st203{fill:#EBF3F9;}
	.st204{fill:#6C7F97;}
	.st205{fill:#6B7D90;}
	.st206{fill:#6B7880;}
	.st207{fill:#869AA4;}
	.st208{fill:#8FA1A8;}
	.st209{fill:#657678;}
	.st210{fill:#D0DBDC;}
	.st211{fill:#8C939A;}
	.st212{fill:#6F9AD1;}
	.st213{fill:#5B7593;}
	.st214{fill:#5F788F;}
	.st215{fill:#4B6A8D;}
	.st216{fill:#6A97CF;}
	.st217{fill:#5E7187;}
	.st218{fill:#445C70;}
	.st219{fill:#5483C2;}
	.st220{fill:#5F6A73;}
	.st221{fill:#475563;}
	.st222{fill:#566169;}
	.st223{fill:#65544C;}
	.st224{fill:#715E54;}
	.st225{fill:#665652;}
	.st226{fill:#625145;}
	.st227{fill:#544544;}
	.st228{fill:#564945;}
	.st229{fill:#7C706B;}
	.st230{fill:#746057;}
	.st231{fill:#7F6A5A;}
	.st232{fill:#665A57;}
	.st233{fill:#786B66;}
	.st234{fill:#685F5E;}
	.st235{fill:#6C5B52;}
	.st236{fill:#655852;}
	.st237{fill:#7C7271;}
	.st238{fill:#86766D;}
	.st239{fill:#6E625F;}
	.st240{fill:#847B79;}
	.st241{fill:#28262B;}
	.st242{fill:#282A35;}
	.st243{fill:#281714;}
	.st244{fill:#6B584D;}
	.st245{fill:#574A48;}
	.st246{fill:#212026;}
	.st247{fill:#736052;}
	.st248{fill:#7B7275;}
	.st249{fill:#8D8482;}
	.st250{fill:#DCE3EB;}
	.st251{fill:#819FAE;}
	.st252{fill:#D8E0E6;}
	.st253{fill:#354C5C;}
	.st254{fill:#4A4E53;}
	.st255{fill:#786759;}
	.st256{fill:#383731;}
	.st257{fill:#393D41;}
	.st258{fill:#43433E;}
	.st259{fill:#68675C;}
	.st260{fill:#383838;}
	.st261{fill:#252726;}
	.st262{fill:#6D584C;}
	.st263{fill:#745F52;}
	.st264{fill:#685A50;}
	.st265{fill:#68564F;}
	.st266{fill:#7C6657;}
	.st267{fill:#69564D;}
	.st268{fill:#7B604E;}
	.st269{fill:#786352;}
	.st270{fill:#6A5E57;}
	.st271{fill:#635C61;}
	.st272{fill:#7F7363;}
	.st273{fill:#D2D0C9;}
	.st274{fill:#7E6E60;}
	.st275{fill:#3F303A;}
	.st276{fill:#3F3949;}
	.st277{fill:#3B3C4C;}
	.st278{fill:#D0DBE8;}
	.st279{fill:#4E536B;}
	.st280{fill:#BFC7CF;}
	.st281{fill:#49343C;}
	.st282{fill:#51616F;}
	.st283{fill:#CDCED1;}
	.st284{fill:#3F2C37;}
	.st285{fill:#3C3746;}
	.st286{fill:#E9E7EA;}
	.st287{fill:#7C889A;}
	.st288{fill:#CCD9E6;}
	.st289{fill:#726561;}
	.st290{fill:#6A5A55;}
	.st291{fill:#60554F;}
	.st292{fill:#292223;}
	.st293{fill:#454547;}
	.st294{fill:#303032;}
	.st295{fill:#1B0C0D;}
	.st296{fill:#3A4141;}
	.st297{fill:#75645A;}
	.st298{fill:#7C716D;}
	.st299{fill:#645142;}
	.st300{fill:#675C58;}
	.st301{fill:#837464;}
	.st302{fill:#71645C;}
	.st303{fill:#5B4E4C;}
	.st304{fill:#6D6564;}
	.st305{fill:#847560;}
	.st306{fill:#2B1A18;}
	.st307{fill:#6B5548;}
	.st308{fill:#6A5D53;}
	.st309{fill:#655858;}
	.st310{fill:#66595C;}
	.st311{fill:#6A686C;}
	.st312{fill:#5E514A;}
	.st313{fill:#90A2AE;}
	.st314{fill:#5C676A;}
	.st315{fill:#3F2D35;}
	.st316{fill:#5B4140;}
	.st317{fill:#413743;}
	.st318{fill:#422C38;}
	.st319{fill:#EBEEEE;}
	.st320{fill:#7F9BA5;}
	.st321{fill:#DDDEE1;}
	.st322{fill:#8A9FA2;}
	.st323{fill:#708994;}
	.st324{fill:#F2F4F6;}
	.st325{fill:#CECED2;}
	.st326{fill:#B4BDC6;}
	.st327{fill:#D1D1D4;}
	.st328{fill:#87A4AC;}
	.st329{fill:#F5F8F9;}
	.st330{fill:#8D9CAA;}
	.st331{fill:#7698A3;}
	.st332{fill:#F9FBFC;}
	.st333{fill:#D3DAD6;}
	.st334{fill:#638291;}
	.st335{fill:#EFF6FB;}
	.st336{fill:#EDF5F8;}
	.st337{fill:#7B827F;}
	.st338{fill:#697371;}
	.st339{fill:#7E94A1;}
	.st340{fill:#7F8B93;}
	.st341{fill:#4B5053;}
	.st342{fill:#766358;}
	.st343{fill:#775E4D;}
	.st344{fill:#64544D;}
	.st345{fill:#6A5041;}
	.st346{fill:#766155;}
	.st347{fill:#66564F;}
	.st348{fill:#5F585B;}
	.st349{fill:#6D564A;}
	.st350{fill:#6F89A8;}
	.st351{fill:#2B4661;}
	.st352{fill:#6B7C8A;}
	.st353{fill:#E9F0F5;}
	.st354{fill:#E6EDF2;}
	.st355{fill:#8796AD;}
	.st356{fill:#616B72;}
	.st357{fill:#3F362D;}
	.st358{fill:#50585D;}
	.st359{fill:#5C6565;}
	.st360{fill:#554F4B;}
	.st361{fill:#7D8697;}
	.st362{fill:#E1E5E8;}
	.st363{fill:#F1F5F7;}
	.st364{fill:#4B433B;}
	.st365{fill:#453930;}
	.st366{fill:#535955;}
	.st367{fill:#847F7E;}
	.st368{fill:#6E707E;}
	.st369{fill:#7D91A0;}
	.st370{fill:#95A3AD;}
	.st371{fill:#161E2C;}
	.st372{fill:#1B252D;}
	.st373{fill:#2F3840;}
	.st374{fill:#6F7C96;}
	.st375{fill:#6E809A;}
	.st376{fill:#4A5860;}
	.st377{fill:#4B5E6E;}
	.st378{fill:#6F8DBD;}
	.st379{fill:#D8DEDD;}
	.st380{fill:#BFCACC;}
	.st381{fill:#141B23;}
	.st382{fill:#DFE6EA;}
	.st383{fill:#E4EDF1;}
	.st384{fill:#4B678C;}
	.st385{fill:#7289AB;}
	.st386{fill:#4A6387;}
	.st387{fill:#374C70;}
	.st388{fill:#456386;}
	.st389{fill:#426188;}
	.st390{fill:#556477;}
	.st391{fill:#3C4D56;}
	.st392{fill:#7185A0;}
	.st393{fill:#414039;}
	.st394{fill:#4B4E4E;}
	.st395{fill:#697280;}
	.st396{fill:#766456;}
	.st397{fill:#7C6D5F;}
	.st398{fill:#6F5D55;}
	.st399{fill:#6A584C;}
	.st400{fill:#786353;}
	.st401{fill:#615455;}
	.st402{fill:#82746E;}
	.st403{fill:#716050;}
	.st404{fill:#847268;}
	.st405{fill:#544540;}
	.st406{fill:#766255;}
	.st407{fill:#18181E;}
	.st408{fill:#745C4A;}
	.st409{fill:#776456;}
	.st410{fill:#755F4D;}
	.st411{fill:#5E514E;}
	.st412{fill:#867262;}
	.st413{fill:#605151;}
	.st414{fill:#6F5F58;}
	.st415{fill:#49494C;}
	.st416{fill:#66544C;}
	.st417{fill:#66584E;}
	.st418{fill:#63534C;}
	.st419{fill:#594A46;}
	.st420{fill:#5D4B40;}
	.st421{fill:#766053;}
	.st422{fill:#5A4740;}
	.st423{fill:#38232F;}
	.st424{fill:#3B2733;}
	.st425{fill:#464753;}
	.st426{fill:#EFF1F2;}
	.st427{fill:#EEEFF0;}
	.st428{fill:#6E5D4D;}
	.st429{fill:#46494E;}
	.st430{fill:#302823;}
	.st431{fill:#6D6969;}
	.st432{fill:#292727;}
	.st433{fill:#6C5E54;}
	.st434{fill:#29292B;}
	.st435{fill:#1D1A14;}
	.st436{fill:#7A6659;}
	.st437{fill:#705C4C;}
	.st438{fill:#75655B;}
	.st439{fill:#675244;}
	.st440{fill:#8B7258;}
	.st441{fill:#614E44;}
	.st442{fill:#5A4741;}
	.st443{fill:#654E39;}
	.st444{fill:#786E73;}
	.st445{fill:#867363;}
	.st446{fill:#827467;}
	.st447{fill:#5E4B45;}
	.st448{fill:#C0BCC1;}
	.st449{fill:#EAEAEB;}
	.st450{fill:#EBEFF0;}
	.st451{fill:#5D4845;}
	.st452{fill:#CDCDD0;}
	.st453{fill:#C4C4C8;}
	.st454{fill:#B5BABF;}
	.st455{fill:#EDF0F2;}
	.st456{fill:#F1F6F7;}
	.st457{fill:#746459;}
	.st458{fill:#786F6B;}
	.st459{fill:#847466;}
	.st460{fill:#7E6C61;}
	.st461{fill:#362824;}
	.st462{fill:#7A6D65;}
	.st463{fill:#6D5B50;}
	.st464{fill:#6B5A52;}
	.st465{fill:#7A6D62;}
	.st466{fill:#6A5A50;}
	.st467{fill:#695A50;}
	.st468{fill:#87725D;}
	.st469{fill:#796B5F;}
	.st470{fill:#594E4F;}
	.st471{fill:#6E6566;}
	.st472{fill:#574947;}
	.st473{fill:#837161;}
	.st474{fill:#7B6D5B;}
	.st475{fill:#6A5C4C;}
	.st476{fill:#7B6758;}
	.st477{fill:#5F504B;}
	.st478{fill:#5F5051;}
	.st479{fill:#564A44;}
	.st480{fill:#745F4F;}
	.st481{fill:#D8DEE3;}
	.st482{fill:#C6C8CD;}
	.st483{fill:#C6C8CC;}
	.st484{fill:#D0D1D3;}
	.st485{fill:#F1F2F4;}
	.st486{fill:#F0F1F2;}
	.st487{fill:#F4F6F8;}
	.st488{fill:#EFF2F2;}
	.st489{fill:#BEC1C3;}
	.st490{fill:#AFAEB6;}
	.st491{fill:#1B2021;}
	.st492{fill:#A5B8BE;}
	.st493{fill:#5B7686;}
	.st494{fill:#768E95;}
	.st495{fill:#75939D;}
	.st496{fill:#5E7E8B;}
	.st497{fill:#708A97;}
	.st498{fill:#728E9D;}
	.st499{fill:#5A7680;}
	.st500{fill:#D6DFE5;}
	.st501{fill:#426A78;}
	.st502{fill:#4D727F;}
	.st503{fill:#D0D9DF;}
	.st504{fill:#ECF1F5;}
	.st505{fill:#725C51;}
	.st506{fill:#7E6E65;}
	.st507{fill:#83736B;}
	.st508{fill:#654D42;}
	.st509{fill:#60504C;}
	.st510{fill:#69564A;}
	.st511{fill:#5D4D48;}
	.st512{fill:#6D5545;}
	.st513{fill:#5D4F47;}
	.st514{fill:#685C5A;}
	.st515{fill:#5F453D;}
	.st516{fill:#5A4D47;}
	.st517{fill:#554843;}
	.st518{fill:#57453E;}
	.st519{fill:#6F5846;}
	.st520{fill:#6D5A4B;}
	.st521{fill:#534946;}
	.st522{fill:#534B4F;}
	.st523{fill:#564744;}
	.st524{fill:#5E7BA0;}
	.st525{fill:#1B1613;}
	.st526{fill:#717873;}
	.st527{fill:#68808D;}
	.st528{fill:#8792A4;}
	.st529{fill:#111E26;}
	.st530{fill:#5E6873;}
	.st531{fill:#BEC4CD;}
	.st532{fill:#748699;}
	.st533{fill:#0A131C;}
	.st534{fill:#E0E8ED;}
	.st535{fill:#394448;}
	.st536{fill:#7F6A5E;}
	.st537{fill:#7B6657;}
	.st538{fill:#604B41;}
	.st539{fill:#6B594D;}
	.st540{fill:#5A4941;}
	.st541{fill:#826F60;}
	.st542{fill:#776763;}
	.st543{fill:#5F4C45;}
	.st544{fill:#63534D;}
	.st545{fill:#7C6863;}
	.st546{fill:#736460;}
	.st547{fill:#523E36;}
	.st548{fill:#5E4C46;}
	.st549{fill:#5D4B45;}
	.st550{fill:#75695C;}
	.st551{fill:#7A6F68;}
	.st552{fill:#615B5A;}
	.st553{fill:#888483;}
	.st554{fill:#726864;}
	.st555{fill:#807061;}
	.st556{fill:#262225;}
	.st557{fill:#121115;}
	.st558{fill:#454649;}
	.st559{fill:#F2F5F5;}
	.st560{fill:#827165;}
	.st561{fill:#715F51;}
	.st562{fill:#726361;}
	.st563{fill:#837267;}
	.st564{fill:#796457;}
	.st565{fill:#625049;}
	.st566{fill:#624E40;}
	.st567{fill:#7F6E60;}
	.st568{fill:#716563;}
	.st569{fill:#7B7069;}
	.st570{fill:#D1D0C9;}
	.st571{fill:#73645A;}
	.st572{fill:#7A6859;}
	.st573{fill:#574943;}
	.st574{fill:#E6E4DF;}
	.st575{fill:#6E5F5A;}
	.st576{fill:#A5817A;}
	.st577{fill:#D9E2E7;}
	.st578{fill:#537781;}
	.st579{fill:#EAF1F6;}
	.st580{fill:#BBC5CF;}
	.st581{fill:#637C88;}
	.st582{fill:#547482;}
	.st583{fill:#E7EFF4;}
	.st584{fill:#8BA0AF;}
	.st585{fill:#A9B8C6;}
	.st586{fill:#F6F9FB;}
	.st587{fill:#ECF2F6;}
	.st588{fill:#A9B8C1;}
	.st589{fill:#F3F7FA;}
	.st590{fill:#F0F3F6;}
	.st591{fill:#B1C2CC;}
	.st592{fill:#AFC1CF;}
	.st593{fill:#90A1AF;}
	.st594{fill:#849BAB;}
	.st595{fill:#819DB0;}
	.st596{fill:#F2F5F9;}
	.st597{fill:#A4B7C4;}
	.st598{fill:#8298A8;}
	.st599{fill:#ABBCC8;}
	.st600{fill:#746256;}
	.st601{fill:#5D463A;}
	.st602{fill:#604537;}
	.st603{fill:#655757;}
	.st604{fill:#7F6B5D;}
	.st605{fill:#5C4735;}
	.st606{fill:#857B7C;}
	.st607{fill:#948C9A;}
	.st608{fill:#7B6654;}
	.st609{fill:#645A59;}
	.st610{fill:#716051;}
	.st611{fill:#695447;}
	.st612{fill:#655750;}
	.st613{fill:#6E645E;}
	.st614{fill:#75675E;}
	.st615{fill:#94928B;}
	.st616{fill:#7D6D5B;}
	.st617{fill:#2B2E35;}
	.st618{fill:#8A7461;}
	.st619{fill:#776354;}
	.st620{fill:#725E52;}
	.st621{fill:#675448;}
	.st622{fill:#675344;}
	.st623{fill:#776049;}
	.st624{fill:#8A7C72;}
	.st625{fill:#8F816F;}
	.st626{fill:#77655B;}
	.st627{fill:#6B5957;}
	.st628{fill:#605356;}
	.st629{fill:#675340;}
	.st630{fill:#3A3934;}
	.st631{fill:#7A6556;}
	.st632{fill:#807064;}
	.st633{fill:#6E6C5B;}
	.st634{fill:#6A584E;}
	.st635{fill:#5D5048;}
	.st636{fill:#61534E;}
	.st637{fill:#69554E;}
	.st638{fill:#27231E;}
	.st639{fill:#BDCAD4;}
	.st640{fill:#556F7C;}
	.st641{fill:#98A9B7;}
	.st642{fill:#94A9B7;}
	.st643{fill:#C2D0DA;}
	.st644{fill:#8BA4B5;}
	.st645{fill:#7F9BA8;}
	.st646{fill:#81736A;}
	.st647{fill:#908484;}
	.st648{fill:#5B473D;}
	.st649{fill:#5B4A3E;}
	.st650{fill:#675540;}
	.st651{fill:#584844;}
	.st652{fill:#59463C;}
	.st653{fill:#77614F;}
	.st654{fill:#5C4942;}
	.st655{fill:#563F35;}
	.st656{fill:#6E5C51;}
	.st657{fill:#5B4B40;}
	.st658{fill:#897864;}
	.st659{fill:#604B3F;}
	.st660{fill:#78614D;}
	.st661{fill:#67513E;}
	.st662{fill:#7E695C;}
	.st663{fill:#746355;}
	.st664{fill:#302F2D;}
	.st665{fill:#69524A;}
	.st666{fill:#8F796F;}
	.st667{fill:#7A6353;}
	.st668{fill:#685855;}
	.st669{fill:#41403E;}
	.st670{fill:#241412;}
	.st671{fill:#918580;}
	.st672{fill:#776355;}
	.st673{fill:#756763;}
	.st674{fill:#312A27;}
	.st675{fill:#665A53;}
	.st676{fill:#624C39;}
	.st677{fill:#816B61;}
	.st678{fill:#6B594F;}
	.st679{fill:#6A5647;}
	.st680{fill:#26130F;}
	.st681{fill:#6E5E55;}
	.st682{fill:#69584E;}
	.st683{fill:#766658;}
	.st684{fill:#5D4F48;}
	.st685{fill:#827468;}
	.st686{fill:#5C4C46;}
	.st687{fill:#7F7166;}
	.st688{fill:#7C6B62;}
	.st689{fill:#7B6B5E;}
	.st690{fill:#75675C;}
	.st691{fill:#7D6755;}
	.st692{fill:#918177;}
	.st693{fill:#877668;}
	.st694{fill:#68584D;}
	.st695{fill:#5E5047;}
	.st696{fill:#705E50;}
	.st697{fill:#594F4F;}
	.st698{fill:#69574C;}
	.st699{fill:#7B6B5D;}
	.st700{fill-rule:evenodd;clip-rule:evenodd;fill:#243C13;}
	.st701{fill-rule:evenodd;clip-rule:evenodd;fill:#052B03;}
</style>
<g id="Layer_3">
</g>
<g id="Layer_4">
</g>
<g id="Layer_1">
	<g id="Logo_Dark">
	</g>
</g>
<g id="Layer_5">
	<g id="Layer_6">
	</g>
</g>
<g id="Layer_7" class="st23">
</g>
<g id="Layer_8">
</g>
<g id="Layer_9">
	<g id="Logo_Dark_1_">
	</g>
	<g id="BoilerCamp_1_">
	</g>
	<g id="BoilerCamp">
	</g>
	<g id="BoilerCamp_2_">
		<path class="st700" d="M303.6,90c-4.9-4.7,5.8,1.1,10.3-2.6c-16.1-25.5-15.9-52.9-54-64.3c18.7-7.5,32.5,12.1,38.6,25.7
			c6.5-17.4,13.4-28.7,5.1-48.9c2.9,4.9,6.4,9,7.7,15.4c2.4-1.9,3.9-4.7,5.2-7.7c1.6,6.7-7,28.2,15.4,25.7c2.4,5.9,0.2,8.3,2.6,18
			c12.1-3.1-6-8.8,2.6-15.4c-2.1-6.5-10.6-6.6-15.4-10.3c7.2-4.5,22.1,5.2,25.7,12.9c5.7-0.3,1.1-10.9,2.6-15.4
			c10.4-1.5-1.3,7.6,2.6,15.4c4.1-2.9,12.4-14.8,7.7-18c5,0.7,12.4-4.7,15.4-12.9c6.1,3.9-5.9,13.5,7.7,7.7
			c-21.4,7.2-28.9,30.8-20.6,48.9c5.3-1.5,8.8-5,10.3-10.3c-9.8-0.8,1.5-5.2,5.1-12.9c7,2.3-5.9,5.8-5.1,10.3c6.4,0.4,8-4,10.3-7.7
			c0.8,7.8-11.4,24.6-23.2,28.3c-2.3,9.4,4.5,13.7,0,18c2.1-1.4,4.2-2.7,7.7-2.6c-1.2-2.3-2.3-4.6-5.2-5.1c2.3-7,9.5,5,10.3-5.1
			c6.1-1-1.4,11.7,7.7,7.7c4.8-3.6-7.3-30.9,7.7-30.9c-3.4,7.7-2.6,19.7-2.6,30.9c11.2-4.8,19.3-38.1,2.6-43.7
			c2.7-7.7,7.7-35.1,23.2-38.6c-5.7,10.6-13.5,19.1-15.5,33.4c0.4,3,4.7,2.2,7.7,2.6c-8.5,4.1-1.5,7.8-2.6,18
			c7.2,2.4,9.7,1.3,2.6,10.3c15.1-12.2,19.9-34.5,12.9-56.6c4.5,4.8,8-0.7,10.3-5.1c7.5,6.3-12.2,16.9-2.6,25.7
			c4.3-14.7,12.4-30.1,5.1-5.2c-0.1,4.4,1.9,6.7,5.1,7.7c-0.5,3.5-10.7,4.8,0,5.1c-13.3,16.3-19.6,24-30.9,41.2
			c7.1,2.7,26.7-4.1,28.3-15.4c-1.6-9.4-13,6.9-10.3-5.1c8.1,1.3,9.1-4.6,18-2.6c-15.2,4.8,2.4,12.1,5.1,0c3.2,0.6,2.6,5.1,0,5.1
			c0.5,2.9,2.6,1.4,2.6,0c-0.2,8.4-20.3,19.1-36,20.6c3.4,9.6-7.7,17.8,0,23.2c3.8-1.1-1-3.3,0-7.7c14.7,0.2,3.2,11.7,18,12.9
			c17.3-14.8,22.3-43.7,43.7-48.9c-0.9,3.4-4.5,4-5.1,7.7c9.8-0.5,9.8-10.8,20.6-10.3c-8.3,12.3-25.7,15.4-36,25.7
			c4.4,2.7,13.6-9.6,18-5.2c0.9,7.8-8.4,5.4-12.9,7.7c6.9,4.2,22.9-4.5,28.3-10.3c3.8,1.1-0.3,2.3,0,5.1c0.4,3,4.7,2.2,7.7,2.6
			c-5.4,3.7-16.4,4.8-23.2,7.7c11.4,1.4,10.7,15.3,2.6,20.6c1.1,6,11.4,6.9,5.1,12.9c-4.9-0.3-1.8-8.5-7.7-7.7
			c-6.8,2.6-7,11.9-12.9,15.4c0.8,5.4,8.9-2.7,7.7-7.7c15.2,7.7,26.5-8.5,38.6-18c10.8-0.4,0,3.9,0,7.7c6.3,0.3,12.4,0.4,15.4-2.6
			c-7.9-6-2-2.5,2.6-7.7c-4.8,4.7,10.5,9.8,10.3,7.7c0.3,2.6-12.1,6.3-20.6,5.1c-0.6,5.8-9.7,17.3-18,23.2
			c10.3,2.4,24.2-31.9,41.2-15.5c3.5-2.6-1.1-4.2,5.1-7.7c1.6,6.2,1.6,3.9,12.9,2.6c-3.9,8.1-13.9,10.1-12.9,23.2
			c15.2-4.5,27.3-12.1,43.7-15.4c-1.3,9-13.2,7.3-15.4,15.4c2.9,2.5,16.3-6.1,7.7,7.7c11-6.3,21.9,0.2,33.4-7.7
			c-2.3,20.2-22.5,0.7-36,12.9c0.6,10.9,10.8,1.9,5.1,10.3c8.6-1.1,21-10.9,23.1,2.6c-10.8-8.5-20.8,6-38.6,0
			c6.8,3.4,6.4,9.9-5.2,7.7c0.6,3.7,7.7,0.9,7.7,5.1c5-1,2-10,10.3-7.7c-5.2,5.3,1,5.1,5.1,7.7c6.2-5.1,7.9-16.2,18-10.3
			c0.8,10.2-11.9,7-12.9,15.4c-4.9,8.6,12.6,9.4,0,10.3c2.2,5.5,11.3,4.1,15.4,7.7c-1.1,5.7-13.6,2-15.4,0c1.4,2.1,2.7,4.2,2.6,7.7
			c9.5,1.5,14.9-7.9,20.6-2.6c-8.8,6.5-13.8,4.5-28.3,7.7c7.4,7.5,6.7,9.2,15.4,23.2c-2.6-2.5-5.2-5.1-7.7-7.7
			c-10.8,15.1-11.6,2.4-28.3,7.7c0.7,2.4,15.2-1.3,7.7,7.7c3.3-3.5,12.2-3.5,15.4,0c-10.4,1.4-20.6,7.6-25.7,20.6
			c1.6,9.4,13-6.9,10.3,5.2c11.9-1.6,31.2-21.2,23.1-25.7c5.1-10.7,7.5,9,20.6,0c-5.4,7.5-15.5,10.2-23.1,15.4
			c17.8,9.2,25.7-13.7,43.7-12.9c-14,20.3-55.7,12.9-64.3,38.6c-5.1,0-3.3-7-10.3-5.1c10.7,14.7-25.3,3.5-30.9,25.7
			c7.4,7.1,18.7,10.5,28.3,15.4c15.7-2.3,22.7-13.4,38.6-15.4c-18,15.1-29.5,24.1-48.9,18c-5.8,1.4,3.1,4-2.6,7.7
			c1.1,3.8,3.3-1,7.7,0c1.2,5.5-3.7,4.9-7.7,5.1c0.8,10.2,8.9-2.9,7.7,7.7h-7.7c3,3,2.9,9.1,2.6,15.4c21.9,4.7,31.9-2.1,43.7-12.9
			c-0.3,4.6,3.1,5.4,2.6,10.3c-7.4-0.5-13.1,0.7-15.4,5.2c-0.4,5.6,9.1,1.2,12.9,2.6c2.4,4.8-14.7,1.6-5.1,5.2
			c-12.6,1.3-45.7-11.9-61.8-7.7c3.6,3.2,0.1,13.6,10.3,10.3c3.8,9.8-11.5,0.5-7.7,10.3c11.2-2.9-4.9,14.8,10.3,12.9
			c-4.1,11-9.2,5.1-15.4,0c1.6,7,10.8,6.4,10.3,15.4c7.3-2.7,3.2-10.2,12.9-5.1c1-8.7-4.5-11-7.7-15.4c4.4-9,5.6,6,7.7,7.7
			c4.3-0.5,10.3-19.1,0-18c6.6-4.1,7.2-8.6,18-12.9c-11,17.1-2.9,17.3-5.2,28.3c21.3-10.1,25.4-15,43.7-23.2
			c-8.9,8.7,6.3,4.6,5.1,12.9c-6.6-4.4-9,2.9-12.9-2.6c-0.7,3.1-9.8,10.3-5.1,10.3c-2.5,7.9-8.7-1.1-10.3-2.6
			c-2.1,0.5-2.6,2.6-5.1,2.6c1.3,5.8,12.6,5.6,5.1,12.9c21.8-2.2,32.9-15.1,46.3-25.7c4.1,2.6,10.3,2.4,5.1,7.7
			c6.2,1,5.6-4.7,12.9-2.6c-1.7-3.4-5.5-4.8-10.3-5.1c3.9-7.8,11.3,2.1,18,0c-2.4,13.1-19.8,11-28.3,18c2.6,5.9,11.8,5.3,20.6,5.1
			c-11.7,13.5-22.9-7.9-36,0c6.5,7.6,16.8,8.9,15.4,18c9.7-5.4-2.8,5.8,10.3,0c-2.9,3.2-2.2,5.3,2.6,5.1c-0.2,6.6-10,3.7-10.3,10.3
			c6.6,8.9,10.5-6.5,12.9-10.3c5.2,6.4,10.5,3.6,18,0c1.4-3.7-10-6.3-2.6-7.7c5.7-1.4,3.7,4.9,7.7,5.1c-19.5,18.1-19.6,11-30.9,30.9
			c2.5-6,11-6.1,15.4-10.3c-1.5,5.7,8.6,1.8,7.7,12.9c-13.1-6.8-6.9,0.4-20.6,0c-2.1,7.3,3.6,6.7,2.6,12.9c3.5-0.8,2.1-6.5,2.6-10.3
			c5.1,1.8,5.9,7.8,10.3,10.3c4-0.9-2.3-4.5,2.6-5.2c8.6-1.8,4.2,5.3,2.6,7.7c7.3,2.1,6.7-3.6,12.9-2.6c0.3-4.6-3.1-5.4-2.6-10.3
			c18,0.3,3.6,6.9,2.6,15.4c0.3,4.9,9.6-2.1,12.9-2.6c-2.9-11.2-0.4-14.4-2.6-23.2c5.9-0.8,2.9,7.4,7.7,7.7
			c5.6-7.1,11.9-40,30.9-33.4c-7.5,8.8-19.2,13.4-23.2,25.7c14.2-7.3,23.4-19.5,41.2-23.2c-3.2,6.2-10.5,8.3-18,10.3
			c-0.4,5.6,9.1,1.2,12.9,2.6c-8.5,10.4-22.5,15.2-28.3,28.3c15.8-2.3,29.7-11.1,33.5-18c7.5,2.3,7.9,2.3,15.4,0
			c-3.1,9.5-24.5,10.9-18,10.3c10.5,5.9-8.2,3.4-7.7,7.7c5.5,3,11.8,5.3,18,7.7c-17.1-2.5-41.4,0.5-61.7,7.7
			c-0.4,5.6,9.1,1.2,12.9,2.6c6.3,4.8-17,1.7-23.1,2.6v5.1c20.2,1.2,34.4,8.5,54,10.3c-15.2,11.3,27,12.5,28.3,30.9
			c-7.1-3.3-29.7-21-38.6-23.2c-2.4,1.9-3.9,4.7-5.1,7.7c-2.5-14.6-10.4-23.9-30.9-20.6c-2.1,7.3,3.6,6.7,2.6,12.9
			c-3.4-2.6-7.8-4.2-10.3-7.7c-2.4,1.9-3.9,4.7-5.2,7.7c-7.9-5.4-25.4-2.6-30.9,2.6c1.9,2.4,4.7,3.9,7.7,5.2c-0.5-6.2,13.5-7,18,0
			c-0.4,3-4.7,2.2-7.7,2.6c1.6,6.3,13,1.4,10.3-5.1c8.5,9.5,20.3,15.7,30.9,23.2c9.4-2.3,14.5-11.8,25.7-5.2
			c-14.2,0.4-17.9,11.3-28.3,15.4c3.7,3.8,15.6,12.6,18,2.6c4.1,0.5-4.2,12.2,7.7,10.3c-3.7,7.6-19.9-4.5-33.4,2.6
			c4,7.1,6.3,16,12.9,20.6c11-6.1,23.9-10.4,30.9-20.6c7,2.3-2.6,9-2.6,12.9c7.9,1.9,3.1-8.9,12.9-5.1c-0.1,2.5-3.2,2-5.1,2.6
			c0.1,2.5,3.1,2,5.1,2.6c-10.5,7-7,9.9-7.7,18c-14.9-3.2-31.5-7.2-41.2-2.6c5,4.9,54,14.4,54-7.7c54.9,0.8,3.5-0.2-5.1,12.9
			c-0.8,6.8,14.4-2.4,10.3,7.7c-19.9-5.9-48.7-5.8-66.9,0c-22.3-14.2-59.2,0.6-79.8,5.1c8.3,10.3,1.2,4.8-7.7,7.7
			c21.3,3.7,35.3,10.1,12.9,10.3c-9.7,0.1-26.4-10.2-41.1-5.1c2,5.7,9,6.4,12.9,10.3c9.3,1.6,7.6-7.9,15.4-7.7
			c-6.8,6.6,4.5,4.1,7.7,7.7c-3.2,7.8-8.9-2.8-15.4,0c3,8.2,16.9,5.4,20.6,12.9c2.4-1.9,3.9-4.7,5.2-7.7c7.5,2.2,2.9,3.8,2.6,10.3
			c7.8-3.8,7.2-5.5,15.4,0c-0.1,2.5-3.2,2-5.2,2.6c1.7,3.5,5.5,4.8,10.3,5.1c4.7-3.9,6-11.1,10.3-15.4c34.2-0.7,58.7,8.2,79.8,20.6
			c-17.7,1.2-58.3-31.7-82.3-7.7c0.9,3.4,4.5,4.1,5.2,7.7c10.2-1.9,29.1-5.6,38.6,0c-12.4,5-21.3,0.5-38.6,2.6
			c8.9,9.9,12.7,25,20.6,36c-6.1-9.1-20.3-10.2-23.2,2.6c-7.1-5.6,6-12.7,10.3-15.4c-9.7-40.8-67.5-33.7-95.2-56.6
			c-8,3.2-13.8,8.5-18,15.4c7.2-1.4,13.4-3.8,20.6-5.1c-1.6,5.3-4,9.8-12.9,7.7c3.6,4.3,24.7,4.3,28.3,0
			c12.5,12.4,37.6,12.2,51.5,23.2c-3.2,5.5-13.7-3.3-18-5.2c-3.8,1.1,1,3.3,0,7.7c-7.2-10.8-25.1-10.9-36-18
			c-3.8,0.8,2.8,10.8-5.2,12.9c0.7,5.3,6.9,5.1,10.3,7.7c-47.8-13.3-94.3,7-131.2,25.7v12.9c15.2-3.8,18.7-15.4,25.7-7.7
			c5.4-0.7-3.7-6.9,2.6-10.3c6.7,2.7,10.7,8.2,15.4,12.9c3.8-2.2,5.5-6.5,5.1-12.9c6.3,4.7,25.7,2.4,18-7.7
			c10.2,6.1,17.5,8.5,28.3,2.6c-2.7,9.3-8,16-15.4,20.6c1.7,7.7,5.5-2.5,10.3,0c0.9,4.4-2,4.8-5.1,5.1c2.5,7.9,6.9-3,10.3-2.6
			c-1.7-2.6-5.9-2.7-5.1-7.7c0.7-3.6,20.4-6.8,7.7-7.7c6.6-3.7,12.3-8.3,23.2-7.7c-4.9,2.9-9,6.4-15.4,7.7c1.8,2.1,4,7,0,7.7
			c3.8,4.1,12.9-2.2,12.9,10.3c-3.6-9.1-21.8-5.7-23.2,2.6c8.1,3.4,67.9,13.5,82.3,2.6c3.7,1.1-0.3,2.2,0,5.1
			c7.3,1.2,20.4-15,15.4-2.6c11.5-0.2,3.3-5.9,7.7-10.3c12.1,17,24.4-38.5,43.7-30.9c-1.4,7.2-9.9,7.2-15.4,10.3
			c2.3,4.5,9.5,7.1,10.3,0c0.9,6.8,9.5,5.9,10.3,12.9c-20.5-6.4-26.3,11.7-33.4,25.7c7.8-2.5,5.2-15.4,18-12.9
			c2,9.7-13.7,1.8-10.3,12.9c11.9-6.4,13.5-9.6,28.3-10.3c-0.7-27.3,33.8-19.4,56.6-23.2c-12.5,11.9-42.2-1.7-54,18
			c13.8-0.9,42.6-5.7,59.2-2.6c0.5,5.6-2.1,8.2-7.7,7.7c0.6-2.8,5.1-1.7,5.2-5.2c-6.2-3.5-15.7,11.7-23.2,15.4
			c0.5,2.1,2.6,2.6,2.6,5.2c17.6,5.9,40.8,11.5,59.2,2.6c-13.8,9.4,8.7,14.9,12.9,15.4c-0.6,4.6,2.6,12.9-5.1,10.3
			c8.3-8.1-9.8-1.1-5.2-12.9c-4.7,10.2-8.3-5.5-20.6-2.6c-8.5,3.8,8.6,3,5.1,10.3c-6.4-1.3-15.5,0.1-15.4-7.7
			c2.1,0.5,2.6,2.6,5.2,2.6c-1.1-3.2-3.3-5.3-7.7-5.1c-4.4-0.2,2.8,13.2-7.7,12.9v-10.3c-25-5.1-46.5-13.6-74.6-15.4
			c4.6,6.6,16.5,5.8,23.2,10.3c-16,1.4-36-13.8-51.5,2.6c3.5,6.6,15.8,0.6,20.6,0c-2.2,10.8-17.1,8.1-23.2,2.6
			c-3.4,0.9-4,4.5-7.7,5.1c15.2,6.7,28,19.1,46.3,15.4c-14.9,5.2,10,9.5-2.6,10.3c6.5,9.1,12.5-4.8,23.2,5.2
			c-3.9,6-6.3,3.9-12.9,2.6c-6.8,7,18.5,14,10.3,7.7c11.9,9,17.9,29.5,28.3,23.1c4.5,4.7-2.8,19.3-2.6,28.3
			c-3-14.4-8.2-34.5-25.7-41.2c-3.5,0.8-2.1,6.4-2.6,10.3c-7.3-1.3-3.7-13.5-15.4-10.3c0.1-2.5,3.1-2,5.1-2.6
			c-21.7-2.2-70.3-17-92.6-25.7c-0.9,3.1-2.6,8.2-10.3,2.6c-0.2,3.7-0.4,7.3,2.6,7.7c0.4,5.6-9.1,1.2-12.9,2.6
			c4.3-5.1-0.2-3.3,0-10.3c-3.6,4.9-12.5,4.7-18,7.7c9.5,3.4,20.4,19,30.9,12.9c-12.4,25.6-51.6,4.1-79.7,0c-25,11-44.4,27.6-72,36
			c13.1,5.1,0.8,4.5-5.1,10.3c0.4,7.4,10.7,4.7,18,5.1c-0.9,3.4-4.5,4-5.1,7.7c0.6,2.8,5.1,1.7,5.1,5.1c-0.4-11.8,9.3,5.7,12.9-5.1
			c-5.7-3.8-13.3-5.5-12.9-15.4c2.2-0.5,2.4,1,2.6,2.6c2.2,0.5,2.4-1,2.6-2.6c-1.4,5.8,9.4,14.6,18,7.7c6.4,0.4,0.7,8.7,0,10.3
			c5.1,0,3.3-7,10.3-5.2c-4.8-12.4,5.1-12.1,7.7-23.1c3.8,2.2,3.7,8.3,5.1,12.9c-10.2-0.4,0.8,3.9-5.1,7.7c11,8.3,22.4-5,23.2-15.5
			c7.3,3.4-2,11.5-2.6,15.5c20-10.2,42-3.8,46.3-30.9c3.5,13.4,10.1,0.8,20.6,0c1.2-5.5-3.7-4.9-7.7-5.1c8-7.4,20,0.1,28.3-2.6
			c-2.7,5.3-13.8,7.7-23.1,12.9c7.8,10.4,17-8.2,23.1,0c-9.4,13.3-28.9,0.5-38.6,12.9c6.7,10.4,7.7-1.1,15.4-2.6
			c-0.3,8.2-5.8,11.3-15.4,10.3c1.6,14.2-3.8,5.5-7.7,12.9c10.1,12,29.9,4.7,33.4-10.3c3.2,1.1,5.3,3.3,5.1,7.7
			c2.8-12.7,26.4-18.1,25.7-25.7c1.1-8.4,1.4,8,10.3,5.1c1,2.9-21.4,4.2-23.2,12.9c9.4-1.8-3.3,20.1-7.7,20.6
			c1.8,8.1,6.9,3.4,12.9,2.6c-1.9,2.4-4.7,3.9-7.7,5.1c4.5,7.2,6.7,2.4,15.4,2.6c-0.4,12.4-14.3,3.6-18,7.7
			c5.4,2.3,4.5,11,12.9,10.3c-4.6,5.3-9.5,0.7-5.1,10.3c-3.9-3-10.5-3.2-12.9-7.7c-2.4,1.9-3.9,4.7-5.1,7.7
			c-3.5,0.4,1.1-10.5-5.1-2.6c-7.1-1.1-0.1-8.1,5.1-5.1c-5.2-6.8-29.1-18.1-33.4-2.6c1.1,5.8,12.7,1,18,2.6c5.3,3.1-13.2,3.7-18,5.1
			c10.5,15.2,15,36.4,36,41.2c3.8-1.1-1-3.3,0-7.7c15,7.5,26.7,3.7,46.3,7.7c2.1,3.9-17.1,4.3-23.2,2.6c4.4,10.8,12.6,4,25.7,7.7
			c-6.8,7.6,8.2,9,12.9,12.9c1.4,3.7-3,13.3,2.6,12.9c-0.8,3.5-6.4,2.1-10.3,2.6c12.8-12.9-9.3-16.8-18-23.2
			c-7.2,2.5,3.7,6.9-2.6,10.3c-3-6.5-10.8-8.1-15.4-12.9c-7.4,1.1-8.1,9.1-18,7.7c15.5,6.4,29.4,9.4,38.6,10.3
			c-4.5,7.2-6.7,2.4-15.4,2.6c4.6,6.6,12.6,11.4,20.6,7.7c1.1,7.4,5.4,11.7,12.9,12.9c5.3-0.7,0.7-11.3,5.2-12.9
			c2.3,15.7,5.6,23.4,12.9,36c12.5,2.1,28.4-5.8,23.1-12.9c13-2.5,21.3-11.2,33.4-7.7c-10.2,5.2-20.6,10.2-30.9,15.4
			c5.4,7.7,10.5-6.5,18-5.1c-3.2,8.8-10.9,13.2-23.2,12.9c0.4,4.8,8.7,1.6,10.3,5.1c1.6-4.4,7.8-4.2,10.3-7.7
			c1.1,6.9,2.1,8.6,7.7,15.4c-11.1-4-22.5-6-30.9,0c5.8-5.5-1.8-9.1-10.3-7.7c0.4,3,4.7,2.2,7.7,2.6c-5.7,10,6.5,10.5,12.9,15.4
			c-19.1-2.4-41.5-23.6-79.7-15.4c10.8,6.6,67.3-1.5,30.9,7.7c-42.2,7.7-97.1-27.6-131.2-2.6c-22.6-3.9-78.6-1.2-100.3,18
			c14,47.8-15.4,108,7.7,144.1c8.6,13.5,22.7,10.9,46.3,12.9c35.1,2.9,89,7.2,133.8,10.3c25.9,1.8,59.6-3.2,66.9,20.6H84.9v-10.3
			c37.4-13.4,82.5-16.4,136.4-20.6c32.7-2.5,101.4,4.3,118.3-18c10.8-14.2,18.7-80.9,20.6-105.5c2.4-31.2,1.6-65.5-5.1-92.6
			c-2.8,14.3-30.5,4.6-20.6-7.7c2.9,0.5,1.4,2.6,0,2.6c-2.5,9.3,11.1,2.6,12.9,7.7c-0.2-6.6-11-2.7-7.7-12.9h-7.7
			c-8.7,2.3-0.3,5.8-5.1,10.3c-9.3,1.6-22.4-5.8-28.3,0c-1.8-7.9,2.6-9.4,2.6-15.4c-1.8-3.5-6.9,1.3-12.9-2.6
			c15.8,6.1-9.1,14.2,7.7,10.3c-2.9,4.8-3,12.4-12.9,10.3c1.2-9.2,5-14.1-2.6-18c-2.1,4.3-8.9,18.1-18,23.1
			c-0.8-11.1,10.5-10.1,12.9-18c-15.4-7.6-19.9,17.8-33.5,20.6c0.5-7.2,8.4-7,10.3-12.9c-16.3,0-16.8,15.8-33.4,15.4
			c12-13.7,34-17.4,48.9-28.3c-15.4-5.7,3.8-3.6,0-7.7c5.4-5.3,16.8,3.1,23.1-5.1c4.4,1.7,1.6,5.9-2.6,5.1
			c7.6,3.9,16.8-4.1,20.6-7.7c-0.4-10.7-13.3-9-18-15.4c-5.7,1.1-1,12.7-2.6,18c-8.4-3.3-5.5-3.7-12.9-5.1c0.2-6.6,10-3.7,10.3-10.3
			c-31.2-28.8-62.7,15.6-79.7,33.4c-4.9-2.6,6.6-10.4,7.7-15.4c-8.1,2.2-14.2,6.4-18,12.9c-0.6-15.2,34.9-16.5,38.6-36
			c-6-1.6-25.7,5.1-33.4,10.3c3.4-6.8,8.6-12,15.4-15.4c-10.3-12.7-5.4,9.2-20.6,7.7c-2.6-7.8,5.7-4.6,10.3-5.1
			c-11.1-7.2-38.9-11-46.3,0c-0.2-7,4.3-5.2,0-10.3c-10.5,3.2-24.9,2.5-25.7,15.5c-3.1-2.9-4.7-7.3-12.9-5.1
			c9.5,6.7-0.6,4.9-7.7,2.6c1.5-5.3,5.4-8.3,7.7-12.9c6.7,12.1,14.7-3.6,28.3,0c-16.2-5.6-41.1-3.4-41.2,10.3
			c-9.9-6.9-26,1.9-33.5-2.6c-5.9-5.6-5.3-10.5-2.6-18c-5.1,1.7-5.9,7.8-10.3,10.3c-6-0.8-10.6-3.1-15.5-5.1
			c-0.2-3.6-0.4-7.3,2.6-7.7c-10.1,0-4-9.6-18-5.1c1.1-4.9,5.5-6.5,5.1-12.9c-2.6,1.7-2.7,5.9-7.7,5.1c0.7-4.6-2.4-5.3-2.6-2.5
			c-5-5.3-7.2-13.4-10.3-20.6c7.9-0.1,6.5-4.1,12.9-10.3c-2.8,13.9,28,11.9,46.3,12.9c0.7-4.6-2.4-5.3-2.6-2.6
			c-6.8-10,26.4-20.3,30.9-5.1c20.3-11.5,59.6-17.6,66.9-33.4c4.9-8.6,16.5,4.5,20.6-2.6c-1.9-2.4-16.5-0.6-23.1-5.1
			c-6.1,7.8-33,0.3-51.4,10.3c5.2-16.2,24.7-18.2,38.6-25.7c-2.5-3.5-6.9-5.1-10.3-7.7c-4.8,0.4-8.6,1.7-10.3,5.2
			c3.7-8.3-16.8-2.4-23.2-7.7c-5.8,2.8-11.3,5.8-15.4,10.3c-7-2.3,5.9-5.8,5.2-10.3c-23.5,4-39.9,15-61.8,20.6
			c4.5-11.5,9.2-8.5,20.6-10.3c4.8-0.4,1.6-8.7,5.2-10.3c-9.8-2.1-10,5.5-12.9,10.3c-4.4-8.8-19.5,5-25.7,10.3
			c-7.9-2.5,2.9-6.8,2.6-10.3c-3.7-6.8-5.7,9.4-15.4,5.1c1.2-8.1-5.5-8.2-12.9-7.7c10.4-5,34.2-11.2,46.3-18
			c-12-1.5,13.1-14.8,23.2-18c-11.4-8.7-24.4,2.9-25.7,12.9h-18c10.3-11.1,28.3-14.6,33.4-30.9c-9.5,10.1-11.2,0-25.7,7.7
			c0.4-3-0.6-4.6-2.6-5.1c11.2-12.6,21.8-13.1,41.2-7.7c-6.1-5-15.8-6.5-23.2-10.3c11.7-0.4,42.3,2.1,48.9-10.3
			c10.6-1.2-2,6.5,5.2,10.3c2.5-0.1,2-3.1,2.6-5.1c2.1,0.5,2.6,2.6,5.1,2.6v7.7c-7,1.9-5.2-5.1-10.3-5.1c-0.7,9.2,7.7,9.4,7.7,18
			c4.2-5.4-0.3-16.8,5.1-2.6c6.7,3,11.1-7.9,10.3,2.6c6.3-3.9,14.5-6.1,12.9-18c5.9-0.8,2.9,7.4,7.7,7.7
			c3.9-6.7,14.8-18.6,20.6-30.9c-0.7-5.3-6.9-5.1-10.3-7.7c-6.4,8.5-25.3-0.6-33.4,5.1c-1.9-5.4-1.9-10,0-15.4
			c14.4,1.9,23.8-15.2,30.9-28.3c-10.9,2.9-19.2,8.2-30.9,10.3c7.3-12.4,31.9-7.6,36-23.2c-8.6-1.4-26.1-2.3-25.7,10.3
			c-6.5-0.6-10.7-7.6-5.1-12.9c3.7,1.1-0.3,2.3,0,5.2c9.6,2.7,5-8.7,10.3-10.3c6.6-0.1,3.1,1.9,2.6,5.1c8.7,1,11-4.4,15.4-7.7
			c-1.1-3.8-3.3,1-7.7,0c11.1-6.9,15.2-20.8,18-36c-17.8-9.1-25.4,14-41.1,15.4c9.7-8.3,16.9-19.1,33.4-20.6v-5.1
			c-20.3,2.2-60.4-8.8-77.2,20.6c-6.7,3.8,6.1-10.1,0-15.5c7.3,2.1,6.7-3.6,12.9-2.6c-14.5-7.6-32.4,3.6-51.5,0
			c7.3-12,22.1-0.5,30.9-10.3c-0.2,8.2,10.1,0.6,18,5.2c9.7-9.5,4.5-20.6,23.2-23.2c0.8,5.9-7.4,2.9-7.7,7.7
			c5.4-1.5,25.3-10.7,33.4-18c-35.6,2.3-56.1,36.7-95.2,23.1c20.4,2.4,53.2-15.9,79.8-23.1c-14.5-7.3-36.9,7.2-43.7-7.7
			c7.8,2.9,26.8,5.6,30.9-2.6c-10.1-3.4-13.6,5.8-18-10.3c-7.9-1.9-5,7.1-12.9,5.1c-2.1-9.8,12.4-3,10.3-12.9
			c2.8,0.6,1.7,5.1,5.1,5.2c5.5-0.8-0.4-11.2-2.6-12.9c16-13.5,43.2-0.4,54,7.7c5.5-13.2-13.1-2.3-10.3-12.9c2.2-0.5,2.4,1,2.6,2.6
			c7.7-1.7-2.5-5.5,0-10.3c4.5,2.3,8,5.7,10.3,10.3c3-0.4,2.2-4.7,2.6-7.7c1.5,5.1,17.6,11.3,0,10.3v15.4c10.2,3.8,19.8-7.3,23.2-18
			c9.3,4.7,7.6-0.5,15.4-2.6c-1.8,7.9-1.8,4.9,0,12.9c-7.1-9.5-15-0.8-20.6,5.2c2.9,3.3,8.6,2.6,10.3-5.2c4.5,6.4,3.3,2.8,12.9,2.6
			c-5.9,8.8,2.7,16.3-5.1,23.2c3.8,3.3,15.6,11.6,18,7.7c0.1,4.2,7,10.1,10.3,18c3.1-2.9,4.7-7.3,12.9-5.1c-1.9,2.4-4.7,3.9-7.7,5.1
			c3.7,5.7,9.2,9.7,20.6,7.7c-2.8-7-12.3-1.3-5.1-12.9c2.5,4.4,8.5,5.2,10.3,10.3c8.1,1.2,6.8-6.9,12.9-7.7c7.9,2.6-7.4,2.4-5.2,7.7
			c1.1,2.3,2.3,4.6,5.2,5.2c3.5-3.6,5.5-12.7,2.6-15.4c-4.6-0.3-5.4,3.1-10.3,2.6c-3.1,4.2,12.9-13.6,23.2-12.9
			c-0.3,4.9-8.5,1.8-7.7,7.7c7.6,7.4,9.6-12.6,18-12.9c-1.8,5.8-7.7,12.9-2.6,18c3.2-1.1,5.3-3.3,5.1-7.7
			c12.5,1.7-5.7,11.7,2.6,15.4c-0.8,4.4-8-2.4-10.3,5.2c5.6,7.1,11.8-2.6,18,2.6c5.6-0.4,5.5-6.5,5.1-12.9
			c3.6,11.6,16.8-2,28.3,12.9c-7.7,0.6-13.8,1.7-18-2.6c-3.1,8-7.9,14.4-7.7,25.7c11.4-9,16.5,10.4,33.4,10.3
			c8-4,12.6-11.4,20.6-15.4c-8.1-8.1-15.5,9.6-23.2-2.6c3.2-3.1,24-0.5,30.9-12.9c-1.7-3.5-5.5-4.8-10.3-5.1
			c23.6,0.6,12.4-12.8,15.4-20.6c-3.2-7.8-9.8,1.8-12.9,2.6c19.9-13.3-27.2-36.2-28.3-51.5c-18-7.8-49.6-1.9-66.9-10.3
			c21.3-4.9,59.7,11.5,79.7-5.1c2.6,1.7,2.7,5.9,7.7,5.1c3-4.8-3-8.5,10.3-5.1c-25.5-15.5-76.3-21.8-100.3-23.2
			c0.4-3,4.7-2.2,7.7-2.6c-6.6-4.4-8.8-3.2-2.6-10.3c-17.5,2.9-56.2,14.5-64.3,2.6c21.2,6.2,39.3-9.5,64.3-7.7
			c-6.2-5.1-2.6-4.1-5.1-12.9c9.6,5.5,8.5-6.4,15.4-10.3c7.7,1.7-2.5,5.5,0,10.3c5.4,1.1,6.8-1.8,10.3-2.6
			c-3.6-4.2-9.1-6.3-7.7-15.4c4.5-4.8,7.5,1.1,12.9,2.6c8.8-4,8.8-9.2,10.3-15.4c-19.6,8.8-63.3,2.3-84.9-5.1
			c11,3.2,20.8,1.4,30.9-2.6c-6.9-10.1-26.9-3.1-38.6-2.6c5.1,5.9-0.7,2.9-2.6,7.7c-4.2-7.3-47.8,5-59.2,15.4
			c7.2-9.4,4.1-5.5-7.7-7.7c1.1-4.9,5.5-6.5,5.1-12.9c3.2,1.1,5.3,3.3,5.1,7.7c6.6-3.4,1.6-16.8-7.7-12.9
			c2.4-2.5,33.8-1.9,33.5-10.3c1.9-0.2,28.2,7.9,28.3-7.7c19-0.3,35.7,16.7,46.3,2.6c-1.7,9.4,5.6,9.9,5.2,18
			c11.7-5.1,17.3-1.1,30.9-5.1c1.5-9.2-7.6-7.8-15.4-7.7c-0.2-1.2,19.4-9.4,25.7-5.1c0.4,10.9-3.9,0-7.7,0c-0.8,6,0.4,9.9,2.6,12.9
			c9.8-8.5,19.9,1,30.9,0c-0.4,3-4.7,2.2-7.7,2.6c6.4,8.2,17,12.1,30.9,12.9c3.8-1.1-1-3.3,0-7.7c5.3,0.8,5.1,7,10.3,7.7
			c-2.1-16.6-19-11.3-28.3-10.3c1.1-3.1,3.3-5.3,7.7-5.1c-16.2-9.4-40.5-23.8-56.6-18c0.1-2.5,3.1-2,5.1-2.6
			c-22-11.7-62.4-23.3-84.9-5.1c0.8-6.9,10.8-4.6,12.9-10.3c-20.6-6.7-39,7.8-51.5,0c7.9-7.5,34.9,4,36-10.3c-2-6.5-9,7.2-12.9,0
			c3.7-4,10-5.4,18-5.1c-4.1-16.7-25.9-10.5-36-10.3c0.5-2.1,2.6-2.6,2.6-5.1c-8.9-2.1-9.9,3.8-18,2.6c0.8-6,11.2-2.5,12.9-7.7
			c0.8-6.8-14.4,2.4-10.3-7.7c20.4,5.7,21.4,14.2,41.2,5.2c-6.1-5.1-13.4-8.9-20.6-12.9c11-7,18.2,6.1,28.3,12.9
			c7.8-10,31.1-5.6,43.7-7.7c-3.7-13.5-27.5-6.7-36-2.6c3.5-8.5,14.5-9.5,23.1-12.9c-0.8-3.5-6.4-2.1-10.3-2.6
			c4.4-2.5,6.6-7.1,5.1-15.4c2.8,7.8,13.2,20.7,20.6,5.1c5.1,0,3.3,7,10.3,5.1c4.5-2.3,7.1-9.5,0-10.3c13.4-0.8,21,17.2,41.2,10.3
			c5.5-1.9,1-12.3,7.7-2.6c-3.5-46.2-51.1-11.2-69.5-7.7c11-3.6,15-14.1,28.3-15.4c-12.5-8.2-32.8,6-46.3-2.6
			c18.3-3.3,54.1-5.9,74.6-2.6c-27.6-32.3-91.8-0.4-113.2-25.7c8.3,6.8,22.6,7.7,33.4,5.1c-4.5-7.2-6.7-2.4-15.4-2.6
			c10.8-11.7,32.8,5.4,51.4,2.6c7.7-1.7,1.7-17.2,10.3-18c-21-15-55.3-13-77.2-2.6c-2.2-10,6.3-9.1,7.7-15.4
			c-24.6-9.2-34.1-3.1-59.2,0c1.6-4.5,29.3-5,33.4-15.4c-4.7-6.2-9.4,9.3-20.6,5.1c3.6-8.4,16.9-7.2,23.2-12.9c-7.9-6-1-1.5,0-10.3
			c-0.8-3.1-16.3,0.7-18,5.1c-6.7-4.4,4-13,12.9-10.3c-9.1-7.1-6.7-4.9,5.1-12.9c5,6.9-4,7.5,10.3,5.1c-8.4,8.7,7.1,8,12.9,10.3
			c-1.3-7.7,8.1,0.2,18-5.1c-0.3,4.6,3.1,5.4,2.6,10.3c12.6-2.1,11.2-9.2,23.1-5.1c-8.2-5.3,7.3-5.1,0-7.7
			c0.7-6.1,11.4-1.6,10.3,2.6c3.5-2.5,5.1-6.9,7.7-10.3c-11.1,4.8-25.3-3.8-30.9,15.4c-3.4-6.3-9.6,2.8-10.3-2.6
			c8-6.4,15.6-18.9,0-23.2c2.5-7.9,6.9,3,10.3,2.6c2.6-1.7,2.7-5.9,7.7-5.1c-1.1-2.3-2.3-4.6-5.1-5.1c-5.7-7,15.4,4.2,5.1,10.3
			c8.7-0.7,10.9-8,18-10.3c-0.4-5.6-6.5-5.5-12.9-5.1c3.3-4.4,5.3-10.1,12.9-10.3c-5,4.8-1.5,12.4,7.7,10.3c6.6-0.6-3.5-4.4,0-10.3
			c5.9-0.8,2.9,7.4,7.7,7.7c2.6-2.5,5.2-5.1,7.7-7.7c-5.1-9.2-11.7,1.8-20.6,0c12.5-7.7,4.7-13.3-2.6-20.6c5.4-1.1,6.8,1.8,10.3,2.6
			c4.9-0.3,1.8-8.5,7.7-7.7c-18.2-5.1-26.2,1.6-54,0c0.4-5.6,6.5-5.5,12.9-5.1c-0.8-3.5-6.4-2.1-10.3-2.6c2.3-9.9,10.3,0.5,18,0
			c2.2-11,12.8-2.2,20.6-10.3c-7.2-11.3-20.7,1.2-28.3,0c-6.6-3.5,10.3-4.9,12.9-7.7c-10.6-8.4-25.8-11.5-38.6-5.1
			c7.4-7.7-6.5-8.6-15.4-7.7c15.1-8.4,38.9-0.3,54,7.7c11.3,1.7,16.7-12.9,30.9-15.5c-8.4-4.3-16.2,7.3-25.7,5.2
			c0.2-8.4,11.7-5.5,18-7.7c-2.6-18.6-17.8-10-28.3-5.1c0.8-6.1,8.9-4.8,7.7-12.9c21-3.8,18.4,15.9,38.6,12.9c1-4.4-2-4.9-5.1-5.2
			c0.1-2.5,3.1-2,5.1-2.6c-0.4-4.8-8.7-1.6-10.3-5.2c-3.6,0.9-0.2,4.5,2.6,5.2c-1.7,7.7-5.5-2.5-10.3,0c1.4-19.1,23,2.9,28.3-5.2
			c2.5,15.5,12.3,23.8,20.6,33.5c2.1-0.5,2.6-2.6,5.2-2.6C310.3,94.8,311.8,95,303.6,90 M311.3,25.7c1.5,6.8-10.6,13.1-2.5,18
			c5.5-8.6,5,10.2,12.9,7.7C327.5,40.1,318.9,30.9,311.3,25.7 M452.8,120.9c9.5,8.6,15.2-24.2,18-7.7c3.1-4,8.2-10,2.6-15.4
			C458.1,101.3,459,113.5,452.8,120.9 M517.1,144.1c2.6-4.1,2.4-10.3,7.7-5.1c2.9-6-0.6-6.9,5.1-12.9c-7.6,1.8-15.9,2.9-20.6,7.7
			C508.9,140.2,513.3,141.8,517.1,144.1 M563.4,249.6c-6.8-6.3-8.7-1.5-15.4-7.7c-4.4,6.7-16.7,5.6-18,15.4c8.1,2.9,6.3-4,10.3-5.2
			c0.2,4.1,6.6,2,5.1,7.7c-8,3.9-25.1-1.1-28.3,7.7c12,1.3,5.1,4.9,0,7.7c9.1-1.4,6.3,9.1,15.4,7.7c10.2-6,7.4,3,18,2.6
			c0.7-11.3,7.9-16.1,5.1-30.9c7.5,2.6,17.4-12,7.7-10.3V249.6z M522.2,283c-1.9,8.4-12.7,7.8-18,12.9c2,0.6,3,2.2,2.6,5.2
			c11.7-0.4,16.8-7.3,25.7-10.3c0.3,2.9-3.7,4,0,5.1C539.2,288.9,529.8,283.4,522.2,283 M486.2,298.4c4.9-0.6,5.7,2.9,10.3,2.6
			c0.6-2,0.1-5.1,2.6-5.2c0.5,2.9,2.9,4,5.2,5.2C505.5,288.7,490.9,295.2,486.2,298.4 M612.3,401.3c2.2-3.8,6.5-5.5,12.9-5.2
			c-0.4-3,0.4-7.3-2.6-7.7C622.3,394.4,605.4,396.7,612.3,401.3 M625.2,432.2c-12.2-6-26.3-31-43.7-15.4c11.5-0.2,15.9,8,25.7,2.6
			C607.7,427.5,619.7,437.5,625.2,432.2 M138.9,854.1h12.9c-0.1-3.5,1.2-5.7,2.6-7.7C146.5,846.3,141.3,848.7,138.9,854.1
			 M118.4,560.8c9-2.3,2.7,6.7,0,7.7c-6.7,0.7-12.9,0.9-10.3-7.7c3,0.4,5.8,4.6,7.7,0c-2.4-7.4-12.8-3.9-18,0
			c3.5,13,23,29.4,48.9,28.3c0.3-9.7-15-3.8-15.4-12.9c9.6-1.7,16.3,12.7,23.1,5.1C146.3,572.3,131.3,556.5,118.4,560.8 M301,488.8
			c-3.2-0.3-6.1-0.8-5.1-5.1c11.6,4.8,4.5-9.2,10.3-10.3c2.3,7,9-4.6,12.9,2.6c0.8-23-31.3,0.4-25.7,5.1
			C297.7,472.6,289.2,501.6,301,488.8 M344.7,329.3c-17.7,0.5-24.7-23.3-41.2-15.4c7.1,3.2,7.5,13.1,12.9,18
			c7.5,0.7,7.9-5.8,15.4-5.1C325.7,332.8,345.8,341.9,344.7,329.3 M277.9,203.3c-3.4-8.6-13.3-10.7-18-18c9.5-1.9,12.8,9.2,18,0
			c-6.3-1.6-21.6-7.3-25.7-2.6c15.2,3.8-13.5-0.3-10.3,7.7C256,189.7,280.2,204.4,277.9,203.3 M329.3,118.3
			c-1.5-7.8-5.2-21.8-12.9-15.4C314.4,114.3,324.9,113.3,329.3,118.3 M331.9,64.3c0-3.4,4.5-2.4,5.1-5.1c-4.8-2.9-5.5-10-10.3-12.9
			C329.8,50.9,327.2,61.3,331.9,64.3 M308.7,61.8c4.6-1.4,10.7-1.3,12.9-5.1c-4.9-1.1-6.5-5.5-12.9-5.1V61.8z M324.2,79.7
			c2-8.9-2.4-11.3-7.7-12.9C314.4,75.8,318.8,78.2,324.2,79.7 M342.2,95.2c1.6-7,10.8-6.4,10.3-15.4c-6.4,0.4-12.5,0.5-12.9-5.1
			c3-0.4,7.3,0.5,7.7-2.6c-7,1.9-5.2-5.1-10.3-5.1C334,74.9,335.9,89.2,342.2,95.2 M393.6,97.8c0.2,11.5,5.9,3.3,10.3,7.7
			c-0.8-12.3,5.8-14.5,2.6-20.6c-7.5,3.3-9.1,12.5-10.3,15.4C396,98.8,395.8,97.3,393.6,97.8 M337,105.5c8.1-7.9-13-18.4-15.4-15.4
			C328.1,94.2,324.5,103,337,105.5 M347.3,110.6c4.8-0.1,5.4,2,2.6,5.2c7.6-0.2,9.6-5.9,12.9-10.3c-5.8-1.9-0.8-14.7-10.3-12.9
			C354.2,102,346.9,102.5,347.3,110.6 M308.7,115.8c-2.9-0.6-4-2.9-5.2-5.2c3.4-3.4,3.4-9.6-2.6-10.3c-1.3,3-2.7,5.8-5.1,7.7
			c0-1.4-2.1-2.9-2.6,0C296.3,111.3,304,122.7,308.7,115.8 M254.7,110.6c3.9-6,6.3-3.9,12.9-2.6V97.8
			C260.9,98.1,250.8,108.2,254.7,110.6 M367.9,115.8c7.2,1,14.5-11,10.3-12.9C377.7,110.2,366,106.1,367.9,115.8 M450.2,113.2
			c-0.4-3.8,0.9-9.5-2.6-10.3c-1.4,7.1-9.9,7.2-15.4,10.3c1.8,7.9,1.8,4.9,0,12.9c6-0.2,15.5-10,10.3-12.9c-0.6,2.8-4.2,6.2-5.1,2.6
			C441.2,109.8,443.7,111.8,450.2,113.2 M293.3,113.2c-3.5,0.4-5.2-13.1-7.7-5.1c1.6,0.1,3,0.4,2.6,2.6c-6.6,2-11.8-10.1-15.4-2.6
			C279.9,107.8,287.4,120.6,293.3,113.2 M398.8,126.1c0.1-3.5-1.2-5.6-2.6-7.7c3.1-0.3,6.1-0.8,5.1-5.1c-4.4-1-6.6,3.8-7.7,0
			c0.6-3.2,4-5.2-2.6-5.1C391.1,116.5,390,126.3,398.8,126.1 M385.9,110.6c-7.4,1.1-11.7,5.4-12.9,12.9c2.3,5.6,14.7-0.3,7.7-2.6
			C372.3,124.1,387.7,116.7,385.9,110.6 M403.9,113.2v5.1c0.2,1.6,0.4,3,2.6,2.6c1.3-0.1,16.8-5.7,5.2-10.3
			C411.2,113.6,407.5,113.4,403.9,113.2 M447.6,141.5c3-3.3,5.2-20.3,0-23.2C446.3,124.5,444.6,135.7,447.6,141.5 M324.2,133.8
			c12.6-2-14.1-19.1-20.6-10.3C310.6,140.8,314.5,117.1,324.2,133.8 M373,141.5c6.3-8.4-12.1-7.8,2.6-12.9
			c-5.3-5.2-6.9-0.7-10.3,2.6c-0.6-2-0.1-5.1-2.6-5.1C364.3,133.1,367.8,138.1,373,141.5 M429.6,144.1c6.4-0.3,8-4.8,12.9,0
			c-1.5-5.3,3.2-16.9-2.6-18C439.9,135.4,426.5,131.5,429.6,144.1 M383.3,144.1c1.6-7,10.7-6.4,10.3-15.4
			C384.9,126.9,377.3,139.6,383.3,144.1 M334.4,146.7v-7.7c-9.1-4-1.6,8.7-7.7,7.7c1.5-6.9-7.6-16.1-10.3-10.3
			C324.3,139.7,323.3,153.5,334.4,146.7 M357.6,149.2c0-7.7,0.2-15.7-7.7-15.5C343.6,140.4,352.6,146.2,357.6,149.2 M285.6,144.1
			c-6.4,0.4-8-4-12.9-5.1c-2.4,10.9,6.2,11,15.4,10.3c2.2-5.3-4.1-14.2-5.1-7.7C284.6,141.6,286,141.9,285.6,144.1 M517.1,151.8
			c2,0.6,5.1,0.1,5.1,2.6c-3,0.4-7.3-0.4-7.7,2.6h7.7c3.6-6.6,6.2-12.4,2.6-15.4C523.8,146.5,514.9,143.5,517.1,151.8 M355,154.4
			c-5.4-2.3-4.5-11-12.9-10.3c0.6,4.9-2.9,5.7-2.6,10.3C345.4,147.7,360.3,159.6,355,154.4 M313.9,156.9
			c-7.3-1.1-20.5-12.5-23.2-2.6C302.8,149.3,306,166.3,313.9,156.9 M370.5,167.2c3.8-0.4,9.5,0.9,10.3-2.6
			c-15.8,4.5,3.2-11.2-10.3-10.3V167.2z M339.6,162.1c5.7,1.9,8.6,12.1,15.4,5.1c-0.3-6.5-3.8-10-10.3-10.3
			C344.7,160.3,340.2,159.3,339.6,162.1 M439.9,208.4c18.4-15.5,3.4-35.3,12.9-46.3c0.6,2,0.1,5.1,2.6,5.1v-10.3
			c-20.6,13.3-5.9,26-28.3,41.2c-0.1,8.7,6,11.2,10.3,15.4c-2.7,0.1-2,3.3,2.6,2.6c2.2-8.3-6.7-5.3-7.7-10.3
			c8.9,1.2,1.5-14,7.7-15.4c0.6,2,0.1,5.1,2.6,5.1c0.6-2,0.1-5.1,2.6-5.1C443.2,196.2,442.8,203.5,439.9,208.4 M324.2,174.9
			c3.6-10.7-13.8-13.4-18-7.7C317.8,164.2,311.9,178.6,324.2,174.9 M457.9,177.5c8.1,3.8,12.4-14.8,2.6-12.9
			C458.3,167.6,457.1,171.5,457.9,177.5 M293.3,174.9c0.1-1.6,0.4-3.1,2.6-2.6c4.9,1.1,4.6,7.3,12.9,5.1
			C310.2,163.6,287.6,168.6,293.3,174.9 M362.7,167.2c-15-2.8-5.3,26.7,0,18c-7.3-1.3,4.2-3.8,5.2-5.1
			C369.8,172.2,360.8,175.2,362.7,167.2 M519.7,187.8c0.4,8.1-5.6,7.3-10.3,15.5c20.7-3.2,28.4-27.6,41.2-30.9
			C531.6,173.8,532.6,192.3,519.7,187.8 M290.7,182.7c8.1,3.9,10.1,13.9,23.2,12.9c-0.1-5.5,9.7-14,5.2-15.4
			C314.4,183.1,296.8,178.9,290.7,182.7 M545.4,208.4c11.6-7.2,22.1-20.7,38.6-15.4c-0.6-7.7-7.2-1.3-10.3-10.3
			c-1.4,11.8-16.1-4.6-18,7.7C570.2,193.6,536.8,202.9,545.4,208.4 M542.8,200.7c2.3-4.5,10.4-3.3,7.7-12.9
			C540.1,188.1,539.5,198.2,542.8,200.7 M303.6,195.5c-8.1,1.3-5.8-7.9-15.4-5.1C289.7,198.4,299.6,203.6,303.6,195.5 M370.5,208.4
			c2.1-1.9,6.9-17.8-2.6-15.4C369.4,197.5,364.8,208.1,370.5,208.4 M252.1,208.4c-4.2,14.5,18.2,14.4,30.9,15.4
			c4-10.8-13.3-0.4-12.9-7.7c-1.8-7,12.1,1.8,10.3-5.1c-6.8-5.8-13.1,3.8-18-2.6c0.6-3.7,4.2-4.3,5.1-7.7h-5.1
			c-0.1-1.6-0.4-3.1-2.6-2.6C261.9,205.8,258.7,217.4,252.1,208.4 M295.9,208.4c-0.5-7.2-4.5-11-12.9-10.3
			C283.5,205.3,287.5,209.1,295.9,208.4 M324.2,205.8c0.6-2,0.1-5.1,2.6-5.2c3.1,4.6,0.5,15,5.1,18c2.9-3,2.9-9.1,2.6-15.4
			c-3.1-0.3-6.1-0.8-5.1-5.1c-3.7,1.4-13.3-3-12.9,2.6C320.1,201.3,320.8,204.9,324.2,205.8 M378.2,229c2.1-7.4,10-22.4,2.6-30.9
			C378.6,205.5,370.7,220.5,378.2,229 M326.7,229c-1.9-7.5-15.8-3.1-15.5-12.9c6.4-0.4,8,4,12.9,5.1c2.5-19-14.2-13.5-18-20.6
			C305.1,214,308.1,231.6,326.7,229 M365.3,247c-5.7,9.4,2.9,5.1,7.7,12.9c-3.8-19.7-11-41.3-28.3-54c-3.6,6.7-8.7,11.9-12.9,18
			c6.3,9.1-4.5,21.7,12.9,33.4c10.7-10,11.9,3.2,18,0c-2.6-2.8-11.1-12.6-5.1-15.4C357.3,246.5,360.2,247.9,365.3,247 M388.5,239.3
			c16.7-2.9,5.1-17.3,7.7-25.7c-0.6,2-2.1,3-5.1,2.6C393,229,392,228.7,388.5,239.3 M463.1,218.7c2,0.6,5.1,0.1,5.2,2.6
			c-1.6,0.1-3.1,0.4-2.6,2.6c6.8,0.8,8.4-3.6,7.7-10.3C467.5,212.8,463.7,214.2,463.1,218.7 M180.1,218.7
			c-0.2,16.5,7.8,24.7,23.1,25.7c5-5.4,11.7-22.5,20.6-15.4c-5.3,5-8.4,12.1-12.9,18c8.4,2.7,11.3-1.6,18,5.1
			c3.7-4.8,3.8-13.4,10.3-15.4c0.4,3-0.4,7.3,2.6,7.7c3.6-5,12.2-4.9,12.9-12.9c-13.1,3.8-14.4,3.9-28.3,5.1c0-2.6-2.1-3.1-2.6-5.1
			c3-3.8,6.5-7.3,10.3-10.3c-14,0.7-16.2,1.4-25.7,2.6c2.9-9.7-19-7.1-10.3-2.6C190.8,221,187.2,211.6,180.1,218.7 M324.2,239.3
			c-10-2-14.4-16.6-28.3-15.4C302.9,229.7,313.7,245.4,324.2,239.3 M169.8,239.3c0.9,3.7,13.1,8.8,15.4,2.6
			c-9.9-1-10.6-18.3-10.3-12.9C178.1,237.3,166.6,230.9,169.8,239.3 M566,231.5c-0.6-2-0.1-5.1-2.6-5.2c-0.7,6-6.9,5.9-10.3,2.6
			c-2.1,11.7,27.2,3.4,15.4-2.6C568,228.4,568.5,231.5,566,231.5 M239.3,252.1c12.2,1,16.9-5.4,23.2,2.6c2.5-4.8-7.7-8.6,0-10.3
			c8.9-1.2,1.5,14,7.7,15.4c3.9-5.4,15.3-0.9,5.1-7.7c10.5-2.7,21,7.9,28.3,0c-11.4-5.7-27.1-7.2-36-15.4
			c12.9,1.6,24.1,5.1,33.4,10.3C285.3,224.7,251.3,232.5,239.3,252.1 M324.2,247c-6.7,0.5-17.2-8.2-20.6-2.6
			C305.2,251.3,323,262.5,324.2,247 M308.7,283c7-1.9,5.2,5.1,10.3,5.1c1.5-5.3,5.4-8.3,7.7-12.9c-10.4-18.2-26.7-16.7-51.5-12.9
			C290.1,270,330.5,281,308.7,283 M347.3,280.4c-0.2-4.5,0.6-8,2.6-10.3c-13.5,2.1-1.2-5.5-7.7-10.3h-7.7
			C331.9,273,333,279.2,347.3,280.4 M259.8,288.1c24.6-1.5,37.1,17.1,59.2,10.3c-13.4-14.9-28.3-28.3-51.5-33.5
			C266.9,274.2,255.4,281.8,259.8,288.1 M367.9,272.7c-2.4-2.2-8.3-13.6-12.9-5.1C359.8,267.4,363.7,280.8,367.9,272.7 M367.9,329.3
			c11-10.5-6.2-24.9-7.7-38.6c-10.4,2.4-28.5-11.1-23.2-7.7C338.9,306.6,374,305.7,367.9,329.3 M401.3,285.6
			c0.8,12.1,7,18.8,15.4,23.2c-0.4-8-3.1-16.9-10.3-25.7C405.9,285,404.3,286,401.3,285.6 M509.4,290.7c1.2-8-5.5-8.2-12.9-7.7
			C496.1,295.6,505.6,286.2,509.4,290.7 M324.2,288.1c-0.4,6.5,3.9,8.1,7.7,10.3c3.3-3.1,1.1-9.7-2.6-12.9
			C328.7,287.6,327.1,288.6,324.2,288.1 M396.2,308.7c-1.4,12.9-11.6,20.4-5.1,28.3c6.5-8.1,16-13.1,18-25.7
			c-6.4-3.1-13.8-18.6-20.6-12.9C394.4,301.5,388,321.9,396.2,308.7 M319,308.7c4,1.3,13.8,9.9,18,2.6c-7.6,0.5-10.2-17-18-7.7
			C322.1,304.1,320.6,306.4,319,308.7 M362.7,324.2c-0.4-15.1-14.3-16.6-23.2-23.1C345.1,313.3,353,313,362.7,324.2 M501.7,306.1
			c-9.9,1.4-12.6-4.6-23.1-2.6c0.1,6.1-4.4,7.6-2.6,15.4C490.2,325,494.9,314.4,501.7,306.1 M457.9,337c5-7.1,21-16.7,12.9-28.3
			C466.4,316.4,455.3,330.8,457.9,337 M496.5,324.2c8,5.5,19.2-3.7,20.6-12.9C506.6,305.7,499.2,314.6,496.5,324.2 M517.1,324.2
			c6.1-1.6,18.7,3.2,20.6-2.6c-8.6,0-8.8-8.4-18-7.7C520.2,318.7,516.8,319.5,517.1,324.2 M362.7,334.4c-5.4-8.3-22-19-30.9-15.4
			C346,318.6,356.4,335.5,362.7,334.4 M416.8,344.7c-4,0.2-2,6.6-7.7,5.2c-1.4-9.1,9.1-6.3,7.7-15.4c-12.1,2.7,4.2-8.7-5.1-10.3
			c-17.5,15.1-34.2,31-36,61.7c8.3-2.1,5.3-2.2,10.3,2.6c-1.4-7.2-3.8-13.4-5.1-20.6c18,1.6,3.5,23.4,25.7,23.1
			c-0.1-3.5,1.2-5.6,2.6-7.7c-7.4,2.5,3.3-15.8,7.7-18C410.8,357.1,420.4,340,416.8,344.7 M491.4,329.3
			c-16.6,5.7-34.5,10.1-43.7,23.2c8.5,1.7,11.2,7.4,15.4,2.6c-4.4-0.5,5-8.4,7.7-10.3c-1.5,1.6-6,12.2,0,12.9c1-9.4,5.3-13.8,5.2-18
			C479.2,344.3,486.3,331.2,491.4,329.3 M344.7,334.4c11.3,6.7,4.3,31.7,15.4,38.6C368.7,359.6,358.9,331,344.7,334.4 M486.2,342.2
			c17.4,0.9,33.7,1.4,54-2.6C521.8,336.9,496.9,324.2,486.2,342.2 M293.3,342.2c-5.7,30.6,31.8,23.3,36,23.2
			c-4.7-9.9-11.7-17.4-15.4-28.3C309.7,341.5,302.3,342.6,293.3,342.2 M319,342.2c8.1,3,6.3,16,15.4,18c-1.5-10.1,2.2-14.9,5.1-20.6
			C333.9,338,320.4,333.1,319,342.2 M239.3,349.9c16.6-7.8,34,17.2,54,10.3C286.3,339.3,246.6,338.2,239.3,349.9 M357.6,378.2
			c-10.5-6.7-8.5-25.8-18-33.4c-0.3,10.6-0.5,21.1,2.6,28.3C351.2,369.4,353.2,385.7,357.6,378.2 M524.8,347.3
			c-4.8,4.5,3.1,7.5-2.6,12.9c8.8-3.4,18,5.7,20.6,0c-7.3,0.4,2.1-15.9-5.1-15.4C535.9,352.8,530.8,348.1,524.8,347.3 M488.8,357.6
			c7.1-6.4,32.7,9.8,30.9-10.3C506.3,347.7,493.1,348.1,488.8,357.6 M442.5,373c2.7-5.9,8.9-8.3,7.7-18c-5.1,0.8-5.1-3.5-7.7-5.1
			C438.8,357.5,434.6,366.2,442.5,373 M216.1,373c6.8-1.7,13.1-4,18-7.7C224.5,362.7,213.3,371.7,216.1,373 M457.9,380.8
			c7.4,0.5,13.1-0.7,15.4-5.1c-5.3-0.8-5.1-7-10.3-7.7C460.5,371.3,460.5,377.4,457.9,380.8 M192.9,378.2c12.2-0.7,14.6,14.6,20.6,0
			C206.3,374.6,198.8,371.5,192.9,378.2 M247,378.2c6.5,5.5,16.9,6.5,20.6-2.6c-18.1,4.7-39.4-12.7-43.7,7.7
			c7.2-2.1,20.8,11.2,28.3,23.2c31.4,7.7,65.3,15,87.5,12.9c-21.6-9.5-34.8-28.7-59.2-41.2c-8.3,24.1-25.6,0.5-36,12.9
			C243.3,384.8,249.1,385.5,247,378.2 M319,421.9c3.9,14.1,23.1,12.9,33.4,20.6C347,427,333.5,422.3,319,421.9 M509.4,388.5
			c4.5,0.2,8-0.6,10.3-2.6c0.8-6-0.4-9.9-2.6-12.9c-6.5-0.4-6.3,5.8-10.3,7.7c4.6,0.6,12.9-2.6,10.3,5.1
			C514.1,386.3,509.8,385.5,509.4,388.5 M295.9,380.8c8.3,3.6,6.9,17.1,20.6,15.4C326.6,382.4,304.6,369.1,295.9,380.8 M339.6,385.9
			c6.2-2.3-5.6-7.8-10.3-7.7c-0.6,2-0.1,5.1-2.6,5.1c4.4,16.6,15.2,7.8,18,18c3.6-1.6,0.4-9.9,5.1-10.3
			c-1.1,12.1-1.8,41.3,15.4,48.9C357.7,421.9,358.7,384.1,339.6,385.9 M223.8,398.8c9.3-2.3,17.2,10,23.1,2.6
			c-6.5-3.8-11.5-9.1-20.6-10.3C226.5,394.6,225.2,396.7,223.8,398.8 M226.4,388.5c-10.9-1.1-15.4-9.4-18,5.2
			c7.9-1.9,9.4,2.6,15.4,2.6C223.7,392.7,225,390.5,226.4,388.5 M455.4,385.9c-8.7-3.3-10.6,13-5.1,15.4
			C454.8,398.4,462,392.5,455.4,385.9 M385.9,419.4c-2-12.3,9.2-11.4,7.7-23.2c-8.1,1.2-5.8-7.9-15.4-5.1
			C381.6,399.6,380.4,412.8,385.9,419.4 M465.7,403.9c-0.1-4.7,13.2-8.7,5.1-12.9C468.6,393.5,457.2,399.3,465.7,403.9 M347.3,416.8
			c-4.2-11.2-14.4-16.5-23.1-23.1c-1.5,13.8,9.7,18.8,18,15.4C340,414.3,344.4,425,347.3,416.8 M455.4,419.4c0.6-2,2.2-3,5.1-2.6
			c-5.8-6.8,3.8-13.1-2.6-18C454.3,401.3,448.7,415,455.4,419.4 M545.4,414.2h12.9c4.1-10.1-6.7-5.3-7.7-10.3c2.6,0,3.2-4.5,0-5.1
			C551.2,406.3,544.7,406.7,545.4,414.2 M439.9,432.2c7.3-5.8,11.3-23.2,2.6-30.9C438,410,431.2,424.4,439.9,432.2 M517.1,414.2
			c2-8.9-2.4-11.3-7.7-12.9C508.9,408.7,509.1,415.4,517.1,414.2 M398.8,460.5c0.7-5.3,6.9-5.1,10.3-7.7
			c-9.7-15.7,2.9-38.6-10.3-48.9C376.9,417.2,393,449.4,398.8,460.5 M419.3,409.1c-0.5,7.4,0.7,13.1,5.1,15.4
			c-3.5-8.1,6.4-15.5,0-18C423.9,408.5,422.3,409.5,419.3,409.1 M452.8,424.5c-1.3,12.5-13,14.4-15.4,25.7
			c-5.1,17.5,9.6-14.4,18-15.4c11.5-2.2,18.4-9,20.6-20.6C466.4,415.8,460.9,421.4,452.8,424.5 M576.3,452.8
			c7.5,0.6,8.9-4.8,12.9-7.7c-0.1,7.8,9,6.4,15.4,7.7c-2.6-7.7,5.7-4.6,10.3-5.2c0.4-22.7-21.8-22.8-38.6-28.3
			c-0.4,3.8,0.9,9.5-2.6,10.3c-4.9-4.5,3.5-8-5.1-10.3c-5.1,6.7,7,11.9-2.6,18c8.1-3,6.3,4,10.3,5.1c-4.7-8.8,1.5-11.2,10.3-12.9
			v10.3c7.9,1.9,5-7,12.9-5.1c0.8,9,7-0.2,7.7,5.1c-4.9,0.3-1.8,8.5-7.7,7.7C601.7,436.5,582.4,443.3,576.3,452.8 M460.5,445.1
			c4.9-7.2,13.4,3.5,20.6,2.6c2-9.1,12-10.3,18-15.4C484.4,424.5,459.7,437.7,460.5,445.1 M540.3,481.1c-4.3,5.1-6.5,12.3-12.9,15.4
			c-1.4-3.7-4-6.3-7.7-7.7c-1.2,3-2.7,5.8-5.1,7.7c-0.6-2-0.1-5.1-2.6-5.1v5.1c-1.4,0-2.9,2.1,0,2.6c5.8-1.4,23.3-3.7,28.3-5.1
			c-2.3,4.5-5.8,8-10.3,10.3c-7.2-6.9-12.7,2.4-20.6,2.6c-0.4,9.8,0.1,18.7,5.1,23.2c7-4.7,0.4-8.7,5.1-12.9
			c0.3,3.1,0.8,6.1,5.2,5.1c-1.2-8.1,6.9-6.8,7.7-12.9c-4.4-1-6.6,3.8-7.7,0c24.2-0.4,32-33.8,43.7-30.9
			c-1.2-17.4-4.1-27.1-7.7-46.3c-10.6,0.3-8.6,3.1-18,7.7c-1.2-3-2.7-5.8-5.1-7.7c-2.5,2.6-5.1,5.2-7.7,7.7
			c-0.3-8.2-5.8-11.3-15.4-10.3c-2.1,6.7,7.8,14.1,0,18c1.5-6.7-1-9.2-7.7-7.7c4.1,9.2-2.5,15.7,7.7,20.6c-1.2-5,11.8-8.3,12.9-2.6
			c-3,0.4-7.3-0.5-7.7,2.6c1.8,2,14.4,5.7,15.4,0c-2.4-2.2-1.7-6.3-2.6-15.4c-12-2.3,1.7,8.5-5.1,7.7c0-5.1-7-3.3-5.2-10.3
			c4,4.9,10-3.7,15.4,2.6c0.6-2,0.1-5.1,2.6-5.2c0.8,10.7-5.5,12.6,0,20.6c0.6-2,0.1-5.1,2.6-5.1c8.7,8.5,10.9-11.3,18-12.9
			c-4.8,4.9-0.3,6.5,0,12.9c-8.2-3.3-19.2,23-10.3,20.6c-2,5.9-15.9,2.5-12.9-5.2c4.9-1.1,11.1-0.9,10.3-7.7
			c-11.4-0.2-12.6,9.7-18,15.5C533.8,479,539.5,477.6,540.3,481.1 M205.8,437.4c10.5-2.7,21,7.9,28.3,0
			C225.2,437.4,209.7,426.6,205.8,437.4 M177.5,450.2c11.5,2.2,21.8-1.2,33.5-7.7C196.8,441.8,182.4,436.9,177.5,450.2 M483.7,450.2
			c-1.8,7.9-1.8,4.9,0,12.9c9.2-1.1,19.9-0.6,23.1-7.7c-5.8-1.1,0.4-14.1-7.7-12.9C495.6,451.5,488.5,447.1,483.7,450.2
			 M455.4,463.1c6.4,6.6,9.2-1.7,12.9-5.1c0.2,4.5-0.6,8-2.6,10.3c8.3-1.1,14.9-3.9,12.9-15.4c-15.2-12.5-35.5,0.3-41.2,12.9
			c15.2,6.5,18-12.7,23.2-7.7C460.5,461.3,456,460.3,455.4,463.1 M591.7,470.8c15.1,5.6,14.1-18.3,25.7-7.7h-7.7
			c-2.3,10.9,4.2,12.9,10.3,15.5c-0.8-5.1,3.5-5.1,5.2-7.7c-8.1-1.8-3.4-6.9-2.6-12.9c-3.8-7.2-10.5,4.5-12.9-2.6
			c6.6,2.2,16.2-11,10.3-5.1C607.8,454.3,592.6,455.4,591.7,470.8 M295.9,450.2h-28.3c1.3,8.9,13.8,6.7,20.6,10.3
			C285.9,452.2,296.6,457,295.9,450.2 M573.7,465.6c4.5-0.2,8,0.6,10.3,2.6c1-6.7,7.7-7.8,7.7-15.4
			C584.2,455.6,574.3,456,573.7,465.6 M679.2,478.5c7,0.2,5.2-4.3,10.3,0c4.5-4.1,3.4-13.8,7.7-18c0.3,11.3,7.6-7.6,12.9-7.7
			C695.3,456.9,683,463.5,679.2,478.5 M308.7,460.5c6.4-2.2,13.8-3.4,12.9,7.7c8-3.4,10,2,15.4-5.1
			C327.5,464.6,313.6,447,308.7,460.5 M339.6,483.7c0.4-9.1,15.3,7.6,25.7,5.1v-5.1c-0.6-2-0.1-5.1-2.6-5.1
			c-0.8,2.9-11.2,8.8-12.9,2.6c1.3-3.8,3.8-6.5,5.2-10.3C346.5,463.9,332.4,476.1,339.6,483.7 M437.3,496.5
			c5.9-0.7,9.7,0.6,10.3,5.2c-1.3,3.8-3.8,6.5-5.1,10.3c11.1,6.2,9.7,15.9,28.3,10.3c3.5-13.8-12.6-8-15.4-15.4
			c8.4-1.5,12,1.7,18,2.6c3.3-9.2,5.3-30.5-2.6-36c3-0.4,7.3,0.4,7.7-2.6c-14.1,3.4-23-1.9-30.9,2.6c3.4,2.8-9,13.1-10.3,12.9
			C446,488.6,439.6,492,437.3,496.5 M481.1,473.4v25.7C510.5,505.2,504.4,468.8,481.1,473.4 M316.4,478.5h-10.3
			C304.1,488.4,318.5,488.4,316.4,478.5 M319,483.7c-1.9,9.8,16.6,5.6,12.9-2.6C325.9,480.3,322,481.5,319,483.7 M614.9,504.2
			c5,2.9,13.2,1.2,7.7-2.6c-0.2,1.6-0.4,3.1-2.6,2.6c-1.2-8.1,6.9-6.8,7.7-12.9c-2-0.6-3-2.2-2.6-5.1c-21.7-5-22.2-2.8-43.7-2.6
			c2.1,7.3-3.6,6.7-2.6,12.9c11.6-1.2,14.5-0.5,25.7,7.7c3.4-11.6,11.7-3.3,18-12.9C621.1,496.7,617.2,499.7,614.9,504.2
			 M316.4,496.5c14.9,0,17.6-1.7,33.4,5.2c-2.9-8.1,4-6.2,5.2-10.3C340.2,491.1,325.5,491,316.4,496.5 M355,496.5
			c-0.7,11,7.5,13.1,12.9,18c0-6.8-1-14.7,2.6-18C364.4,495.7,359.8,491.5,355,496.5 M298.4,499.1c0.4,28.2,35.7,13.3,48.9,12.9
			c-5.2-0.8-6.8-5.2-10.3-7.7c-0.5,2.9-2.9,4-5.1,5.1C329.6,500.1,304.9,498.1,298.4,499.1 M378.2,524.8c4.4-8.9,0.8-20-5.1-25.7
			C373.4,509,371,521.7,378.2,524.8 M578.8,506.8c14.1,2.3-9.4,5.2,2.6,15.4c-0.5-5.6,2.1-8.2,7.7-7.7c0.8,5.1-3.5,5.1-5.1,7.7h10.3
			c0.2-7-4.3-5.2,0-10.3c-3-1.2-5.8-2.8-7.7-5.1c-0.6-2-0.1-5.1-2.6-5.1C584,505.1,579.5,504,578.8,506.8 M272.7,509.4
			c-0.3,10.7,23.2,11,28.3,7.7c-7.2-3.1-9.6-10.9-18-12.9C285.6,512,277.3,508.8,272.7,509.4 M483.7,514.5
			c-0.7,5.9,0.6,9.7,5.1,10.3c4-6.3,5.3-15.3,10.3-20.6c-9.6,3.8-14.7-2.7-18,5.1c3.4,6.3,9.6-2.8,10.3,2.6
			C488.1,512.1,487.8,515.3,483.7,514.5 M493.9,524.8c8.9,1.8,14.4-12.8,7.7-18C501,514.7,496.1,518.4,493.9,524.8 M542.8,519.7
			c-5.3-2.9-2.2,0.2-5.1-5.1c-0.8,6.1-8.9,4.8-7.7,12.9c4.9-0.6,5.7,2.9,10.3,2.6c5.7-3.7-3.2-6.3,2.6-7.7
			c1.3,8.2,23.2-4.3,20.6,7.7c-11.8-5.5-26.1,6,0,2.6c5.3-6.7,7.7-16.3,10.3-25.7c-7.5,3.4-13.3-1.7-25.7,0
			C543.1,511.9,545.6,517.8,542.8,519.7 M337,522.2c3.4,6.2,19.6,17.8,23.2,7.7c-6.1-1.5-6.1-9-15.4-12.9
			C344.7,521.4,337.6,518.5,337,522.2 M380.8,532.5c-5.1,0-3.3-7-10.3-5.2c0,3.4-4.5,2.4-5.2,5.2c3.4,0,2.3,4.5,5.2,5.1
			c-0.1-4.4,2-6.6,5.1-7.7C374.8,534.1,379.1,536.9,380.8,532.5 M488.8,542.8h5.1c0.1,1.6,0.4,3.1,2.6,2.6
			c-1.5-4.5,3.1-15.1-2.6-15.4C494.3,536.4,489.9,537.9,488.8,542.8 M439.9,576.3c-2.9,5.6-10,5.6-12.9,0c8,0.3,12.3-3.1,18-5.1
			c3.6-13.7-6.4-22.7,2.6-36c-6-0.8-9.7-4-18-2.5c-12.3,16.4-9,47.2-5.1,64.3v-7.7C436,592.8,444.7,580.4,439.9,576.3 M452.8,535.1
			c1.7,11.6-7.1,20.2,2.6,25.7c3.3-10.4,7.5-19.2,5.1-28.3C460.1,535.5,456.4,535.3,452.8,535.1 M676.6,548
			c1.9-11.5-13.2-19.2-20.6-12.9C671.2,536.5,666.6,544.8,676.6,548 M463.1,550.6c6,0.8,9.9-0.4,12.9-2.6
			c0.7-8.4-3.1-12.4-10.3-12.9C467.5,543,461.2,542.7,463.1,550.6 M535.1,537.7c-6.1,8.5-19.5,9.6-25.7,18
			c24.1-0.7,43.5-15.5,59.2-12.9C567.8,525.4,548,542.9,535.1,537.7 M584,540.2c-2.6,0-3.1-2.1-5.1-2.6V548
			c8.5-0.9,11.1-7.7,15.4-12.9c-3.7,1.4-13.3-3-12.9,2.6C583,537.8,584.5,538.1,584,540.2 M661.2,553.1c-0.1-10.8-3.8-18.3-20.6-18
			c2.9,8.1-4,6.3-5.1,10.3c9.1,6.4,23.9,7,28.3,18c-8.2,3-16,8-15.4,12.9c-7.7-3.8,1.9-11.5,7.7-10.3c-1.9-12.7-17-12.2-25.7-18
			c-0.6,2-0.1,5.1-2.6,5.2c-4,9.1,8.7,1.6,7.7,7.7c-5,4.2-16.6-0.5-23.2-2.6c3.3,10.1-6.1,7.6-12.9,7.7
			c-2.1,20.2-25.4,19.2-25.7,41.2c4.9,9.9,14.8-1.3,18,2.6c-3.4,2-13.6,10.1-15.4,5.1c2.7-0.1,2-3.3-2.6-2.6v5.1
			c22.7,2.9,37.5-24.2,51.5-38.6c21.4,10.2,43.2-9.3,41.2-23.1c5.8,1.1-0.4,14.1,7.7,12.9C686.4,559.8,669.4,539.5,661.2,553.1
			 M504.2,550.6c5.8-3.7,26.1-6.4,20.6-12.9C519.3,543.3,507.2,542.3,504.2,550.6 M596.8,548c3.3-5.3,14.4-2.7,15.4-10.3
			C602.5,534.9,592.7,545.3,596.8,548 M370.5,560.8c4.9,1.1,6.5,5.6,12.9,5.1c1.6-12.7-8.4-1.3-7.7-15.4c4.8-2.5,8.6,7.7,10.3,0
			c-5.4-1.5-7.3-6.4-15.4-5.1C368.4,554.3,375.3,556.3,370.5,560.8 M355,553.1c4.9-0.6,5.7,2.9,10.3,2.6c-0.1-3.6,1.2-5.7,2.6-7.7
			C361.5,547.6,355.4,547.5,355,553.1 M537.7,560.8c5.9,0,30.8,5.7,28.3-10.3C551.2,548.6,544.3,554.6,537.7,560.8 M365.3,594.3
			c5.4,4.5,7.6,5.8,15.4,2.6c-1.4-3.7,3-13.3-2.6-12.9C378.3,591.8,365.2,586.5,365.3,594.3 M380.8,573.7
			c-13.9-5.8-26.8-26.3-46.3-18c15.3,6.1,17.7,25.1,30.9,33.4C371.9,585.4,381.7,584.9,380.8,573.7 M470.8,566
			c3.3-6.1,16.7-2.2,18-10.3C481.7,547.8,465.5,561.9,470.8,566 M584,563.4c3.5,2.8,16.5-0.6,15.4-10.3
			C589.8,552.1,584.3,555.2,584,563.4 M452.8,573.7c4.9-3.8,16.7-14,12.9-18C465.4,564.1,445.2,566,452.8,573.7 M496.5,571.1
			c-1.2-8.1,11.8-1.9,12.9-7.7C503.3,558.2,488.2,563.7,496.5,571.1 M558.3,578.8c1.9,4.1,12.6-0.6,10.3,7.7
			c-7.3,2.1-6.7-3.6-12.9-2.6c-2.5,10.5,0.3,10.4,0,23.2h12.9c0.3-12.6,5.5-20.2,15.4-23.2c0.8-9.4-0.4-16.7-2.6-23.2
			C568.1,561.2,563.8,570.6,558.3,578.8 M486.2,566c-13.7,2.6-24.6,8-33.4,15.4C464.9,594.6,483,582.6,486.2,566 M512,596.9
			c-10.8-0.3-0.1-17.2,5.1-18c-0.1,3.6,1.2,5.6,2.6,7.7c-8.9,0-8.4,10.3-2.6,12.9c5.4-5.8,14.3-7.9,20.6-12.9
			c-9-5.5-13.3-15.8-25.7-18c-4.4,4.2-6.4,10.8-5.2,20.6c-3.5-0.1-5.6,1.2-7.7,2.6c-1-6.2,4.7-5.6,2.6-12.9
			c-10,2-20.1,3.9-23.1,12.9c11.6-3.9,2.3,1.7,12.9,5.1c-4.1,0.3-8.9-0.3-7.7,5.1c3,0.4,7.3-0.4,7.7,2.6c-1.6,0.1-3,0.4-2.6,2.6
			C500.2,607.4,511.6,607.6,512,596.9 M681.7,584c-13.8-0.3-4.4-10.4-12.9-12.9c-4.5,5.2,1.9,5-2.6,10.3
			C672.9,579.4,678.1,591.5,681.7,584 M545.4,586.6c-0.1-3.5,1.2-5.6,2.6-7.7c-9.2,3.8-15.4-8.3-18-2.6
			C536.9,577.9,536.4,587,545.4,586.6 M164.6,581.4c2.5,2.9,11.1,12.6,15.4,5.1c-8.7-2.3-0.3-5.8-5.1-10.3
			C170.2,576.6,166.3,578,164.6,581.4 M609.7,609.7c6.4-7.3,24.8-2.7,28.3-12.9c7,9.2,38.9,6.7,46.3,0
			C669.3,572.2,605.3,585.3,609.7,609.7 M149.2,594.3c6.1-0.1,7.6,4.4,15.4,2.6c-4.4,12.7,25.3,25.7,33.5,25.7
			C182.2,614.5,173.3,585.7,149.2,594.3 M136.4,604.6c2.5,2.2,16.2,1.1,20.6-2.6c-7-4.1-12.6,2.9-15.4-7.7
			C143.4,601.3,136.4,599.5,136.4,604.6 M540.3,609.7c1.6,0.1,3.1,0.4,2.6,2.6h5.2c-2.1-7.3,3.6-6.7,2.6-12.9
			c-7-2.8-14.7-2-20.6,2.6c5.7,4.2,13.9-0.6,15.4,2.6C542.5,605.1,541.4,607.4,540.3,609.7 M213.5,625.2c-8.7-2.4-1.3-4.8-2.6-12.9
			c-5.4-3.2-10-7.1-15.4-10.3c0.6,4.9-2.9,5.7-2.6,10.3c10.6,1.1,16.4,6.9,7.7,7.7C205.4,619.9,209.4,633.2,213.5,625.2
			 M429.6,614.9c9.2,0.6,13.5-3.7,12.9-12.9C432.4,600.4,431.1,607.8,429.6,614.9 M115.8,625.2c-2.9-0.6-4-2.9-5.2-5.1
			c11.3-2.7,20.7-5,30.9-2.6c0.9-15.5-8-4.1-15.4-2.6c0.1,0-0.5-6.5-5.1-5.1c-6.9,2-21.1,9.1-23.2,18
			C107.4,621.6,117.1,628.3,115.8,625.2 M144.1,612.3c4.3,0,1.4,7.1,5.1,7.7c15.9,0.4,41.1,13.8,59.2,20.6
			C194.3,626.7,162.9,604.5,144.1,612.3 M504.2,617.4c6.6,6.5,14.1-3.9,18,5.1c-4.5-0.2-8,0.6-10.3,2.6c-0.7,7.5,5.8,7.9,5.1,15.4
			c17,0.7,24.7-7.9,28.3-20.6C538.4,604.6,514.1,605,504.2,617.4 M553.1,625.2c8.5-0.9,11.2-7.7,15.4-12.9
			c-6.6,5.1-11.8-2.7-15.4,2.6C559.8,615.5,549.6,619.3,553.1,625.2 M442.5,625.2c-0.1-3.5,1.2-5.7,2.6-7.7
			c-13.1,4.3-36.5,19.4-15.4,28.3C438.8,636,431.6,623.5,442.5,625.2 M128.6,625.2c6.1-1.6,18.7,3.2,20.6-2.6
			C140,624.5,131.5,614.6,128.6,625.2 M442.5,645.7c0.8-9.6,16.9-17.3,10.3-25.7C451.3,628.9,437.7,639.1,442.5,645.7 M447.6,645.7
			c20.3,5.2,18.3-22.8,30.9-10.3c0.9-9.1,7.1-6.3,2.6-15.4C467.2,625.8,455.9,634.3,447.6,645.7 M491.4,630.3
			c7.1,2.4,17.1,15.3,23.2,10.3c-6.8-5.2-6.2-17.8-15.4-20.6C498.3,625.2,492.1,625,491.4,630.3 M223.8,640.6
			c9.9-5.1,11.3-5.3,18,2.6c-1.8-7,12.1,1.9,10.3-5.1c-7.7,2.6-4.5-5.7-5.1-10.3C241.2,635.5,224.8,619.7,223.8,640.6 M293.3,648.3
			c6.7-3,11.1,7.9,10.3-2.6c-5.7-1.1-5.7-3.3,0-10.3C296.3,635.9,292.6,639.9,293.3,648.3 M481.1,650.9c4.8-0.5,15.6-16,5.1-15.5
			C487.5,643.5,478.3,641.3,481.1,650.9 M208.4,661.2c0.6-2,2.1-3,5.2-2.6c-0.7-19.6-45.7-26.8-46.3-2.6
			c13.1-0.1,16.2,23.2,28.3,15.5c-11.8-3.3,4.5-11,7.7-10.3c3.7-9.7-7.1-4.9-5.1-12.9C209,649.9,204.7,656.8,208.4,661.2 M254.7,656
			c1.2-8-2.2-11.5-10.3-10.3C244.7,652.3,248.2,655.7,254.7,656 M283,653.4v7.7c6.1,6.3,4.8-3.8,12.9-2.6c-0.8,5.2-5.2,6.9-7.7,10.3
			c11.3-1,26.3,5.4,36,2.6C313.9,666.5,308.8,654.1,283,653.4 M349.9,674c-8.3,2.2-5.3,2.2-10.3-2.5c-9.8,11.5,11.5,27.2,23.2,33.4
			c5.3-2.5,10.2-5.3,15.4-7.7c-4.4-9.2-24.7-26.1-5.1-23.2c0,3.4-4.5,2.4-5.1,5.2c8.9,1.4,6.2,14.3,18,12.9c3.5-7.4-2.2-24.3,0-38.6
			c-12.7-1.5-15.6,6.7-28.3,5.1C354.9,668.6,345.6,668.8,349.9,674 M272.7,658.6c-2.7,7.2,4,17.9,7.7,10.3c-13-2.4,7.5-7.5-2.6-12.9
			C277.3,658,275.7,659,272.7,658.6 M159.5,679.2c-0.4-13.6,14.1-0.9,18-12.9c-4.5-2.3-7.5-6.2-12.9-7.7
			C164.2,665.2,153.7,674.9,159.5,679.2 M460.5,674c5.6-5.5,16-6.3,18-15.4C468.2,657.8,458.2,670.7,460.5,674 M265,676.6
			c-0.9-8.7-13.3-19.1-20.6-12.9C255.2,664.1,254.6,675.8,265,676.6 M491.4,676.6h18c-2.5-4.8,7.7-8.6,0-10.3
			c-4.1,9.5,0.6-10.4-7.7-5.2C498.6,666.7,487.7,664.4,491.4,676.6 M200.7,671.5c6.4-0.4,7.9,4,12.9,5.1c-0.2-4.8,2-5.4,5.1-2.6
			C221.7,663.5,200.8,663.7,200.7,671.5 M530,674c8.3,3.2,2-8.3,10.3-5.1c-1,3.7-3.1,4.3,0,7.7c3.7-1.4,13.3,3,12.9-2.6
			c-10.2,0.5,0.8-3.9-5.1-7.7C539.7,666.7,528.3,663.8,530,674 M419.3,689.5c8.2-0.2,20.6-2.9,18-20.6
			C426.9,669.6,419.3,686.7,419.3,689.5 M563.4,679.2c-2.5-4.8,7.7-8.6,0-10.3c-1.1,4.4-3.3-0.6-7.7,0
			C555,675.6,556.6,680,563.4,679.2 M277.9,689.5c2.6-8-5.3-18.4-7.7-12.9C274.6,680.4,267.9,687.3,277.9,689.5 M293.3,676.6
			c-5,4.7,2.2,8.7,5.1,12.9c3.7-4.4,25.1,9.6,28.3-10.3C315.5,679.1,304.1,669,293.3,676.6 M213.5,681.7c-2.9-4.7-18.8-9.4-20.6,0
			C200.7,679.4,213,685.4,213.5,681.7 M455.4,697.2c10-4.6,25.5-3.6,28.3-15.4C474.7,669.1,461.6,690.6,455.4,697.2 M226.4,686.9
			c5.9,5.1,2.9-0.7,7.7-2.6c3,18.2,14.4,17.1,28.3,15.4c-3.4,2.6-9.5,2.5-12.9,5.2c-0.6,4.9,2.9,5.7,2.6,10.3
			c11.4-0.6,7.8-16.2,15.4-20.6c-13.6-0.1-30.6,3.2-28.3-12.9C232.9,681.4,228.6,683.1,226.4,686.9 M329.3,681.7
			c-32.9,41.6,35.1,52.2,59.2,74.6c1.6-17.9-7.6-24.9-15.4-33.4c-8.3-3.2-2,8.3-10.3,5.1c9.7-13.9-4.1-8,0-15.4
			C349.1,713.7,346,690.8,329.3,681.7 M156.9,694.6c-2.6,3.4-2.5,9.5-5.1,12.9c16.3-8.3,44.7,3.3,46.3-10.3
			c-3.2,1.9-9.9,4.7-5.2-5.2c-10.1-3.3-6.2,7.5-12.9,7.7c5.6-13.9-2.4-0.1-7.7-7.7c0.4-2.6,15.7-2.5,7.7-5.1
			C170.2,687.3,168.2,695.6,156.9,694.6 M208.4,702.3c3.7-1.4,13.3,3,12.9-2.6c-3.2-1.1-5.3-3.3-5.2-7.7c-4.5-0.2-8,0.6-10.3,2.6
			c-0.6-2-0.1-5.1-2.6-5.1C202.9,695.9,207.3,697.4,208.4,702.3 M311.3,710c2.1-13.4-16.4-19.5-25.7-12.9
			C297.2,698.4,300.1,708.4,311.3,710 M427.1,697.2c-7.3-2.1-6.7,3.6-12.9,2.6c0.2,7.3,9.7,10.9,2.6,18c6.4-3.3,8.1,1.3,10.3-2.6
			C425.1,706.7,429.1,712,427.1,697.2 M367.9,712.6c6.4,6.6,8.6,1.5,18,5.1c3.5-3.3,2.5-11.2,2.6-18c-3.8,0.4-9.5-0.9-10.3,2.6
			C380.4,709.9,373.5,704.4,367.9,712.6 M259.8,720.3c7.5,1.5,11.1,12,15.4,2.6c1,6.7,2.9,12.2,12.9,15.4c-4-13.7-15.2-29.2-18-36
			C267.4,709,260.8,711.9,259.8,720.3 M293.3,728.1c8.9,0.3,12.1-5,18-7.7c-12.8-2.7-15.4-15.4-28.3-18
			C283.2,714.2,290.3,719,293.3,728.1 M136.4,733.2c6.1,4.1,12.3,6.3,18,0c-3.1-0.3-6.1-0.8-5.1-5.1c8.5,3.5,25,3.8,25.7-7.7
			c-8.8,0.2-18,0.8-20.6-5.1c5.4-3.5,14.6,6.4,28.3,2.6C172.7,694,139.1,717.5,136.4,733.2 M493.9,720.3c4.3,1.9,11.8,13.6,18,5.1
			c-4.5-9.5,5.6-4.3,10.3-5.1v-12.9C505.4,709.9,500.6,708.4,493.9,720.3 M239.3,715.2c-10.3-2.2-19,3.8-23.2,0
			C217.1,727.4,241.2,725,239.3,715.2 M388.5,722.9c-3-0.4-5.8-4.6-7.7,0c5.3,0.7,5,7,10.3,7.7c-1.4-3.7,3-13.3-2.6-12.9V722.9z
			 M460.5,730.6c9.3-1.3,14.6-3.3,25.7-7.7C476.9,721.4,465.9,721.4,460.5,730.6 M182.7,735.8c-0.6-2-0.1-5.1-2.6-5.1
			c-3.6,8-23,17.4-10.3,25.7c-5.7-1.1-14.2,7.7-7.7,10.3c0-3.4,7.1-3.3,7.7,0c-3.4,2.6-9.6,2.4-10.3,7.7c9.2,2.9,8.5,15.5,20.6,15.4
			c3.3-12.7,4.9-20.4,10.3-25.7c6.2,8.3,5.9,6.3,15.4,2.6c-0.1,3.5,1.2,5.6,2.6,7.7c-3.5,0.8-4.9,3.7-10.3,2.6
			c2.8,12.9,15.5,18.4,25.7,10.3c-0.1,3.3-3.3,3.6-2.6,7.7c16.4-2.7,23.6,2.1,33.4,0c-12.1,4.6,5.1,13.4-2.6,20.6
			c15.3,2.3,17.9-21.5,25.7-18c-9.4,7.5-1.5,16.7-12.9,20.6c9.2,2,16.4,5.9,18,15.4c13.7-3.6,25.6,3.9,33.5-7.7
			c-8.4-3.9-18.2-10.3-23.2-10.3c0.2-4.1,6.6-2,5.1-7.7c-8.7-1.6-6.3-14.3-15.4-15.4c0.1,2.7-1.2,6.5-2.6,2.6
			c5.8-6.1,11.3-12.7,18-18c-1.4-8-2.1-16.8-5.1-23.2c-21.6-4.3-31.8-4-46.3,7.7c0.6-0.5-1-6.3-2.6-5.1
			c-6.3,9.8-23.6,30.2-33.4,12.9c6.9,7,27.1-6.1,15.4-10.3c4.9-0.6,5.7,2.9,10.3,2.6c1.5-5.4,6.4-7.3,5.1-15.4
			c-7.7-10.4-15.3,4.1-23.1-2.6c5.7-2,10.3-5.2,10.3-12.9c-13.5-10.4-29.7,1.7-41.2-2.6C208,719,181.9,727.5,182.7,735.8
			 M262.4,728.1c-3.8-1.4-6.5-3.8-10.3-5.1c-3.4,6.4,12,6.2,2.6,10.3c-4.1-7.5-6.3-2.8-15.4-2.6c5.2,11.6,18.7,18,30.9,10.3
			C264.3,739.2,257.2,733.2,262.4,728.1 M367.9,784.7c-14.9-6.9,15.6-9.1,10.3-23.2c-9.5-3.4-17.2-8.6-23.1-15.4
			c-6.6-2.8-9,11.1-12.9,2.6c0-3.4,4.5-2.4,5.1-5.2c-8.2-8.1-21.8-10.8-30.9-18c-2.8,13.4-10,29.4,2.6,38.6c0.3-4.2,17.6-4.2,18,0
			c-6.6,6.5-14-3.9-18,5.1c7.1-1.1,2.4,9.6,7.7,10.3c0.3-2.1,8.5-7.8,7.7-2.6c-0.4,3-4.1,2.8-7.7,2.6c0.9,8.5,6,12.8,10.3,18
			c5.2-5.3,0.7-6.9-2.6-10.3c6.7-1.9,7.9-9.3,15.4-10.3c0,2.6,2.1,3.1,2.6,5.1c-11.1,1.1-3.4,8.8-7.7,12.9c8.9,0.4,4.1-13,12.9-12.9
			c0.6,2,0.1,5.1,2.6,5.1C359.4,779.2,367.6,793.8,367.9,784.7 M717.8,740.9c-6.2-1.6-11.7-3.7-20.6-2.6
			c3.4,10.3,19.8,7.6,30.9,10.3c-4.3-9.7,12-11.7,5.1-15.4C728,745.4,712,732.5,717.8,740.9 M740.9,728.1c-6-0.8-9.7-4.1-18-2.6
			c0.6,4.9-2.9,5.7-2.6,10.3C727.5,733.5,736,732.6,740.9,728.1 M481.1,728.1c-0.6,2-2.2,3-5.1,2.6
			C474.7,739.9,513.3,723.7,481.1,728.1 M632.9,738.3c10.9,2.9,24.7,9.1,28.3-10.3C651.7,731.5,642.5,735.1,632.9,738.3
			 M306.1,743.5c-3.3-6.4,7.5-10.7,0-12.9c-0.6,2.8-4.2,6.2-5.1,2.6c1.4,0,2.9-2.1,0-2.6C293.4,734.4,312.4,749.6,306.1,743.5
			 M429.6,756.3c3.5-7.5,9.1-23,0-23.2C428.6,742.1,420.1,751,429.6,756.3 M560.8,758.9c-3.7,1.4-6.3,4-7.7,7.7
			c17.9-1.8,41.5,2,36-23.2c-19.8-3.9-50.1-10.9-61.7-7.7c3.1-0.8,8.9,7.4,2.6,7.7c-3.5-4.7-20.6-14.2-20.6,0
			c11.3,2.7,18.7,6.9,25.7,7.7c-10.1,11.2-12.5-3.6-23.1-5.1c-1.1,5-10,2-7.7,10.3c5.9,3.5,9.7-6.6,10.3,0c-4.2,0-1.4,7.1-5.1,7.7
			c-6.5-2.2-13.5-17.2-20.6-10.3c11.6,2-2.7,16.8,10.3,25.7c14.4,0.8,26.9-11.5,36-7.7c8.2-5.4,5.7-17.5,7.7-23.1
			C544.8,761.4,554.8,750.2,560.8,758.9 M496.5,748.6c13.2-0.1,11.3-14.7-2.6-12.9C492.9,742,498.6,741.4,496.5,748.6 M607.1,740.9
			c-3.8,1.4-13.3-3-12.9,2.6C599.6,746.1,607.3,752.7,607.1,740.9 M620,753.8c12.5,2.5,6-7.4,5.2-12.9c-4.3,0-8.6,0-12.9,0
			c0.6,4.9-2.9,5.7-2.6,10.3c7.5,0.7,7.9-5.8,15.4-5.1C624.5,749.7,620.9,750.4,620,753.8 M591.7,758.9c6.2,1.1,5.6-4.7,12.9-2.6
			c0.8-6.8-5.4-6.6-10.3-7.7C594.5,753.1,593.7,756.6,591.7,758.9 M445.1,769.2c-3.4,0-3.3,7.2,0,7.7c2.1-6.2,3.8-18.7-5.1-20.6
			C437.7,764.5,442.2,766.1,445.1,769.2 M638,761.5c-0.6-3.9-4.2-0.4-5.1,2.6c7.4,3.2,11.7,1.3,12.9-7.7
			C640.7,755.6,640.6,759.8,638,761.5 M455.4,797.5c-3.6-3.3-1.1-12.6-7.7-12.9c2,7.5,4.1,14.8,10.3,18c3.7-4,3.4-12,7.7-15.4
			c6.4,12,13.7-0.1,15.4-7.7c-0.1,4.4,2,6.6,5.1,7.7c0.4-3,4.1-2.8,7.7-2.6c-1.4-10.6-6.6-17.4-12.9-23.2
			c1.8,7.1-16.5,7.2-10.3,10.3c4.4,1,6.6-3.8,7.7,0c-6.1,4.3-14.6,4.5-20.6,2.6c-5.6,7.1-1.3,13.6,2.6,12.9
			C461.2,793.1,459.9,796.9,455.4,797.5 M612.3,776.9c11.3-3,13.2,0.7,23.2-2.6c0.6-10-9.6-9.3-15.4-12.9
			C617.7,766.9,612.2,769.1,612.3,776.9 M82.3,779.5c0.5,7.2,4.5,11,12.9,10.3c-3-15.2,0.6-1.7,7.7,0c0.1-7.8-2.3-13.1-7.7-15.4
			C93,778.2,88.7,779.9,82.3,779.5 M581.4,774.3c-20.3-2.3-31.6,4.4-41.2,12.9c23.8,3.6,22.2,3,43.7,0
			C586.1,779.9,580.4,780.5,581.4,774.3 M663.7,784.7c-6-5.1-16.4-5.9-28.3-5.1C635.7,788.8,657.7,789.7,663.7,784.7 M185.2,797.5
			c2.9-5.7,17-0.2,18-7.7C198.6,777.7,175.5,783.9,185.2,797.5 M172.4,800.1c1.6-11.9-9.8-10.8-15.4-15.4
			C158.9,793,161.2,801,172.4,800.1 M293.3,789.8c-1.4,9.1,9.1,6.3,7.7,15.5c7.8-3.2,10-2,15.4,2.6c-5.5-9.1-6-23.2-20.6-23.2
			C295.3,786.6,295.8,789.7,293.3,789.8 M151.8,802.7c2.8-8.8,0.8,7.2,7.7,2.6c2.3-8.3-6.7-5.3-7.7-10.3c-0.3-2.9,3.7-4,0-5.1
			C150.3,791.3,145.8,802,151.8,802.7 M427.1,807.8c8.7-1.6,18.8-1.8,23.2-7.7c-8-1.5-5.1-13.8-18-10.3c-1.7,4-0.5,12.3-7.7,5.1
			c1.4,0,2.9-2.1,0-2.6C418.8,797.8,423.9,803.8,427.1,807.8 M681.7,800.1c-8.8-3.2-18.2-5.8-28.3-7.7c5.1,8.7,25.7,15.4,33.4,12.9
			c-1.4,0-2.9-2.1,0-2.6c0,2.6,4.5,3.2,5.1,0c-3.9-2.7-17.8-17.9-18-7.7C678.4,794.8,680.6,796.9,681.7,800.1 M128.6,800.1v5.2
			c2.9-0.3,4,3.7,5.1,0c-6,0,0.9-7,5.1-5.2c0.3,3.1,0.8,6.1,5.1,5.2v-10.3C136.5,794.3,136.2,800.7,128.6,800.1 M558.3,797.5
			c-4.5,2.2-36.8-8-41.2,7.7c20.4-3.1,24.6,5.6,38.6-5.2C554.3,807.5,565.7,796.1,558.3,797.5 M378.2,805.2
			c6.7,0.7,11.1-0.9,10.3-7.7C381.7,796.8,377.4,798.5,378.2,805.2 M355,812.9c-3.4-3.4-7.8-1.6-10.3,2.6c6.4,0.6,3.2,24,7.7,18
			c-3.3-16.2,5.7-20,7.7-30.9c-5.9,3.5-9.7-6.6-10.3,0C353.3,804.3,354.7,808.2,355,812.9 M182.7,815.5c3.8-3,3-10.7,10.3-10.3
			c3.4,5.2,11,6.1,15.4,10.3c-0.7-4.5,12.1-8,5.2-10.3c-7,5.6-14.5-0.6-25.7-2.6C185,804.4,177.6,814.3,182.7,815.5 M190.4,812.9
			c7,2.3-5,9.5,5.2,10.3c0.4-3,4.1-2.8,7.7-2.6C203.3,815.3,192.9,807.3,190.4,812.9 M365.3,815.5c9-1.6,4.5,9.3,0,2.6
			c-2.6,8.6,3.6,8.4,10.3,7.7c1.7-10.8-5.3-14.5,2.6-18C371.6,801.1,367.3,809.9,365.3,815.5 M488.8,810.4
			c-24.9-16-41.5,17.3-43.7,28.3c4.9,0.6,5.7-2.9,10.3-2.6v-12.9c13.5,2.3,16.8-19.1,25.7-12.9c-2.5,9.6-25.1,12.5-18,23.2
			c9.2-8,34.5-13.5,28.3-28.3C490.8,807.2,491.3,810.3,488.8,810.4 M568.6,812.9c-0.2,1.6-0.4,3.1-2.6,2.6
			c-11.1-1.9-31.8-7.5-38.6-5.2c15.7,1.8,45,21.2,54,5.2c-6.9-2.6-22.2-15.2-25.7-5.2C559.4,811.8,569,807.4,568.6,812.9
			 M223.8,807.8c-10.1,5.4-17.7,13.2-23.1,23.1c4.5-0.2,8,0.6,10.3,2.6C204.9,815.4,232.1,820,223.8,807.8 M226.4,836.1
			c3.1-3.6,9.8-5.8,12.9-2.6c2.5-4.8-7.7-8.6,0-10.3c4,1.1,2.2,8.1,10.3,5.1c-0.1-3.5,1.2-5.6,2.6-7.7c-12,0.8-14.3-8-23.1-10.3
			c-4.2,6.9-5.9,9.8,0,15.4c-9.8-1.7-18.2,4.6-12.9,10.3C227.3,831.9,222.7,825.1,226.4,836.1 M419.3,851.5c8.1,0.4,8.6-6.8,18-5.1
			c-2-12.4,11.2-23,7.7-28.3C438.6,831.3,421.6,834.1,419.3,851.5 M342.2,849c-5.7-9.1-17.2-19.5-30.9-12.9
			c-2.5,17.9,16,14.9,25.7,20.6c2.5-9.3-11.6-2.2-10.3-10.3C334.6,843.1,339.8,855.2,342.2,849 M216.1,841.3
			c10.2-0.8,12.9,5.9,23.2,5.1c2.6-5.1,9.6-5.9,12.9-10.3C237.7,840.9,229.9,836.5,216.1,841.3 M267.6,846.4
			c4.6,1.4,10.7,1.3,12.9,5.1c-3.7,1-4.4,3.1-7.7,0c-2.4,10.5,13.9,8.9,18,5.2c0.1,3.5-1.2,5.6-2.6,7.7c3.8,1.3,6.5,3.8,10.3,5.1
			c3.5-5.9-6.6-9.7,0-10.3c10.3,1.3,2.9,6.3,7.7,10.3c2.5-8.5,5.1,2.9,7.7,2.6c2.3-6.3,14.4-2.8,12.9-12.9
			c-10.7,0.2-22.2-13.9-28.3-2.6c0.7-13.6-16.5-9.3-20.6-18C277.1,844,266.5,839.3,267.6,846.4 M370.5,843.8
			c4.5-0.7,12.8,7.3,15.4,0C381.1,841.7,372.5,834.3,370.5,843.8 M198.1,854.1c-3.7-4.8-16.8-0.3-20.6-5.1
			C175.8,857.7,194.3,859.4,198.1,854.1 M532.5,872.1c6.1,3.4,17.8,1.1,23.2,5.1c-5.5-10.9,15.8-15.7,2.6-18
			C557.1,866.4,541.2,865.8,532.5,872.1 M319,877.3c8.4-1.8,19.4-1.2,20.6-10.3C328,865.6,321.1,869,319,877.3 M367.9,879.8h12.9
			c1.5-7.7-10.9-14.6-15.4-7.7C368.3,872.6,368.1,876.2,367.9,879.8 M223.8,890.1c0.9-9.5-9.4-7.8-15.4-10.3c-0.4,3,0.4,7.3-2.6,7.7
			c-1.4-3.7,3-13.3-2.6-12.9c-11.1,9.8-14.5-3.5-30.9-2.6c-12.2,8.3-30.7,12.4-33.4,23.1c-6-8.8-28.9,1.4-30.9,12.9
			c2,0.6,3,2.2,2.6,5.1c29.5,3,70.6-6.7,90,5.1c-11.5-14.6-44-14.7-61.8-15.4c17.2-11.5,42.8,3.5,61.8,0
			C200.4,890.7,210.2,888.5,223.8,890.1 M205.8,895.3c0,7.7-6.7,8.8-7.7,15.4c5.4,8.7,13.6,1.2,12.9,12.9
			c17.1,1.7,22.4-8.5,38.6-7.7c1-10.2,3.6-18.7,7.7-25.7c-22.1-2.8-18.5,13.9-25.7,20.6c-8.2-4.7,8.7-24,2.6-18
			C228.6,897.5,215.3,894.4,205.8,895.3 M241.8,877.3c-10.3,2.5-7.7-7.7-18-5.1C218.6,883.6,240.1,881.3,241.8,877.3 M522.2,877.3
			c0.4,3-0.4,7.3,2.6,7.7c3.9-3.2,27.5,15.3,28.3-5.1C540.6,881.7,531.5,870.6,522.2,877.3 M450.2,892.7c-4.5-1.5-15.1,3.1-15.4-2.6
			c2.7-0.1,2-3.3-2.6-2.6C434.2,899.9,444.2,899.2,450.2,892.7 M265,913.3c5-3.2-4.5-13.6,5.2-7.7c-1.4-3.7,3-13.3-2.6-12.9
			C268.3,899.7,256.8,907.4,265,913.3 M576.3,900.4c4.8-0.4,8.6-1.7,10.3-5.2c-6.4,1.6-22.9-6.6-18,0
			C572.6,895.5,577.5,894.9,576.3,900.4 M416.8,921c4.3-8.6,15.4-10.4,18-20.6c-6.3-2.3-11.2-6-20.6-5.2
			C415.8,903.1,410.9,917.4,416.8,921 M584,900.4c0.7,7.4,11.6,11.3,15.4,7.7C598.6,898.5,590.8,897.7,584,900.4 M450.2,928.7
			c-3.7-1.4-6.3-4-7.7-7.7c8.8-2.6,7.7,1.1,12.9-5.1c-0.1,3.5,1.2,5.7,2.6,7.7c6.4,0.4,8.1-4,10.3-7.7c-9.9,0.5-0.9-2.1-2.6-7.7
			c-9.1,5-11.5-1.2-20.6-2.6c-0.6,9.7-13.2,7.4-15.4,15.4C436.3,922.2,442.1,937.5,450.2,928.7 M483.7,913.3
			c7.3,7.5,11.6-10.6,10.3,7.7c11.5-0.2,3.3-5.9,7.7-10.3c-5,0.8-5.1-3.5-7.7-5.1C493.2,910.9,484.4,908,483.7,913.3 M316.4,933.9
			c-6.3-7-7-11.8-15.4-20.6h-15.4c0.4,3.4-8.6,9.6-2.6,10.3c4.6,2.3,14.8,13.5,23.2,15.4c0.5-2.9,2.9-4,5.1-5.1
			C311.3,936.5,315.8,937.1,316.4,933.9 M347.3,926.1c-0.4-10.2,4,0.8,7.7-5.1C355.7,903.4,332.6,922.7,347.3,926.1 M535.1,933.9
			c-7.7,0.9-9.4,7.8-12.9,12.9c-27.6,5.8-17.2,13.5,2.6,2.6c-1.2,8.1,7.9,5.8,5.1,15.4h10.3c6.3-3.4-4.6-7.8,2.6-10.3
			c2.4,8.6,4.8,1.3,12.9,2.6c0.1-7.9-2.3-13.1-7.7-15.4c-0.4,4.8-8.7,1.6-10.3,5.1c7.8-4.5-7-8,0-10.3c3.5,0.8,4.9,3.7,10.3,2.6
			c0.8-10.2-11.9-7-12.9-15.4c4.4,0.1,6.6-2,7.7-5.2C533,919,531.4,926.1,535.1,933.9 M226.4,928.7c9.1,0.6,15.4-1.7,18-7.7
			C235.2,920.4,229,922.7,226.4,928.7 M506.8,933.9c2.2-3,3.4-6.9,2.6-12.9c-8-0.2-19.6,9.3-15.4,12.9c2.8,1.7,9.7-7.3,12.9-2.6
			C505.4,931.3,503.9,933.4,506.8,933.9 M97.8,923.6c-15.7,1.2-19.3-1-28.3,5.1C77.8,936.8,90.2,930,97.8,923.6 M120.9,944.1
			c9.3,1.3,21.7-17.8,28.3-2.5c-6.8-2.6-13.1-2.7-18,2.5c24-1.7,46.6,11.7,66.9,5.2c-2-0.6-3-2.2-2.6-5.2c3,3,9.1,2.9,15.4,2.6
			c-9.8-23.3-43.3-0.2-59.2-7.7c5.6-2.2,8.8-6.7,18-5.1C153.7,921.9,134.4,923.9,120.9,944.1 M571.1,957c-1.6,0.1-3.1,0.4-2.6,2.6
			c6.4-3.3,8,1.3,10.3-2.6c-4.5-2.3-4.7-9-7.7-12.9c-4.9-0.6-5.7,2.9-10.3,2.6c5.7-11.6,1.8-4.6-2.6-20.6c-5.1-0.8-5.1,3.5-7.7,5.2
			c0.8-4.2-3.5-6.9-5.2-2.6C557.1,939,559.3,952,571.1,957 M277.9,941.6c0.8-3.5,3.7-4.9,2.6-10.3h-20.6v12.9
			c8.3,3.2,2-8.3,10.3-5.1c-16.5,12.5,19.3,7.4,10.3,0C280.3,940.6,280,942,277.9,941.6 M90,946.7c0-5.1,7-3.3,5.1-10.3
			c-5.6,3-16.6,0.5-18,7.7c4.7,8.1,8.7-8.6,12.9,0C88.6,944.1,87.1,946.2,90,946.7 M321.6,941.6c-0.5,13,11.5,4,15.4,0
			c-3.5,0.1-5.7-1.2-7.7-2.6C327.9,944.4,325.3,944.4,321.6,941.6 M316.4,944.1c-14.4,3.3-17.9,2.9-20.6,15.5
			C304.4,956.2,306.9,946.6,316.4,944.1 M303.6,964.7c10.6,2.9,11.6-2.5,12.9,7.7c9.8-2.2,19.3-4.7,20.6-15.4
			C325.7,955.9,301.9,942.5,303.6,964.7 M331.9,951.9c6.2,5.4,16.4-2.8,10.3-7.7C341.5,949.5,330.8,944.8,331.9,951.9 M347.3,977.6
			c10.7-2.8,14.2,2.1,20.6-2.6c-5.2-2.6-6.4-13-12.9-20.6c-12.1,2.5-18.3,10.9-20.6,23.1c11.9-2.4,16-16,25.7-7.7
			C355.7,972.2,346.4,969.8,347.3,977.6 M475.9,980.2c3.7-6.5,6.2-10.1,2.6-18c3.5-0.1,5.7,1.2,7.7,2.6c2.6-7.7-5.7-4.6-10.3-5.1
			c1.8,15.4-13.2,17.9-20.6,10.3v5.2c0.1,1.6,0.4,3,2.6,2.6C458,974.4,472.5,978.2,475.9,980.2 M501.7,975c2.5-7.9,8.7,1.1,10.3,2.6
			c0.6-3.7,4.2-4.3,5.1-7.7c-5.4-2.5-18.9-10.1-23.2-5.1c2.4,2.8,9.5,0.8,7.7,7.7C500.2,972.4,498.7,974.5,501.7,975 M483.7,1013.6
			c6.2,0.1,29.2-5,36-12.9c7.9,8,21.1-3.4,28.3,2.6c-0.6-8.6,11.1-10.4,15.4-20.6c-23.9-9.7-45.4-9.8-61.8,7.7
			c10.1-4.5,24.9-5,10.3,2.6c13.3-2.4,20.1,1.9,33.4,5.1c-23.8,0.7-46.1-0.2-66.9-2.6c-0.8,10.2,11.9,7,12.9,15.4
			C485.8,1012.7,483.2,1003.8,483.7,1013.6 M367.9,1008.5c-2.6-12.6,2.3-17.4-2.6-25.7c-2.9,4.8-17.6-2.2-23.2,2.6
			C348.1,995.7,360.2,999.9,367.9,1008.5 M576.3,985.3c-2.5,4.8,7.7,8.6,0,10.3c-4.5-2.3-4.2-9.5-10.3-10.3
			c-3.3,10.4-9.4,18.1-18,23.2c6.6-4.1,18.6,4.9,23.2-5.1c0.1,3.5-1.2,5.6-2.6,7.7c8-2.3,14.2-6.4,20.6-10.3
			c6.5,10.6,34.7,4.5,43.7,7.7C610,999.6,600.7,988.8,576.3,985.3 M586.6,1011c20.5,2.7,46.6,13.4,64.3,10.3
			c-7-1.6-6.4-10.7-15.4-10.3C627.8,1020.2,594.3,1001.8,586.6,1011 M319,1008.5c-0.5-8.2,11.2-4.2,10.3-12.9
			c-3.5,0.1-5.7-1.2-7.7-2.6C323.4,999.5,310.3,1003.6,319,1008.5 M463.1,1021.3c3.2-3.7,8.8-4.9,15.4-5.1v-12.9
			C465.1,994.2,454.7,1018,463.1,1021.3 M442.5,1029c4.1-6.3,20.9-13.2,12.9-23.2C453.7,1014.6,438.3,1023,442.5,1029 M504.2,1013.6
			c10.6,0.3,21,0.4,25.7-5.1C519.3,1008.1,510.1,1009.2,504.2,1013.6 M589.1,1016.2c-36.1-18.6-131.1,20.4-149.2,23.2
			c25.1,10.5,106.4-21.7,128.6,0c10.6,3.5,21-6.2,25.7,0c-2,0.6-5.1,0.1-5.1,2.6C607.1,1041.4,597.2,1020.3,589.1,1016.2
			 M594.3,1018.8c8.4,5.4,8.6,18.8,15.4,25.7c3.2-11.6,11.8,2,18-12.9C618.8,1026.8,602.7,1015.6,594.3,1018.8"/>
	</g>
</g>
</svg>
