<?xml version="1.0" encoding="utf-8"?>
<!-- Generator: Adobe Illustrator 19.1.0, SVG Export Plug-In . SVG Version: 6.00 Build 0)  -->
<svg version="1.1" xmlns="http://www.w3.org/2000/svg" xmlns:xlink="http://www.w3.org/1999/xlink" x="0px" y="0px"
	 viewBox="0 0 957.7 791.4" style="enable-background:new 0 0 957.7 791.4;" xml:space="preserve">
<style type="text/css">
	.st0{fill:#FF765E;}
	.st1{fill:#42210B;}
	.st2{fill:#754C24;}
	.st3{opacity:0.5;fill:url(#SVGID_3_);}
	.st4{fill:url(#SVGID_4_);}
	.st5{opacity:0.2;fill:#231F20;}
	.st6{fill:#231F20;}
	.st7{fill:url(#SVGID_5_);}
	.st8{opacity:0.7;fill:url(#SVGID_6_);}
	.st9{fill:url(#SVGID_7_);}
	.st10{opacity:0.7;fill:url(#SVGID_8_);}
	.st11{opacity:0.7;fill:url(#SVGID_9_);}
	.st12{opacity:0.4;fill:#B58B3C;}
	.st13{fill:url(#SVGID_10_);}
	.st14{fill:#F29D35;}
	.st15{fill:#FFFFFF;}
	.st16{fill:#803B2F;}
	.st17{fill:#BDA159;}
	.st18{fill:#FCD776;}
	.st19{fill:#74A588;}
	.st20{fill:#FDFAD2;}
	.st21{fill:#FDFAD0;}
	.st22{fill:#1B0F11;}
	.st23{display:none;}
	.st24{display:inline;}
	.st25{fill:#FFE5C6;}
	.st26{clip-path:url(#SVGID_12_);fill:#BF5947;}
	.st27{clip-path:url(#SVGID_12_);fill:#FFE5C6;}
	.st28{clip-path:url(#SVGID_14_);fill:#BF5947;}
	.st29{clip-path:url(#SVGID_14_);fill:#BDA159;}
	.st30{clip-path:url(#SVGID_16_);fill:#BF5947;}
	.st31{clip-path:url(#SVGID_16_);fill:#FCD776;}
	.st32{clip-path:url(#SVGID_18_);fill:#BF5947;}
	.st33{clip-path:url(#SVGID_18_);fill:#74A588;}
	.st34{fill:#42282F;}
	.st35{fill:#D6655A;}
	.st36{fill:#DC9C76;}
	.st37{fill:#757BA2;}
	.st38{fill:#5C4B51;}
	.st39{fill:none;stroke:#5C4B51;stroke-width:6;stroke-linecap:round;stroke-miterlimit:10;}
	.st40{fill:none;stroke:#5C4B51;stroke-width:6;stroke-linecap:round;stroke-linejoin:round;}
	.st41{fill:none;stroke:#5C4B51;stroke-width:6;stroke-linecap:round;stroke-linejoin:round;stroke-dasharray:0,12.3056;}
	.st42{fill:none;stroke:#5C4B51;stroke-width:30;stroke-linejoin:round;stroke-miterlimit:10;}
	.st43{fill:none;stroke:#FFFFFF;stroke-width:30;stroke-linejoin:round;stroke-miterlimit:10;}
	.st44{fill:none;stroke:#ABD25D;stroke-width:6;stroke-linejoin:round;}
	.st45{fill:#ABD25D;}
	.st46{fill:none;stroke:#5C4B51;stroke-width:6;stroke-linecap:round;stroke-linejoin:round;stroke-dasharray:0,11.8498;}
	.st47{fill:#5A2C18;}
	.st48{fill-rule:evenodd;clip-rule:evenodd;fill:#35591C;}
	.st49{opacity:0.3;fill:url(#SVGID_19_);}
	.st50{opacity:0.3;fill:url(#SVGID_20_);}
	.st51{fill:url(#SVGID_21_);}
	.st52{fill:url(#SVGID_22_);}
	.st53{opacity:0.3;}
	.st54{opacity:0.9;}
	.st55{fill:#D3D3D3;}
	.st56{opacity:0.9;fill:#989898;}
	.st57{fill:#AAAAAA;}
	.st58{fill:#BFBFBF;}
	.st59{fill:#E4E4E4;}
	.st60{fill:none;stroke:#BABABA;stroke-width:0;}
	.st61{fill:#F4F4F4;}
	.st62{fill:url(#SVGID_23_);}
	.st63{fill:url(#SVGID_24_);}
	.st64{fill:#5A6D81;}
	.st65{fill:#AEBFC2;}
	.st66{fill:#424242;}
	.st67{fill:#BEBDB8;}
	.st68{fill:#816F64;}
	.st69{fill:#716764;}
	.st70{fill:#322E32;}
	.st71{fill:#73655D;}
	.st72{fill:#D9D9D7;}
	.st73{fill:#716463;}
	.st74{fill:#655752;}
	.st75{fill:#806F6B;}
	.st76{fill:#595554;}
	.st77{fill:#746D68;}
	.st78{fill:#494A4C;}
	.st79{fill:#363D42;}
	.st80{fill:#262733;}
	.st81{fill:#E6EEF4;}
	.st82{fill:#7C8C9A;}
	.st83{fill:#8A9693;}
	.st84{fill:#E4ECEF;}
	.st85{fill:#EDF3F9;}
	.st86{fill:#EDF1F4;}
	.st87{fill:#ECF3F8;}
	.st88{fill:#F8FBFD;}
	.st89{fill:#96A9AB;}
	.st90{fill:#717D79;}
	.st91{fill:#6983A4;}
	.st92{fill:#637891;}
	.st93{fill:#5D7690;}
	.st94{fill:#6886B1;}
	.st95{fill:#5E8CC7;}
	.st96{fill:#6D5E56;}
	.st97{fill:#61504B;}
	.st98{fill:#76675B;}
	.st99{fill:#2B282A;}
	.st100{fill:#1D1A1A;}
	.st101{fill:#201D20;}
	.st102{fill:#4C4E54;}
	.st103{fill:#393B36;}
	.st104{fill:#202325;}
	.st105{fill:#2D2726;}
	.st106{fill:#30302E;}
	.st107{fill:#353739;}
	.st108{fill:#645954;}
	.st109{fill:#745F51;}
	.st110{fill:#3F434B;}
	.st111{fill:#594740;}
	.st112{fill:#605654;}
	.st113{fill:#6A5955;}
	.st114{fill:#CCC9C4;}
	.st115{fill:#B0AFAD;}
	.st116{fill:#76756A;}
	.st117{fill:#634F43;}
	.st118{fill:#665852;}
	.st119{fill:#6F5C54;}
	.st120{fill:#6C5A57;}
	.st121{fill:#74665B;}
	.st122{fill:#C1C1BA;}
	.st123{fill:#4F504E;}
	.st124{fill:#3E3F3C;}
	.st125{fill:#2F1D19;}
	.st126{fill:#65544E;}
	.st127{fill:#7E6F64;}
	.st128{fill:#D1CEC8;}
	.st129{fill:#DFDED9;}
	.st130{fill:#65544F;}
	.st131{fill:#60504D;}
	.st132{fill:#705D50;}
	.st133{fill:#79685C;}
	.st134{fill:#7C695D;}
	.st135{fill:#605250;}
	.st136{fill:#71615A;}
	.st137{fill:#64534A;}
	.st138{fill:#776862;}
	.st139{fill:#655247;}
	.st140{fill:#675546;}
	.st141{fill:#695A5A;}
	.st142{fill:#D8E1EC;}
	.st143{fill:#F2F5F7;}
	.st144{fill:#DAE3EC;}
	.st145{fill:#E4EBF4;}
	.st146{fill:#EEF1F7;}
	.st147{fill:#FAFBFC;}
	.st148{fill:#5986C4;}
	.st149{fill:#252226;}
	.st150{fill:#484C4D;}
	.st151{fill:#5F514F;}
	.st152{fill:#736154;}
	.st153{fill:#846F5E;}
	.st154{fill:#544853;}
	.st155{fill:#5F5047;}
	.st156{fill:#252220;}
	.st157{fill:#665951;}
	.st158{fill:#826C59;}
	.st159{fill:#726357;}
	.st160{fill:#695D57;}
	.st161{fill:#7C776E;}
	.st162{fill:#584F4D;}
	.st163{fill:#766962;}
	.st164{fill:#5B5656;}
	.st165{fill:#7D6F65;}
	.st166{fill:#706B70;}
	.st167{fill:#70625B;}
	.st168{fill:#536174;}
	.st169{fill:#8192A9;}
	.st170{fill:#6E797E;}
	.st171{fill:#F8F9F9;}
	.st172{fill:#A0B4C6;}
	.st173{fill:#E8F1F5;}
	.st174{fill:#EEF6FA;}
	.st175{fill:#E5EEF3;}
	.st176{fill:#EBEEEB;}
	.st177{fill:#9AA39E;}
	.st178{fill:#EDF5F9;}
	.st179{fill:#9EB0BA;}
	.st180{fill:#19222D;}
	.st181{fill:#739DD2;}
	.st182{fill:#272429;}
	.st183{fill:#232125;}
	.st184{fill:#35393A;}
	.st185{fill:#3F4143;}
	.st186{fill:#515152;}
	.st187{fill:#586B80;}
	.st188{fill:#8C9594;}
	.st189{fill:#637684;}
	.st190{fill:#18171E;}
	.st191{fill:#8C9AAC;}
	.st192{fill:#EEF5FA;}
	.st193{fill:#688D9B;}
	.st194{fill:#687D8A;}
	.st195{fill:#67798A;}
	.st196{fill:#586C7F;}
	.st197{fill:#677479;}
	.st198{fill:#727877;}
	.st199{fill:#758A9C;}
	.st200{fill:#7C8582;}
	.st201{fill:#92A3AE;}
	.st202{fill:#A1B2BB;}
	.st203{fill:#EBF3F9;}
	.st204{fill:#6C7F97;}
	.st205{fill:#6B7D90;}
	.st206{fill:#6B7880;}
	.st207{fill:#869AA4;}
	.st208{fill:#8FA1A8;}
	.st209{fill:#657678;}
	.st210{fill:#D0DBDC;}
	.st211{fill:#8C939A;}
	.st212{fill:#6F9AD1;}
	.st213{fill:#5B7593;}
	.st214{fill:#5F788F;}
	.st215{fill:#4B6A8D;}
	.st216{fill:#6A97CF;}
	.st217{fill:#5E7187;}
	.st218{fill:#445C70;}
	.st219{fill:#5483C2;}
	.st220{fill:#5F6A73;}
	.st221{fill:#475563;}
	.st222{fill:#566169;}
	.st223{fill:#65544C;}
	.st224{fill:#715E54;}
	.st225{fill:#665652;}
	.st226{fill:#625145;}
	.st227{fill:#544544;}
	.st228{fill:#564945;}
	.st229{fill:#7C706B;}
	.st230{fill:#746057;}
	.st231{fill:#7F6A5A;}
	.st232{fill:#665A57;}
	.st233{fill:#786B66;}
	.st234{fill:#685F5E;}
	.st235{fill:#6C5B52;}
	.st236{fill:#655852;}
	.st237{fill:#7C7271;}
	.st238{fill:#86766D;}
	.st239{fill:#6E625F;}
	.st240{fill:#847B79;}
	.st241{fill:#28262B;}
	.st242{fill:#282A35;}
	.st243{fill:#281714;}
	.st244{fill:#6B584D;}
	.st245{fill:#574A48;}
	.st246{fill:#212026;}
	.st247{fill:#736052;}
	.st248{fill:#7B7275;}
	.st249{fill:#8D8482;}
	.st250{fill:#DCE3EB;}
	.st251{fill:#819FAE;}
	.st252{fill:#D8E0E6;}
	.st253{fill:#354C5C;}
	.st254{fill:#4A4E53;}
	.st255{fill:#786759;}
	.st256{fill:#383731;}
	.st257{fill:#393D41;}
	.st258{fill:#43433E;}
	.st259{fill:#68675C;}
	.st260{fill:#383838;}
	.st261{fill:#252726;}
	.st262{fill:#6D584C;}
	.st263{fill:#745F52;}
	.st264{fill:#685A50;}
	.st265{fill:#68564F;}
	.st266{fill:#7C6657;}
	.st267{fill:#69564D;}
	.st268{fill:#7B604E;}
	.st269{fill:#786352;}
	.st270{fill:#6A5E57;}
	.st271{fill:#635C61;}
	.st272{fill:#7F7363;}
	.st273{fill:#D2D0C9;}
	.st274{fill:#7E6E60;}
	.st275{fill:#3F303A;}
	.st276{fill:#3F3949;}
	.st277{fill:#3B3C4C;}
	.st278{fill:#D0DBE8;}
	.st279{fill:#4E536B;}
	.st280{fill:#BFC7CF;}
	.st281{fill:#49343C;}
	.st282{fill:#51616F;}
	.st283{fill:#CDCED1;}
	.st284{fill:#3F2C37;}
	.st285{fill:#3C3746;}
	.st286{fill:#E9E7EA;}
	.st287{fill:#7C889A;}
	.st288{fill:#CCD9E6;}
	.st289{fill:#726561;}
	.st290{fill:#6A5A55;}
	.st291{fill:#60554F;}
	.st292{fill:#292223;}
	.st293{fill:#454547;}
	.st294{fill:#303032;}
	.st295{fill:#1B0C0D;}
	.st296{fill:#3A4141;}
	.st297{fill:#75645A;}
	.st298{fill:#7C716D;}
	.st299{fill:#645142;}
	.st300{fill:#675C58;}
	.st301{fill:#837464;}
	.st302{fill:#71645C;}
	.st303{fill:#5B4E4C;}
	.st304{fill:#6D6564;}
	.st305{fill:#847560;}
	.st306{fill:#2B1A18;}
	.st307{fill:#6B5548;}
	.st308{fill:#6A5D53;}
	.st309{fill:#655858;}
	.st310{fill:#66595C;}
	.st311{fill:#6A686C;}
	.st312{fill:#5E514A;}
	.st313{fill:#90A2AE;}
	.st314{fill:#5C676A;}
	.st315{fill:#3F2D35;}
	.st316{fill:#5B4140;}
	.st317{fill:#413743;}
	.st318{fill:#422C38;}
	.st319{fill:#EBEEEE;}
	.st320{fill:#7F9BA5;}
	.st321{fill:#DDDEE1;}
	.st322{fill:#8A9FA2;}
	.st323{fill:#708994;}
	.st324{fill:#F2F4F6;}
	.st325{fill:#CECED2;}
	.st326{fill:#B4BDC6;}
	.st327{fill:#D1D1D4;}
	.st328{fill:#87A4AC;}
	.st329{fill:#F5F8F9;}
	.st330{fill:#8D9CAA;}
	.st331{fill:#7698A3;}
	.st332{fill:#F9FBFC;}
	.st333{fill:#D3DAD6;}
	.st334{fill:#638291;}
	.st335{fill:#EFF6FB;}
	.st336{fill:#EDF5F8;}
	.st337{fill:#7B827F;}
	.st338{fill:#697371;}
	.st339{fill:#7E94A1;}
	.st340{fill:#7F8B93;}
	.st341{fill:#4B5053;}
	.st342{fill:#766358;}
	.st343{fill:#775E4D;}
	.st344{fill:#64544D;}
	.st345{fill:#6A5041;}
	.st346{fill:#766155;}
	.st347{fill:#66564F;}
	.st348{fill:#5F585B;}
	.st349{fill:#6D564A;}
	.st350{fill:#6F89A8;}
	.st351{fill:#2B4661;}
	.st352{fill:#6B7C8A;}
	.st353{fill:#E9F0F5;}
	.st354{fill:#E6EDF2;}
	.st355{fill:#8796AD;}
	.st356{fill:#616B72;}
	.st357{fill:#3F362D;}
	.st358{fill:#50585D;}
	.st359{fill:#5C6565;}
	.st360{fill:#554F4B;}
	.st361{fill:#7D8697;}
	.st362{fill:#E1E5E8;}
	.st363{fill:#F1F5F7;}
	.st364{fill:#4B433B;}
	.st365{fill:#453930;}
	.st366{fill:#535955;}
	.st367{fill:#847F7E;}
	.st368{fill:#6E707E;}
	.st369{fill:#7D91A0;}
	.st370{fill:#95A3AD;}
	.st371{fill:#161E2C;}
	.st372{fill:#1B252D;}
	.st373{fill:#2F3840;}
	.st374{fill:#6F7C96;}
	.st375{fill:#6E809A;}
	.st376{fill:#4A5860;}
	.st377{fill:#4B5E6E;}
	.st378{fill:#6F8DBD;}
	.st379{fill:#D8DEDD;}
	.st380{fill:#BFCACC;}
	.st381{fill:#141B23;}
	.st382{fill:#DFE6EA;}
	.st383{fill:#E4EDF1;}
	.st384{fill:#4B678C;}
	.st385{fill:#7289AB;}
	.st386{fill:#4A6387;}
	.st387{fill:#374C70;}
	.st388{fill:#456386;}
	.st389{fill:#426188;}
	.st390{fill:#556477;}
	.st391{fill:#3C4D56;}
	.st392{fill:#7185A0;}
	.st393{fill:#414039;}
	.st394{fill:#4B4E4E;}
	.st395{fill:#697280;}
	.st396{fill:#766456;}
	.st397{fill:#7C6D5F;}
	.st398{fill:#6F5D55;}
	.st399{fill:#6A584C;}
	.st400{fill:#786353;}
	.st401{fill:#615455;}
	.st402{fill:#82746E;}
	.st403{fill:#716050;}
	.st404{fill:#847268;}
	.st405{fill:#544540;}
	.st406{fill:#766255;}
	.st407{fill:#18181E;}
	.st408{fill:#745C4A;}
	.st409{fill:#776456;}
	.st410{fill:#755F4D;}
	.st411{fill:#5E514E;}
	.st412{fill:#867262;}
	.st413{fill:#605151;}
	.st414{fill:#6F5F58;}
	.st415{fill:#49494C;}
	.st416{fill:#66544C;}
	.st417{fill:#66584E;}
	.st418{fill:#63534C;}
	.st419{fill:#594A46;}
	.st420{fill:#5D4B40;}
	.st421{fill:#766053;}
	.st422{fill:#5A4740;}
	.st423{fill:#38232F;}
	.st424{fill:#3B2733;}
	.st425{fill:#464753;}
	.st426{fill:#EFF1F2;}
	.st427{fill:#EEEFF0;}
	.st428{fill:#6E5D4D;}
	.st429{fill:#46494E;}
	.st430{fill:#302823;}
	.st431{fill:#6D6969;}
	.st432{fill:#292727;}
	.st433{fill:#6C5E54;}
	.st434{fill:#29292B;}
	.st435{fill:#1D1A14;}
	.st436{fill:#7A6659;}
	.st437{fill:#705C4C;}
	.st438{fill:#75655B;}
	.st439{fill:#675244;}
	.st440{fill:#8B7258;}
	.st441{fill:#614E44;}
	.st442{fill:#5A4741;}
	.st443{fill:#654E39;}
	.st444{fill:#786E73;}
	.st445{fill:#867363;}
	.st446{fill:#827467;}
	.st447{fill:#5E4B45;}
	.st448{fill:#C0BCC1;}
	.st449{fill:#EAEAEB;}
	.st450{fill:#EBEFF0;}
	.st451{fill:#5D4845;}
	.st452{fill:#CDCDD0;}
	.st453{fill:#C4C4C8;}
	.st454{fill:#B5BABF;}
	.st455{fill:#EDF0F2;}
	.st456{fill:#F1F6F7;}
	.st457{fill:#746459;}
	.st458{fill:#786F6B;}
	.st459{fill:#847466;}
	.st460{fill:#7E6C61;}
	.st461{fill:#362824;}
	.st462{fill:#7A6D65;}
	.st463{fill:#6D5B50;}
	.st464{fill:#6B5A52;}
	.st465{fill:#7A6D62;}
	.st466{fill:#6A5A50;}
	.st467{fill:#695A50;}
	.st468{fill:#87725D;}
	.st469{fill:#796B5F;}
	.st470{fill:#594E4F;}
	.st471{fill:#6E6566;}
	.st472{fill:#574947;}
	.st473{fill:#837161;}
	.st474{fill:#7B6D5B;}
	.st475{fill:#6A5C4C;}
	.st476{fill:#7B6758;}
	.st477{fill:#5F504B;}
	.st478{fill:#5F5051;}
	.st479{fill:#564A44;}
	.st480{fill:#745F4F;}
	.st481{fill:#D8DEE3;}
	.st482{fill:#C6C8CD;}
	.st483{fill:#C6C8CC;}
	.st484{fill:#D0D1D3;}
	.st485{fill:#F1F2F4;}
	.st486{fill:#F0F1F2;}
	.st487{fill:#F4F6F8;}
	.st488{fill:#EFF2F2;}
	.st489{fill:#BEC1C3;}
	.st490{fill:#AFAEB6;}
	.st491{fill:#1B2021;}
	.st492{fill:#A5B8BE;}
	.st493{fill:#5B7686;}
	.st494{fill:#768E95;}
	.st495{fill:#75939D;}
	.st496{fill:#5E7E8B;}
	.st497{fill:#708A97;}
	.st498{fill:#728E9D;}
	.st499{fill:#5A7680;}
	.st500{fill:#D6DFE5;}
	.st501{fill:#426A78;}
	.st502{fill:#4D727F;}
	.st503{fill:#D0D9DF;}
	.st504{fill:#ECF1F5;}
	.st505{fill:#725C51;}
	.st506{fill:#7E6E65;}
	.st507{fill:#83736B;}
	.st508{fill:#654D42;}
	.st509{fill:#60504C;}
	.st510{fill:#69564A;}
	.st511{fill:#5D4D48;}
	.st512{fill:#6D5545;}
	.st513{fill:#5D4F47;}
	.st514{fill:#685C5A;}
	.st515{fill:#5F453D;}
	.st516{fill:#5A4D47;}
	.st517{fill:#554843;}
	.st518{fill:#57453E;}
	.st519{fill:#6F5846;}
	.st520{fill:#6D5A4B;}
	.st521{fill:#534946;}
	.st522{fill:#534B4F;}
	.st523{fill:#564744;}
	.st524{fill:#5E7BA0;}
	.st525{fill:#1B1613;}
	.st526{fill:#717873;}
	.st527{fill:#68808D;}
	.st528{fill:#8792A4;}
	.st529{fill:#111E26;}
	.st530{fill:#5E6873;}
	.st531{fill:#BEC4CD;}
	.st532{fill:#748699;}
	.st533{fill:#0A131C;}
	.st534{fill:#E0E8ED;}
	.st535{fill:#394448;}
	.st536{fill:#7F6A5E;}
	.st537{fill:#7B6657;}
	.st538{fill:#604B41;}
	.st539{fill:#6B594D;}
	.st540{fill:#5A4941;}
	.st541{fill:#826F60;}
	.st542{fill:#776763;}
	.st543{fill:#5F4C45;}
	.st544{fill:#63534D;}
	.st545{fill:#7C6863;}
	.st546{fill:#736460;}
	.st547{fill:#523E36;}
	.st548{fill:#5E4C46;}
	.st549{fill:#5D4B45;}
	.st550{fill:#75695C;}
	.st551{fill:#7A6F68;}
	.st552{fill:#615B5A;}
	.st553{fill:#888483;}
	.st554{fill:#726864;}
	.st555{fill:#807061;}
	.st556{fill:#262225;}
	.st557{fill:#121115;}
	.st558{fill:#454649;}
	.st559{fill:#F2F5F5;}
	.st560{fill:#827165;}
	.st561{fill:#715F51;}
	.st562{fill:#726361;}
	.st563{fill:#837267;}
	.st564{fill:#796457;}
	.st565{fill:#625049;}
	.st566{fill:#624E40;}
	.st567{fill:#7F6E60;}
	.st568{fill:#716563;}
	.st569{fill:#7B7069;}
	.st570{fill:#D1D0C9;}
	.st571{fill:#73645A;}
	.st572{fill:#7A6859;}
	.st573{fill:#574943;}
	.st574{fill:#E6E4DF;}
	.st575{fill:#6E5F5A;}
	.st576{fill:#A5817A;}
	.st577{fill:#D9E2E7;}
	.st578{fill:#537781;}
	.st579{fill:#EAF1F6;}
	.st580{fill:#BBC5CF;}
	.st581{fill:#637C88;}
	.st582{fill:#547482;}
	.st583{fill:#E7EFF4;}
	.st584{fill:#8BA0AF;}
	.st585{fill:#A9B8C6;}
	.st586{fill:#F6F9FB;}
	.st587{fill:#ECF2F6;}
	.st588{fill:#A9B8C1;}
	.st589{fill:#F3F7FA;}
	.st590{fill:#F0F3F6;}
	.st591{fill:#B1C2CC;}
	.st592{fill:#AFC1CF;}
	.st593{fill:#90A1AF;}
	.st594{fill:#849BAB;}
	.st595{fill:#819DB0;}
	.st596{fill:#F2F5F9;}
	.st597{fill:#A4B7C4;}
	.st598{fill:#8298A8;}
	.st599{fill:#ABBCC8;}
	.st600{fill:#746256;}
	.st601{fill:#5D463A;}
	.st602{fill:#604537;}
	.st603{fill:#655757;}
	.st604{fill:#7F6B5D;}
	.st605{fill:#5C4735;}
	.st606{fill:#857B7C;}
	.st607{fill:#948C9A;}
	.st608{fill:#7B6654;}
	.st609{fill:#645A59;}
	.st610{fill:#716051;}
	.st611{fill:#695447;}
	.st612{fill:#655750;}
	.st613{fill:#6E645E;}
	.st614{fill:#75675E;}
	.st615{fill:#94928B;}
	.st616{fill:#7D6D5B;}
	.st617{fill:#2B2E35;}
	.st618{fill:#8A7461;}
	.st619{fill:#776354;}
	.st620{fill:#725E52;}
	.st621{fill:#675448;}
	.st622{fill:#675344;}
	.st623{fill:#776049;}
	.st624{fill:#8A7C72;}
	.st625{fill:#8F816F;}
	.st626{fill:#77655B;}
	.st627{fill:#6B5957;}
	.st628{fill:#605356;}
	.st629{fill:#675340;}
	.st630{fill:#3A3934;}
	.st631{fill:#7A6556;}
	.st632{fill:#807064;}
	.st633{fill:#6E6C5B;}
	.st634{fill:#6A584E;}
	.st635{fill:#5D5048;}
	.st636{fill:#61534E;}
	.st637{fill:#69554E;}
	.st638{fill:#27231E;}
	.st639{fill:#BDCAD4;}
	.st640{fill:#556F7C;}
	.st641{fill:#98A9B7;}
	.st642{fill:#94A9B7;}
	.st643{fill:#C2D0DA;}
	.st644{fill:#8BA4B5;}
	.st645{fill:#7F9BA8;}
	.st646{fill:#81736A;}
	.st647{fill:#908484;}
	.st648{fill:#5B473D;}
	.st649{fill:#5B4A3E;}
	.st650{fill:#675540;}
	.st651{fill:#584844;}
	.st652{fill:#59463C;}
	.st653{fill:#77614F;}
	.st654{fill:#5C4942;}
	.st655{fill:#563F35;}
	.st656{fill:#6E5C51;}
	.st657{fill:#5B4B40;}
	.st658{fill:#897864;}
	.st659{fill:#604B3F;}
	.st660{fill:#78614D;}
	.st661{fill:#67513E;}
	.st662{fill:#7E695C;}
	.st663{fill:#746355;}
	.st664{fill:#302F2D;}
	.st665{fill:#69524A;}
	.st666{fill:#8F796F;}
	.st667{fill:#7A6353;}
	.st668{fill:#685855;}
	.st669{fill:#41403E;}
	.st670{fill:#241412;}
	.st671{fill:#918580;}
	.st672{fill:#776355;}
	.st673{fill:#756763;}
	.st674{fill:#312A27;}
	.st675{fill:#665A53;}
	.st676{fill:#624C39;}
	.st677{fill:#816B61;}
	.st678{fill:#6B594F;}
	.st679{fill:#6A5647;}
	.st680{fill:#26130F;}
	.st681{fill:#6E5E55;}
	.st682{fill:#69584E;}
	.st683{fill:#766658;}
	.st684{fill:#5D4F48;}
	.st685{fill:#827468;}
	.st686{fill:#5C4C46;}
	.st687{fill:#7F7166;}
	.st688{fill:#7C6B62;}
	.st689{fill:#7B6B5E;}
	.st690{fill:#75675C;}
	.st691{fill:#7D6755;}
	.st692{fill:#918177;}
	.st693{fill:#877668;}
	.st694{fill:#68584D;}
	.st695{fill:#5E5047;}
	.st696{fill:#705E50;}
	.st697{fill:#594F4F;}
	.st698{fill:#69574C;}
	.st699{fill:#7B6B5D;}
	.st700{fill-rule:evenodd;clip-rule:evenodd;fill:#243C13;}
	.st701{fill-rule:evenodd;clip-rule:evenodd;fill:#052B03;}
</style>
<g id="Layer_3">
</g>
<g id="Layer_4">
</g>
<g id="Layer_1">
	<g id="Logo_Dark">
	</g>
</g>
<g id="Layer_5">
	<g id="Layer_6">
	</g>
</g>
<g id="Layer_7" class="st23">
</g>
<g id="Layer_8">
</g>
<g id="Layer_9">
	<g id="Logo_Dark_1_">
	</g>
	<g id="BoilerCamp_1_">
	</g>
	<g id="BoilerCamp">
	</g>
	<g id="BoilerCamp_2_">
		<path class="st701" d="M421,90.9c0.4,2.6,2.3,1.3,2.3,0c1.8,10.1,2.7,17.6,4.6,31.8c3.2-3.7,6.5-7.2,9.1-11.4
			c-1-2.8-2.9-4.7-6.8-4.5c1.8-11,8.2-16.5,4.5-27.3c7.7-2.3,3.5,7.1,4.5,11.4c9.5-4.6-3.4-18.9-6.8-25c-7.5,3.4,4.7,5.6,2.3,11.4
			c-14.1-0.8-0.3-15.8-6.8-22.7c3.2-7.3,1,9.3,6.8,6.8c4.5-7.4-8.5-27.1-2.3-36.4c1.3-21.4,3.3,7.9,2.3,15.9
			c9.6,8.4,2.4,20,9.1,31.8c4.2-10.1-0.1-17.6-2.3-29.6c5.2-0.7,2.5,6.6,6.8,6.8c7.2-3.9-2.5-16,2.3-18.2c6.6,11.9,1.3,18,4.5,27.3
			c7.4,2.8,1.7-7.4,9.1-4.5c2.5-12.3-4.6-15.1-4.5-25c8.5,9.9,0.8-5,2.3-13.6c4,2.1,5,7.1,4.6,13.6c8.2,1.3,0.1-13.6,9.1-11.4
			c-1.9,5.7-3,12.2-2.3,20.5c7.8-5.5,5.9-20.8,6.8-27.3c2.2,0.1,1.8,2.8,2.3,4.6c2.2-0.1,1.8-2.8,2.3-4.6c3.5,5.6,3.4,14.8,4.6,22.7
			c0.7,7.5,7-8.9,9.1,0c-1.7,5.1-8.2,5.1-6.8,18.2c4.5-1.6,6.1-6.1,6.8-11.4c5.8,6.8-1.6,12.7,2.3,20.5c-6.4-0.3-6.5,5.6-6.8,11.4
			c2.3-1.5,2.4-5.2,6.8-4.6c-2,3.9-2,14.3,0,4.6c7.9,5.1-7.6,12.8,0,18.2c7-9.8,4.4-18.2,6.8-29.6c12.6-2,11.5,9.8,15.9,15.9
			c4.2-13.2,12.4-19.6,2.3,2.3c2.3,5.3,4,11.2,4.6,18.2c2.8-7.1,7-12.7,6.8-22.7c5.6-3.5,6.7,7.7,2.3,6.8c8.2-2.7-2.5,26.3,2.3,34.1
			c0.3-6.5,5.4-9.8,4.5-22.7c3.9,11.9,6.7,0.9,6.8-9.1c8.4,13.8-9.2,21.1-4.5,38.7c5.6-14.1,12.4-27,13.6-45.5
			c1.9,13.6,0.2,31.3-4.6,43.2c-0.2,8.5,9.8,6.9,6.8,18.2c5.1-1.7,0.9-12.8,2.3-18.2c9.5-0.8,1.6,7.4,2.3,11.4
			c7.2-0.4,2.9-12.2,11.4-11.4c-0.3,10.3-10.1,11.1-9.1,22.7c5.9-9.4,7.8,4.3,2.3,9.1c-2.8-1-4.7-2.9-4.6-6.8
			c-2.6,3.4-6.5,5.6-6.8,11.4c2.1-1.7,3.5-4.1,4.5-6.8c5.3,0.6,1.3,10,0,11.4c7.4-4.5,14.7-14.2,11.4-22.7c3.9-0.8,4.3,1.8,4.6,4.5
			c8.2-2.4,0.3-20.9,11.4-20.5c-4.9,7.3-5,19.3-4.6,31.8c5.4-1.4-0.3-14,4.6-15.9c8.3,1.4-6.2,11.5,4.5,9.1
			c-0.1,2.2-2.8,1.8-4.5,2.3c0.7,5.3,6.1,5.3,6.8,0c5.1,1,0.9,11.2,2.3,15.9c6.8-3.9,2.5-8.3,2.3-15.9c8.2,5.4,3.6,15.9,0,20.5
			c3.8,3.8,7.6,7.6,11.4,11.4c1,6.4-8.5-5.7-9.1,2.3c2.3,2.8,9.2,2.3,13.7-2.3c-6.8-2-3.8-12.5,2.3-6.8c0.9-3.7-8.5-7.6-9.1-2.3
			c-4.7-5.1,4.8-4.2,0-13.6c3.3,2,8.8,1.8,6.8,9.1c9.6,1.3-1.1-17.8,9.1-15.9c-0.7,10.9-1.9,8.2-2.3,20.5c8.2-7,3-17.1,6.8-25
			c-5.1-3.3-10.5-6.2-15.9-9.1c0.9-4.3,0.8-9.8,6.8-9.1c0.2,6.2-3.8,4.6,0,9.1c3.1-0.7,1.9-5.7,2.3-9.1c4.9-1.1,4.3,3.2,4.5,6.8
			c3.1-0.7,1.9-5.7,2.3-9.1c-10.6,0.4,5.7-31.3-13.6-36.4c5.1-9.5-0.4-18.3,0-29.6c-4.8,4.3,0,18.1-6.8,20.5
			c-10.1-6.8,11.6-20,2.3-34.1c3.1,1.5,4.3,4.9,4.6,9.1c7-2,2.3-15.9,6.8-20.5c7.4,0.9-4.2,18.1,2.3,11.4c5.2,6.1-9.8,11.3-6.8,22.7
			c3.4-1.9,4.9-5.7,4.5-11.4c-0.3,13.1,7.8,42,9.1,61.4c7.1-0.4,0.3-14.9,9.1-13.6c-4.5,20.5-1.4,12.5-4.5,31.8
			c3.8-4.5,8.3-8.4,9.1-15.9c2.7,0.4,1.9,4.2,2.3,6.8c9.1-10.5-10.4-23.8,0-29.6c5.9,0.5-3.1,3.9,0,9.1c4.6-1.3,4.5-6.8,9.1-2.3
			c-5-20.6,0.6-40.3-4.6-56.9c2-1,4.1-2,4.6-4.6c3.1,0.7,1.9,5.7,2.3,9.1c4.6-4,4.4,1.7,9.1-2.3c-0.4-2.6-2.3-1.3-2.3,0
			c-4.9,0.4-1-8.1-2.3-11.4c4.4,13.7,7.6-3,6.8-13.6c9.7,4-2,16.8,0,27.3c4.4-0.9,0.2-10.4,9.1-6.8c1,4.3-3.1,13.7,4.6,11.4
			c1.7,7-6.2,4.4-4.6,11.4c8.1-4.1,5.9-18.3,18.2-18.2c-3.8,6.9-9,12.2-6.8,25c-8.3,3.8-13.2,11.1-18.2,18.2
			c5.2,5,8.7-10.9,13.7-13.7c-6.9,18.3-25.9,33.1-34.1,54.6c9.7-0.2,10.2,7.5,13.7,18.2c-8.5-6.5-5.7,5.8-9.1,13.6
			c5.7-5.6,15.4-7.4,15.9-18.2c6.2,8.6-7.7,16.5-11.4,22.8c12.8-2.4,13.8-16.5,22.7-22.8c-1.6-3.1-6.9,2-9.1-4.5
			c7.3-0.9,10.4-4.2,6.9-15.9c2.7,2.6,4.1,6.5,11.4,4.6c0.3,4.1-2.8,4.8-2.3,9.1c11.3-12,1.6-21.7,4.5-34.1c3.8-0.5,2.5,17,4.5,4.6
			c6.7,3.3-3,8.9,0,15.9c8.7-5.5,2.5-22,2.3-36.4c-4,2.1-5,7.1-4.5,13.6c-4.5-20,3.1-29.1,15.9-50c-2.7,11.6-10.2,18.6-11.4,31.8
			c2.5-0.6,1.6-4.5,4.5-4.6c2.5-2.4-4.8,12.2,0,18.2c6-6.9,2.7-22.1,4.6-27.3c4.2,8,5.3-0.2,9.1-4.6c7.1,5.1-4.5,10.5-4.6,15.9
			c1,3.4,2.9-0.9,6.9,0c-4.6,3-5.4,9.7-9.1,13.7c4.7,3.1,9.5-13.2,13.7-18.2c7.1-1.1,6.4,5.7,9.1,9.1c4.9,0.4,1-8.1,2.3-11.4
			c4.4,9.3,10.9-3.3,13.7-9.1c2.4,9.3-13.6,19.8-18.2,29.6c2.4,7.7,0.7-6.3,6.8-2.3c-2.3,9.1-4.6,18.1-6.8,27.3
			c5.1-9.3,11.9-16.9,18.2-25c4.7,4.1-6.9,11.2-6.8,18.2c0.8,3.2,4,0.2,4.6-2.3c8.5,4.3-12.1,10.3-2.3,15.9c0.7-3.4,3-4.1,6.8-9.1
			c3.3,0.5,0.8,6.8,4.5,6.8c10.1-4.7,15-17.5,11.4-29.6c-2.3,1.5-2.4,5.2-6.8,4.5c-0.3-3,9.3-6.9,2.3-9.1c3.9-8,5,5.3,6.8,6.8
			c6.8-6.2,1.5-10.5,6.8-18.2c7.7-1.8,14.1,2,13.7-11.4c5.5,2.1,1,12.8-2.3,13.6c4,6.7,4.7-8.7,11.4-6.8c-8.9,12.9,4.1,7.3-4.5,20.5
			c12.2-5.3-1.9-23,15.9-22.8c-1.1,23.5-5.7,33.6-20.5,52.3c4-2.9,9.9-15.7,13.7-11.4c-1.5,8.1-13.5,24-27.3,27.3
			c2.6,7.5,18.8-3.5,20.5-11.4c10.9,5.1-7.7,11.2-9.1,18.2c13.2-8.8,24.8-19.2,27.3-38.7c5.8-5.5-1.9,11,2.3,11.4
			c1.9-2.8,4.8-15.7,13.7-18.2c-2.4,2.1-0.7,8.4-6.8,6.8c-0.9,9.2,4.2,10.1-2.3,13.6c0.7,5.4,6.2-2.5,6.8-4.6
			c1.2,15.4,15.7-13.7,20.4-22.7c7.7,6.6,2.2,16.4-4.5,20.5c0.7,8,6.2-8,6.8,0c-8.3,14.5-7.8,9-18.2,18.2c1,3.4,2.9-0.9,6.8,0
			c-0.8,3-4,3.6-4.6,6.8c-5.1,1.3-3.2-4.3-6.8-4.5c-2,1-4.1,2-4.6,4.5c5.4,5.9,20.4-1.2,27.3-6.8c1.4,14.4-26.6,8.6-34.1,20.5
			c-1.1,5.7,11.3-6.4,9.1,4.5c-9.2-1.6-13,2.2-11.4,11.4c9.6-4.8,23.2-5.6,29.6-13.6c0.3,8.1,1.8,10.2-6.8,18.2
			c-5.7-0.3-0.7-7.7,0-9.1c-10.8,2.5-3,14.7,0,18.2c-1.6,5.3-7.6,6.1-9.1,11.4c10.3,1.2,6.1-12.1,15.9-11.4
			c-2.5,10.9,6.2,10.5,13.6,11.4c-3.3,5-12.2,4.5-13.6,11.4c-6.9-2.8,1.2-9.1,4.5-9.1c-0.2-4.4-7.6,2.7-13.6,0
			c1.7,4.3,6.8,1.6,2.3,6.8c-4.9,1.1-4.3-3.2-4.6-6.8c-30.8,15.1-35.1,3-56.9,13.6c-1.1,3,11.3,1,9.1-4.5c6.8,1.5-2.2,4.9,0,9.1
			c-8.6-1.7-10.9,2.8-18.2,2.3c2.9,3,6.8,4.5,2.3,9.1c6-2.9,4.8,2.4,11.4,2.3c2.8-7.3-7.4-1.7-4.5-9.1c1.6-4.5,12.7,0.6,13.7-4.5
			c7.7,8.8,13.1,2.3,20.5-2.3c-2,6.3-8.4,8.2-9.1,15.9c10.4-5.7,24.6-1.2,29.6-15.9c2,5.8,0.2,12.8,6.8,2.3c2.6,4.2,0.9,11.1,4.5,0
			c6.1,3.3-0.9,12.5-6.8,11.4c5.5,6.7,19.6-12.5,15.9,2.3c5.3,0.7,8.7-0.4,11.4-2.3c-1.5-2.3-5.2-2.3-4.5-6.8
			c8.1-4.3,12.5-0.6,15.9-6.8c6.9,7.6-6.7,5-9.1,6.8c1.7,2.1,4.1,3.5,6.8,4.5c9.3,0.2,9.1-9.1,20.5-6.8c-8.9,10.6-16.6,8.3-18.2,25
			c-12.8,1.3-16.6-1-25,2.3c-2.1,4.2,13,1.4,4.6,4.5c2.1,6.2,4.2-6,11.4-2.3c-6.2,8.8-7.8,8.4-18.2,11.4c5.1,5.6,4.2,6.6,13.6,4.5
			c-1,2.8-2.9,4.7-6.8,4.6c1.9,6.7,5.7-3,11.4,0c-0.8,7.5-13.1,3.6-20.5,4.5c10.9-8.9-5.4-5.1-6.8-13.6c-0.7,6.2-4.3,7.2-9.1,13.6
			c-8-1.8-10.5-9.2-20.5-9.1c0.3,4.2,7.7,1.4,9.1,4.6c-0.7,3.1-5.7,1.9-9.1,2.3c1,5.1,11.2,0.9,15.9,2.3
			c-7.5,7.7,7.6,14.4,15.9,22.7c5.2,5.3-7.1-0.8-11.4,0c-2.6,2,0.5,5.5-6.8,6.8c7.8,9,19.2-0.2,22.8,6.8c4.2-2.7,6.5-19.1,13.6-11.4
			c-2.8,7.5-3.6,0.7-6.8,11.4c12.3-2.3,9.5-15,15.9-18.2c6.2,2.1-2.3,8-2.3,11.4c10.1,2.6,8.2-7,11.4-11.4c6.8,1.5-2.2,4.9,0,9.1
			c11.3-1.5,17.3-8.5,25-13.6c-5.4,14.3-23.6,15.9-34.1,25c2.9,3.1,6.9,4.5,0,6.8c7.3,2,14.8-15.5,27.3-15.9
			c-0.7,4.6-6.1,4.5-6.8,9.1c8.9-3.2,16.5-7.7,15.9-20.5c7.2,3.5-2.8,13.7,2.3,15.9c4.4-4.2,1.8-4.2,9.1-2.3c-3.8,4.5,0.2,2.9,0,9.1
			c-5.7-0.4-7.1,3.5-9.1,6.8c8.3-5.5,11.2-8.9,20.5-9.1c-0.5-3-9.5-4.2,0-4.5c4.7,5.9-5.1,8.5,0,15.9c-7.4-8.2-26.4,5.4-36.4,9.1
			c7.7-2.7,20.8,3.9,29.6,0c-1.6,8.3,5,4,18.2,4.6c-8.4,3.5-12.9,7.4-22.7,13.6c0.8-3,4-3.6,4.6-6.8c-2.1,1.4-8.4,5.3-6.8-2.3
			c-7.5,1.6-14.5,3.7-22.7,4.5c7.7,2.3,21.7,1.8,15.9,11.4c6.8,2.3,4-5.1,4.5-9.1c8.6,2.8-2.5,8.8,9.1,4.6c-1,2.8-2.9,4.7-6.8,4.5
			c8.4,6.1,16.1-8,25-9.1c-2.9,3.9-4.7,9-11.4,9.1c3.8,11.6,18.3-5.3,22.7,0c-3,10.6-23.6,3.7-31.8,9.1c1.8-0.7,14.8,8.1,20.5,2.3
			c6,7.3-14.4,2.2-9.1,11.4c-9.4-3.5-28.2,7.5-22.7-2.3c-7.2,0.3-10,5.1-18.2,4.5c0.3,5.8,7.6,4.5,13.7,4.5
			c-2.2,6.1-9.5,7.2-15.9,9.1c6.4,9.8,14.6-2.8,25-2.3c0.3,12.8-14.7-1.6-11.4,11.4c-13.8-1.9-21.5,5.3-31.8-4.6
			c3.4,5.8-7.3,5.3-13.7,4.6c1.5,2.3,5.2,2.3,4.6,6.8c5.5-1.5,11.7-4.6,11.4,4.5c-3.9-2-14.3-2-4.5,0c-0.3,5.8-7.6,4.5-13.7,4.6
			c1.1-3.6-31.3-10.1-40.9-9.1c-0.7,6,8.8,1.8,6.8,9.1c9.1,0.8,12.6-4.1,22.8-2.3c2.3,6.8-5.1,4-9.1,4.5c4,6,20.6-4.8,13.7,6.8
			c2.7,0.7,7.8-6.6,2.3-6.8c1.9-6.7,5.7,3,11.4,0c-3.3,6.6-10.3,9.4-18.2,11.4c9,6.6,23.3-0.9,34.1,0c-12,4.9-1.4,4.8,9.1,4.6
			c-8.5,5.8-23.5,1.3-38.7,4.5c-1.4,5.2,15.7,8.3,13.6,0c6.9,6.8,18.9,8.5,25,0c7.2,11.1-20.2,7-27.3,11.4c2,3.3,1.8,8.8,9.1,6.8
			c2.7-0.4,1.9-4.1,2.3-6.8c3.3,2,7.2,3.4,6.8,9.1c-4.1-0.3-4.8,2.8-9.1,2.3c6.2,7.1,12.8,2.4,15.9-4.5c6.7,1.9-1.4,7.3,0,11.4
			c7,1.6,6.7-3.9,13.6-2.3c-8,9-24.8,9.6-31.8,13.6c8-2.8,2.4,11.7,11.4,2.3c2.9,0.6,2.3,4.5,0,4.6c7.4-1.2,6.9-2.5,18.2-4.6
			c-2.6,4.3-8.8,4.8-11.4,9.1c3.1,4.2,12.8,0.5,20.5-2.3c-3.7,3.9-8.5,6.7-13.7,9.1c-8.3,1.5-8.7-4.9-15.9-4.5
			c8.7,7.7,10.2,8.8,22.7,11.4c-11.5,2.2-15,2.8-27.3,6.8c-0.9,5.4,10.4-1.3,6.8,6.8c-11.4-4.7-14.6,1.5-22.8,2.3
			c8.3,5.5,14.6,3,22.8,0c-5.1,8.1,1.6,0.3,9.1,2.3c-1.4,2-2.7,4.1,0,4.6c-12.1,4.5-27.3-0.8-40.9,4.5c2.7,6.1,11.9,0,15.9,0
			c-2,5.6-8.4,6.7-11.4,11.4c2.4,5.2,6.9-6.5,13.6-4.5c-0.3,4.3-7.5,1.6-6.8,6.8c1.8-1.2,3.7-2.4,6.8-2.3c-0.8,3-4,3.6-4.6,6.8
			c10,2.4,7.5-7.7,15.9-6.8c-3.5,8.5-5.6,6.4,4.5,4.5c-0.2,6.2,3.8,4.6,0,9.1c9.1,2.2,6.8-6.8,15.9-4.5c0.7,4-10.7,7-4.6,9.1
			c-2.1,6.2-7.1-3.2-13.6,0c12.1,7.3-10,3.8-2.3,13.7c-4.5,0-2.9-6.2-9.1-4.6c-0.2-0.1-6.4,11.7,2.3,11.4c-16.3,4.9-34,0.9-59.1,0
			c-1.2-10.1-6.5-16.3-13.7-20.5c-5,7.8,11.2,10.7,11.4,20.5c-16.8-5.9-31.3-14.2-43.2-25c-5.3,3.1-7.5,9.1-18.2,6.8
			c-1.4-9-23.2-19.9-25-13.7c-6,0.7,2.1-12.7-6.8-9.1c-3.2,0.8-0.2,4,2.3,4.6c-14.4,1.5-17.8-27.7-29.6-36.4
			c-6.6,3.2,4,7.8,2.3,13.6c-8.7-0.4-0.8,1.9-2.3,6.8c-7.4,2-3.2-7.4-6.8-9.1c-2.8,9.7,4.4,28.9,18.2,29.6c-5,8.6-13.9,2.2-18.2-2.3
			c-3.2,0.8-0.2,4,2.3,4.6c-10.1,4.7-18.5-11.8-20.5-22.7c-3.1,1.5-4.2,4.9-4.5,9.1c-6.8-4.1-11.8-16-22.7-13.6v-13.6
			c-3.5,15.5-22.3,1.6-15.9,20.5c-4.7,2.2-11.7-2.2-18.2-2.3c6,6.3,7.3,11.1,4.5,18.2c-6.5-2.7-1.4-15.4-11.4-9.1
			c2.5-7.1,1.1-6-2.3-11.4c-4.6,3-7.4,14.6-13.6,9.1c-0.9,10.3,7.6,19.8,4.6,25c-8.8-3.4-8-16.2-9.1-27.3c-3.1,0.7-1.9,5.7-2.3,9.1
			c-7.1-3.5-3.8-17.4-4.5-27.3c-3.4-2.7-6.4-5.7-9.1-9.1c-10,7.5-11.3,29.2,2.3,27.3c-2.9,5.7-12.8-0.7-13.7-4.5
			c-9.6,8.7-26.5-5.3-40.9,2.3c-4.2,26.3-24.6,35.7-20.5,61.4c10.7,67-20.8,158.4,63.7,166c53,4.8,112.4-0.3,175.1,13.7v9.1H184.4
			c1.9-2.6,3-6.1,2.3-11.4c85.9-13.6,186.5-2.7,259.3-31.9c1.4-39.8,9.6-87.1-2.3-120.5c-10.9-13.4-28.4-20.1-34.1-38.7
			c-15.2,6.9-28.8,20.4-45.5,13.6c5.4-8,15.1,0.4,25-4.5c1.6-5.7-10-9.4-2.3-13.6c-8-7.2-19.8-10.6-27.3-18.2
			c-5.3,1.5-6.1,7.6-11.4,9.1c1,2,2,4.1,4.6,4.5c-7.1-5.2-10.8,7.1-20.5,11.4c3.3-8.6-6.3-4.4-4.6-11.4c8.3,4.7,10.2-1,15.9-4.5
			c-0.9-4.4-8.8-1.8-6.8-9.1c6.1,0,13,0.9,15.9-2.3c-0.2-6.7-5.2-8.4-9.1-11.4c4.8-6.9,8.5,6.5,13.7,6.8c1.8-0.4,2.3-2.3,4.5-2.3
			c1.7-7-6.2-4.4-4.5-11.4c5.7-0.4,7.1,3.5,9.1,6.8c2.5-0.6,1.5-4.5,4.5-4.5c-4.2-8.2-6.4-16.2-11.4-18.2
			c-4.3,1.6,3.1,10.4,6.8,11.4c-4.4,1.3-25.4,3.9-18.2-4.5c-4,0.5-5.2,3.9-4.5,9.1c-7.2-2,10.1-20.2-4.6-22.7c5-2,9.3-0.1,13.7-6.8
			c-4.1,0.3-8.9-6.2-18.2-6.8c2.8-9.6,9.3,0.2,15.9,0c-9.5-6.9-10.4-17.2-25-22.8c-5.2,5.4,4.5,15.1,13.6,13.7
			c-4.5,9.3-22.6-11.3-27.3,6.8c-7.8-0.6-4.6-12-11.4-13.6c2,5.1-11,7.7-9.1-4.5c-10.8-0.2-5.7,15.5-11.4,20.5
			c8.2,16.8,15.3,34.7,22.7,52.3c-10.7-4.5-10.4-19.9-18.2-27.3c-19.3,8.8-14.7,60.4,6.8,70.5c-3.6,3.4-7.9,11.8,2.3,11.4
			c-0.5,3.3-6.8,0.8-6.8,4.6c-3.3-0.5-0.8-6.8-4.5-6.8c-4.8,0.6,3.3,6.1-2.3,9.1c-5.2-0.9,1.2-13.3-9.1-9.1c-1.7-7,6.2-4.4,4.5-11.4
			c1.7-6.2-4.5-4.6-4.5-9.1c-6.7,2,5.3,3.4,2.3,9.1c-3.1,4.5-13.7,1.4-13.7,9.1c-9.8-6.1,6.1-19.6,2.3-34.1
			c-3.9,6.7-8.9,12.3-18.2,13.7c0.8-3,4-3.6,4.5-6.8c-7-1.7-4.4,6.2-11.4,4.5c4.3-10.1,19.3-9.5,22.7-20.5
			c-10.4,4.8,3.4-5.1,6.8-6.8c-2.8-12.5-5.2-25.1,6.8-27.3c-2.8-12.1,7.8-24.1-2.3-29.6c-0.4-9.6,3.5,0,6.8,0v-9.1
			c-4.9,7.9-3.7,0.6-6.8-4.6c-0.3,6.5-5.5,9.8-4.5,22.7c-8.7-2.8,0.4-9.3-4.6-15.9c-0.2,10.9-8.8,25.7-15.9,36.4
			c-8.4,0.8-12.7-2.5-18.2-4.6c3.2-7.1,11.2,3.1,13.7-2.3c1.8-8.5-14-4.2-6.8-11.4c-5.2,1.4-13.7,4.5-18.2,0
			c1.2,3.4,3.4,5.7,4.6,9.1c1.8-2,6.2-1.3,6.8-4.5c-0.9,18.4-27.3-10.3-22.7-18.2c3.2,3.7,6.4,7.2,9.1,11.4
			c6.8-12.7,24.3,6,34.1-11.4c1.1-3-10.4-0.1-11.4,2.3c-2-4.8-9.7-3.9-9.1-11.4c6.2-0.2,4.6,3.8,9.1,0c-1.2-1.8-2.4-3.7-2.3-6.8
			c-5.7-1.9-19.6,4.4-18.2-4.5c2.7,2.6,8,2.6,13.7,2.3c-0.1-8.2-16.2-0.5-13.7-11.4c4.6,2.9,17.3,9.2,11.4-2.3
			c4.5,0,2.9,6.2,9.1,4.6c2-1,4.1-2,4.5-4.6c-3.7-4.7-10.9-5.7-15.9-9.1c3.8-5.9,13.1,1.9,15.9,4.5c4.1-0.7-2.3-9.6-4.5-11.4
			c5-1.6,11.2,6.4,4.5-6.8c7.9,3.1,4.1,9.4,6.8,13.7c7.5-1.3,3.3-8.6,2.3-13.7c1.8-4.1,2.4,1.4,2.3,4.6c3.3-2.8,3.5-8.7,6.8-11.4
			c-12.5-4.3-20.6,13.8-36.4,13.6c6.5-3.4,9.4-10.3,18.2-11.4c-16.5-16.5-40.1,8.8-40.9,29.6c-7.9,2-3.9-7.4-2.3-9.1
			c-8.7,0.4-7.3,10.8-11.4,15.9c1.5,2.3,5.2,2.3,4.6,6.8c-3.7,0.6-3.9-2.1-6.8-2.3c6.8,11.4-2.8,6.5,0,13.7
			c-7.8,5.4-21,22.1-34.1,29.6c-1.9-11.8,25-14.4,25-31.8c-2-2.6-6.3,1.4-4.5-9.1c-4.5,3.9-6.1,10.6-6.8,18.2
			c-7.6,2.3-3.5-7.1-4.5-11.4c10.1,5.4,2.1-24.5,13.7-25c-8.1-1.5-7.4,3.2-15.9,11.4c1,4.3,4.9,5.7,4.5,11.4
			c-4.9,1.1-4.3-3.3-4.5-6.8c-2.7,20.5-13.4,41.1-18.2,52.3c-9.1-5.3-34.5-1.4-6.8-6.8c4.7-0.6,4.6-6.1,6.8-9.1
			c-5.4,0-6.7,3.9-13.7,2.3c7.6,6.8-15.8,2.9-22.7,0c-10.7-4.5,5.9,0.3,6.8-2.3c0.4-1.2-23.8-14.8-29.6-13.7
			c6.6-9.9,24.5,14.8,38.7,4.6c-3.4-4.9-11.4-5.3-11.4-13.6c4.2-0.3,7.6-1.5,9.1-4.6c-1.9-3.4-7.3-3.3-11.4-4.5
			c5.6-9.5,10,4,18.2-4.6c-1.2,5.8-3.9,8.8,4.6,9.1c5.7-1.6-4.2-6.1-2.3-11.4c4.1-0.3,4.8,2.8,9.1,2.3c-3.3-5.3-5.7-5.1,0-9.1
			c-7-6.3-7.1,8-15.9,6.8c-3.9-8.2,15.4-10.7,2.3-13.6c4.9-6.2,10.5,2.3,15.9-2.3c-3.3-6.8-20.3-8.7-13.7-18.2
			c3.4,5.7,8,10.3,13.7,13.7c10.3-13.9,19.7-28.9,27.3-45.5c-9.2,8.6-15.1,11.9-27.3,20.5c9.1-8.6,8.7-23.4,20.5-20.5
			c-0.2-8.5-2.6-6.5,0-13.6c-7.1,9.5-14,19.3-22.7,27.3c0.1-9.4,5.1-12.6,11.4-20.5c-7,6.4-14.7-1.4-15.9,9.1
			c-6.1-2.7,0-11.9,0-15.9c-1.2-4.7-10.8-0.5-4.6-6.8c-15.5,2.9-19.3,24-9.1,34.1c-2-1.8-5.1-2.5-9.1-2.3c1.9-6.4-3.2-5.9-2.3-11.4
			c-3,1.5-4.2,4.9-4.5,9.1c-8.5-1.5-8.3-14.1-2.3-18.2c-6.5,4.1-11.3,9.9-13.6,18.2c-9.4-3.6-37.2,12-50.1-2.3
			c1.9-5.4,10,1.9,13.7,2.3c5.5-4.9-10.2-7.8-13.7-11.4c0.5,10.7-12.4-2.8-6.8-9.1c-10.5-0.5,2.2,8.1-4.5,11.4
			c-4.9-3.1-15.3-5.1-6.8-9.1c-0.3-5.1-5.7,3-11.4,0c1.7-7-6.2-4.4-4.6-11.4c8.6,10.5,6.1-4.8,2.3-11.4c5.4,3.3,4.2,4.8,11.4,2.3
			c-1.5-2.3-5.2-2.4-4.5-6.8c3.7,0.6,3.9-2.1,6.8-2.3c9.6,1,9.7,11.6,18.2,13.6c0.8-3.9-1.8-4.3-4.5-4.5c-0.4-4.9,8.1-1,11.4-2.3
			c-7.4-4.2-5.5-4.6-9.1-13.7c5.5-0.9,5,4.2,11.4,2.3c-3.4-12.5-11.3-20.6-25-22.7c-2.8,7.4,7.3,1.7,4.5,9.1
			c-11.5-4.4-14.8-17.1-22.7-25c1.8,0.4,2.3,2.3,4.6,2.3c-1.2-1.8-2.4-3.7-2.3-6.8c9.5,14,14.7,11.7,25,18.2c7.1-3.4-6.7-9.8,0-13.6
			c2.6,5.6,12.1,13.3,4.5,15.9c4.3,7.7,8-3.9,13.7-2.3c-0.6-4.7-10-0.6-11.4-4.5c1.5-4.9,14-2.1,15.9,0c-4-15-14.6-23.3-22.8-34.1
			c8.6-7.7,7.2,14,20.5,9.1c-3.3,15.4,12,12.3,18.2,18.2c3.1-0.7,1.9-5.7,2.3-9.1c-4.1-0.3-4.8,2.8-9.1,2.3c6.3-8-1.4-9.5,0-18.2
			c4,2.1,3.8,8.4,9.1,9.1c2-1,4.1-2,4.5-4.6c0.9-5.4-10.4,1.3-6.8-6.8c11.8-6.3,11.2,17,27.3,13.6c-6.3-7.2-0.2-13.1-9.1-15.9
			c0.4-7.2,9-6.2,15.9-6.8c1.1-4.5-10.4-7.3-11.3-2.3c-7.5-6.1,6.3-6.4,0-13.6c6.7,3.2,8.6,11.1,18.2,11.4c1.8-3.4-4.4-13.8,6.8-9.1
			c-3.3-6.5-11.7-8-13.7-15.9c4.6-2.2,14.4,9.8,20.5,13.6c5.9-0.6-3.1-3.9,0-9.1c-3.2-5.6-7.8-4-13.7-2.3c8.1-8.2,1.3-5.8-9.1-9.1
			c-4.2,0.3-1.4,7.7-4.5,9.1c-2.1-0.7-2.1-6.2,0-6.8c-0.5-3.3-6.8-0.8-6.8-4.6c-6.7,2,5.3,3.4,2.3,9.1c-2.8-2.6-4.7-2-4.5,2.3
			c-4.9,1.1-4.3-3.3-4.6-6.8c-8.1-1.2-5.6,8.1-13.7,6.8c-3.2-1.4-0.3-8.8-4.5-9.1c0.6-5.3,10-1.3,11.4,0c-1.2-1.8-2.4-3.7-2.3-6.8
			c-2.7,2.6-8,2.6-13.7,2.3c-1.8-9.6-8.8-13.9-11.4-22.8c12,1.7,16.4,10.8,27.3,13.7c-0.2-8.2-10.4-6.3-9.1-15.9
			c-10.9-0.7-35.7,1.4-38.7-18.2c9,5.6,11.4,13.1,22.7,11.4c-3.2-5.2-7.9-8.8-11.4-13.6c5.5-6.6,5.2,9.9,13.7,2.3
			c-6.5,10.3,14.2,9.9,2.3,11.4c3.3,3.5,8.9,4.8,15.9,4.5c-2.4-14.3-20.5-12.8-25-25c2.8-6.9,9.1,1.2,9.1,4.6
			c2.1-1.7,3.5-4.1,4.6-6.8c-1.2-3.5-2.4-0.1-2.3,2.3c-3.3-2-7.2-3.4-6.8-9.1c4.2-7.2,7.7,7.7,11.4,0c1,5.5,3.4,13.8,13.6,9.1
			c-7.9-4.8-11.4-14.7-27.3-13.6c0.1-10.2,5.2-2.9,9.1-6.8c-3.3-4.3-5.1-10.1-13.6-9.1c1-4.3,0.8-9.8,6.8-9.1
			c0.8,3.9-1.8,4.3-4.6,4.6c10.3,1.7,20,11.9,29.6,20.5C64.1,170,46.1,170,34.3,150c2.8-5.6,6.6,6.8,11.4,6.8
			c-1-6.5-2.6-12.5-9.1-13.6c0.7-3.1,5.7-1.9,9.1-2.3c-1,11.6,8.8,12.5,9.1,22.7c-3-0.8-3.6-4-6.8-4.5c0.9,9.8,7.8,3,11.4,6.8
			c-3.5-4.1-3.5-18.6,0-22.8c3.1,1.5,4.2,4.9,4.6,9.1c-1.8-0.4-2.3-2.3-4.6-2.3c1.4,2,2.7,4.1,0,4.6c1.6,8.5,9.9,14,9.1,6.8
			c7,3.6,9.3,12,13.7,18.2c-1-4.6,4.4-8.7,4.5-18.2c-5.4,1.4-8-15.3-18.2-9.1c0.4-7.2-6-7.6-4.5-15.9c3.9,8.2,12.8,11.5,18.2,18.2
			c2.7-0.4,1.9-4.1,2.3-6.8c4.6,1.9,9.2,24.1,13.6,11.4c6.7,2.4,5.1,13,13.6,13.6c-3.5-12.4-16.3-15.6-18.2-29.6
			c15.8,10.5,15.4,12.9,29.6,27.3c5.1-3-4.8-10.2-4.5-15.9c5,2.6,7.6,7.6,13.6,9.1C116.3,144.6,90.1,136,73,118.2
			c-2.6,7.9-0.9,2.2-4.5,9.1c0.1-7.2-4.2-14.8-4.5-27.3c3.4,1.9,3.3,7.3,4.5,11.4c8.6-2.1,1.7-9.1,2.3-15.9
			c1.9,24.8,17.4,28.4,34.1,40.9c-1.1-14-11.5-8.6-13.6-18.2c-2.2,0.1-1.8,2.8-2.3,4.5c-5.3-3-6.5-10.2-9.1-15.9
			c7.2,6.5,10.2-3.4,13.6,11.4c-4.4-18.9-20-32.5-20.5-61.4c12.4,5.8,12.4,24,20.5,34.1c2.4-7.5-3.5-17.2-2.3-27.3
			c7.5,9.9,8.4,26.5,15.9,36.4c7.5-3.4-4.7-5.6-2.3-11.4c5.5,5.6,10.8,4.4,6.8-4.6c6-0.7,5.9,4.7,6.8,9.1c7.1-6.5-3.2-14.9-4.5-20.5
			c5.4,5.6,4.2-3.4,11.4-2.3c0.5,8.6,2,16.2,4.6,22.8c-0.2-4.6,2.9-15.8,6.8-22.8c2.7,4.3,4.7,14.9,6.8,2.3
			c6.5,6.1,1.5,24.2,13.7,29.6c3.3-5-8.4-14.3-9.1-22.7h9.1c-4.4,8,0.7,12.5,4.5,18.2c-0.4,6.4-4.2,9.5-4.5,15.9
			c-6.6-2-2.6-3.4-2.3-9.1c-9,2.3-1,10.5,2.3,13.7c3.6-3.2,2.4-11.2,6.8-13.7c1.9-9.5-4.4-10.7-4.5-18.2c10.1,3.9-4.3-7.6,2.3-15.9
			c3.9-0.8,4.3,1.8,4.5,4.6c4.4-10.3-13.8-12.2-13.6-29.6c7.6,13.2,22.3,19.7,25,31.8c5.4-7.7,2.6-26.7-4.5-29.6
			c10.8-1.7,11.4,26.5,13.6,40.9c2-1.4,4.1-2.8,4.6,0c3.5-9.1,4.1-24.1,4.5-2.3c3.2-22.4,5.7-21.3,4.5-4.6c0.7,4.6,6.2,4.5,6.8,9.1
			c-0.3,13.5,0.2,16.3,2.3,29.6c1.7-1.6,7.2-9.6,6.8,0c5.2-1.6,0.7-13,9.1-11.4c-4,22.9,1.3,44.1,11.4,56.9c9.3-5.6-2-11.6-2.3-20.5
			c6.6,6.8,11.3,2.1,13.6,11.4c-9.1-4.1,0.6,0.7,0,6.8c4.2-4.1,2.9-13.7,6.8-18.2c4.6,3,5.1,10.1,6.8,15.9c-6.8,2.3-4-5.1-4.5-9.1
			c-1.7,3.6-6.8,22.9-4.6,15.9c6.4,2.2-3.3,6.1,2.3,9.1c7.2,1.1,0.9-11.3,9.1-9.1c-0.1,8.3-6.7,21.4,0,36.4c0.6-7,5.2-29.3,4.5-2.3
			c4.5,0,2.9-6.2,9.1-4.6c1.3-19.9-7.3-27.3-13.7-34.1c6.4,10.2,4.2-16.2,6.8-2.3c6.9-2.8-2.5-7.8,0-13.7c-7.3,5-5.5,0.8-9.1,2.3
			c-5.1-0.9-1.8-12.1,0-13.6c4.8-0.9,6,1.6,9.1,2.3c0.3-29.8-20-39.2-27.3-61.4c2,1.4,4.1,2.7,4.5,0c8.8,6,12.3,20.1,18.2,22.8
			c7.7-14.6-16.2-17.2-15.9-31.9c6.6,3.3,8.8,10.9,13.6,15.9c5.1-4.7-3.2-11.7,6.8-13.7c-3.6-10.8-10.9-17.9-11.4-31.8
			c3,6.9,7.5,12.3,9.1,20.5c6,0.7,7.5-3.2,6.8-9.1c3.3,4.3-2.1,29.2,9.1,36.4c14.3-13.9-2-28.8,0-43.2c1.1-7.5,9.1-2.3,9.1-2.3
			c2.7-4.5,1.6-17.9,2.3-15.9c5.4,16.5-2.3,30.9,9.1,45.5c5.4-1.9-0.1-11.7-2.3-13.6c8.1-6.5,8.5,14.2,9.1,22.7
			c5.4-1.4-0.4-14,4.5-15.9c3.3,2.7,4.3,12.1,4.6,0c8.9,3.2,2.7,21.6,4.5,31.9c4.3-0.3,1.6-7.5,6.8-6.8c0.3-6.5-1.2-14.9,2.3-18.2
			c2.6-13.7,4.3,21.9,2.3,29.6c6.9-20.1,8.5-32.7,11.4-54.6c9.9,14.2-10.9,47.7-6.8,63.7c4.5-19.3,13.6-37.2,13.7-54.6
			c10.2,16-2.5,23.5-2.3,40.9c3.3-2.8,4.3-7.8,4.5-13.7c7,6.4-2.4,15.7,0,25c5.3-3.4,3.5-5.6,2.3-11.4c8.2,17.3-17.6,37.3-6.8,65.9
			c4.5-13.2,8.5-0.2,6.8,11.4c11.6-19.4-14.1-40.9,2.3-52.3c-3.3,33.9,14.4,52,13.7,84.2c1,2.8,2.9,4.7,6.8,4.5
			c-3.8-2.1-7.1-9.3,0-4.5c-6.1-35.2-15.1-43.9-15.9-79.6c7.6-2.3,3.5,7.1,4.5,11.4c4.7-11.6-5-18.2,0-34.1c-8.6,11.1-2-11,2.3-13.6
			c0.3,5.4-2.2,24,2.3,36.4c8.4-1.8,10.5-14.4,18.2-4.6c-3-11.4-6.3-22.5-11.4-31.8c3.9-8,3.7,6.6,11.4,2.3
			c2.6,8.4,0.2,13.2,2.3,18.2c3.6-7.6,3.1-36.5,4.5-9.1c0,5.3,3.9,6.7,2.3,13.6c6.6-22.1-2.3-35.9-2.3-54.6c1.8,0.4,2.3,2.3,4.5,2.3
			c-1.2-18.8-10.1-41.1-4.5-59.1c6.6,3.3-5,13.5,2.3,18.2c5.1-1,0.1-12.1,4.5-13.7c4.5-22-1,16.8,2.3,20.5c-1.8-0.4-2.3-2.3-4.5-2.3
			c0.7,6.5,1.6,20.1,4.5,11.4c0.3,22.7,5,34.5,6.8,61.4c5,0.4,1-8.1,2.3-11.4C421.3,87.1,424.5,90.3,421,90.9 M871.3,518.4
			c8.7,1.1,14.2-1,15.9-6.8c-4.1-4.2-12.7-1.2-15.9,2.3c6.5,3.2,11.6-6.2,13.7,0C881,516,873.6,514.7,871.3,518.4 M675.7,552.5
			c6.5-3.2,11.6,6.2,13.7,0c-11.8-0.2-4.1-18.2-13.7-13.6c6.9,10.8-6.5-5.5-6.8,0C672.7,541.9,672.4,549,675.7,552.5 M562,507.1
			c-5.2,2.2-16.2,13-6.8,15.9C555.2,515.4,562.6,515.2,562,507.1 M384.6,557.1c-0.5,2.6-2.5,3.5-4.5,4.6c-3.3-5-5.6,2.9-6.8-2.3
			c1.4-4.6,11.5-0.6,9.1-9.1c-13-2.4-8.6,12.6-20.5,11.4c4.8,12.8,26.7,16.1,31.9,15.9c-5-1.8-5.7-8-9.1-11.4
			c3.6-0.2,7.9,0.3,6.8-4.5c-2.7-0.4-6.5,0.4-6.8-2.3C385.9,559.4,387.2,557.5,384.6,557.1 M150.3,507.1c-3.2-0.5-3.8-3.7-6.8-4.5
			c0.3,5.6,0.4,10.9-2.3,13.6C148.4,517.2,147.7,510.4,150.3,507.1 M7.1,395.6c4.9,2.6,19.2,14,20.5,0c-11.1,5.2-6.7-4.2-9.1-9.1
			C11.6,386.5,8.9,390.6,7.1,395.6 M114,263.7c2.9,7.7,10.7,10.5,18.2,13.6c-4.7-14.2,2.5,2.3,6.8-4.5c-5.1-1.3,2.8-3.6-2.3-6.8
			C122.1,271.1,133.1,262.1,114,263.7 M98,181.8c-2.7-1.1-5.2-2.4-6.8-4.5c9.9,1.7-1.8-4.5,4.5-4.5c4.5-1.2,5.2,12.5,9.1,4.5
			c-3.4-5.6-8.6-9.6-15.9-11.4c-0.5,1.8-0.1,4.5-2.3,4.5c-1.7,7,3.9,6.7,2.3,13.6C94.6,181.2,96,185.3,98,181.8 M139,84
			c1.8,7.4,10.5,19.7,11.4,20.5C149.9,94.3,146,87.6,139,84 M218.6,127.2c-1.4,9.9,4.9,23.7,9.1,20.5
			C221.3,144.3,223.4,132.2,218.6,127.2 M409.6,81.8c0.1-5.6-2.3-20.2-4.5-15.9C408.3,74.1,401.8,78,409.6,81.8 M480.1,47.6
			c3-4.5,13-16.2,2.3-20.5C482.4,33.4,472.9,41.8,480.1,47.6 M482.4,61.3h4.5c1.4-0.1,2.7-0.3,2.3-2.3c-6.8-2.2-0.1-16.3-4.6-11.4
			C480.5,53.6,485.7,54.5,482.4,61.3 M678,65.8c1.1-4.1,2.4,1,4.6,2.3c-0.9-3.9,3.4-5.8,0-6.8c-6.1,8,3.2-15.4-2.3-6.8
			C678.7,56.7,673.4,71.6,678,65.8 M295.9,84c-2.7-6,4.3-13.4,0-13.7c-2.6,2.7-2.6,8-2.3,13.7c12.7-1.3,1.4,21.3,11.4,22.7
			c-3.9-13.3-1.4-35.9-4.5-38.7C300.7,75.2,299.4,80.7,295.9,84 M457.4,95.4c-0.8-6,8.2-21.6-2.3-22.7
			C456.5,79.6,452.2,92.3,457.4,95.4 M277.7,138.6c5.5-20.3,12.9-48.9-4.6-63.7C273,89.9,273.3,117.1,277.7,138.6 M459.7,106.8
			c9.8-9.3,6.7-20.6,13.6-29.6c-3.1,0.1-5-1.1-6.8-2.3C463.9,83.8,458.4,101.7,459.7,106.8 M509.7,88.6c5.5,1.5,8.5-10.8,4.5-11.4
			c0,1.3-1.8,2.6-2.3,0c-0.1-1.4-0.3-2.7-2.3-2.3V88.6z M318.6,104.5c-1.9-3.4-8.4-14.9,0-9.1c1.1-7.2-2.8-9.3-6.8-11.4
			c-1.5,5.2-4.5,13.7,0,18.2C317.9,98.2,316.2,112.2,318.6,104.5 M784.9,118.2c1.8-11.8,5.3-22,9.1-31.9
			C781.9,91.5,783.9,109,784.9,118.2 M493.8,115.9c3-9.2,6.9-19.2,0-27.3C495.6,100.1,489.3,102.6,493.8,115.9 M514.2,109
			c8.2-1.4,6.7,7,13.6,6.8c2.5-11.3-12.3-17.4-2.3-22.7c-3.3,1.2-5.5-8.9-6.8-2.3C523.3,94.1,509.6,98.2,514.2,109 M184.4,115.9
			c-2.5-9.1,1.5-16.4-6.8-22.7C178.4,102.3,179.2,111.2,184.4,115.9 M323.2,113.6c3.1-0.1,5,1.1,6.8,2.3c4-4.8,7.5-16.7,0-20.5
			C327.1,100.8,321.7,103.8,323.2,113.6 M191.3,115.9c1.1,42,4.8-18.4-2.3-18.2C190.4,103.9,184.5,124.2,191.3,115.9 M314.1,156.8
			c-2.7-18.4-11.1-43-25-56.8c-1,20.3-4.9,40.4,13.7,45.5c2.9-5.6-6.7-9.4,0-11.4C306.1,140.7,307.3,161.2,314.1,156.8 M498.3,131.8
			c0.2-3,4.3-12.5,0-6.8c-1.3,10.3-3.5,15.8,2.3,25c6.5-15.3,10.8-38.7,9.1-50C500.2,114.7,508.5,122.6,498.3,131.8 M302.7,109
			c3.7,10.7,6.9,21.9,13.6,29.6C314.5,126,309.2,117,302.7,109 M734.9,111.3c-0.1,1.4-0.4,2.7-2.3,2.3c-0.5-1.8-0.1-4.5-2.3-4.6
			c-0.6,3.4-9.8,9.6-4.5,11.4C726.4,116.3,741.3,115.1,734.9,111.3 M348.2,127.2c-1.4-4.7,2.8-14.9-2.3-15.9
			C341.8,115.5,344.7,124.1,348.2,127.2 M482.4,152.3c-3.9-9.9,2.8-28.2-4.6-40.9c-11.4,3-15.8,12.9-25,18.2
			c1,5.1,5.2,12.3-2.3,13.6c0-2.3-1.8-2.7-2.3-4.5c1.8-0.5,4.5-0.1,4.6-2.3c-7.6-2.3-7.5,3.2-6.8,9.1c10.2,0.8,6.7,6.7,9.1,11.4
			c-0.1-4.2,1.8-4.8,4.6-2.3c1.4-4-6.7-9.4,0-11.4C460.7,156.3,480,149.8,482.4,152.3 M464.2,159.1c8.8-2,3.7,9.9,13.6,6.8
			c-1.4-4.7,3.7-15.8-4.5-13.7C476.9,161.2,463.5,153,464.2,159.1 M436.9,138.6c-1.4-10.4,13.6-21.3,4.5-25
			C437.3,122.8,432.3,130.9,436.9,138.6 M207.2,143.2c-2.3-13.3-1.2-21.1-6.8-27.3C197.8,128,200.1,135.6,207.2,143.2 M521.1,118.2
			c-2.9-0.1-3.2-2.9-6.8-2.3c0.9,6.3-8.7,13.8-2.3,18.2c5.3-7.1,0.5-12.6,6.8-15.9C518.8,119.4,520.6,120.7,521.1,118.2 M341.4,150
			c2.4-8-3.9-15.7-4.5-31.8C322.9,122.1,333.5,154.9,341.4,150 M177.6,145.4c-4.2-10.1,1.7-9.3,6.8-11.4c-1.8-0.5-2.6-1.9-2.3-4.6
			C173.2,129.3,170.7,142.2,177.6,145.4 M512,136.3c1,4.5,5.2,14.8-2.3,9.1c1.2,4,1.2,9.5,4.5,11.4c4.9-11.2,6.7-24.9,2.3-25
			C516,134.3,514,135.3,512,136.3 M518.8,150h6.8c1.6-7,1.6-4.4,0-11.4c1.8-0.5,4.5-0.1,4.6-2.3C522.3,136.9,520.2,143.1,518.8,150
			 M384.6,140.9v-6.8c-3.4,0.4-8.4-0.8-9.1,2.3c5.1,1-0.4,12.5,6.8,11.4c3-5.6-6.7-9.4,0-11.4C382.8,138.1,382.4,140.8,384.6,140.9
			 M125.3,147.7c-6.4-1.3-10.6-16.6-18.2-9.1C114.6,143,119.1,148.9,125.3,147.7 M302.7,165.9c-5.8-8.7-7.7-21.1-15.9-27.3
			c-6.3,11,0.1,26.5,9.1,29.6c-0.3-5.7-4.3-7.1,2.3-9.1C297.8,162.1,301.7,171.6,302.7,165.9 M532.4,161.4c-0.8-9.5,5.5-13.6,0-22.7
			C529.7,142.1,528,158.2,532.4,161.4 M389.2,163.6c1.4-8.3,2.8-14.2-2.3-20.5C384,151.2,379.6,159.4,389.2,163.6 M309.6,177.3
			c0.6-3.5,5-1.6,6.8,0v-4.5c-0.5-2.6-2.5-3.6-4.5-4.6c-0.5,1.8-0.1,4.5-2.3,4.6c2.4-12.4-6.6-25.1-11.4-22.8
			C305.9,155.1,304.1,169.8,309.6,177.3 M189,179.5c-4.6-12.3,2.3-21.8-6.8-29.6C185.5,158.6,178.1,174.4,189,179.5 M320.9,165.9
			c-0.8-6.8-1.3-13.9-6.8-15.9C318.4,157.1,314.1,165.8,320.9,165.9 M441.5,150C427.6,158.4,439.3,173.8,441.5,150 M725.8,175
			c4.1-2.8,9.9-15.7,4.5-20.5C731.8,163,722.8,172.7,725.8,175 M427.8,177.3c1.7-5.3,1.6-12.8-2.3-18.2
			C421.1,163.7,424,174,427.8,177.3 M646.1,170.5c4.6,4.6,4.5-1,9.1-2.3c0.5,1.8,0.1,4.5,2.3,4.6c-1.3-4,2.7-13.4-2.3-13.6
			c-0.6,3.5-5,1.6-6.8,0C650.3,165.5,645.2,165,646.1,170.5 M211.8,184.1c-1.4-0.1-2.7-0.3-2.3-2.3c0.5-1.8,1.9-2.6,4.6-2.3
			c0.6-8.9-0.9-15.8-6.8-18.2c-2.6,7.7,6.9,19.3-2.3,13.6C203,181,210.5,188.8,211.8,184.1 M807.6,175c8.8,9.3,13.8-15.5,6.8-9.1
			c1.4,0.1,2.7,0.3,2.3,2.3C811,167.8,809.6,171.7,807.6,175 M302.7,181.8c-3.1,2.2-4.6,6.1-6.8,9.1c7.7-0.2,3.5,11.7,11.4,11.4
			c-1.1-8-3.4-14.8-2.3-25c-8.3,0-10.2-6.5-15.9-9.1C287.6,178.8,299.3,176.1,302.7,181.8 M386.9,184.1c-0.3-7.3,2.2-17.4-6.8-15.9
			C378.5,177.3,384.7,178.7,386.9,184.1 M675.7,172.7c-1.7,6.7-8.6,8.1-13.6,11.4v11.4c8.1-3.5,1.4,7.7,6.8,6.8
			c0-10.7,4.2-12.9-2.3-13.6c1.9-5.3,8-4.8,11.4-2.3c-8.4,3.7-0.4,10.5,2.3,15.9c-0.4-9.6,3.5,0,6.9,0c-0.7-5.2,0.5-8.5,4.5-9.1
			c0.5,1.8,0.1,4.5,2.3,4.5c7.2-8.3-10.7-6.1-13.7-11.4c0.1-2.9,2.9-3.2,2.3-6.8c-2.8-0.3-5.4-0.7-4.6-4.5
			c2.4,4.4,10.5,3.2,13.7,6.8c-1.3,0-2.6,1.8,0,2.3c4.1-1.5-1.8-17.3-4.5-11.4C690.4,180.8,684.3,171.1,675.7,172.7 M741.7,184.1
			c7.3,3.2,5.7-13.6,2.3-13.6C736.5,176.1,745.8,173.2,741.7,184.1 M200.4,200c-1.4-6.2,2.9-18.1-2.3-20.5
			C191,181.7,197,194.9,200.4,200 M175.4,213.7c0.1-11.5-0.9-21.9-4.5-29.6C160.6,195.4,175.6,199.1,175.4,213.7 M457.4,190.9
			c4.5,3.8,2.9-0.2,9.1,0v-6.8C460.8,183.7,459.4,187.6,457.4,190.9 M109.4,197.7c-0.2-14.5-4.9-3.7-15.9-11.4
			c-0.3,4.1,2.3,5.3,6.8,4.5C99.6,196.9,103.4,198.4,109.4,197.7 M318.6,218.2c6.9-13.6-1.4-25.8-9.1-31.8
			c0.1,8.9,1.1,17.1,4.5,22.7c0.5-1.8,0.1-4.5,2.3-4.5C322.6,207,312.4,223.3,318.6,218.2 M471,225c6.4,1.9,5.9-3.2,11.4-2.3
			c-1.6-9,4-25.2-4.6-27.3C471.9,204.9,476.1,212.9,471,225 M195.8,204.6c-4-2-2.9-9.2-11.4-6.8c-0.7,7.7-7.8,19.3,2.3,13.7
			c-2.3,0-2.8-4,0-4.6c-0.4,5.7,3.5,7.1,6.8,9.1C193.4,207.5,190.2,208.6,195.8,204.6 M291.4,211.4c3.7,0,1.3,6.3,4.5,6.8
			c0.7-10.1,4.8-18.8-6.8-20.5c0.4,3.4-0.8,8.4,2.3,9.1c0.5-1.8,0.1-4.5,2.3-4.5c-0.1,3.1,1.1,5,2.3,6.8
			C294.1,209.6,291.4,209.2,291.4,211.4 M461.9,218.2c-6-4.6,2.5-23.8-11.4-20.5C453.6,203.8,455.7,222.8,461.9,218.2 M653,215.9
			c-3.9,0.9-5.8-3.4-6.8,0c4.3,0.3,1.6,7.5,6.8,6.8c3.9-3.7,2.1-11.7-2.3-13.6C650.6,212.3,651.8,214.1,653,215.9 M641.6,215.9
			c0.7,5.2-6.6,2.5-6.8,6.8c11.8,2.1-4.8,12.6,2.3,15.9c5.1-4.8,13-6.8,13.6-15.9C646.1,222.1,646.2,216.6,641.6,215.9 M239,218.2
			c-5.4-1.3,2.5-6.8,4.6-2.3c-1.6-11.8-16.2-4.6-18.2,2.3c4.1-0.3,5.3,2.3,4.5,6.8C237.1,223.4,234.4,217.6,239,218.2 M141.3,234.1
			c1.9-8.2-5.1-11,0-15.9c-4.5-3.3-8,2.4-11.4-4.5c-0.4,3.4,0.8,8.4-2.3,9.1c0.9-6.3-14.9-16.4-9.1-6.8c0.1-1.4,0.4-2.7,2.3-2.3
			C123.1,224.9,130.9,230.8,141.3,234.1 M79.8,213.7c-9.5-0.5-10.7,3.7-18.2,0c2.9,6.9,11.7,8,11.4,18.2c6.7-3.9-4.2-8.1,13.7-4.5
			C88.6,218.5,81.1,219.2,79.8,213.7 M118.5,227.3c-1.6-6.9-14.5-14.2-18.2-11.4C107.3,218.8,112.3,223.7,118.5,227.3 M741.7,229.6
			c6.7,1.9,14.8-6.2,9.1-9.1C749.3,225.1,739.3,221.1,741.7,229.6 M418.7,236.4c-0.3-3.8,7.4-14.5-2.3-13.7
			C417.7,226.8,413.7,236.1,418.7,236.4 M168.6,247.8c-4.3-14-14.5-9.3-22.8-20.5C139.9,244.8,160.9,244.5,168.6,247.8 M84.4,236.4
			c4.3,2.8,17,12.1,20.4,13.7c-3.5-0.6-1.6-5,0-6.8c-4-4.3-7.9,4-6.8-6.8C90.2,234.6,88.4,240.7,84.4,236.4 M107.1,245.5
			c2.7,2.6,8,2.6,13.7,2.3c2.1-7.4-19.5-10.3-13.7-6.8C109.9,241.4,108.5,243.5,107.1,245.5 M648.4,241c0.3,5.7,4.3,7,0,11.4
			c10.4,2.1,5-11.7,13.7-11.4C655.9,236.2,656.4,246.1,648.4,241 M643.9,270.5c15.1-0.1,16.9-13.4,22.7-22.7
			C658.8,255.1,651.2,262.7,643.9,270.5 M127.6,254.6c2.5,6.6,11.1,7.1,18.2,9.1C147.2,253.5,132.4,251.5,127.6,254.6 M173.1,268.2
			c0.1-1.4,0.3-2.7,2.3-2.3c1.4-0.1,2.7-0.3,2.3-2.3c-7.1,1.1-1.7-10.4-6.8-11.4C168.5,258.4,168.4,263.9,173.1,268.2 M755.3,284.2
			c-6.5-1,5.8-13.3,6.8-6.8c-0.2,3.6-5.8,1.8-4.6,6.8c4.5,3.8,2.9-0.2,9.1,0c-1.7-7.7,0.5-14.4-6.8-20.5c-1.8,6.6-3.6,13.1-9.1,15.9
			c0.5-4.3-2.6-5-2.3-9.1c6.2-0.5,5.3-14.2,0-15.9c-0.5,1.8-1.9,2.7-4.6,2.3c1.5,7.5,4.6,9.9-4.5,6.8c0.5,4.3-2.6,5-2.3,9.1
			c10.7,0.9,4.8,4.2,11.4,2.3C746.5,281.1,754.1,288.9,755.3,284.2 M145.8,266c-0.7,6,4.8,5.9,9.1,6.8c0.6-3.3,3.8-3.8,4.6-6.8
			c-3.4-0.6-9.6-9.8-11.4-4.6C155.9,262.6,151.4,272.6,145.8,266 M441.5,277.3c-4.9-4.7-0.1-9.5,4.5-4.5c-0.3-4.2-1.5-7.6-4.5-9.1
			c-0.5,2.8-2.5,1.4-4.5,0C435.6,269.8,438.9,282.7,441.5,277.3 M784.9,270.5c4.5-0.7,4.5,3.1,6.8,4.5c-1-6.3,8.5-2.1,9.1-6.8
			C796.6,262.4,786.7,262.5,784.9,270.5 M709.8,281.9c7.7-0.7,6.6-10.1,13.6-11.4c-1.6,7-1.6,4.4,0,11.4c7.3,1.9,8.6-2,11.4-4.6
			C731.9,258.6,712.5,269.6,709.8,281.9 M689.4,281.9c17.6-2.6,5.2-7.3,18.2-13.7h-9.1C700.5,283.6,682.2,266.2,689.4,281.9
			 M366.4,311.5c-8.7-6.2-2.8-2.7-9.1,2.3c7.9-0.4,4-0.5,11.4,6.8c2.4-8.5-0.4-27-9.1-25c3.4-4.2,6.1-7.7,0-11.4
			c-1.1,11.6-4.3-3.6-6.8-4.6C351.9,295.7,363.6,299.1,366.4,311.5 M434.6,293.3c1.8-1.8,2.4-13.9-4.5-13.6
			C429.6,286.2,430.7,291.2,434.6,293.3 M800.8,284.2c-2.1,8.2,9,3.2,13.7,4.6c-0.9-3.9,3.4-5.8,0-6.8
			C811.3,287.5,806.6,285.9,800.8,284.2 M809.9,293.3c8.5,0.2,6.5,2.5,13.7,0c-0.1,2.9-2.9,3.2-2.3,6.8c7-1.6,4.4-1.6,11.4,0
			c-2.8-7.1-9.7-10-18.2-11.4C814.4,291.7,810.5,290.8,809.9,293.3 M173.1,304.6c2.7-10.8-8.7-8.8,0-13.6
			c-8.4-0.7-12.6-5.6-20.5-6.8C155,295.4,163.5,300.6,173.1,304.6 M582.5,293.3c0.9-4.4,10.4-0.2,6.8-9.1h-9.1
			C580.6,287.6,579.4,292.6,582.5,293.3 M214,302.4c-3.9-3,2.2-13.7-9.1-13.6C205.5,294.4,210.2,307.5,214,302.4 M477.8,306.9
			c1.6-5.7,4.9-14.9-2.3-15.9C477.5,299.1,469,304.6,477.8,306.9 M107.1,304.6c0.1-1.4,0.3-2.7,2.3-2.3c2.4,2.1,0.7,8.4,6.8,6.8
			c-2-8,5.8-11.7-2.3-13.6C114.9,300.6,100.3,301.2,107.1,304.6 M598.4,334.2c6.7,0.5,13.9-10.2,9.1-13.6c-0.7,3.1-3.2,4.3-2.3,9.1
			C601.9,326.4,598,327.9,598.4,334.2 M607.5,302.4c-7-3-12.9,6.5-6.8,9.1c0.5-2.8,2.5-1.4,4.6,0C605,307.5,605.7,304.4,607.5,302.4
			 M352.8,331.9c10.7,2,1.2-20.5-2.3-11.4C353.7,323.3,355.6,329.2,352.8,331.9 M430.1,345.6c0.5-2.5,2.5-3.5,4.5-4.5
			c-4.7-9.9-2.1-5.2,0-15.9C424.4,329.6,429.4,342.7,430.1,345.6 M132.1,338.7c4.5-0.7,4.5,3.1,6.8,4.6c3.4-2.7,2.7-9.5,9.1-9.1
			c0.7-6-3.2-7.5-9.1-6.8C141.4,335.9,130.4,331,132.1,338.7 M48,347.8c4-0.6,11.3,6.4,13.6,0c-1.8-0.5-2.6-1.9-2.3-4.5
			c4.6,5.6,10.6,4.4,11.4-4.6C59.1,337.7,57,346.2,48,347.8 M88.9,350.1c5.6,0.3,11,0.4,13.6-2.3c-0.4-2.7,0.4-6.5-2.3-6.8
			C101.2,353.5,90.6,340.3,88.9,350.1 M63.9,357c5.2,3.5,12-6.6,15.9-11.4C70.8,345.7,68.9,352.9,63.9,357 M120.8,354.7
			c8.1,3.5,1.4-7.7,6.8-6.8c0,2.3,4,2.9,4.5,0c-3.1-0.7-4.3-3.2-9.1-2.3C123.6,349.9,120.5,350.6,120.8,354.7 M748.5,354.7
			c5.6,0.3,11,0.4,11.4-4.5c-4.2-3.1-17.9-2-13.7,0C748,350.6,748.9,352,748.5,354.7 M48,363.8c0.3-2.7-0.4-6.5,2.3-6.8
			c0.1,1.4,0.3,2.7,2.3,2.3c0.7-6-3.1-7.5-9.1-6.8C44.7,356.5,44.6,361.8,48,363.8 M184.4,375.1c-1.4,5-3,7.5,0,13.6
			c8.3-1.6,11.1-8.6,18.2-11.4c2.5-5.8-6.9-10.8,0-13.6c6.3-1-1.8,12.4,4.5,11.4c-0.6-4,6.4-11.3,0-13.7c-1.8,5.2-7.9-3.9-11.4-4.5
			c0.9,13.2-7.4,15.3-6.8,22.7c-1.8-0.5-4.5-0.1-4.5-2.3C185.7,377.4,187,375.6,184.4,375.1 M52.5,363.8c4.5,0,2.9,6.2,9.1,4.5v-6.8
			C55.9,361.2,54.5,357.2,52.5,363.8 M509.7,375.1h6.8c1.4-0.1,2.7-0.3,2.3-2.3c-7.4-0.9,4.2-18.1-2.3-11.4
			C514.5,366.3,513,371.6,509.7,375.1 M84.4,382c-7,1.7-4.4-6.2-11.4-4.6c-4.7,22.8,3.8,26.3,2.3,4.6c3.1,2.2,4.5,6.1,6.8,9.1
			c-4.3-0.1-4.8,1.8-2.3,4.6c9.5,0.8,1.6-7.4,2.3-11.4h9.1c0.5-4-2.3-11.4,4.5-9.1c1.4-6.8-9.6-12.9-13.6-6.8
			c3.9,0.9,10.2,10.7,4.5,13.7c-2.7-3.4-2-10.2-9.1-9.1C75.6,380.2,85.1,376,84.4,382 M923.6,375.1c1-5.8-11.9-9.1-13.6-4.6
			C917.1,369.5,915.1,377.6,923.6,375.1 M102.6,388.8c0.6-4.1,11.5-16.4,2.3-15.9C107.9,380.7,94.6,383.6,102.6,388.8 M245.9,407
			c3.4-0.4,8.4,0.8,9.1-2.3c-5.1-15.7-22.9-40.9-36.4-27.3c11.6,5.1,11.5,34,22.7,31.8c0-6.5-5.1-20.9-11.4-20.5
			C236.7,383.5,247.9,403.2,245.9,407 M298.2,386.5c8.4,1.6,5.7-8,9.1-11.4C297,375.9,300.7,382,298.2,386.5 M907.7,379.7
			c8.7,1,18.4,5.3,27.3-4.5C924.7,378.7,892.7,378,907.7,379.7 M207.2,422.9c4-1.3,13.4,2.7,13.7-2.3c-6.7,1.1-3.4-6.1-2.3-6.8
			c4,5.6,13.6,5.3,18.2,0c-2.6-11-16.7-10.6-20.5-20.5c3.4,0,9.3,8.5,11.4,2.3c-6-4.6-5.5-15.7-13.6-18.2
			c-3.4,4.9-2.6,14.1-9.1,15.9c0-4.3,7.5-18.5,2.3-13.6C191.4,392.7,207,410.5,207.2,422.9 M166.3,386.5c4.5,8.5-2.1,5-4.5,11.4
			c4.1,3.7-1.6,7.2,4.5,11.4c-5.7-3.8-10.1,0.5-4.5,4.6c4.7-6.7,19.4-15.4,15.9-22.7c-8.5,14.5,0.7-13.6-4.5-6.8
			C173.5,393,171.2,385.1,166.3,386.5 M164,432c-0.5-1.7-0.1-4.5-2.3-4.5c-2.6,13.7-18.7,24.7-15.9,36.4c5.2-3.9,19.1,0.9,20.5-6.8
			c-3.4-2.7-10.2-2-9.1-9.1c8,2,14.1,8.9,20.4,0c-8.2-0.9-19,0.9-20.4-6.8c10.2,6.7,15-0.7,25,2.3c1.7-8.7-10.9-14.7-4.6-20.5
			c5.1,0.9-0.3,12.5,6.8,11.4c1.4-17.1,9.1-28.2,4.5-36.4c1.6-4.6,14.9-9.1,9.1-13.6C182.7,396.7,166.3,413.3,164,432 M139,395.6
			c5.3-0.7,8.7,0.4,11.4,2.3c0.7-4.5-3.1-4.5-4.5-6.8c1.3,0,2.6-1.8,0-2.3C146.7,394.2,135.4,387.5,139,395.6 M721.2,402.4
			c2.2-7,6.1,2.6,9.1,2.3c-1.4-8.2,6.9-6.7,6.8-13.6c-7.8,5.9-11.4,4.1-11.4-2.3C724.8,392.6,715,399,721.2,402.4 M864.5,407
			c4.6-7.7-6.9-10.8-11.4-11.4C855.2,401.1,859,404.9,864.5,407 M348.2,404.7c2.3-7.6-3.1-7.5-9.1-6.8
			C338.4,403.9,342.3,405.4,348.2,404.7 M43.4,411.5c7.2,1.1,9.3-2.8,11.4-6.8c-7.4-2.8-1.7,7.4-9.1,4.6c0.2-3,4.3-12.5,0-6.8
			C45,405.5,42.5,406.8,43.4,411.5 M850.8,418.4c5.7,0.4,5.5-5.1,9.1-6.8c-9,1.3-18.4-8.7-25-2.3c3.3,3.5,11.7,2,18.2,2.3
			C853,414.4,850.2,414.7,850.8,418.4 M61.6,409.3c-0.6,7-8.2,7-11.4,11.4c6.8,3.7,21.3-6.7,22.7-11.4
			C71.4,411.1,66.2,412,61.6,409.3 M186.7,443.4c0.6-3.2,5-2.6,6.8-4.6c-2.8-10.1-0.3-8.4,6.8-4.6c-1.2-6.4-3.3-11.8-4.5-18.2
			c3.7,0.7,6.1-3.1,2.3-4.5c-0.5,1.8-1.9,2.6-4.6,2.3C196.2,427.1,183.4,436.9,186.7,443.4 M343.7,470.7c13.6,0,15.6-2.2,25-9.1
			c-5.6-3.5-13.5-4.7-15.9-11.4c2.9-0.1,3.2-2.9,6.8-2.3c-1,9.4,4.2-0.2,11.4,13.7c0.3-4.3,7.5-1.6,6.8-6.8
			c-15.2,0.9-3.4-2.3-4.6-11.4c-13-2.5-7.9-12.9-13.7-25c-11.4,1.1-15.3,15.4-11.4,25c-8.4-7.8-5.6,9.6-15.9,6.8
			c-0.5-1.8-0.1-4.5-2.3-4.6C332.9,463.8,340.4,460.1,343.7,470.7 M375.5,429.7c0.4-5.9-6.4-16.1-11.4-9.1
			C369.4,422.2,370.2,428.2,375.5,429.7 M389.2,443.4c-6.6-11.4-2.9-19.1-13.6-25C378,428.8,377.4,442.3,389.2,443.4 M646.1,443.4
			c6-0.8,7.7-6,9.1-11.4h-6.8C649.3,437.5,644.3,436.9,646.1,443.4 M207.2,436.6c3.4,3.4,11.8,0.2,11.4-6.8
			C213.3,430.5,208.8,432.1,207.2,436.6 M832.6,443.4c10.3,1.2,12-6.2,18.2-9.1c-4.5-0.9-16.9-5.6-20.5,0
			C837,436.3,832.9,437.7,832.6,443.4 M659.8,450.2c-0.5,2.9-3.5,4.6,2.3,4.5c-3.4-4,5.6-16.1-2.3-20.5c1.2,8.1-8,5.6-6.8,13.6
			C655.6,448.3,659.4,447.5,659.8,450.2 M182.2,482c-0.7-19.7,8.1-29.3,11.4-38.7C184.3,449,166.1,472.7,182.2,482 M477.8,466.1
			c5.5,1.7,11,1.8,15.9-2.3c-8.5-11.2-8.3,7.4-15.9-6.8V466.1z M596.1,482c0.1-6.9,1.3-15-6.8-13.6
			C587.9,476.6,590.1,481.2,596.1,482 M239,482c5.8-0.4,15.8-8.2,11.4-11.4C247,474.8,240.9,476.3,239,482 M359.6,475.2
			c0,4.5-6.2,2.9-4.5,9.1h9.1C364.8,479.1,363.6,475.8,359.6,475.2 M475.6,484.3c4.3-0.3,7.6-1.5,9.1-4.5c-12.1-0.2-2.7-1.3,0-4.5
			c-1.8-0.5-2.6-1.9-2.3-4.6c-7.2-1.3-7,4.3-11.4,0C471.8,476,473.7,480.1,475.6,484.3 M129.9,504.8c0.5-2.7,2.5-1.4,4.6,0
			c2.4-7.4,5.8-4.8,0-11.4c3-5.6,6.9,4.1,9.1-2.3c-3.7,0-1.3-6.3-4.5-6.8C136,489.8,126.7,500.7,129.9,504.8 M400.5,491.1
			c0.5,8.3,3.1,8.7,0,15.9c3,2.3,6.9,3.8,9.1,6.8c-8.8,6,5.8,14.6,0,18.2c10.4-0.2,9.5-11.7,11.4-20.5c-7-1-7-10.5-11.4-2.3
			c1.9-8.7,1.3-14.7-4.5-20.5C404.6,490.6,403.2,491.5,400.5,491.1 M418.7,504.8c0.5-1.8,1.9-2.6,4.5-2.3c0.4-5.6,0.4-11-4.5-11.4
			C416.9,492.7,413.6,503.8,418.7,504.8 M114,504.8c3.1-0.1,5,1.1,6.8,2.3c-4.3-7.6,10.3-7.4,2.3-11.4
			C121,499.7,114.7,499.4,114,504.8 M673.4,507.1c-1.7-9.9-10.9-7.3-15.9-9.1c-0.7,5.3-3.6,8.5-2.3,15.9c16.3,2.8,9.1,15.1,25,18.2
			c7.9-14-8.1-19.2-2.3-31.8C667.4,498.2,681.1,506.1,673.4,507.1 M127.6,516.2c2.6,1.9,6.1,3,11.4,2.3c0.5-6.5,0.3-12.4-6.8-11.4
			C133.8,513.3,127.6,511.6,127.6,516.2 M425.5,529.8c8.9-1.7,2.8-18.5,9.1-22.7h-6.8C428.2,515.8,427.9,523.8,425.5,529.8
			 M543.8,538.9c2.4-2.1,0.7-8.4,6.8-6.8c0.5-6.5-0.6-11.5-4.5-13.6c-0.5,1.8-1.9,2.6-4.5,2.3c-3,5.6,6.7,9.4,0,11.4
			c-4.7-1.3-4.8-3.5-2.3-6.8c-5.6-0.3-11.1-0.4-11.4,4.6c11.8,2.6-8.1,3.8-6.8,4.6C527.6,536.9,535.2,538.4,543.8,538.9
			 M546.1,511.6c-13-6.2-19.5,7.7-25,15.9C531.5,524.3,541.2,520.3,546.1,511.6 M705.3,518.4c6.9,1.8,10.6,15,18.2,9.1
			c-3.1,9.2,4.1,8.1,6.8,11.4c-3.5,0.5-0.3,3.7,2.3,4.5c1.2-14.1-3.7-22.1-9.1-29.6c-9.7,2.4-8.8,1.3-15.9-2.3
			C707.7,514.7,706.5,516.6,705.3,518.4 M602.9,523c-0.1,3.1,1.1,5,2.3,6.8h4.5c-0.9-6.9,6-11.6-2.3-13.6c-0.1,3.1,1.1,5,2.3,6.8
			H602.9z M587,543.4c1.7-7.2-7.4-15.1-9.1-11.4C583.7,533.1,575.6,548,587,543.4 M721.2,548c2.4-8.6-6.7-17.3-9.1-13.6
			C718.1,536,714.3,547.3,721.2,548 M782.6,570.7h9.1c-0.4-3.4,0.8-8.4-2.3-9.1C790.1,567.6,780.6,563.4,782.6,570.7 M425.5,577.6
			c7.1-1.1,6,6.1,11.4,6.8V573C432.9,574.3,427.5,574.2,425.5,577.6 M386.9,588.9c2.6,0.5,3.5,2.5,4.6,4.5
			c6.9-1.5,13.1-3.5,13.6-11.4c-5.5,4.5-11-4-15.9,2.3C400.1,588.4,388.5,586.1,386.9,588.9 M446,595.8c2.9,0.1,3.2,2.9,6.8,2.3
			c-3-7.1,0.6-6.5,0-15.9c-5.7-0.4-7.1,3.5-9.1,6.8C455.1,585.9,447.7,589.1,446,595.8"/>
	</g>
</g>
</svg>
