<?xml version="1.0" encoding="utf-8"?>
<!-- Generator: Adobe Illustrator 19.1.0, SVG Export Plug-In . SVG Version: 6.00 Build 0)  -->
<svg version="1.1" xmlns="http://www.w3.org/2000/svg" xmlns:xlink="http://www.w3.org/1999/xlink" x="0px" y="0px"
	 viewBox="0 0 641.4 916.6" style="enable-background:new 0 0 641.4 916.6;" xml:space="preserve">
<style type="text/css">
	.st0{fill:#FF765E;}
	.st1{fill:#42210B;}
	.st2{fill:#754C24;}
	.st3{opacity:0.5;fill:url(#SVGID_3_);}
	.st4{fill:url(#SVGID_4_);}
	.st5{opacity:0.2;fill:#231F20;}
	.st6{fill:#231F20;}
	.st7{fill:url(#SVGID_5_);}
	.st8{opacity:0.7;fill:url(#SVGID_6_);}
	.st9{fill:url(#SVGID_7_);}
	.st10{opacity:0.7;fill:url(#SVGID_8_);}
	.st11{opacity:0.7;fill:url(#SVGID_9_);}
	.st12{opacity:0.4;fill:#B58B3C;}
	.st13{fill:url(#SVGID_10_);}
	.st14{fill:#F29D35;}
	.st15{fill:#FFFFFF;}
	.st16{fill:#803B2F;}
	.st17{fill:#BDA159;}
	.st18{fill:#FCD776;}
	.st19{fill:#74A588;}
	.st20{fill:#FDFAD2;}
	.st21{fill:#FDFAD0;}
	.st22{fill:#1B0F11;}
	.st23{display:none;}
	.st24{display:inline;}
	.st25{fill:#FFE5C6;}
	.st26{clip-path:url(#SVGID_12_);fill:#BF5947;}
	.st27{clip-path:url(#SVGID_12_);fill:#FFE5C6;}
	.st28{clip-path:url(#SVGID_14_);fill:#BF5947;}
	.st29{clip-path:url(#SVGID_14_);fill:#BDA159;}
	.st30{clip-path:url(#SVGID_16_);fill:#BF5947;}
	.st31{clip-path:url(#SVGID_16_);fill:#FCD776;}
	.st32{clip-path:url(#SVGID_18_);fill:#BF5947;}
	.st33{clip-path:url(#SVGID_18_);fill:#74A588;}
	.st34{fill:#42282F;}
	.st35{fill:#D6655A;}
	.st36{fill:#DC9C76;}
	.st37{fill:#757BA2;}
	.st38{fill:#5C4B51;}
	.st39{fill:none;stroke:#5C4B51;stroke-width:6;stroke-linecap:round;stroke-miterlimit:10;}
	.st40{fill:none;stroke:#5C4B51;stroke-width:6;stroke-linecap:round;stroke-linejoin:round;}
	.st41{fill:none;stroke:#5C4B51;stroke-width:6;stroke-linecap:round;stroke-linejoin:round;stroke-dasharray:0,12.3056;}
	.st42{fill:none;stroke:#5C4B51;stroke-width:30;stroke-linejoin:round;stroke-miterlimit:10;}
	.st43{fill:none;stroke:#FFFFFF;stroke-width:30;stroke-linejoin:round;stroke-miterlimit:10;}
	.st44{fill:none;stroke:#ABD25D;stroke-width:6;stroke-linejoin:round;}
	.st45{fill:#ABD25D;}
	.st46{fill:none;stroke:#5C4B51;stroke-width:6;stroke-linecap:round;stroke-linejoin:round;stroke-dasharray:0,11.8498;}
	.st47{fill:#5A2C18;}
	.st48{fill-rule:evenodd;clip-rule:evenodd;fill:#35591C;}
	.st49{opacity:0.3;fill:url(#SVGID_19_);}
	.st50{opacity:0.3;fill:url(#SVGID_20_);}
	.st51{fill:url(#SVGID_21_);}
	.st52{fill:url(#SVGID_22_);}
	.st53{opacity:0.3;}
	.st54{opacity:0.9;}
	.st55{fill:#D3D3D3;}
	.st56{opacity:0.9;fill:#989898;}
	.st57{fill:#AAAAAA;}
	.st58{fill:#BFBFBF;}
	.st59{fill:#E4E4E4;}
	.st60{fill:none;stroke:#BABABA;stroke-width:0;}
	.st61{fill:#F4F4F4;}
	.st62{fill:url(#SVGID_23_);}
	.st63{fill:url(#SVGID_24_);}
	.st64{fill:#5A6D81;}
	.st65{fill:#AEBFC2;}
	.st66{fill:#424242;}
	.st67{fill:#BEBDB8;}
	.st68{fill:#816F64;}
	.st69{fill:#716764;}
	.st70{fill:#322E32;}
	.st71{fill:#73655D;}
	.st72{fill:#D9D9D7;}
	.st73{fill:#716463;}
	.st74{fill:#655752;}
	.st75{fill:#806F6B;}
	.st76{fill:#595554;}
	.st77{fill:#746D68;}
	.st78{fill:#494A4C;}
	.st79{fill:#363D42;}
	.st80{fill:#262733;}
	.st81{fill:#E6EEF4;}
	.st82{fill:#7C8C9A;}
	.st83{fill:#8A9693;}
	.st84{fill:#E4ECEF;}
	.st85{fill:#EDF3F9;}
	.st86{fill:#EDF1F4;}
	.st87{fill:#ECF3F8;}
	.st88{fill:#F8FBFD;}
	.st89{fill:#96A9AB;}
	.st90{fill:#717D79;}
	.st91{fill:#6983A4;}
	.st92{fill:#637891;}
	.st93{fill:#5D7690;}
	.st94{fill:#6886B1;}
	.st95{fill:#5E8CC7;}
	.st96{fill:#6D5E56;}
	.st97{fill:#61504B;}
	.st98{fill:#76675B;}
	.st99{fill:#2B282A;}
	.st100{fill:#1D1A1A;}
	.st101{fill:#201D20;}
	.st102{fill:#4C4E54;}
	.st103{fill:#393B36;}
	.st104{fill:#202325;}
	.st105{fill:#2D2726;}
	.st106{fill:#30302E;}
	.st107{fill:#353739;}
	.st108{fill:#645954;}
	.st109{fill:#745F51;}
	.st110{fill:#3F434B;}
	.st111{fill:#594740;}
	.st112{fill:#605654;}
	.st113{fill:#6A5955;}
	.st114{fill:#CCC9C4;}
	.st115{fill:#B0AFAD;}
	.st116{fill:#76756A;}
	.st117{fill:#634F43;}
	.st118{fill:#665852;}
	.st119{fill:#6F5C54;}
	.st120{fill:#6C5A57;}
	.st121{fill:#74665B;}
	.st122{fill:#C1C1BA;}
	.st123{fill:#4F504E;}
	.st124{fill:#3E3F3C;}
	.st125{fill:#2F1D19;}
	.st126{fill:#65544E;}
	.st127{fill:#7E6F64;}
	.st128{fill:#D1CEC8;}
	.st129{fill:#DFDED9;}
	.st130{fill:#65544F;}
	.st131{fill:#60504D;}
	.st132{fill:#705D50;}
	.st133{fill:#79685C;}
	.st134{fill:#7C695D;}
	.st135{fill:#605250;}
	.st136{fill:#71615A;}
	.st137{fill:#64534A;}
	.st138{fill:#776862;}
	.st139{fill:#655247;}
	.st140{fill:#675546;}
	.st141{fill:#695A5A;}
	.st142{fill:#D8E1EC;}
	.st143{fill:#F2F5F7;}
	.st144{fill:#DAE3EC;}
	.st145{fill:#E4EBF4;}
	.st146{fill:#EEF1F7;}
	.st147{fill:#FAFBFC;}
	.st148{fill:#5986C4;}
	.st149{fill:#252226;}
	.st150{fill:#484C4D;}
	.st151{fill:#5F514F;}
	.st152{fill:#736154;}
	.st153{fill:#846F5E;}
	.st154{fill:#544853;}
	.st155{fill:#5F5047;}
	.st156{fill:#252220;}
	.st157{fill:#665951;}
	.st158{fill:#826C59;}
	.st159{fill:#726357;}
	.st160{fill:#695D57;}
	.st161{fill:#7C776E;}
	.st162{fill:#584F4D;}
	.st163{fill:#766962;}
	.st164{fill:#5B5656;}
	.st165{fill:#7D6F65;}
	.st166{fill:#706B70;}
	.st167{fill:#70625B;}
	.st168{fill:#536174;}
	.st169{fill:#8192A9;}
	.st170{fill:#6E797E;}
	.st171{fill:#F8F9F9;}
	.st172{fill:#A0B4C6;}
	.st173{fill:#E8F1F5;}
	.st174{fill:#EEF6FA;}
	.st175{fill:#E5EEF3;}
	.st176{fill:#EBEEEB;}
	.st177{fill:#9AA39E;}
	.st178{fill:#EDF5F9;}
	.st179{fill:#9EB0BA;}
	.st180{fill:#19222D;}
	.st181{fill:#739DD2;}
	.st182{fill:#272429;}
	.st183{fill:#232125;}
	.st184{fill:#35393A;}
	.st185{fill:#3F4143;}
	.st186{fill:#515152;}
	.st187{fill:#586B80;}
	.st188{fill:#8C9594;}
	.st189{fill:#637684;}
	.st190{fill:#18171E;}
	.st191{fill:#8C9AAC;}
	.st192{fill:#EEF5FA;}
	.st193{fill:#688D9B;}
	.st194{fill:#687D8A;}
	.st195{fill:#67798A;}
	.st196{fill:#586C7F;}
	.st197{fill:#677479;}
	.st198{fill:#727877;}
	.st199{fill:#758A9C;}
	.st200{fill:#7C8582;}
	.st201{fill:#92A3AE;}
	.st202{fill:#A1B2BB;}
	.st203{fill:#EBF3F9;}
	.st204{fill:#6C7F97;}
	.st205{fill:#6B7D90;}
	.st206{fill:#6B7880;}
	.st207{fill:#869AA4;}
	.st208{fill:#8FA1A8;}
	.st209{fill:#657678;}
	.st210{fill:#D0DBDC;}
	.st211{fill:#8C939A;}
	.st212{fill:#6F9AD1;}
	.st213{fill:#5B7593;}
	.st214{fill:#5F788F;}
	.st215{fill:#4B6A8D;}
	.st216{fill:#6A97CF;}
	.st217{fill:#5E7187;}
	.st218{fill:#445C70;}
	.st219{fill:#5483C2;}
	.st220{fill:#5F6A73;}
	.st221{fill:#475563;}
	.st222{fill:#566169;}
	.st223{fill:#65544C;}
	.st224{fill:#715E54;}
	.st225{fill:#665652;}
	.st226{fill:#625145;}
	.st227{fill:#544544;}
	.st228{fill:#564945;}
	.st229{fill:#7C706B;}
	.st230{fill:#746057;}
	.st231{fill:#7F6A5A;}
	.st232{fill:#665A57;}
	.st233{fill:#786B66;}
	.st234{fill:#685F5E;}
	.st235{fill:#6C5B52;}
	.st236{fill:#655852;}
	.st237{fill:#7C7271;}
	.st238{fill:#86766D;}
	.st239{fill:#6E625F;}
	.st240{fill:#847B79;}
	.st241{fill:#28262B;}
	.st242{fill:#282A35;}
	.st243{fill:#281714;}
	.st244{fill:#6B584D;}
	.st245{fill:#574A48;}
	.st246{fill:#212026;}
	.st247{fill:#736052;}
	.st248{fill:#7B7275;}
	.st249{fill:#8D8482;}
	.st250{fill:#DCE3EB;}
	.st251{fill:#819FAE;}
	.st252{fill:#D8E0E6;}
	.st253{fill:#354C5C;}
	.st254{fill:#4A4E53;}
	.st255{fill:#786759;}
	.st256{fill:#383731;}
	.st257{fill:#393D41;}
	.st258{fill:#43433E;}
	.st259{fill:#68675C;}
	.st260{fill:#383838;}
	.st261{fill:#252726;}
	.st262{fill:#6D584C;}
	.st263{fill:#745F52;}
	.st264{fill:#685A50;}
	.st265{fill:#68564F;}
	.st266{fill:#7C6657;}
	.st267{fill:#69564D;}
	.st268{fill:#7B604E;}
	.st269{fill:#786352;}
	.st270{fill:#6A5E57;}
	.st271{fill:#635C61;}
	.st272{fill:#7F7363;}
	.st273{fill:#D2D0C9;}
	.st274{fill:#7E6E60;}
	.st275{fill:#3F303A;}
	.st276{fill:#3F3949;}
	.st277{fill:#3B3C4C;}
	.st278{fill:#D0DBE8;}
	.st279{fill:#4E536B;}
	.st280{fill:#BFC7CF;}
	.st281{fill:#49343C;}
	.st282{fill:#51616F;}
	.st283{fill:#CDCED1;}
	.st284{fill:#3F2C37;}
	.st285{fill:#3C3746;}
	.st286{fill:#E9E7EA;}
	.st287{fill:#7C889A;}
	.st288{fill:#CCD9E6;}
	.st289{fill:#726561;}
	.st290{fill:#6A5A55;}
	.st291{fill:#60554F;}
	.st292{fill:#292223;}
	.st293{fill:#454547;}
	.st294{fill:#303032;}
	.st295{fill:#1B0C0D;}
	.st296{fill:#3A4141;}
	.st297{fill:#75645A;}
	.st298{fill:#7C716D;}
	.st299{fill:#645142;}
	.st300{fill:#675C58;}
	.st301{fill:#837464;}
	.st302{fill:#71645C;}
	.st303{fill:#5B4E4C;}
	.st304{fill:#6D6564;}
	.st305{fill:#847560;}
	.st306{fill:#2B1A18;}
	.st307{fill:#6B5548;}
	.st308{fill:#6A5D53;}
	.st309{fill:#655858;}
	.st310{fill:#66595C;}
	.st311{fill:#6A686C;}
	.st312{fill:#5E514A;}
	.st313{fill:#90A2AE;}
	.st314{fill:#5C676A;}
	.st315{fill:#3F2D35;}
	.st316{fill:#5B4140;}
	.st317{fill:#413743;}
	.st318{fill:#422C38;}
	.st319{fill:#EBEEEE;}
	.st320{fill:#7F9BA5;}
	.st321{fill:#DDDEE1;}
	.st322{fill:#8A9FA2;}
	.st323{fill:#708994;}
	.st324{fill:#F2F4F6;}
	.st325{fill:#CECED2;}
	.st326{fill:#B4BDC6;}
	.st327{fill:#D1D1D4;}
	.st328{fill:#87A4AC;}
	.st329{fill:#F5F8F9;}
	.st330{fill:#8D9CAA;}
	.st331{fill:#7698A3;}
	.st332{fill:#F9FBFC;}
	.st333{fill:#D3DAD6;}
	.st334{fill:#638291;}
	.st335{fill:#EFF6FB;}
	.st336{fill:#EDF5F8;}
	.st337{fill:#7B827F;}
	.st338{fill:#697371;}
	.st339{fill:#7E94A1;}
	.st340{fill:#7F8B93;}
	.st341{fill:#4B5053;}
	.st342{fill:#766358;}
	.st343{fill:#775E4D;}
	.st344{fill:#64544D;}
	.st345{fill:#6A5041;}
	.st346{fill:#766155;}
	.st347{fill:#66564F;}
	.st348{fill:#5F585B;}
	.st349{fill:#6D564A;}
	.st350{fill:#6F89A8;}
	.st351{fill:#2B4661;}
	.st352{fill:#6B7C8A;}
	.st353{fill:#E9F0F5;}
	.st354{fill:#E6EDF2;}
	.st355{fill:#8796AD;}
	.st356{fill:#616B72;}
	.st357{fill:#3F362D;}
	.st358{fill:#50585D;}
	.st359{fill:#5C6565;}
	.st360{fill:#554F4B;}
	.st361{fill:#7D8697;}
	.st362{fill:#E1E5E8;}
	.st363{fill:#F1F5F7;}
	.st364{fill:#4B433B;}
	.st365{fill:#453930;}
	.st366{fill:#535955;}
	.st367{fill:#847F7E;}
	.st368{fill:#6E707E;}
	.st369{fill:#7D91A0;}
	.st370{fill:#95A3AD;}
	.st371{fill:#161E2C;}
	.st372{fill:#1B252D;}
	.st373{fill:#2F3840;}
	.st374{fill:#6F7C96;}
	.st375{fill:#6E809A;}
	.st376{fill:#4A5860;}
	.st377{fill:#4B5E6E;}
	.st378{fill:#6F8DBD;}
	.st379{fill:#D8DEDD;}
	.st380{fill:#BFCACC;}
	.st381{fill:#141B23;}
	.st382{fill:#DFE6EA;}
	.st383{fill:#E4EDF1;}
	.st384{fill:#4B678C;}
	.st385{fill:#7289AB;}
	.st386{fill:#4A6387;}
	.st387{fill:#374C70;}
	.st388{fill:#456386;}
	.st389{fill:#426188;}
	.st390{fill:#556477;}
	.st391{fill:#3C4D56;}
	.st392{fill:#7185A0;}
	.st393{fill:#414039;}
	.st394{fill:#4B4E4E;}
	.st395{fill:#697280;}
	.st396{fill:#766456;}
	.st397{fill:#7C6D5F;}
	.st398{fill:#6F5D55;}
	.st399{fill:#6A584C;}
	.st400{fill:#786353;}
	.st401{fill:#615455;}
	.st402{fill:#82746E;}
	.st403{fill:#716050;}
	.st404{fill:#847268;}
	.st405{fill:#544540;}
	.st406{fill:#766255;}
	.st407{fill:#18181E;}
	.st408{fill:#745C4A;}
	.st409{fill:#776456;}
	.st410{fill:#755F4D;}
	.st411{fill:#5E514E;}
	.st412{fill:#867262;}
	.st413{fill:#605151;}
	.st414{fill:#6F5F58;}
	.st415{fill:#49494C;}
	.st416{fill:#66544C;}
	.st417{fill:#66584E;}
	.st418{fill:#63534C;}
	.st419{fill:#594A46;}
	.st420{fill:#5D4B40;}
	.st421{fill:#766053;}
	.st422{fill:#5A4740;}
	.st423{fill:#38232F;}
	.st424{fill:#3B2733;}
	.st425{fill:#464753;}
	.st426{fill:#EFF1F2;}
	.st427{fill:#EEEFF0;}
	.st428{fill:#6E5D4D;}
	.st429{fill:#46494E;}
	.st430{fill:#302823;}
	.st431{fill:#6D6969;}
	.st432{fill:#292727;}
	.st433{fill:#6C5E54;}
	.st434{fill:#29292B;}
	.st435{fill:#1D1A14;}
	.st436{fill:#7A6659;}
	.st437{fill:#705C4C;}
	.st438{fill:#75655B;}
	.st439{fill:#675244;}
	.st440{fill:#8B7258;}
	.st441{fill:#614E44;}
	.st442{fill:#5A4741;}
	.st443{fill:#654E39;}
	.st444{fill:#786E73;}
	.st445{fill:#867363;}
	.st446{fill:#827467;}
	.st447{fill:#5E4B45;}
	.st448{fill:#C0BCC1;}
	.st449{fill:#EAEAEB;}
	.st450{fill:#EBEFF0;}
	.st451{fill:#5D4845;}
	.st452{fill:#CDCDD0;}
	.st453{fill:#C4C4C8;}
	.st454{fill:#B5BABF;}
	.st455{fill:#EDF0F2;}
	.st456{fill:#F1F6F7;}
	.st457{fill:#746459;}
	.st458{fill:#786F6B;}
	.st459{fill:#847466;}
	.st460{fill:#7E6C61;}
	.st461{fill:#362824;}
	.st462{fill:#7A6D65;}
	.st463{fill:#6D5B50;}
	.st464{fill:#6B5A52;}
	.st465{fill:#7A6D62;}
	.st466{fill:#6A5A50;}
	.st467{fill:#695A50;}
	.st468{fill:#87725D;}
	.st469{fill:#796B5F;}
	.st470{fill:#594E4F;}
	.st471{fill:#6E6566;}
	.st472{fill:#574947;}
	.st473{fill:#837161;}
	.st474{fill:#7B6D5B;}
	.st475{fill:#6A5C4C;}
	.st476{fill:#7B6758;}
	.st477{fill:#5F504B;}
	.st478{fill:#5F5051;}
	.st479{fill:#564A44;}
	.st480{fill:#745F4F;}
	.st481{fill:#D8DEE3;}
	.st482{fill:#C6C8CD;}
	.st483{fill:#C6C8CC;}
	.st484{fill:#D0D1D3;}
	.st485{fill:#F1F2F4;}
	.st486{fill:#F0F1F2;}
	.st487{fill:#F4F6F8;}
	.st488{fill:#EFF2F2;}
	.st489{fill:#BEC1C3;}
	.st490{fill:#AFAEB6;}
	.st491{fill:#1B2021;}
	.st492{fill:#A5B8BE;}
	.st493{fill:#5B7686;}
	.st494{fill:#768E95;}
	.st495{fill:#75939D;}
	.st496{fill:#5E7E8B;}
	.st497{fill:#708A97;}
	.st498{fill:#728E9D;}
	.st499{fill:#5A7680;}
	.st500{fill:#D6DFE5;}
	.st501{fill:#426A78;}
	.st502{fill:#4D727F;}
	.st503{fill:#D0D9DF;}
	.st504{fill:#ECF1F5;}
	.st505{fill:#725C51;}
	.st506{fill:#7E6E65;}
	.st507{fill:#83736B;}
	.st508{fill:#654D42;}
	.st509{fill:#60504C;}
	.st510{fill:#69564A;}
	.st511{fill:#5D4D48;}
	.st512{fill:#6D5545;}
	.st513{fill:#5D4F47;}
	.st514{fill:#685C5A;}
	.st515{fill:#5F453D;}
	.st516{fill:#5A4D47;}
	.st517{fill:#554843;}
	.st518{fill:#57453E;}
	.st519{fill:#6F5846;}
	.st520{fill:#6D5A4B;}
	.st521{fill:#534946;}
	.st522{fill:#534B4F;}
	.st523{fill:#564744;}
	.st524{fill:#5E7BA0;}
	.st525{fill:#1B1613;}
	.st526{fill:#717873;}
	.st527{fill:#68808D;}
	.st528{fill:#8792A4;}
	.st529{fill:#111E26;}
	.st530{fill:#5E6873;}
	.st531{fill:#BEC4CD;}
	.st532{fill:#748699;}
	.st533{fill:#0A131C;}
	.st534{fill:#E0E8ED;}
	.st535{fill:#394448;}
	.st536{fill:#7F6A5E;}
	.st537{fill:#7B6657;}
	.st538{fill:#604B41;}
	.st539{fill:#6B594D;}
	.st540{fill:#5A4941;}
	.st541{fill:#826F60;}
	.st542{fill:#776763;}
	.st543{fill:#5F4C45;}
	.st544{fill:#63534D;}
	.st545{fill:#7C6863;}
	.st546{fill:#736460;}
	.st547{fill:#523E36;}
	.st548{fill:#5E4C46;}
	.st549{fill:#5D4B45;}
	.st550{fill:#75695C;}
	.st551{fill:#7A6F68;}
	.st552{fill:#615B5A;}
	.st553{fill:#888483;}
	.st554{fill:#726864;}
	.st555{fill:#807061;}
	.st556{fill:#262225;}
	.st557{fill:#121115;}
	.st558{fill:#454649;}
	.st559{fill:#F2F5F5;}
	.st560{fill:#827165;}
	.st561{fill:#715F51;}
	.st562{fill:#726361;}
	.st563{fill:#837267;}
	.st564{fill:#796457;}
	.st565{fill:#625049;}
	.st566{fill:#624E40;}
	.st567{fill:#7F6E60;}
	.st568{fill:#716563;}
	.st569{fill:#7B7069;}
	.st570{fill:#D1D0C9;}
	.st571{fill:#73645A;}
	.st572{fill:#7A6859;}
	.st573{fill:#574943;}
	.st574{fill:#E6E4DF;}
	.st575{fill:#6E5F5A;}
	.st576{fill:#A5817A;}
	.st577{fill:#D9E2E7;}
	.st578{fill:#537781;}
	.st579{fill:#EAF1F6;}
	.st580{fill:#BBC5CF;}
	.st581{fill:#637C88;}
	.st582{fill:#547482;}
	.st583{fill:#E7EFF4;}
	.st584{fill:#8BA0AF;}
	.st585{fill:#A9B8C6;}
	.st586{fill:#F6F9FB;}
	.st587{fill:#ECF2F6;}
	.st588{fill:#A9B8C1;}
	.st589{fill:#F3F7FA;}
	.st590{fill:#F0F3F6;}
	.st591{fill:#B1C2CC;}
	.st592{fill:#AFC1CF;}
	.st593{fill:#90A1AF;}
	.st594{fill:#849BAB;}
	.st595{fill:#819DB0;}
	.st596{fill:#F2F5F9;}
	.st597{fill:#A4B7C4;}
	.st598{fill:#8298A8;}
	.st599{fill:#ABBCC8;}
	.st600{fill:#746256;}
	.st601{fill:#5D463A;}
	.st602{fill:#604537;}
	.st603{fill:#655757;}
	.st604{fill:#7F6B5D;}
	.st605{fill:#5C4735;}
	.st606{fill:#857B7C;}
	.st607{fill:#948C9A;}
	.st608{fill:#7B6654;}
	.st609{fill:#645A59;}
	.st610{fill:#716051;}
	.st611{fill:#695447;}
	.st612{fill:#655750;}
	.st613{fill:#6E645E;}
	.st614{fill:#75675E;}
	.st615{fill:#94928B;}
	.st616{fill:#7D6D5B;}
	.st617{fill:#2B2E35;}
	.st618{fill:#8A7461;}
	.st619{fill:#776354;}
	.st620{fill:#725E52;}
	.st621{fill:#675448;}
	.st622{fill:#675344;}
	.st623{fill:#776049;}
	.st624{fill:#8A7C72;}
	.st625{fill:#8F816F;}
	.st626{fill:#77655B;}
	.st627{fill:#6B5957;}
	.st628{fill:#605356;}
	.st629{fill:#675340;}
	.st630{fill:#3A3934;}
	.st631{fill:#7A6556;}
	.st632{fill:#807064;}
	.st633{fill:#6E6C5B;}
	.st634{fill:#6A584E;}
	.st635{fill:#5D5048;}
	.st636{fill:#61534E;}
	.st637{fill:#69554E;}
	.st638{fill:#27231E;}
	.st639{fill:#BDCAD4;}
	.st640{fill:#556F7C;}
	.st641{fill:#98A9B7;}
	.st642{fill:#94A9B7;}
	.st643{fill:#C2D0DA;}
	.st644{fill:#8BA4B5;}
	.st645{fill:#7F9BA8;}
	.st646{fill:#81736A;}
	.st647{fill:#908484;}
	.st648{fill:#5B473D;}
	.st649{fill:#5B4A3E;}
	.st650{fill:#675540;}
	.st651{fill:#584844;}
	.st652{fill:#59463C;}
	.st653{fill:#77614F;}
	.st654{fill:#5C4942;}
	.st655{fill:#563F35;}
	.st656{fill:#6E5C51;}
	.st657{fill:#5B4B40;}
	.st658{fill:#897864;}
	.st659{fill:#604B3F;}
	.st660{fill:#78614D;}
	.st661{fill:#67513E;}
	.st662{fill:#7E695C;}
	.st663{fill:#746355;}
	.st664{fill:#302F2D;}
	.st665{fill:#69524A;}
	.st666{fill:#8F796F;}
	.st667{fill:#7A6353;}
	.st668{fill:#685855;}
	.st669{fill:#41403E;}
	.st670{fill:#241412;}
	.st671{fill:#918580;}
	.st672{fill:#776355;}
	.st673{fill:#756763;}
	.st674{fill:#312A27;}
	.st675{fill:#665A53;}
	.st676{fill:#624C39;}
	.st677{fill:#816B61;}
	.st678{fill:#6B594F;}
	.st679{fill:#6A5647;}
	.st680{fill:#26130F;}
	.st681{fill:#6E5E55;}
	.st682{fill:#69584E;}
	.st683{fill:#766658;}
	.st684{fill:#5D4F48;}
	.st685{fill:#827468;}
	.st686{fill:#5C4C46;}
	.st687{fill:#7F7166;}
	.st688{fill:#7C6B62;}
	.st689{fill:#7B6B5E;}
	.st690{fill:#75675C;}
	.st691{fill:#7D6755;}
	.st692{fill:#918177;}
	.st693{fill:#877668;}
	.st694{fill:#68584D;}
	.st695{fill:#5E5047;}
	.st696{fill:#705E50;}
	.st697{fill:#594F4F;}
	.st698{fill:#69574C;}
	.st699{fill:#7B6B5D;}
	.st700{fill-rule:evenodd;clip-rule:evenodd;fill:#243C13;}
	.st701{fill-rule:evenodd;clip-rule:evenodd;fill:#052B03;}
</style>
<g id="Layer_3">
</g>
<g id="Layer_4">
</g>
<g id="Layer_1">
	<g id="Logo_Dark">
	</g>
</g>
<g id="Layer_5">
	<g id="Layer_6">
	</g>
</g>
<g id="Layer_7" class="st23">
</g>
<g id="Layer_8">
</g>
<g id="Layer_9">
	<g id="Logo_Dark_1_">
	</g>
	<g id="BoilerCamp_1_">
	</g>
	<g id="BoilerCamp">
	</g>
	<g id="BoilerCamp_2_">
		<path class="st701" d="M85.9,60.5c10.4-8.5,11.4,15.4,26.8,10.8c-7.1-5.4-13.4-11.7-18.8-18.8c2.5-7.3,8.4,3.8,16.1,0
			c-2-2.5-4.9-4.1-8-5.3c-0.5-2.3,1.1-2.5,2.7-2.7c2.2-1.4,4.4-2.8,8-2.7c-0.7,28.5,36.6,25.6,26.8-8.1c12.1,7.6,3.4,36,18.8,40.2
			c-0.3-6.9-4.9-9.4-8.1-13.4c4.5-11.3,7.2,4.3,16.1-2.7c-1.5-3.9-4.2-6.5-8.1-8c0.4-5,9.1-1.7,10.7-5.4c-8-11.6,8.7-17.5-2.7-26.8
			c12.5-3.3,15.1-3.2,18.8,21.5c-5.9-0.4-5.8-6.8-5.4-13.4C160.4,38.9,176.6,79,204,65.9c-9.3-5-8.7-19.9-21.5-21.5
			c6.7-13.9,13.1,7.1,21.5,8c4-1.2-1-3.4,0-8c9.3,8.6,5.9,29.9,24.1,29.5c1.2-10.1-5.7-12.2-10.7-16.1c10.5-9.5-3.2-34.3-5.4-48.3
			c3.9,1.5,13.9-3.1,13.4,2.7c1.8,8.9-5.6,4.3-8.1,2.7c1.6,8.7,5.6,5,8.1,8c6.3-13.4,2.9-4.2,13.4-13.4c-2.1,10.1-4.7,22.7,0,32.2
			c6.4-11.6,5.2,4.2,8,10.7c3.9-4.8,0.6-8.2,2.7-18.8c-1.2-4-3.4,1.1-8.1,0c-1.5-3.9,3.1-13.9-2.7-13.4c6.9-4.7,4.5,5.3,13.4-2.7
			c-2.7-30.8,6.8-15.9,5.4,5.4c8.3-5.2,9.6-10.3,5.4,2.7c4.6,1,5.1-2.1,5.4-5.4c6.3,0.7,1.5,11.8,0,13.4c8.3-4.1,8.4-6.6,10.7,5.4
			c4.2-7.4,11.1-12.1,10.7-24.2c10.4,16.7-3.9,34.9-5.4,56.4c2.6-0.1,2.1-3.3,2.7-5.4c2.6,0.1,2.1,3.3,2.7,5.4
			c9-4,2.4-13.4,10.7-13.4c-4.9,9.4-0.5,11.4,2.7,18.8c-9.7-8.4-3.7,16.2-5.4,24.2c8.6-2.2,7.7-13.8,13.4-18.8c-1.2-4-3.4,1.1-8,0
			c13.1-7.2,1.9-22.8,2.7-26.8c9.1,1.7,7,14.5,8.1,24.2c9-6.4-6.9-21.1,5.4-24.2c4.2,4.5-2,10.9,10.7,10.7
			c2.4-0.4-2.2-19.6,8.1-10.7c4.6-9.1-13.9-33,2.7-40.3c-8.8,3.2-1.1,20.2,5.4,24.2c5.7-0.9-0.4-11.7-2.7-13.4
			c3-8.6,7.7,2.6,5.4,8.1c3.9-0.6,0.9-8,5.4-8.1c2.4-44.4,1.7,10.6,2.7,24.2c7.6,2.2,6.9-3.8,13.4-2.7c-3.7-17.2-2.3-17.1-2.7-29.5
			c5.6,3.3,10.5,7.4,16.1,10.7c7.7-8.7-2.9-4.7-5.4-10.7c13.8-11,10.1,18.4,13.4,26.8c2.5-12.1,3.4-29.8-5.4-37.6
			c9.4-2.1,8.4,15.4,13.4,2.7c7.7,8.4,4.1,28.1,10.7,37.6c6-6.5,10.3-14.7,16.1-21.5c6.9,17,1.9,12.3,0,29.5
			c6.2-0.3,14.8-11.8,8.1-16.1c2.4-2.4,8.2-0.2,8-10.7c3.3,14.1-6.7,38-21.5,43c9.7,15-17.4,23.2-16.1,51
			c32.3-12.5,32.7-12.3,51-37.6c-1.2-3.3-3.4-5.5-8.1-5.4c1.8,2.7,6.2,2.8,5.4,8c-4.6-1-5.1,2.1-5.4,5.4c-7.5,1.2,2.1-14.6-5.4-13.4
			c12.5-1.4,19.7-2.1,21.5-18.8c4.4-0.4,4.4,16.6,0,16.1c2.3,7.9,4-6.2,10.7-2.7c1.3,10.3-9.3,8.6-5.4,21.5
			c7.1-9.5,14-4.4,13.4-18.8c4,9.8,18.5,1.7,18.8-8c3.2,15-25.8,25.3-32.2,32.2c3.4-3.7,0.1,13.3-10.7,10.7
			c4.1,6.4,19.2-6.7,18.8,2.7c10.5-4.4,1.1-12,13.4-13.4c-0.3,6.8-0.5,13.8-8,13.4c1.9,8.4,7.1,3.5,13.4,2.7
			c-17.4,13.2-14,11.9-42.9,24.1c14.7,21.6,48,21.9,56.4-5.4c5.7,0.8,0.6,12.7-5.4,10.7c1.8,8,5.7-2.6,10.7,0
			c4.5-0.8-20.5,12.8-26.8,18.8c-9.5-1.4-12-7.9-21.5-2.7c7.2,22.3,34,22.8,45.6,2.7c14,16.1,40.6,50.7,53.7,16.1
			c7.7,9.9-20.3,27-24.1,42.9c0.5,2.2,2.7,2.7,2.7,5.4c15.2-6.5,24.5-29.4,48.3-18.8c-9.9,3.9-21.4-1.7-29.5,8.1
			c4.6,7.8,9.8-6.1,18.8-2.7c-17,12.5-40.9,18.1-59,29.5c4.1,4,11.8,4.3,18.8,5.4c3.8,14.1,12.7,23.1,21.5,32.2
			c15-12.2,8.5-29.2,21.5-42.9h21.5c-6.3,1.3-28.6,10.2-26.8,21.5c2.1,1.9,17.4-5.7,24.2-8.1c1.4,7.8-25.7,10-29.5,21.5
			c5.8,7,23.3,6.5,32.2,2.7c-0.1,2.6-3.3,2.1-5.4,2.7c-0.6,9.5,12.6,5.3,10.7,16.1c-16.7-11.4-40.8-18.5-48.3-5.4
			c3.9,5,14.1,0.7,18.8,13.4c-7.3,2-5.4-5.3-10.7-5.4c-1.4,11.3,4.7,15,5.4,24.2c-13.2-15.6-20.5-22.9-34.9-13.4
			c1.9,2.2,4.2,7.3,0,8.1c0.8,3.6,6.7,2.2,10.7,2.7c-21.8-1.5-25,44.2-2.7,53.7c15.1-9,30.4-29.2,26.8-48.3c2.6,0.1,2.1,3.3,2.7,5.4
			c9.2,2,3.4-10.9,13.4-8.1c-3.4,7.3-7.7,13.8-10.7,21.5c10.8,1.8,6.6-11.3,16.1-10.7c-6.7,10.2,14.3-5.7,24.1,2.7
			c0,7.8-15.2,6.3-18.8,2.7c0.4,3.1-0.6,4.8-2.7,5.4c4,5.8,11.2,5.3,13.4,2.7c6.4,0.7-3.1,7.2-2.7,10.7c-7.3,2-5.4-5.3-10.7-5.4
			c-7.5,3.5,8.4,5.6,5.4,13.4c-6.6-10.6-25.3-20-34.9-5.4c0.8,18.8,22.6,16.7,21.5,37.6c4.3-0.2,10.2,1.3,10.7-2.7
			c8.6,3-2.6,7.7-8.1,5.4c2.4,9.7,7.9,1.6,16.1,2.7c-12.7,11,10.3,12,18.8,13.4c0.5,10.3-2.2,1-8,2.7c2.2,10.4,13.1,11.9,18.8,18.8
			c-6-1.2-16.2,11.5-13.4-5.4c-2.4,1.2-4.8,2.4-5.4,5.4c-4.1-6.6-4.8-16.7-13.4-18.8c5.4,9.7-0.3,13-2.7,21.5
			c-7.5-4.3,3.8-12.1,0-21.5c-8-4.5-15.3-18.4-24.2-34.9c-7.2,20.1,10.7,19.6,8.1,34.9c3.8,7.7-5.7-10.2-10.7-10.7
			c-7.3,2.5,3.7,8.4,0,16.1c-13.3-13.2-1.9-28-2.7-40.3c-5.6-6.2-14.9-10.2-24.1-5.4c5.5,14.9-10.4,26.3,0,29.5
			c-8.1,1.7-10.6,9.1-13.4,16.1c7.1,6.3,12.3,14.6,16.1,24.2c6.7-0.3,8.3-5,13.4,0c3.8,11.7-9.2,12.3-2.7,18.8
			c4.9-3.7,23.1,12.6,37.6,10.7c-0.9,3.6-6.7,2.2-10.7,2.7c3.7,10.9,18,8.8,16.1,18.8c10.9-2.2,9.2-0.4,21.5,0
			c-20.2,13.5-28.4-8.9-42.9-5.4c2.4-15.8-11.4-15.5-18.8-21.5c-6.9,2.3,5.2,11.8-2.7,16.1c-5.6-0.7,3.9-7.2-2.7-10.7
			c-10.6,6.9-1.7,17.5-18.8,18.8c7-7.3,10-18.7,18.8-24.2c-7.1-16.2-16.1-30.5-26.8-42.9c-9.1,0.7-22.8-1-16.1-8.1
			c-10.7,1.9-0.2,12.6-5.4,16.1c-14.3,2.1-1.3-26.1-16.1-16.1c-2.7-8.1,6-4.7,10.7-5.4c-3.4-8.2-2.1-10.4,2.7-16.1
			c-7.7-5.5-32.9,4.6-16.1,18.8c1.3,30.4-5.8,52.7,8,69.8c-1.6,5.6-5.6,8.7-8,13.4c-2.1,20.6-4.7-12.5,0-16.1
			c-6.5,1.6-6,10.1-8,16.1c-13.2-6.9,6-18.3,2.7-32.2c-2.5,0.7-13.1-11.3-13.4,2.7c-8.3-13.7,8.1-25.9,16.1-32.2
			c-11.2-11.6,2.2-49.9-18.8-42.9c11.5,0.4-4.4,12.1-5.4,24.1c-0.9,10.7,14.5,18.2,2.7,24.2c-6.2-4.7-8.6-11.3-13.4-10.7
			c-3.7,0.8-2.2,6.7-2.7,10.7c-8.6-7.4-3.7-18.2,5.4-21.5c-7.8-1.1-3.3-4.1,5.4-8.1c-2.3-7.9-8.6,1.6-13.4,0
			c1.7-11.3,12.3-3.5,16.1-8c-0.9-6.2,0.4-10.3,2.7-13.4h-26.8c5-11.6,18.9,2.4,26.8-5.4c-27.2-11-46.3,9.1-61.7,18.8
			c7.2,20.3,14.2,27.7,10.7,42.9c-7.9-4.6-8-17-10.7-26.8c-5.9,8.1,4.7,14.1-8.1,13.4c2.2,12.1,9.4,19.2,10.7,32.2
			c-6.9-0.3-4.3-10-8-13.4c-2,5.5-4.4,19.8,2.7,26.8c-6,5.9-3.4,9.8-10.7,10.7c-0.3-2.2,6.8-23.3-2.7-29.5
			c-4.1,6.1-5.6,5.1-13.4,2.7c-0.4,6.7,1.4,11.1,5.4,13.4c-9-3.9-9.3,4.4-2.7,16.1c-10.4,2.3-4.4-11.7-16.1-8.1v-29.5
			c-2.4-4.7-10.9-3.4-8-13.4c-9.3,3.4-18,21.2-13.4,29.5c-1.2,6.7-7.7-2.6-5.4-8.1c-9.6,5.2-32.1,44.1-10.7,45.6
			c-4.8,14-13.4,22.7-8,40.3c-17.3,13-17,49.9-13.4,77.8c10.4,81.2,53.6,179.7,69.8,252.3c32.9,3.5,74.9,9.7,112.7,13.4
			c22.7,2.3,55.9-4.7,64.4,18.8H120.8c-1.6-21.7,23.6-17.1,37.6-18.8c46.6-5.5,102.7-7.8,155.6-10.7c3.5-1,4.2-4.7,8.1-5.4
			c-11-79.5-24.2-154.1-45.6-220.1c-4-12.2-13.6-21.3-18.8-32.2c-12.7,3.5-17.3-0.5-26.8-2.7c5.1-5.8,14-5.9,21.5-2.7
			c-8.1-12.5-13.4-27.7-21.5-40.3c-6.3,3.9-5,5.7-13.4,2.7c0.8-3.6,6.7-2.2,10.7-2.7c0.5-13.1-25.8-10.4-13.4-26.8
			c-7.6-2.2-7,3.8-13.4,2.7c13.5-7.9,2.1-21.8-10.7-16.1c1.6-7.4,6.7-11.2,8-18.8c-4.9-4.7-15.7,7.4-21.5,10.7
			c9.4,6.7,12.4,19.8,24.1,24.2c-5.3,20.3,13,11.8,5.4,26.8c-7.1-1.9-5.7-12.2-13.4-13.4c-1,4.6,2.1,5.1,5.4,5.4c0.1,4.6-2,7-5.4,8
			c0.7,3.4,5.3,2.7,5.4,0c6.9,22.2-21,8.3-26.8,18.8c2.3-10.7,2.3-13.5,0-24.1c-5.4,3.5-9.1,8.8-10.7,16.1
			c-9.5-4.7-6.6,1.8-16.1,2.7c2.4-7.4,0-29.9-10.7-24.2c5.9-6,15.4-30,5.4-34.9c8.7-7.1,23.3,6.1,21.5-13.4
			c-4.6-8.8-23.6-3.2-26.8-13.4c-8.5,2.4-9.1,10.8-5.4,18.8c-7.6-0.6-7.7-15.5-10.7,0c-8.1-3.3,1.9-10.2,2.7-13.4
			c-24.1-6.2-51.3,18.6-67.1-8c10.5-0.7,10,9.7,21.5,8c0.9-7.6,3.5-2.6,16.1-2.7c4.1-2.3-0.7-4,2.7-10.7c9.5,0.3,9.8,9.9,21.5,8.1
			c8.4-1.9,3.5-7.2,2.7-13.4c7.9,2.4,8.2,2.4,16.1,0c-2-2.5-4.9-4.1-8.1-5.4c-0.4-6.7,4.2-8.3,5.4-13.4c4.9,8.5-6.1,10.8,5.4,18.8
			c6-2.1,10.5-5.6,18.8-5.4c-6.5-7.8-17.4-11.3-24.2-18.8c2.8-10.7,10.6,0.6,13.4,5.4c4.3-5.6,15.2-7.1,8.1,2.7
			c14.1-22.8,11.9-67.6-21.5-56.4c-1.5-6,5.1-3.8,5.4-8.1c-8.4-1.3-7.6,6.7-10.7,10.7c-3.1-0.4-2.3-4.9-2.7-8.1
			c-14.1,2-14.1,18.1-24.2,24.2c0.7-19.9,18.1-23,29.5-32.2c-14.8-6.7-39.2,0.1-42.9,13.4c-3.2-3-4.9-7.7-13.4-5.4
			c3.7-6.1,19.7,0,16.1-13.4c5.4,7.4,35.9-4.6,24.1-5.4c5.1-8.3,11.7,4.2,18.8,2.7c3.9-7.6-9.8-20.5-26.8-16.1
			c5.5-11-19.2-12.2-26.8-18.8c7.6-10.4,26.2,15.5,37.6,10.7c-3.2-8.4-14.8-8.4-16.1-18.8c-9.8-0.8-17.4,0.4-24.1,2.7
			c2.5-10.5-14.2-2-16.1-8.1c2.5-9,5-1.3,13.4-2.7c-0.4-5-9.1-1.6-10.7-5.4c5.6-8,14.1,3.6,24.2,0c-3.8-5.2-13.9-4-18.8-8
			c4.6-7.8,9.8,6.1,18.8,2.7c5.2-2.8-7-10.6-10.7-13.4c-8.7,0.3-5.7,12.2-18.8,8c0.4-3.1,4.9-2.3,8-2.7
			c-22.7-12.3-35.6,11.7-53.7,5.4c9.9-2.7,15.6-9.4,26.8-10.7c-3.8-7.8-11.3-12-24.1-10.7c5.8-5.6-1.4-7.7,0-16.1
			c16.3,2.8,24,33.4,56.4,21.5c0.1-7.5-11.7-7.3-5.4-13.4c9.7,1,6.8,14.7,21.5,10.7c2.9-0.7,1.8-5.3,5.4-5.4
			c-7.8-22.6-30.3-30.5-40.2-51c-12.1-0.5-22.9-2.2-32.2-5.4c-25.7-4,21.3-2.3,29.5,0c6.7-0.5,8.4,4.1,10.7,8.1
			c6.9-2.9,12.9-6.8,16.1-13.4c-1.2-2.4-2.4-4.8-5.4-5.4c-4,2.3-5.8,6.8-5.4,13.4c-9.2-2-1.8-8.1,0-13.4
			c-10.1-2.1-12.8,3.3-21.5,2.7c3.3-6.3,14.7-13.4,21.5-8c-4.5-11.7-19.9-3.9-26.8-8.1c2.4-3.9,2.1-10.4,10.7-8
			c-5-8.5-6.9-0.5-8-8.1c4.9-5.2,20.1-12.6,21.5-5.4c1.6-14.3-19.9-4-26.8-10.7c0-8,4.8-11.3,10.7-13.4c-8-5.4-14.9-3.8-24.1-2.7
			c-3.7-10.8,4.8-9.5,8-13.4c-4.1-0.3-7.4-3.5-10.7-10.7c1.2-4,3.4,1,8.1,0c-2.1-2.4-2.9-6.1-2.7-10.8C12,155.9,8.1,149,0,146.4
			c3.3-8.1,9.2,2.9,16.1,0c-0.2-6.9-11.5-2.8-8-13.4c4,5.8,12.2,7.5,16.1,13.4c4.6-3.4,5.4-10.7,10.7-13.4
			c9.8-1.8,14.3,1.8,18.8,5.4c1.1-6.5-4.9-5.8-2.7-13.4c7.3-1.9,5.4,5.3,10.7,5.4c11.2-7.5,8.3-16.1,8.1-24.2
			c6.6-6.3,10.5,5.3,13.4,10.7c3.7-0.8,2.2-6.7,2.7-10.7c3.8,9.9,28.1,22.5,42.9,8c-0.4-3.1-4.9-2.3-8-2.7c8.2-8.4,12-4.5,24.2-8
			c-3.6-5.3-5.1-12.8-8.1-18.8c-9.3-2.2-10.3,4-18.8,2.7c5.5-12.2-15.6-12.6-26.8-16.1C92.6,64.4,95.8,60.8,85.9,60.5 M496.5,240.3
			c10.2,2.9,16.7-7.1,18.8,2.7c-15.3-0.1-16.2,2.1-29.5,0c4.8,7.5,2,7.6,5.4,13.4c8.5,0.5,25.9-6.3,29.5-18.8
			c15.7,3.3,22-21.8,21.5-37.6c-15.7-4.9-17.6-23.5-32.2-29.5c-1.9,7-9.7,8.2-10.7,16.1c6.1,3.7,10.1-6.9,10.7,0
			c-9.9,4.3,10.9-0.6,5.4,8.1c-11.9-1.1-18.9,1-13.4,10.7c-5.3,0-3.4-7.3-10.7-5.4c-2,17.8,12.2,3.5,16.1,13.4
			c0,4.4-7.5,1.5-8.1,5.4c2,4.3,13.1-0.6,10.7,8.1c-9.5,1.3-15.4-14.8-24.2-5.4c8.1-2.7,4.8,6,5.4,10.7c9.6,4.2,1.6-9.1,8.1-8.1
			C501.1,232.4,496.4,234,496.5,240.3 M558.2,283.2c-5.4-19.2-47.7-47.2-45.6-18.8c-4-1.4-6.8-4-10.7-5.4c-4,3.2-4.2,10.1-8,13.4
			c0.2-4.7-0.6-8.4-2.7-10.7c-6.6,0.4-12.9,0.4-16.1-2.7c-1.2,10.1,8.4,9.5,10.7,16.1c-8,0,3.8,19.9-8.1,16.1
			c13.8-19.2-32.2-38.4-32.2-18.8c1.1-2.8,14.7-6.2,13.4-2.7c-8.7,4.7-23.3,3.6-24.2,16.1c3.3-14.5-20.1-0.7-32.2-5.4
			c3.8,11.8,10.3,7,0,16.1c13.4-4.2,14.4-4.7,21.5-13.4c-0.8,9.5,5.9,18.7,18.8,21.5c3-0.9,7.7-13.2,10.7-5.4
			c-6.7,4.1-10.2,9.7-10.7,13.4c-8.8-4.7-13.4-13.4-24.2-16.1c-5,3.9-9.1,8.8-13.4,13.4c10.8-4.3,14.3,9.3,5.4,2.7
			c10.2,22.8,47.7,1.3,53.7-13.4v13.4c39.6,18.5,75.5-4,88.6-34.9C549.8,283.4,557.1,290.7,558.2,283.2 M601.2,342.3
			c-8.2-0.1-13.7,2.4-16.1,8c8.3-1.9,5.2-1.9,13.4,0C598.3,346.6,599.7,344.4,601.2,342.3 M488.4,449.6c-6.4,6.7-1.2,8.5-8,13.4
			C487.8,473.1,496.5,454.4,488.4,449.6 M134.2,108.8c3.7,14.1,29.4,6.4,40.3,13.4c-1.1-16.4-31.1-7.2-37.6-10.7
			c4.8-1.5,11.2-1.4,13.4-5.4C142.1,104.2,140.5,108.9,134.2,108.8 M241.5,82c-1.4-15.5-1.2-28-16.1-34.9c5.3-4.5,3.4,0.2,10.7,0
			c-1.1-8.8-2.3-17.4-10.7-18.8C218.7,48.3,229.7,67.1,241.5,82 M260.3,68.6c6.3-9.6-5.3-20.4-8.1-29.5
			C254.7,54.1,251.2,59.4,260.3,68.6 M351.6,73.9c-1.6-5.6,3.3-17.6-2.7-18.8C340.8,57.6,341.5,74.5,351.6,73.9 M166.4,63.2
			c-11.8,1.4-0.5,20.4,5.4,21.5c-1.9-9-0.8-18.1-8.1-18.8C165.3,65.7,166.9,65.5,166.4,63.2 M128.8,79.3c0.4-8.4-6.9-9.2-13.4-10.7
			C113.5,78.5,124.8,75.2,128.8,79.3 M268.4,98.1c0.5-14.9,1-23.6-2.7-26.8C264.5,80.4,259.3,93.4,268.4,98.1 M359.6,84.7
			c0.4,5,1.8,9,5.4,10.7c1.1-7,8-8.1,8.1-16.1c-1.5-3.9-4.2-6.6-8.1-8c-0.6,2.1-0.1,5.3-2.7,5.4c-2,7.3,5.3,5.4,5.4,10.7
			C364,87.5,361.8,86.1,359.6,84.7 M222.7,90c-0.6-14-12-14.7-18.8-16.1C201.3,88.2,217.3,83.8,222.7,90 M351.6,95.4
			c-9.5-3.1-13.7-25.5-24.1-18.8c1.4,10.3,13.7,11.3,8.1,21.5C345,97.2,349.3,97.9,351.6,95.4 M255,98.1c-3.1-8.7,8.2-16.5,0-21.5
			c-3.7,1.6-0.4,10.3-5.4,10.7c0-1.5-2.2-3.1-2.7,0C252.4,88.1,249.4,97.3,255,98.1 M182.5,90c0-3.5,7.5-3.4,8.1,0
			c-2.1,0.6-5.3,0.1-5.4,2.7c2.3,12.9,26,20.7,16.1,29.5c16.8-2.3,33,1.6,45.6,8.1c0.4-6.7-4.2-8.3-5.4-13.4
			c-12.1-1.8-12.2,1.8-13.4,5.4c-1.6-4.6-12.7,0.2-13.4-5.4c3.5-3.7,11.7-2.7,18.8-2.7c-8.5-8.7-8.8-12.3-13.4-21.5
			C205.8,93.5,185.2,78.7,182.5,90 M402.5,103.4c-1.2-6.8,18.1-14.8,2.7-18.8C403.8,88.9,394.9,99,402.5,103.4 M147.6,90
			c-3,13.8,11.7,23.9,21.5,16.1C161.3,101.4,158.5,91.7,147.6,90 M322,119.5c-6.8-9.4,4.1-6.9,10.7-13.4c1.4-13-14.5-8.7-21.5-13.4
			c-3.3,7.3-4.5,12.6-5.4,16.1c-0.1-1.6-0.4-3.2-2.7-2.7c-0.8,7.1,3.7,8.8,10.7,8c-1.4-6.8-3.6-9.4,2.7-13.4
			C317.6,110.2,309.4,128.7,322,119.5 M383.8,100.8c3.6,0.8,5.1,3.8,10.7,2.7v-8C388.4,94.6,384.4,96,383.8,100.8 M332.8,116.9
			c7-1.1,14.7-1.4,18.8-5.4c-5.6-2.4-11.9-4.2-16.1-8C338.4,111.9,336.7,110.5,332.8,116.9 M375.7,119.5c12.6,0.2-3.1,6.1-2.6,10.7
			c5.9,2.1,3.5,12.6,10.7,13.4c10.6-8.2,18.8-26,2.7-34.9C386.8,121.2,380.6,110.4,375.7,119.5 M343.5,116.9
			c-0.6,2.1-2.2,3.1-5.4,2.7c-2.4,14.7,20.3,9.9,10.7,0c0.1,4.6-2.1,6.9-5.4,8.1C344.3,126,350.2,117.3,343.5,116.9 M448.2,133
			c6.7-3.5,11.1,7.9,13.4,0c-7.9-5.5,12.5-5.2,8-16.1C454.8,114.6,449.9,122.2,448.2,133 M118.1,130.3c7.7,0.5,14.7,0.3,13.4-8.1
			C125.2,123.1,119.9,125,118.1,130.3 M217.4,127.6c-8.2,1.9-9.8-2.7-16.1-2.7C199.4,136.4,215.2,133.6,217.4,127.6 M217.4,135.6
			c4.9,4.9,15.1,1.4,18.8-2.7C229.3,130.5,221,128.6,217.4,135.6 M410.6,141c12.9,0.4,23-2,26.9-10.7
			C428.2,139.3,417.1,123.4,410.6,141 M139.5,149.1c-0.6,5.1,3,5.9,2.7,10.7c3.9-1.5,13.9,3.1,13.4-2.7
			C149.1,155.6,149.9,146.7,139.5,149.1 M190.5,146.4c-14-9-20.3,0.1-37.6,0c0.8,18.2,16.8,12,18.8,24.2c10.9-4.3,13.2-5,26.8-2.7
			c0.6-5.1-3-5.9-2.7-10.7C183.1,161.3,192.3,158,190.5,146.4 M120.8,146.4c-0.8,5.3,3.6,5.3,5.4,8c-2.1,0.6-3.1,2.3-2.7,5.4
			c9.5,0.9,6.6,7.4,16.1,2.7c-0.4-5-1.8-9-5.4-10.7c-11.3,8.7,2.3-9.1-2.7-8C131,147.7,125,146.2,120.8,146.4 M233.5,165.2
			c-11.1-9.6-3.2-6.7-16.1-10.8C217.5,161.7,227.7,172.5,233.5,165.2 M225.4,146.4c-0.2,1.6-0.4,3.2-2.7,2.7
			c-0.6-2.1-0.1-5.3-2.7-5.4c0.8,7.1-10.4,2.1-8,10.7c7.3,2,5.4-5.3,10.7-5.4C221.3,156.8,233.2,144.9,225.4,146.4 M268.4,159.8
			c-2.6-6.3-0.9-17-10.7-16.1C255.2,155.1,262,157.2,268.4,159.8 M287.2,154.4c0.6-3.8,4.4-4.5,5.4-8c-5.1,0.6-5.9-3-10.7-2.7
			C281,149.8,282.4,153.8,287.2,154.4 M394.5,157.1c2.2,13.4,4,22.7-2.7,32.2c13-8.6,39.1-14.9,29.5-37.6
			C410.4,151.5,408.6,160.5,394.5,157.1 M434.8,159.8c2.4,10.2,27.1,12.1,32.2,10.7C461.7,161,446,155.2,434.8,159.8 M389.1,181.3
			v-18.8C372.5,158.8,377.9,182.7,389.1,181.3 M118.1,194.7c1.8-7.5,22.8-13.9,8-21.5c0.4,9.3-13.6,4.3-13.4,13.4
			c3.3,0.3,6.4,0.8,5.4,5.4C116.6,192,115,194.2,118.1,194.7 M120.8,165.2c-8.7,0.2-15.2,10.8-10.7,16.1
			C123.1,181,117.9,170.4,120.8,165.2 M220.1,178.6c-6.4-4.3-11.8-9.6-18.8-13.4c0.1,3.7-1.3,5.9-2.7,8c12.6-0.3,4.2,5.9,16.1,2.7
			C213.9,180.3,218.3,183.1,220.1,178.6 M276.4,170.5c-8.3-4.2-16.6-7.8-21.5,2.7C261.9,167.2,272.9,175.4,276.4,170.5 M440.1,205.4
			c1.7-6.6,12.5-0.4,13.4,2.7c-10.4-3-22.2,6.2-13.4,13.4c10-13.3,35.1-11.4,40.3-29.5c-10.5-9.2-19.9-19.4-40.3-18.8
			c-2.1,1.9-6,15,0,16.1c0.7-2.4,10-9,10.7-2.7C441.4,185.3,432.7,198.7,440.1,205.4 M142.2,178.6c-0.2,4.7,0.6,8.3,2.7,10.7
			c6.3-0.9,11.6-2.7,13.4-8c-3.5,0-2.5-4.7-5.4-5.4C152.5,179.9,146.5,178.4,142.2,178.6 M346.2,189.3c-1.5,3.9,3.1,13.9-2.7,13.4
			c-0.3-4.2,0.4-9.3-5.4-8.1c4.4,10.9-14.2,12.4-5.4,18.8c0.5-12.4,6.2,7.6,13.4,5.4c1.7-11.7,21.1-28.3,10.7-34.9
			C353.8,191,354.6,192.3,346.2,189.3 M365,183.9v-8.1c-8,1-13.2,4.6-16.1,10.7C356.9,187.2,358,176.7,365,183.9 M51,189.3
			c3.7-0.1,5.9,1.3,8,2.7c-0.1-3.7,1.3-5.9,2.7-8C57.7,179.7,49.7,181,51,189.3 M416,221.5c3.7-1.6,0.4-10.3,5.4-10.7
			c0,1.5,2.2,3.1,2.7,0c-2.1-0.6-3.1-2.2-2.7-5.4c-3.6-6.6-8.1,4.8-10.7-2.7c6.9-0.2,2.8-11.5,13.4-8.1c1.9-11.8-5.3,2.2-5.4-5.4
			c3.4-0.1,3.7-3.4,8-2.7c-0.8,6.1,0.6,10.1,5.4,10.7c0.2-7.3-4.5-5.4,0-10.7c-9.4-6-17.4-6-26.9,0c4.1,12.6-4,28.1-16.1,18.8
			c-0.1,14.4,0.6,28,13.4,29.5c-2.5-9.7,10.6-3.7,16.1-5.4c-3.5-6.7,10.6-8.4,2.7-10.7C420.7,220.9,419.1,222,416,221.5
			 M359.6,200.1c0.4,5,1.8,9,5.4,10.7c1.1-3.4,3.5-5.5,8.1-5.4c0.6-9.5-1.8-16.1-8.1-18.8C360.2,192,370.1,206,359.6,200.1
			 M185.2,197.4c-2.1-0.6-3.1-2.2-2.7-5.4c-7.7-0.5-14.7-0.3-13.4,8.1C178.6,199.1,182.9,199.9,185.2,197.4 M475,210.8
			c8.4,3,7.1-0.8,13.4,2.7c0.8-5.3-3.6-5.3-5.4-8c4.1-0.6,0.4-4.4-2.7-5.4C480.4,205.4,473.1,203.5,475,210.8 M182.5,216.2
			c17.3-4,10.6-11.2,21.5-5.4c0.6-3.8,4.4-4.5,5.4-8C195.6,202.4,187,207.3,182.5,216.2 M255,208.1c-3-0.6-4.2-3-5.4-5.4
			c-6.7-0.4-11.1,1.4-13.4,5.4C243.8,205.3,254.6,212.5,255,208.1 M212,218.8c11.6-3.8,11.5-2.7,21.5-8.1
			c-6.1-1.9-13.7-2.4-18.8-5.4C215.8,211.9,209.8,211.2,212,218.8 M370.4,208.1c-3.6,9.8-13.6,13.3-16.1,24.2
			C372.1,244.1,378.4,220.6,370.4,208.1 M169.1,213.5c-9.6,1.3-18.4,1.4-21.5,2.7C151.5,219.8,168.9,221.6,169.1,213.5 M238.9,226.9
			c3.4-9-13.6-11.1-16.1-5.4c10.3,12.5,16.3,7.1,21.5,16.1c4.9-6.8,15.6-7.6,18.8-16.1c-3.5,0-2.4-4.7-5.4-5.4
			c0.7,5.5-10.4,12.4-10.7,8c0.8-5.5,7.3-5.3,8.1-10.7h-13.4C240.1,217.4,244.7,227.3,238.9,226.9 M381.1,240.3
			c10.5-4,8.5,0.6,2.7,5.4c2.1,0.6,3.1,2.2,2.7,5.4c7.9-0.2,10-6.1,13.4-10.7c-12.6,0.9-11.3-26.2-16.1-24.1
			C380.1,232.3,388.3,229.6,381.1,240.3 M469.6,237.6c6.3,0.1,7.9-4.6,16.1-2.7c0.4-6.7,0.5-13-5.3-13.4
			C481.7,234.9,475,225.7,469.6,237.6 M480.4,218.8c-3.7,0.1-5.9-1.3-8.1-2.7c-1.5,1.6-6.3,12.7,0,13.4
			C473.1,224.1,479.6,224.3,480.4,218.8 M442.8,232.3c6.6,0.3,12.9,0.4,16.1-2.7C460.6,213.9,439.7,217.5,442.8,232.3 M450.9,243
			c7.3,8,25.3-19.2,10.7-24.1C469.1,231.5,454.6,233.9,450.9,243 M144.9,224.2c-6,5.8-13.2,21-21.5,16.1c4,22.8,26.5,41.4,45.6,40.3
			c-3.8-0.9-9.2-13.7-2.7-16.1c5.9,5.6-2.4,8.7,2.7,13.4c13.9-1.4,15.2-4.9,13.4-10.7c5.1,5.7,24.3,11.3,26.8,10.7
			c-7.3-5.5,6.2-2.3,5.4-5.4c-6.3-3.9-5-5.7-13.4-2.7c9.2-9.2-12.1-1.6-10.7-10.7c8.7,4,30.4,3.1,24.2-5.4c-0.6,3-3,4.2-5.4,5.4
			c0.2-3.4,3.4-3.7,2.7-8.1c-1.6-4.6-12.7,0.2-13.4-5.4c8.4-1.8,3.5-7.2,2.7-13.4c2.7,0,3.2-2.2,5.4-2.7c1,10.6,1.9,8.2,5.4,18.8
			c6.7,0.4,13,0.5,13.4-5.4c-3.9-1.5-13.9,3.1-13.4-2.7c10.6-2.4,16.4,0.6,21.5-2.7c-5.5-0.8-5.3-7.3-10.7-8c-2.3,9-8.5,2.8-2.7-2.7
			c-14.9-2.6-17.5,6.8-24.2,5.4c0.6-3.8,4.4-4.5,5.4-8.1c-12.2,3.6-14.5,2.8-24.1,10.7c1.1-3.8,3.2-4.5,0-8c4.7,5,8.3-0.7,10.7-5.4
			c-14.1-0.3-11,2.7-21.5,8.1c-1.4-3.9,10.5-6.5,2.7-8.1C161,228.1,156.3,224.2,144.9,224.2 M257.6,234.9c4.2,5.4,15,7.7,18.8,0
			c-7.1,0.8-2.1-10.4-10.8-8C265.4,232,256.8,228.8,257.6,234.9 M123.5,251c-10.7-4,7.8-23.2-5.4-21.5
			C113.4,235.6,115.1,259.5,123.5,251 M308.6,245.7c-1.5-4.8-1.4-11.1-5.4-13.4c1.2,6.9-9.5,15.2-2.7,18.8
			c3.7-1.6,0.4-10.3,5.4-10.7C306.5,242.4,306,245.6,308.6,245.7 M362.3,243c-6.9,2.9-9.4-11.6-13.4-2.7
			C351.7,244.8,359.3,253.7,362.3,243 M279.1,240.3c-6.9,2.1-15.2,2.7-18.8,8.1c3.9,2.3,8.5,4,8.1,10.7c6.1-1.7,16.2-5.3,21.5,0
			C289.8,249.3,282.2,247,279.1,240.3 M461.6,248.4c6.3,0.2,15.1,11.4,21.5,2.7c-4-0.5-2.5-6.5-2.7-10.7
			C474.5,243.4,463,240.8,461.6,248.4 M410.6,243c2.1,11.3,12.6,19.3,5.4,32.2c11.9,2.9,13.4-4.5,21.5-5.4
			C444,246.1,436.9,239.1,410.6,243 M99.3,251c0.2,1.6,0.4,3.2,2.7,2.7c0.9-4.6,8.3,2.5,10.7-5.4c-5.6-5.9-8.7,2.4-13.4-2.7V251z
			 M367.7,256.4c0.3-6.7,5.1-8.4-2.7-10.7c-0.8,6.3-9.3,5-8,13.4h5.4c1.6-0.2,3.2-0.4,2.7-2.7C360.9,255.4,364.6,253.2,367.7,256.4
			 M375.7,267.1c6.3-6.2,10-12.7,2.7-21.5C379.9,253.6,370.8,264.6,375.7,267.1 M391.8,261.8c5,3,5.7,10.4,10.7,13.4
			c0.7-5.5,11.9-0.6,10.7-8c-1.1-3.4-2.4-15.4-10.7-18.8C400.7,254.6,393.6,255.5,391.8,261.8 M214.7,269.8
			c8.5,2.3,10.2-2.3,13.4-5.4c0,3.5,4.7,2.4,5.4,5.4c-2.1,0.6-5.3,0.1-5.4,2.7c5.1,1.1,6.7,5.8,13.4,5.4
			c0.4-12.9-11.5-13.6-18.8-18.8c-2.4-5.6,18.3-0.7,8.1-5.4C219.1,252.8,216.7,261.1,214.7,269.8 M348.9,253.7
			c-9.4,0.6-26,13-13.4,18.8c6.9-5,0.5-19.9,10.7-8C347,260.8,350,259.3,348.9,253.7 M450.9,261.8c3-9.6,17.7,5,18.8-2.7
			C464.9,254.1,442.2,251,450.9,261.8 M107.3,256.4c-6.7,0.3-8.3,5-13.4,0c-4.1,21.5-9.6,47.9,10.7,56.4c1.9-8.4-0.3-11,2.7-13.4
			c-0.8,8.4,7.8-6.8,8.1,2.7c-6.5,2.4-7.1,10.8-8.1,18.8c12.9,2.8,30.8,3.9,37.6-10.7c-0.5,10.3,2.2,1,8.1,2.7
			c5.8,17.4,39.4,23.4,48.3,8.1c-6.1-1.3-5.9-13.2-13.4-5.4c0.1-3.4,3.4-3.7,2.7-8.1c-14.3-2.6-19.6-22.7-37.6-13.4
			c-2.6-13.9-22.5-32.6-43-37.6c0.1,6.6-4.1,22.4-8,16.1C108,271.4,102.1,258.3,107.3,256.4 M244.2,261.8c2.1-0.6,5.3-0.1,5.4-2.7
			h-8.1c-1.4,8.9,2.3,16.8,8.1,10.7C250.4,264.6,246,264.5,244.2,261.8 M69.8,280.6c0.6-2.1,0.1-5.3,2.7-5.4
			c-1.8,11.7,4.8,14.8,10.7,18.8c-4-8.5,0-25-5.4-32.2C76.5,269.2,54.8,273.1,69.8,280.6 M284.5,280.6c-1.6-4.8,7.9-11.1,0-13.4
			c-0.6,3-3,4.2-5.4,5.4c-0.1-3.7,1.3-5.9,2.7-8h-8.1C274.4,272.8,281.2,274.9,284.5,280.6 M263,269.8c-2,8.2,4.6,7.9,2.7,16.1
			c8-1.5,16.5,10.1,18.8,5.4C268.3,282.4,274.9,280.5,263,269.8 M260.3,285.9c-10.6,1.5-20.8-11.2-29.5-2.7
			C239.8,283.3,252.5,293.5,260.3,285.9 M370.4,296.7c2.7-5.3,21.9,6.1,24.1-5.4c0.6,2.1,0.1,5.3,2.7,5.4
			C406.1,276.5,371.1,284.4,370.4,296.7 M174.4,291.3c6.7,5,15.1,8.1,18.8,16.1c7.2-5.3,21-4,24.2-13.4
			C204.2,290,187.2,280.9,174.4,291.3 M311.3,299.3c8,3.2,11.5-11.3,5.4-13.4c-0.3,3.3-0.8,6.4-5.4,5.4c0-1.5-2.2-3.1-2.7,0
			C314.2,292.8,314.3,295.5,311.3,299.3 M225.4,299.3c9.6,5.6,9.1,21.3,21.5,24.2c4.3-9.6,5.5-16.4,10.7-29.5
			C247,288.9,231.7,292.2,225.4,299.3 M281.8,304.7c0.2-9.1-7.9-10-13.4-13.4C266,302.6,277.3,300.3,281.8,304.7 M236.2,318.1
			c-7-13.5-28-22.2-37.6-5.4C207.5,321.6,229.7,315.2,236.2,318.1 M394.5,304.7c-4.7,1.5-15.8-3.2-16.1,2.7
			C381.8,311.1,394.4,312.1,394.5,304.7 M249.6,328.9c10.8,5.2,20.3-3.9,24.2-13.4c-7.3,1.9-5.4-5.3-10.7-5.4
			C256.8,314.6,254.4,323,249.6,328.9 M413.3,334.2c-12.4-13.5-31.1-20.8-56.3-21.5c-7.8,18.7-12.4,24-16.1,45.6
			c14.5,1.1,26.7-0.1,34.9-5.4c0.8,5.3-3.6,5.3-5.3,8.1c8.2,1.9,9.8-2.7,16.1-2.7C381.5,348.4,404.3,345.1,413.3,334.2 M509.9,347.7
			c4.2-4.8,7.5-10.3,18.8-8.1c-2.8-12.8,17.4-16.4,8.1-26.8c-17.2,25.4-64.1,2.3-83.2,10.7c5.6,1.6,17.6-3.3,18.8,2.7
			c-14-0.6-26.8,0-37.6,2.7c0.9,6.3,3.2,11.1,5.4,16.1c11.8,2.8,8.8-9.1,18.8-8.1c-2.9,7.9-10.8,10.7-13.4,18.8
			c-4.7-3.4-7-9.1-16.1-8c3.4,21.7-19.6,5-24.2,21.5c11.4-0.6,17.3,4.2,24.2,8c-13.9,1.4-17.4-7.6-32.2-5.4
			c5.4,12.5,8.9,14.9,13.4,24.2c3.9-6.7,20.9-12,32.2-18.8c-0.3-10.4-7.9-13.6-13.4-18.8c4.7,0.2,8.3-0.6,10.7-2.7
			c-6.5,7.3,8.3,9.5,5.4,21.5h13.4c-0.7-14.9,3.2-1.6,10.7-2.7c5.7-10.5,20.7-25.7,32.2-21.5c-2,8.7-17.3,4.2-18.8,13.4
			c3,3-4.3,3.2,0,13.4c9.9-1.9,11.5,4.6,21.5,2.7c3-8.7,7.2-16,10.7-24.2c-2.4-0.8-13.6-5.4-5.4-8.1
			C515.2,356.7,515.2,350.1,509.9,347.7 M421.3,326.2c-13.1,4.9-13.8-16.4-21.5-8C402.9,322.7,423.1,334.2,421.3,326.2 M209.3,326.2
			c7.2,6.2,17.2,9.6,29.5,10.7c-0.1-3.7,1.3-5.9,2.7-8C231.9,323.6,218.7,318.3,209.3,326.2 M115.4,331.5c3.4,1.1,5.5,3.5,5.4,8
			c10.4,4.2,19.4-15.7,13.4-10.7C131,333.5,125.4,320.1,115.4,331.5 M281.8,339.6c7.5-0.5,11.4-4.7,10.7-13.4
			C282.6,324.3,285.8,335.6,281.8,339.6 M139.5,345c9-3.6,11.5-13.5,21.5-16.1C148.2,328.6,143.3,336.2,139.5,345 M147.6,350.3
			c6.2,8.1,11.4,1.6,21.5,0c3.2-8-11.6-11.3-5.4-13.4c10.3-0.7,11.3,16.8,8.1,21.5c23.7-0.4,31.6-16.7,53.7-18.8
			C201.4,338.2,156.5,322.2,147.6,350.3 M265.7,353c1.6,6.4-3.4,19.5,2.7,21.5c0.8-7.3,1.1-19.2,2.7-32.2
			c-8.4-8.8-17.4-0.3-26.9-8.1C247.5,344.4,260.3,345,265.7,353 M389.1,366.4c14.5,3.8,14.2-7.3,24.1-8.1c-5.6-9.9,3-10.3,8.1-16.1
			C405.4,345.1,398.3,356.9,389.1,366.4 M539.4,401.3c17.8-24.3-15.8-37.4-10.7-59c-8.3-3.5-15.2,7.6-8,10.7
			c0.3-3.3,0.8-6.4,5.4-5.4c-5.8,12.1-12.4,23.3-16.1,37.6C528.7,386.1,514.4,400.5,539.4,401.3 M174.4,382.5
			c-4.8,0.8-0.2-10.4,5.4-8.1c4.4,6.8,9.1,9.5,21.5,13.4c0.8-9.2,9.3-16.4,0-21.5c1.9,4.4-12.6,4.4-10.7,0
			c17.1-5.5,32.5-10.6,37.6-21.5c-9.3,2-14.3,8.2-24.1,2.7c-3.6,10.6-20.4,19.7-32.2,13.4c1.6,10.5-2.3,15.6-5.4,21.5h5.4
			C171.7,384,173.9,385.6,174.4,382.5 M142.2,355.7c-0.6,3.8-4.4,4.5-5.4,8.1c8.5-1.3,6.1,8.2,16.1,5.4c1.1-15.5-9.6-19-21.5-21.5
			c0.6,5.1-3,5.9-2.7,10.7C137.2,362.9,139.8,348.4,142.2,355.7 M241.5,406.7c2.2,7.6-3.8,7-2.7,13.4c10-2.8,5.3,9,10.7,10.7
			c0.7-5.6,11.9-0.7,10.7-8.1c-1.7-6.6-0.5-49.4-2.7-67.1c-9.1-1.6-14.1-7.4-24.2-8c-4.3,12-14.3,19.5-24.2,18.8
			c1.3,14.7-6.6,20.3-10.7,29.5c5.1,5,6.8,0.3,13.4,0c0.1,3.7-1.3,5.9-2.7,8c6.7,3.5,8.4-10.6,10.7-2.7c-1.3,3.2-2.9,6.1-5.4,8
			c-9.8-5.4-20.6-9.8-24.2-21.5c-11.6-1.8-16.6,3.1-21.5,8c16,5.5,22.2,20.8,40.2,24.2C209.9,399.7,235.4,423,241.5,406.7
			 M102,358.4c0.6,5.1,15.7,9.1,18.8,2.7c-3.1-0.5-2.9-4.2-2.7-8.1C111,353.1,102.3,351.5,102,358.4 M161,377.2
			c-2-8.3,9.2-3.3,5.4-13.4c-3.2-0.4-7.6,0.5-8.1-2.7c6.1,0.8,10.1-0.6,10.7-5.4c-7.7-0.5-14.7-0.3-13.4,8.1
			C162.8,365.9,149.6,376.4,161,377.2 M359.6,371.8c-4.2,17.1,27.2,13.1,24.2,0C372.8,369.2,372.9,372.1,359.6,371.8 M276.4,398.7
			c1.3-10.3,19.1-4.1,21.5-13.4c-3.1-0.4-2.9-4.2-2.7-8.1c-7.6,2.2-6.9-3.8-13.4-2.7C280,380.9,269.7,392.6,276.4,398.7
			 M144.9,409.4c1.5-3.9,4.2-6.5,8.1-8c-4.6-14.2-18.5-19.1-32.2-24.2C125.4,391.3,136.2,399.3,144.9,409.4 M346.2,398.7
			c8.8-0.1,10.3-7.6,10.7-16.1C344.5,368.3,335.7,392,346.2,398.7 M359.6,398.7c13.5-0.7,18.4-5.8,21.5-10.7
			C370.7,388.2,356.4,384.7,359.6,398.7 M394.5,398.7c1.1-5.1,7.7-4.9,5.4-13.4c-8.5,1.3-9.5-4.8-18.8-2.7
			C382.8,390.7,385.3,398,394.5,398.7 M499.2,393.3C469.2,380,477.1,398.2,499.2,393.3 M273.7,412.1c12-4.9,27.6-6.4,29.5-21.5
			C291.5,395.8,274.2,395.5,273.7,412.1 M359.6,404c-1.9,16.7,14.7,21.5,26.9,16.1c-4.3-10.3-4.3-3.2,0-13.4
			c-7.7,3.7-13.6-7.3-16.1,0c3.4,1.1,5.5,3.5,5.3,8c-2.7,0-3.2,2.2-5.3,2.7c0.1-3.4,3.4-3.7,2.7-8
			C364.8,411.4,369.8,400.1,359.6,404 M515.3,417.4c12.9,2.4,9.6,8.7,21.5,8.1c-2-8.2,4.6-7.9,2.7-16.1c-5.6-4.2-17.8-1.9-24.2-5.4
			V417.4z M169.1,484.5c16.7-7.2,19.6-12,32.2-21.5c-6.1-5.2-22.5,0-24.1-2.7c10.4-11.4,26,6.3,34.9-5.4
			c-5.9-26.3-29.2-35.2-48.3-48.3C164.2,434.7,168.1,454.6,169.1,484.5 M324.7,433.5c9,1.8,9.8-4.5,10.7-10.7
			c-5.1,0.6-5.9-3-10.7-2.7V433.5z M230.8,433.5c7,0.8,11.5-1,10.7-8.1C236.9,420.6,231,426.3,230.8,433.5 M322,438.9v26.8
			c13.2-4,21.1-25.2,13.4-29.5C335.9,442,326,437.4,322,438.9 M230.8,476.5c14.9-0.1,4.6-19.2,24.2-13.4
			c-3.5-9.9-14.1-12.7-24.2-16.1c2.2,14.3-21,4.5-18.8,29.5c3.7-0.1,5.9,1.3,8,2.7C223,466.1,225.6,476.5,230.8,476.5 M276.4,481.8
			c1.6,2.7,0.2,24.3,18.8,24.1c2.5-15.6,6.6-40.2-5.4-48.3C288.4,468.7,281.4,474.3,276.4,481.8 M246.9,489.9c5-2.6,9,8,10.7,0
			c-7.8-1.2,2.4-20.3-5.4-21.5C247.7,478.6,249.9,481.5,246.9,489.9 M233.5,479.2c-1.8,7.2,5.5,5.2,8,8c-0.2-4.7,0.6-8.3,2.7-10.7
			C239.5,476.3,235.9,477.1,233.5,479.2 M246.9,495.3c6.6,11.8-0.5,20.6,8.1,29.5c1.1-3.4,3.5-5.5,8-5.4
			C260.6,508.3,261.9,493.6,246.9,495.3 M206.6,508.7c-3.5-4.3-11.8-17.6-16.1-5.4C198.5,501,203.8,514.8,206.6,508.7 M206.6,503.3
			c4,4.3,15.3,3.9,13.4-5.3C215.3,499.4,208.9,499.3,206.6,503.3 M220.1,516.7c8.6-0.4,20.5,2.6,18.8-8c-10.2,5.8-5.5-5.4-18.8-2.7
			V516.7z M292.5,538.2c3.4-4.8,5.2-25.1,0-29.5c-2.3,7.9-4-6.2-10.7-2.7C283.3,518.8,286.8,529.6,292.5,538.2 M246.9,519.4
			c-14.8,1.2-48.4,2.4-21.5,8.1h-16.1c-0.4,6.7,4.2,8.3,5.4,13.4c6.7,3.6,8.4-10.6,10.7-2.7c-0.4,3.2-4.8,6.1,0,8
			c4.1-6.5,18.5-0.9,21.5,2.7c-9.6,2.2-13-6-18.8,0c2.9,19.5,16.1,28.7,32.2,34.9c3.7-8.5-17.6-5.2-8.1-10.7
			C273.4,568.1,262.6,530.5,246.9,519.4 M252.3,583.8c2.2,17.5,12.5,26.8,21.5,37.6C276.1,599.3,269,586.8,252.3,583.8 M257.6,530.2
			c6.2,1.8,7.2,8.9,13.4,10.7c-1.5-4.8-1.4-11.1-5.4-13.4C266.5,535.8,257.9,520.6,257.6,530.2 M163.7,554.3
			c10.5,8.1-8.9,23.1,0,29.5c4.8-12.2,17.9-16.1,16.1-34.9C174.8,543.8,165.9,548.6,163.7,554.3 M271.1,570.4
			c14.3,0.7,4.4-19.7,0-24.2V570.4z M179.8,586.5c-1.5-13.1,10-11,2.7-26.8C181.7,567.1,171.5,578.9,179.8,586.5"/>
	</g>
</g>
</svg>
