<?xml version="1.0" encoding="utf-8"?>
<!-- Generator: Adobe Illustrator 19.1.0, SVG Export Plug-In . SVG Version: 6.00 Build 0)  -->
<svg version="1.1" id="Layer_1" xmlns="http://www.w3.org/2000/svg" xmlns:xlink="http://www.w3.org/1999/xlink" x="0px" y="0px"
	 viewBox="0 0 100 74.2" style="enable-background:new 0 0 100 74.2;" xml:space="preserve">
<style type="text/css">
	.st0{fill:none;stroke:#7A6A5C;stroke-miterlimit:10;}
	.st1{fill:none;stroke:#7A6A5C;stroke-width:3;stroke-miterlimit:10;}
</style>
<path class="st0" d="M85,55H15V13c0-1.1,0.9-2,2-2h66c1.1,0,2,0.9,2,2V55z"/>
<path class="st0" d="M90.5,61h-81c-1.1,0-2-0.9-2-2v-4h85v4C92.5,60.1,91.6,61,90.5,61z"/>
<rect x="19" y="15" class="st0" width="62" height="36"/>
<path class="st0" d="M58,57H42c-1.1,0-2-0.9-2-2v0h20v0C60,56.1,59.1,57,58,57z"/>
<rect x="19" y="15" class="st0" width="62" height="4"/>
<path class="st1" d="M28,24.5h15H28z"/>
<path class="st0" d="M28,28.5h20H28z"/>
<path class="st0" d="M28,31.5h20H28z"/>
<path class="st0" d="M28,34.5h20H28z"/>
<path class="st0" d="M28,37.5h20H28z"/>
<path class="st0" d="M28,40.5h20H28z"/>
<path class="st0" d="M28,43.5h20H28z"/>
<path class="st0" d="M28,46.5h20H28z"/>
<polygon class="st0" points="70.5,33.2 70.5,37.5 68.5,40.6 64.5,43.2 64.5,43.5 63,43.5 62.6,43.2 60,42.8 57.3,40.6 57.1,36.2 
	58.4,32.8 59.3,35.7 62.4,30.3 62,28.4 63,24.2 64.6,26.4 65.5,28.9 67,32.6 68.4,30 69.5,32.5 "/>
<polygon class="st0" points="72.4,40.3 71.9,42.5 66.8,45 64.5,44.7 64.5,43.2 68.5,40.6 70.2,39.5 "/>
<polygon class="st0" points="63.9,44 63.5,45 57.1,46.1 55.2,43.6 56,42.3 60,42.8 62.6,43.2 63,43.5 "/>
<polygon class="st0" points="63.8,42.7 67.4,39.5 67.8,37.5 65.4,35.1 63.9,33 62.8,35.9 60.6,38.5 61.1,41 "/>
</svg>
