<?xml version="1.0" encoding="utf-8"?>
<!-- Generator: Adobe Illustrator 19.1.0, SVG Export Plug-In . SVG Version: 6.00 Build 0)  -->
<svg version="1.1" xmlns="http://www.w3.org/2000/svg" xmlns:xlink="http://www.w3.org/1999/xlink" x="0px" y="0px"
	 viewBox="0 0 960 560" style="enable-background:new 0 0 960 560;" xml:space="preserve">
<style type="text/css">
	.st0{fill:#4C443D;}
	.st1{display:none;}
	.st2{display:inline;fill:#9DE3FC;}
	.st3{display:inline;}
	.st4{fill:#666666;}
	.st5{fill:#D2F7F4;}
	.st6{fill:#BFBFBF;}
	.st7{fill:#B79A95;}
	.st8{fill:#DDDCDB;}
	.st9{fill:#C68981;}
	.st10{fill:#F2F2F2;}
	.st11{fill:#B5AAA0;}
	.st12{display:inline;fill:#8DC187;}
	.st13{display:inline;fill:#58934C;}
	.st14{display:inline;fill:#59AF52;}
	.st15{fill:#3CB713;}
	.st16{fill:#4FA34F;}
	.st17{fill:#198228;}
	.st18{fill:#188C0C;}
	.st19{fill:#F7BC46;}
	.st20{fill:#D8A955;}
	.st21{fill:#938367;}
	.st22{fill:#DEE0DA;}
	.st23{fill:#F75E2F;}
	.st24{fill:#EAB02F;}
	.st25{fill:#995628;}
	.st26{fill:#C69675;}
	.st27{fill:#774829;}
	.st28{display:inline;fill:#D6DDB8;}
	.st29{display:inline;fill:#428999;}
	.st30{fill:#428999;}
	.st31{fill:#6D614A;}
	.st32{fill:#937452;}
	.st33{fill:#82795B;}
	.st34{fill:#BCAF8B;}
	.st35{fill:#A3977B;}
	.st36{fill:#61A4AF;}
	.st37{opacity:0.55;fill:#E5BD9E;}
	.st38{fill:#422D12;}
	.st39{fill:#7F6337;}
	.st40{fill:none;}
	.st41{fill:#EFD6B4;}
	.st42{font-family:'MyriadPro-Bold';}
	.st43{font-size:21.3223px;}
</style>
<symbol  id="BoilerCamp" viewBox="-150 -150 300 300">
	<path class="st0" d="M56,35h-4.9l0.4,8.5c0.3,6.8-5.2,12.5-12,12.5h-0.3c0.5,1.2,0.8,2.6,0.8,4v16c0,5.5-4.5,10-10,10h-60
		c-5.5,0-10-4.5-10-10V60c0-1.4,0.3-2.8,0.8-4h-0.3c-6.8,0-12.3-5.7-12-12.5l0.4-8.5H-56c-5.5,0-10-4.5-10-10v-41
		c0-5.5,4.5-10,10-10h10v-14c0-5.5,4.5-10,10-10h6v-6h-6c-5.5,0-10-4.5-10-10v-10c0-5.5,4.5-10,10-10h72c5.5,0,10,4.5,10,10v10
		c0,5.5-4.5,10-10,10h-6v6h6c5.5,0,10,4.5,10,10v14h10c5.5,0,10,4.5,10,10v41C66,30.5,61.5,35,56,35z M-30-80h-6c-2.2,0-4,1.8-4,4
		v10c0,2.2,1.8,4,4,4h6V-80z M20,80h10c2.2,0,4-1.8,4-4V60c0-2.2-1.8-4-4-4H20V80z M-14,80h28V56h-28V80z M-14,50h28V16h-28V50z
		 M-34,76c0,2.2,1.8,4,4,4h10V56h-10c-2.2,0-4,1.8-4,4V76z M-46-20h-10c-2.2,0-4,1.8-4,4v41c0,2.2,1.8,4,4,4h5.5
		c0.8-3.6,2.3-6.9,4.5-9.7V-20z M-44.3,29c-0.4,1.4-0.6,2.8-0.7,4.2l-0.1,1.8l-0.4,8.7c-0.1,1.7,0.5,3.2,1.7,4.4s2.7,1.8,4.3,1.8
		H-20V16h-7c-1,0-2,0.1-3,0.2c-2.1,0.4-4.2,1.1-6,2.2c-1.5,0.8-2.8,1.9-4,3.1C-42,23.6-43.5,26.1-44.3,29z M-7.4-71L-24-78.4v14.8
		L-7.4-71z M-12.9-62h25.7L0-67.7L-12.9-62z M-12.9-80L0-74.3L12.9-80H-12.9z M24-78.4L7.4-71L24-63.6V-78.4z M24-56h-48v6h48V-56z
		 M36-62c2.2,0,4-1.8,4-4v-10c0-2.2-1.8-4-4-4h-6v18H36z M40-40c0-2.2-1.8-4-4-4h-72c-2.2,0-4,1.8-4,4v53.8c1.3-0.8,2.6-1.5,4-2.1
		c1.9-0.8,3.9-1.3,6-1.5c1-0.1,2-0.2,3-0.2h7V4c0-1.7,1.3-3,3-3c1.7,0,3,1.3,3,3v6h28V4c0-1.7,1.3-3,3-3c1.7,0,3,1.3,3,3v6h7
		c1,0,2,0.1,3,0.2c2.1,0.2,4.1,0.8,6,1.5c1.4,0.6,2.7,1.3,4,2.1V-40z M45,35L45,33.2c-0.1-1.5-0.3-2.9-0.7-4.2
		c-0.8-2.8-2.3-5.4-4.3-7.5c-1.2-1.2-2.5-2.3-4-3.1c-1.8-1-3.8-1.8-6-2.1c-1-0.2-2-0.2-3-0.2h-7v34h19.2c1.7,0,3.3-0.7,4.4-1.8
		c1.2-1.2,1.8-2.8,1.7-4.4L45,35z M60-16c0-2.2-1.8-4-4-4H46v39.3c2.2,2.8,3.7,6.1,4.5,9.7H56c2.2,0,4-1.8,4-4V-16z"/>
	<path class="st0" d="M6,28c0-3.3-2.7-6-6-6s-6,2.7-6,6s2.7,6,6,6S6,31.3,6,28z"/>
	<g>
		<path class="st0" d="M15.1-32.8l-1.8-1.8c-0.7-0.7-1.9-0.7-2.6,0l-7.2,7.2c-0.7,0.7-0.7,1.9,0,2.6l1.8,1.7c0.7,0.7,1.9,0.7,2.6,0
			l7.2-7.2C15.8-30.9,15.8-32,15.1-32.8z"/>
		<path class="st0" d="M-4.2-8.3c-0.7-0.7-0.7-1.9,0-2.6l0.7-0.7c0.7-0.7,0.7-1.9,0-2.6l-1.8-1.7c-0.7-0.7-1.9-0.7-2.6,0l-0.7,0.7
			c-0.7,0.7-1.9,0.7-2.6,0l-1.8-1.8c-0.7-0.7-1.9-0.7-2.6,0l-3.9,3.9c-0.7,0.7-0.7,1.9,0,2.6l6.9,6.9c0.3,0.3,0.8,0.6,1.3,0.6h7.2
			c0.5,0,1-0.2,1.3-0.6l0.3-0.3c0.7-0.7,0.7-1.9,0-2.6L-4.2-8.3z"/>
		<path class="st0" d="M19.5-13.1L15.5-17c-0.7-0.7-1.9-0.7-2.6,0l-1.8,1.8c-0.7,0.7-1.9,0.7-2.6,0l-19.2-19.2
			c-0.7-0.7-1.9-0.7-2.6,0l-1.8,1.8c-0.7,0.7-0.7,1.9,0,2.6L4.2-10.9c0.7,0.7,0.7,1.9,0,2.6L2.4-6.5c-0.7,0.7-0.7,1.9,0,2.6l0.3,0.4
			C3.1-3.2,3.6-3,4.1-3h7.2c0.5,0,1-0.2,1.3-0.6l6.9-6.9C20.2-11.2,20.2-12.4,19.5-13.1z"/>
	</g>
	<path class="st0" d="M0,139c37.1,0,72-14.5,98.3-40.7C124.5,72,139,37.1,139,0s-14.5-72-40.7-98.3C72-124.5,37.1-139,0-139
		s-72,14.5-98.3,40.7C-124.5-72-139-37.1-139,0s14.5,72,40.7,98.3C-72,124.5-37.1,139,0,139 M0,150c-82.8,0-150-67.2-150-150
		S-82.8-150,0-150S150-82.8,150,0S82.8,150,0,150L0,150z"/>
	<g>
		<path class="st0" d="M-100,22l-22.9,7.1l2.7,8.5c1.3,4.1,3.7,6.3,8.1,5c2.1-0.6,3.5-1.8,3.9-4l0.1,0c1.5,3.2,4.1,3.9,7.3,2.9
			c4.8-1.5,5.1-6.1,3.8-10.3L-100,22z M-112,32.3l0.2,0.7c0.5,1.6,0.7,3.3-1.2,3.9c-2.1,0.7-2.8-1.2-3.3-2.8l-0.1-0.4L-112,32.3z
			 M-102.7,29.4l0.2,0.8c0.6,1.8,1.6,4.7-1,5.5c-2.8,0.9-3.4-2.2-4-4.1l-0.2-0.6L-102.7,29.4z"/>
		<path class="st0" d="M-85.1,77.6c6.3-4.5,7.5-12.3,3-18.5c-4.5-6.2-12.2-7.6-18.5-3c-5.9,4.3-6.3,12.4-2.2,18
			C-98.8,79.7-91,81.9-85.1,77.6z M-96.8,61.3c3.4-2.4,7.6-1.7,9.8,1.3c2.2,3,1.5,7.3-1.8,9.7c-2.7,1.9-6.9,1.2-9.1-1.8
			C-100.1,67.5-99.5,63.3-96.8,61.3z"/>
		<path class="st0" d="M-61.5,81.4l-4.9-3.9l-15.1,18.7l4.9,3.9L-61.5,81.4z"/>
		<path class="st0" d="M-47.9,95.9l6.7,3.4l2.4-4.7l-12.3-6.2l-10.8,21.4l5.6,2.8L-47.9,95.9z"/>
		<path class="st0" d="M-27,117.6l0.9-3.9l6.9,1.5l1.2-5.2l-6.9-1.5l0.9-4l7.2,1.6l1.2-5.2l-13.3-3l-5.3,23.4l13.3,3l1.2-5.2
			L-27,117.6z"/>
		<path class="st0" d="M16.2,101.2l-7.8,0.4l-5.4,9.5l-0.1,0l-0.5-9.2l-6.2,0.3l1.3,24l9.3-0.5c4.7-0.3,8.2-2.7,7.9-7.8
			c-0.2-3.3-2.2-6.1-5.6-6.5L16.2,101.2z M3.2,115.1l0.6,0c2-0.1,4.3,0.2,4.5,2.8c0.1,2.6-2.1,3.1-4.2,3.2l-0.6,0L3.2,115.1z"/>
		<path class="st0" d="M47.3,108.3c-0.6,2-2.3,3.6-4.3,4.3c-3.6,1.3-7-0.6-8.2-4.2c-1.3-3.6,0.3-7,4-8.3c1.9-0.7,4.2-0.4,5.9,0.6
			l-2.5-7.1c-2.2,0.1-3.7,0.1-5.6,0.8c-3.2,1.1-5.7,3.4-7.3,6.3c-1.7,3.1-1.8,6.5-0.6,9.8c1.1,3.1,3.3,5.7,6.3,7.1
			c3,1.5,6.7,1.8,9.9,0.6c1.9-0.7,3.5-1.7,5-3L47.3,108.3z"/>
		<path class="st0" d="M60,87.5l-3.8-2.3l-5.3,4l21.8,13.7l5.5-4.1L71,74.1l-5.3,4l1.3,4.3L60,87.5z M71,94.8L71,94.8l-6.7-4.5
			l4.2-3.1L71,94.8z"/>
		<path class="st0" d="M99.5,77.9l3.4-5.1l-8.1-11.1l13.6,2.7l3.4-5.2L93.6,43l-3.4,5.2l10.6,9l0,0.1L86,54.6l-1.4,2.1l8.6,12.2
			l0,0.1L80.5,63l-3.4,5.2L99.5,77.9z"/>
		<path class="st0" d="M120.1,38.6l2.3-9.3c1.2-5-0.2-9-5.6-10.4c-5.5-1.4-8.6,1-10,6.3l-0.9,3.4l-7.7-1.9l-1.5,6.1L120.1,38.6z
			 M110.9,29.9l0.3-1c0.5-2.2,1.1-4.4,3.9-3.7c2.9,0.7,2.5,2.7,1.9,5.1l-0.3,1L110.9,29.9z"/>
	</g>
	<path class="st0" d="M-110,0c0-3.3-2.7-6-6-6c-3.3,0-6,2.7-6,6s2.7,6,6,6C-112.7,6-110,3.3-110,0z"/>
	<path class="st0" d="M122,0c0-3.3-2.7-6-6-6c-3.3,0-6,2.7-6,6s2.7,6,6,6C119.3,6,122,3.3,122,0z"/>
	<g>
		<path class="st0" d="M113.9-25.5c-0.8,0-1.6,0.3-2.1,0.9c-0.6,0.6-0.9,1.3-0.9,2.1s0.3,1.6,0.9,2.1c1.1,1.1,3.1,1.1,4.2,0
			c0.6-0.6,0.9-1.3,0.9-2.1s-0.3-1.6-0.9-2.1C115.5-25.2,114.7-25.5,113.9-25.5z"/>
		<path class="st0" d="M-6-119c-1.7,0-2.9,1.3-2.9,3l0,0c0.1,1.7,1.5,2.8,3.2,2.8l0,0c1.7-0.1,2.9-1.4,2.8-3l0,0
			c-0.1-1.6-1.4-2.7-3-2.7l0,0C-5.9-119-6-119-6-119z M3-116.5c-0.1,1.7,1.2,3.1,2.8,3.2l0,0c1.6,0.1,3.1-1.2,3.1-2.8l0,0
			c0.1-1.7-1.2-3.1-2.8-3.2l0,0c-0.1,0-0.1,0-0.2,0l0,0C4.4-119.3,3-118.1,3-116.5z M-18.1-118.1c-1.6,0.2-2.8,1.8-2.5,3.4l0,0
			c0.2,1.6,1.8,2.8,3.4,2.5l0,0c1.6-0.3,2.8-1.8,2.5-3.4l0,0c-0.2-1.5-1.5-2.5-3-2.5l0,0C-17.8-118.1-18-118.1-18.1-118.1z
			 M14.8-115.6c-0.3,1.6,0.9,3.2,2.5,3.4l0,0c1.6,0.3,3.2-0.9,3.4-2.5l0,0c0.2-1.6-0.9-3.2-2.5-3.4l0,0l0,0l0,0c-0.2,0-0.3,0-0.5,0
			l0,0C16.3-118.1,15-117.1,14.8-115.6z M-30-115.6L-30-115.6L-30-115.6c-1.6,0.4-2.6,2.1-2.1,3.7l0,0c0.4,1.6,2.1,2.6,3.7,2.1l0,0
			c1.6-0.4,2.6-2.1,2.1-3.7l0,0c-0.4-1.3-1.6-2.2-2.9-2.2l0,0C-29.5-115.7-29.8-115.7-30-115.6z M26.6-113.5
			c-0.4,1.6,0.4,3.2,2.4,3.7v0c1,0.4,3-0.5,3.4-2.1l0,0c0.4-1.6-0.6-3.2-2.2-3.7l0,0c-0.3-0.1-0.5-0.1-0.7-0.1l0,0
			C28.2-115.7,27-114.8,26.6-113.5z M-41.6-112c-1.5,0.6-2.3,2.3-1.8,3.9l0,0c0.6,1.5,2.3,2.3,3.9,1.8l0,0c1.6-0.6,2.3-2.3,1.8-3.9
			l0,0c-0.5-1.2-1.6-2-2.8-2l0,0C-40.9-112.1-41.3-112.1-41.6-112z M37.8-110.2c-0.6,1.5,0.2,3.3,1.8,3.9l0,0
			c1.5,0.6,3.3-0.2,3.9-1.7l0,0c0.6-1.6-0.2-3.3-1.8-3.9l0,0c-0.4-0.1-0.7-0.2-1.1-0.2l0,0C39.4-112.1,38.3-111.4,37.8-110.2z
			 M-52.8-107.1L-52.8-107.1L-52.8-107.1c-1.5,0.7-2.1,2.5-1.3,4l0,0c0.7,1.5,2.5,2.1,4,1.3l0,0c1.5-0.7,2.1-2.5,1.4-4l0,0
			c-0.5-1-1.6-1.7-2.7-1.7l0,0C-51.9-107.4-52.3-107.3-52.8-107.1z M48.8-105.7c-0.8,1.5-0.1,3.3,1.3,4l0,0c1.5,0.7,3.3,0.1,4-1.3
			l0,0c0.7-1.5,0.1-3.3-1.3-4l0,0l0,0l0,0c-0.4-0.2-0.9-0.3-1.3-0.3l0,0C50.4-107.4,49.3-106.8,48.8-105.7z M-63.3-101.1
			L-63.3-101.1L-63.3-101.1c-1.4,0.9-1.8,2.7-0.9,4.1l0,0c0.9,1.4,2.7,1.8,4.1,0.9l0,0c1.4-0.9,1.8-2.7,0.9-4.1l0,0
			c-0.6-0.9-1.6-1.4-2.5-1.4l0,0C-62.3-101.6-62.8-101.4-63.3-101.1z M59.2-100.2c-0.9,1.4-0.5,3.3,0.9,4.1l0,0
			c1.4,0.9,3.2,0.5,4.1-0.9l0,0c0.9-1.4,0.5-3.3-0.9-4.1l0,0c-0.5-0.3-1-0.5-1.6-0.5l0,0C60.8-101.5,59.8-101.1,59.2-100.2z
			 M-73.3-94.1c-1.3,1-1.5,2.9-0.5,4.2l0,0c1,1.3,2.9,1.5,4.2,0.5l0,0c1.3-1,1.5-2.9,0.5-4.2l0,0c-0.6-0.8-1.5-1.2-2.4-1.2l0,0
			C-72.1-94.7-72.7-94.5-73.3-94.1z M69.1-93.6c-1,1.3-0.8,3.2,0.5,4.2l0,0c1.3,1,3.2,0.8,4.2-0.5l0,0c1-1.3,0.8-3.2-0.5-4.2l0,0
			c-0.6-0.4-1.2-0.6-1.9-0.6l0,0C70.5-94.7,69.7-94.3,69.1-93.6z M-82.4-86.1c-1.2,1.2-1.2,3.1-0.1,4.2l0,0c1.1,1.2,3.1,1.2,4.2,0.1
			l0,0c1.2-1.2,1.2-3,0.1-4.2l0,0c-0.6-0.6-1.4-0.9-2.2-0.9l0,0C-81.1-87-81.8-86.7-82.4-86.1z M78.2-86c-1.1,1.2-1.1,3.1,0.1,4.2
			l0,0c1.2,1.1,3.1,1.1,4.2-0.1l0,0c1.1-1.2,1.1-3.1-0.1-4.2l0,0c-0.6-0.6-1.3-0.8-2.1-0.8l0,0C79.6-86.9,78.8-86.6,78.2-86z
			 M-90.7-77.3c-1.1,1.3-0.9,3.2,0.3,4.2l0,0c1.3,1.1,3.2,0.9,4.2-0.3l0,0c1.1-1.3,0.9-3.2-0.3-4.2l0,0c-0.6-0.5-1.2-0.7-1.9-0.7
			l0,0C-89.3-78.3-90.1-78-90.7-77.3z M86.5-77.6c-1.3,1.1-1.4,3-0.4,4.2l0,0c1.1,1.3,3,1.4,4.2,0.3l0,0c1.3-1.1,1.4-3,0.3-4.2l0,0
			l0,0l0,0c-0.6-0.7-1.4-1.1-2.3-1.1l0,0C87.8-78.3,87.1-78.1,86.5-77.6z M-98.1-67.6c-0.9,1.4-0.6,3.2,0.8,4.2l0,0
			c1.4,0.9,3.2,0.6,4.2-0.8l0,0c0.9-1.4,0.6-3.2-0.8-4.2l0,0c-0.5-0.4-1.1-0.5-1.7-0.5l0,0C-96.6-68.9-97.5-68.5-98.1-67.6z
			 M94-68.4c-1.4,0.9-1.7,2.8-0.8,4.2l0,0c0.9,1.4,2.8,1.7,4.2,0.8l0,0c1.4-0.9,1.7-2.8,0.8-4.2l0,0c-0.6-0.8-1.5-1.3-2.5-1.3l0,0
			C95.1-68.9,94.5-68.7,94-68.4z M-104.5-57.3c-0.8,1.5-0.3,3.3,1.2,4.1l0,0c1.4,0.8,3.3,0.3,4.1-1.2l0,0c0.8-1.5,0.3-3.3-1.2-4.1
			l0,0c-0.5-0.2-1-0.4-1.4-0.4l0,0C-102.9-58.8-103.9-58.3-104.5-57.3z M100.4-58.4c-1.4,0.8-2,2.6-1.2,4.1l0,0
			c0.8,1.4,2.6,2,4.1,1.2l0,0c1.5-0.8,2-2.6,1.2-4.1l0,0c-0.5-1-1.6-1.6-2.6-1.6l0,0C101.4-58.8,100.9-58.7,100.4-58.4z
			 M-109.8-46.3c-0.6,1.5,0.1,3.3,1.6,3.9l0,0c1.5,0.6,3.3-0.1,3.9-1.6l0,0c0.6-1.5-0.1-3.3-1.6-3.9l0,0c-0.4-0.2-0.8-0.2-1.2-0.2
			l0,0C-108.2-48.2-109.3-47.5-109.8-46.3z M105.9-47.9c-1.5,0.6-2.2,2.4-1.6,3.9l0,0c0.6,1.5,2.4,2.2,3.9,1.6l0,0
			c1.5-0.6,2.2-2.4,1.6-3.9l0,0l0,0l0,0c-0.5-1.2-1.6-1.8-2.8-1.8l0,0C106.6-48.1,106.2-48.1,105.9-47.9z M-113.9-34.9
			c-0.5,1.6,0.4,3.3,2,3.8l0,0c1.6,0.5,3.3-0.4,3.7-2l0,0c0.5-1.6-0.4-3.3-2-3.8l0,0c-0.3-0.1-0.6-0.1-0.9-0.1l0,0
			C-112.3-37.1-113.5-36.2-113.9-34.9z M110.2-36.9c-1.6,0.5-2.5,2.2-2,3.8l0,0c0.5,1.6,2.2,2.5,3.8,2l0,0c1.6-0.5,2.5-2.2,2-3.7
			l0,0l0,0l0,0c-0.4-1.3-1.6-2.1-2.9-2.1l0,0C110.8-37,110.5-37,110.2-36.9z"/>
		<path class="st0" d="M-113.9-25.5c-0.8,0-1.6,0.3-2.1,0.9c-0.6,0.6-0.9,1.3-0.9,2.1s0.3,1.6,0.9,2.1c1.1,1.1,3.1,1.1,4.2,0
			c0.6-0.6,0.9-1.3,0.9-2.1s-0.3-1.6-0.9-2.1C-112.4-25.2-113.1-25.5-113.9-25.5z"/>
	</g>
</symbol>
<g id="BG" class="st1">
	<rect id="Sky" class="st2" width="960" height="560"/>
</g>
<g id="SKY" class="st1">
	<g id="Birds" class="st3">
		<polygon class="st4" points="324.7,191.4 319.2,196.6 310.7,194 319.3,194 		"/>
		<polygon class="st4" points="295,205.2 302,202.8 295,207.5 286,206.5 		"/>
	</g>
	<g id="Clouds" class="st3">
		<polygon class="st5" points="59,157.5 81,142.3 109,147 133,118 199,121.2 227,152 266,152 280,167 212,176 99,168.7 		"/>
		<g>
			<polygon class="st5" points="623,176 639,162 693,155 712,128 762,118 787,134 811,176 842,168 866,190 781,197 			"/>
		</g>
	</g>
</g>
<g id="FAR_LAND" class="st1">
	<g id="Fountain" class="st3">
		<path class="st6" d="M668,291v-17c0,0,20-12,20-48h8v65H668z"/>
		<path class="st6" d="M739,291v-17c0,0-20-12-20-48h-8v65H739z"/>
		<rect x="700" y="226" class="st6" width="7" height="65"/>
	</g>
	<g id="Bell_Tower" class="st3">
		<rect x="252" y="203" class="st7" width="21" height="66"/>
		<path class="st8" d="M273,269v42l-7-6.3v-25.5c0-1.8-1.8-3.1-3.6-3.1h0c-1.8,0-3.4,1.3-3.4,3.1v20l-7-6.1v-24H273z"/>
		<rect x="252" y="203" class="st9" width="6.5" height="66"/>
		<rect x="266.5" y="203" class="st9" width="6.5" height="66"/>
		<rect x="252" y="245.7" class="st8" width="21" height="1.7"/>
		<rect x="252" y="223.2" class="st8" width="21" height="1.7"/>
		<rect x="252" y="183.9" class="st8" width="21" height="19.1"/>
		<polygon class="st8" points="272.8,200.3 276,201.4 276,203 273,203 		"/>
		<polygon class="st8" points="252.1,200.3 249,201.4 249,203 252,203 		"/>
		<circle class="st10" cx="262.3" cy="192.5" r="5.9"/>
		<path class="st8" d="M252,165v19h21v-19H252z M267,184h-9v-9.2c0-2.4,2.1-4.4,4.5-4.4c2.4,0,4.5,2,4.5,4.4V184z"/>
		<rect x="256.6" y="174.5" class="st8" width="12.6" height="1.8"/>
		<path class="st11" d="M265,181.9h-4.6v-3.3c0-1.3,1-2.3,2.3-2.3l0,0c1.3,0,2.3,1,2.3,2.3V181.9z"/>
		<polygon class="st11" points="273.1,165 274.3,164 251,164 252,165 		"/>
		<polygon class="st11" points="274.3,164 262.9,139.9 251,164 		"/>
	</g>
	<polyline id="Hills" class="st12" points="960,295.5 881.9,283.6 771,286.3 650.8,279.7 507,255 404,253.5 280,290 138.2,275.7 
		20.2,303 1,310.7 1,560 960,560 960,296 	"/>
</g>
<g id="LAND" class="st1">
	<polygon id="Grass" class="st13" points="1,355 15.2,353.3 218.4,329.2 364.3,307.6 484.3,312.9 699,316.1 960,336.3 960,560 
		174,560 0,560 	"/>
	<polygon id="BG_Trees" class="st14" points="0.9,309.3 7.3,326.3 20,303 20,326 29,306.5 39.7,326 44.5,297.4 56.2,318.4 
		62.3,294.7 72,322.5 80.9,292.4 86,322.5 86,287 99.7,315 109,283 112.7,311.7 117,283 125.5,301.7 138.2,275.7 144.7,311.7 
		168,279 166.5,313.8 178,279.7 186,306.5 204,279.6 204,310 225,283 234.3,310.4 242,283 244.5,308.7 260,283.4 273,318.4 280,290 
		286,310.4 286,270 302.3,310.4 307.7,278.3 323,301.7 323,264 331,295.5 334.3,267.7 341.2,292.4 354,267.7 354,287 359.7,263.5 
		369,283 378,258.5 385.7,275.7 400.3,262.5 404,275.7 408.3,250.5 421.5,270.3 427,248 436.5,275.7 439,250.5 446,267.7 456,240.7 
		456,264 459,243.7 468.2,263.5 474.3,243.5 475.7,267.7 484.3,243.5 491,267.7 491,244 501,270.3 507,243.5 515.5,263.5 519.2,248 
		529,275.7 531.5,243.7 537.8,267.7 548,248 548,270 555,243.7 555,273 561,253.5 568,282.5 573,248 585.2,282.5 588.3,240.7 
		597.5,275.7 603.7,255 617.7,290 625.7,258.5 633,283.4 633,264 643,290 651,259.7 656,293 668,267.7 672.5,292.4 686,270.3 
		687.1,302.7 694,279 703,302.4 703,270 718.3,287.4 724,270.3 731,297.4 736.3,275.5 747.4,295.5 756.9,267.7 762,310.4 762,276 
		771,294.9 778,267.5 783,297.4 794.3,270.3 802.5,307 817.7,267.7 828.2,283 838,319.9 838,286 846,303.7 854,270.3 854,293 
		866,270.3 866,295 873,267.5 885,310.4 890.3,267.5 897,303.7 909.5,270.3 918.3,303.7 927.9,273 938,303.7 938,277 947,302.4 
		955.7,270.3 960,286.6 960,314.4 947,322.7 916.3,337.5 885,322.5 866,342.5 849,340 785,319.9 778,326 746.5,336.5 732.9,332.5 
		716.3,329.5 664.3,319.9 630,332.5 574.4,310.4 559.7,311.7 542,320.7 519.2,326 501,316 478,326 456,307 433.7,316 391,307 
		374.1,316 323.7,333 270.3,335 233.7,326 203,332.5 172.2,341.5 137.5,332.5 99.4,356.5 44,358 13.2,374.5 0,352 	"/>
	<g id="Small_Trees_Far" class="st3">
		<polygon class="st15" points="250.5,258.5 266.5,330 248.5,337.5 242,330 		"/>
		<polygon class="st15" points="150.5,262.5 166.5,334 148.5,341.5 142,334 		"/>
		<polygon class="st15" points="656.5,253.5 672.5,325 654.5,332.5 648,325 		"/>
		<polygon class="st15" points="464.5,243.5 480.5,315 462.5,322.5 456,315 		"/>
		<polygon class="st15" points="52.5,286.5 68.5,358 50.5,365.5 44,358 		"/>
		<polygon class="st15" points="786.5,267.5 802.5,339 784.5,346.5 778,339 		"/>
		<polygon class="st15" points="934.5,276.5 950.5,348 932.5,355.5 926,348 		"/>
		<polygon class="st15" points="121.5,275.5 137.5,347 119.5,354.5 113,347 		"/>
		<polygon class="st15" points="893.5,257.5 909.5,329 891.5,336.5 885,329 		"/>
		<polygon class="st15" points="89.5,296.5 105.5,368 87.5,375.5 81,368 		"/>
	</g>
	<g id="Small_Dark_Trees" class="st3">
		<polygon class="st16" points="59,374 69.7,294.7 85,369.3 72,380 		"/>
		<polygon class="st16" points="93,378 115.7,301.7 125,379.3 112,390 		"/>
		<polygon class="st16" points="125.5,365 130.3,292.4 151,367.3 138,378 		"/>
		<polygon class="st16" points="148,355 158.7,275.7 174,350.3 161,361 		"/>
		<polygon class="st16" points="165,384 174,301.7 191,379.3 178,390 		"/>
		<polygon class="st16" points="225,347 229.7,270.3 251,342.3 238,353 		"/>
		<polygon class="st16" points="260,347 265,267.7 286,342.3 273,353 		"/>
		<polygon class="st16" points="181,341 191,270.3 207,336.3 194,347 		"/>
		<polygon class="st16" points="331,334 341.7,254.7 357,329.3 344,340 		"/>
		<polygon class="st16" points="348.3,329 360.6,270.3 378,329.3 363.2,335 		"/>
		<polygon class="st16" points="378,316 391,248 404,311.3 391,318.4 		"/>
		<polygon class="st16" points="439,320 449.7,240.7 465,315.3 452,326 		"/>
		<polygon class="st16" points="465,347 475.7,267.7 491,342.3 478,353 		"/>
		<polygon class="st16" points="488,323 498.7,243.7 514,318.3 501,329 		"/>
		<polygon class="st16" points="529,334 539.7,254.7 555,329.3 542,340 		"/>
		<polygon class="st16" points="555,323 565.7,243.7 581,318.3 568,329 		"/>
		<polygon class="st16" points="630,341 640.7,261.7 656,340 646.3,353 		"/>
		<polygon class="st16" points="668,329 671.7,254.7 694,324.3 686.3,335 		"/>
		<polygon class="st16" points="698,339 715,259.7 724,334.3 711,345 		"/>
		<polygon class="st16" points="757,340.7 769.7,267.7 785,342.3 772,353 		"/>
		<polygon class="st16" points="731,347 741.7,267.7 757,342.3 751,353 		"/>
		<polygon class="st16" points="833,359 843.7,279.7 859,348.3 849.8,360.1 		"/>
		<polygon class="st16" points="869,347 879.7,267.7 890.3,345 876.3,353 		"/>
		<polygon class="st16" points="897,353 902,276.3 928,354.3 915,365 		"/>
		<polygon class="st16" points="934,347 944.7,267.7 960,342.3 947,353 		"/>
	</g>
	<g id="Small_Lite_Trees" class="st3">
		<polygon class="st15" points="9.5,306.5 25.5,378 7.5,385.5 1,378 		"/>
		<polygon class="st15" points="581.5,250.5 597.5,322 579.5,329.5 573,322 		"/>
		<polygon class="st15" points="374.5,263.5 390.5,335 372.5,342.5 366,335 		"/>
		<polygon class="st15" points="515.5,263.5 531.5,335 513.5,342.5 507,335 		"/>
		<polygon class="st15" points="694.5,286.5 710.5,358 692.5,365.5 686,358 		"/>
		<polygon class="st15" points="730.5,282.5 746.5,354 728.5,361.5 722,354 		"/>
		<polygon class="st15" points="862.5,293.5 878.5,365 860.5,372.5 854,365 		"/>
	</g>
	<g id="Big_Tree" class="st3">
		<g>
			<polygon class="st17" points="14,431 31,255 75,426 44.5,439.4 			"/>
			<polygon class="st17" points="178,399.4 213,236 237.9,392.9 199.9,409.4 			"/>
			<polygon class="st17" points="281,351 305.1,213 342,348 302,358 			"/>
			<polygon class="st17" points="391,362 425,215 452,357 421.5,370.4 			"/>
			<polygon class="st17" points="778,378.4 815.5,208 846,386 815.5,399.4 			"/>
			<polygon class="st17" points="892,405 922.5,268 953,400 922.5,413.4 			"/>
			<polygon class="st17" points="582,370 599,194 643,365 612.5,378.4 			"/>
		</g>
		<g>
			<polygon class="st18" points="31,256 44.5,440.4 75,427 			"/>
			<polygon class="st18" points="213,237 199.9,410.4 237.9,393.9 			"/>
			<polygon class="st18" points="305.1,214 302,359 342,349 			"/>
			<polygon class="st18" points="425,216 421.5,371.4 452,358 			"/>
			<polygon class="st18" points="599,195 612.5,379.4 643,366 			"/>
			<polygon class="st18" points="815,209 815,400 846,387 			"/>
			<polygon class="st18" points="922,269 922,414 953,401 			"/>
		</g>
	</g>
	<g id="Tent" class="st3">
		<polygon class="st19" points="85,415 100.5,372.8 113.5,418.8 98,415 		"/>
		<polygon class="st20" points="100.5,372.5 147,366 165.5,405 113.5,418.4 		"/>
		<polygon class="st21" points="100,373 100,415 98,415 		"/>
	</g>
	<g id="Flags" class="st3">
		<polygon class="st22" points="628.2,307.6 694,324.3 793,310.4 694,326 		"/>
		<g>
			<polygon class="st23" points="628.7,307.8 632,315.8 634.3,309.3 			"/>
			<polygon class="st24" points="641.2,311.2 638.8,318 636.3,309.8 			"/>
			<polygon class="st23" points="648.4,313.2 646,320.2 643,311.8 			"/>
			<polygon class="st24" points="655.4,315.2 652.9,322 650.4,313.8 			"/>
			<polygon class="st23" points="662.5,317.2 659.8,324 657.7,315.8 			"/>
			<polygon class="st24" points="671,319.6 668,326 665,317.9 			"/>
			<polygon class="st23" points="674.2,320.5 675.7,328.3 678.9,321.8 			"/>
			<polygon class="st24" points="682,322.6 683.1,330.6 686.7,324 			"/>
			<polygon class="st23" points="694,326 691.5,332.5 689.3,324.7 			"/>
			<polygon class="st24" points="697.2,325.5 700,332.8 701.8,324.8 			"/>
			<polygon class="st23" points="704.6,324.3 707.3,332.5 709,323.6 			"/>
			<polygon class="st24" points="712.6,323.1 714.6,329.8 716.5,322.4 			"/>
			<polygon class="st23" points="720.3,321.9 722.5,328.6 724.7,321.2 			"/>
			<polygon class="st24" points="727.8,320.7 728.9,327.4 731,320.1 			"/>
			<polygon class="st23" points="734.2,319.6 735.3,326.6 737.7,319.1 			"/>
			<polygon class="st24" points="740.4,318.7 741.9,324.9 743.7,318.1 			"/>
			<polygon class="st23" points="747,317.6 748.5,323.6 750.2,317.1 			"/>
			<polygon class="st24" points="753.3,316.8 755.3,322.4 756.5,316.1 			"/>
			<polygon class="st23" points="759.3,315.7 760.9,322.2 762.3,315.2 			"/>
			<polygon class="st24" points="766.6,314.5 767.2,320.4 768.8,314.2 			"/>
			<polygon class="st23" points="772.7,313.6 773.6,318.7 774.7,313.2 			"/>
			<polygon class="st24" points="777.5,312.8 778.7,317.3 779.6,312.5 			"/>
			<polygon class="st23" points="782.8,312 783.4,316 784.3,311.7 			"/>
			<polygon class="st24" points="787.4,311.2 788.4,314.9 789.4,310.9 			"/>
		</g>
	</g>
	<g id="Stumps" class="st3">
		<polygon class="st25" points="323.8,355.8 332.5,372.4 324.4,370.1 321,372.2 321,376 313.6,360.4 318,355.5 		"/>
		<polygon class="st26" points="321.2,375.8 326,377.5 332,375.4 332,372 324.4,370.1 321.2,372.2 		"/>
		<polygon class="st26" points="270.7,364 288,359.5 303,365.5 293.5,369.4 275,367.5 		"/>
		<polygon class="st25" points="303,365.5 304.3,371.5 308.8,373 299.5,374.3 290,376.7 274.5,375.2 268.3,371.1 265.7,370.2 
			269.5,368.5 270.7,364 275,367.5 293.5,369.4 		"/>
		<polygon class="st27" points="323.7,359.5 326.8,367.3 323.1,363.4 		"/>
		<polygon class="st27" points="318,360.4 321.2,365.8 321.5,369.4 320,365.8 		"/>
		<polygon class="st25" points="246.5,359.8 252,357.4 256.5,361.5 251.5,376.8 249,374 244,374 241.7,375.3 		"/>
		<polygon class="st26" points="251.5,376.8 249,374 244,374 241.7,375.3 242.5,378.2 246.6,380.3 250.2,379 		"/>
		<polygon class="st27" points="253.8,363 252,372.9 252,366 		"/>
		<polygon class="st27" points="249.1,361.5 248,369.4 246.5,370.5 		"/>
	</g>
</g>
<g id="SHORE" class="st1">
	<polygon id="Shore" class="st28" points="0,474.3 92,439.4 197,420 286.8,387 378,366 499,393 619,387 771,409.4 934,459 960,462 
		960,560 1,560 	"/>
	<rect y="502" class="st29" width="960" height="58"/>
</g>
<g id="WATER">
	<polygon id="Lake" class="st30" points="0,486.9 339,387 484.5,400 572.2,417 680.6,407 960,478 960,560 0,560 	"/>
	<g id="Pier">
		<polygon class="st31" points="733.5,402.4 707,446.3 647,442 702.5,397.4 		"/>
		<polygon class="st32" points="699,436 711.1,436 708.2,460.8 706.3,462.1 702.8,460 		"/>
		<polygon class="st32" points="644,431 654,431 652,452 648,453.3 645.7,452 		"/>
		<polygon class="st32" points="731,397 735,397 734.1,404.2 732.2,404.6 		"/>
		<polygon class="st32" points="701,392 704,392 703.4,397.5 701.8,397.9 		"/>
	</g>
	<g id="Canoe">
		<polygon class="st33" points="729,434 739,426.3 744.3,435.7 734.3,487.2 721.7,493.3 713,483 		"/>
		<polygon class="st34" points="730,435.4 737,431.2 742.2,436 731.5,482.8 725,478 716.8,481.2 		"/>
		<polygon class="st35" points="741.4,439.6 735.8,437.7 729,439 730,435.4 737,431.2 742.2,436 		"/>
		<polygon class="st33" points="727.5,444 733,442.8 740.1,445.1 739.7,447 733,447 726.9,446 		"/>
		<polygon class="st33" points="722.1,463 727,461.2 733,462 736.1,463 735.2,467 727,467 721.4,465.1 		"/>
		<polygon class="st35" points="738.4,453.3 731.6,450.8 725.2,452 727,446 733,447 740,447 		"/>
		<polygon class="st35" points="735.2,467 734,472 727,472 720.1,469.5 721.4,465.1 727,467 		"/>
		<g>
			<polygon class="st35" points="701,430.2 704,431.1 715,411.8 718.8,410.5 720.2,405 715,405 713.2,409 713.5,410.8 			"/>
			<polygon class="st35" points="709,429.6 712,428.7 710.5,412.1 712,410.8 712.6,406.4 706.6,406 707.1,412.1 708.2,412.8 			"/>
		</g>
	</g>
	<g id="Waves">
		<polygon class="st36" points="199,493.3 230,502 260,493.3 273,502 294,497.7 273,507 260,500.2 229,507 		"/>
		<polygon class="st36" points="266.5,517.7 286,525.7 303,517.7 321.7,525.7 341,521.7 321.7,530.3 303.8,524 286,530.3 		"/>
		<polygon class="st36" points="668.2,527.8 701.9,533.8 725.3,527.9 747,534 728,534 702.5,541 		"/>
		<polygon class="st36" points="759.3,517.7 777.5,524 802.5,517.7 817,524 840.3,517.7 819,530.3 802.5,524 777.5,530.3 		"/>
	</g>
</g>
<g id="LOGO" class="st1">
	<g id="Logo" class="st3">
		<g>
			<circle class="st37" cx="487.6" cy="193.3" r="111.5"/>
			
				<use xlink:href="#BoilerCamp"  width="300" height="300" id="XMLID_1_" x="-150" y="-150" transform="matrix(0.7767 0 0 -0.7767 487.9471 194)" style="overflow:visible;"/>
		</g>
		<g>
			<polygon class="st38" points="383.4,368.5 598,360.1 598,385.8 577.6,391 598,391 598,408.9 383,413.4 383,392.9 387.4,386.7 
				383,381.4 			"/>
			<polygon class="st39" points="383.4,364.9 598,356.5 598,382.3 577.6,388 598,388 598,405.4 383,409.8 383,389.4 387.4,383.2 
				383,377.8 			"/>
			<rect x="405.5" y="376.9" class="st40" width="165.8" height="24.9"/>
			<text transform="matrix(1 0 0 1 449.3862 392.0728)" class="st41 st42 st43">SIGN UP</text>
		</g>
	</g>
</g>
</svg>
